<svg xmlns="http://www.w3.org/2000/svg">
<defs>
<font id="StudioBrushDEMO-Regular" horiz-adv-x="548" >
  <font-face 
    font-family="Studio Brush DEMO"
    font-weight="400"
    font-stretch="normal"
    units-per-em="1000"
    panose-1="0 0 0 0 0 0 0 0 0 0"
    ascent="800"
    descent="-200"
    x-height="676"
    cap-height="666"
    bbox="-48.1429 -189 900 909"
    underline-thickness="0"
    underline-position="0"
    unicode-range="U+000D-U+20AC"
  />
<missing-glyph horiz-adv-x="920" 
d="M333 354l-1 4l2 2h4v2l-4 6h8l1 1h73l-47 54h-1v2l-5 6l6 1l2 2l-2 3v2l-3 1h-5l-2 3l-2 2l1 5l7 2l2 3l-1 3l-2 2l-6 -4h-2l-2 -3h-1l1 -2h-7v2l1 2l-5 -1l-2 1l-96 113v4l1 -1l2 -3v-1l3 -2l-2 -1l2 -1v-2h2l3 -1l1 -1h-1l10 -12v-2l4 -2h1l3 -5l1 -2l-1 1l-1 2l-2 1
v-1l4 -4l2 1l1 -3l2 1l1 -2v-1l2 -2l1 -2h2v-2l3 -3h2l-1 -1h1v2l-3 2l-1 1h1l-3 2v1l-1 1l-1 2l-5 4v1l-10 10v2l-3 1l-2 3v1l-2 1l-8 10l-5 4v1l-2 2v1l1 1h-2l-1 -1v1l-1 -1l-2 -1l-2 2l-32 25l-2 1l-3 2l-22 34l-5 13v3l-1 5l-1 3l-2 1v4l-4 8v3l1 1l2 1v1h3l4 -1h5
l3 -1l2 -2h4l12 -10l3 -2l12 -10l6 -7l4 -3l10 -11l2 -1l7 -10l3 -2l13 -24h2l1 -1l1 -2l35 -36l2 -1l6 -8l1 -2l5 -2v-2l1 -2l5 -4l2 -2h1l1 -2l-1 -1l3 -1l1 -2l3 -3h1l-1 -1l2 -1v-1h1l5 -5h1l2 -4l5 -4l1 -2l2 -1l1 -2l3 -4l1 -1l4 -2l1 -3l2 -2l2 -3l3 -2l1 -2h1l2 -1
l1 -2l4 -3l8 -12l1 -1v2l4 -2l4 -4v-2l8 -7l15 -16l1 -2l26 -26l18 -22l18 22l26 26l1 2l15 16l8 7v2l4 4l4 2v-2l1 1l8 12l4 3l1 2l2 1h1l1 2l3 2l2 3l2 2l1 3l4 2l1 1l3 4l1 2l2 1l1 2l5 4l2 4h1l5 5h1v1l2 1l-1 1h1l3 3l1 2l3 1l-1 1l1 2h1l2 2l5 4l1 2v2l5 2l1 2l6 8
l2 1l35 36l1 2l1 1h2l13 24l3 2l7 10l2 1l10 11l4 3l6 7l12 10l3 2l12 10h4l2 2l3 1h5l4 1h3v-1l2 -1l1 -1v-3l-4 -8v-4l-2 -1l-1 -3l-1 -5v-3l-5 -13l-22 -34l-3 -2l-2 -1l-32 -25l-2 -2l-2 1l-1 1v-1l-1 1h-2l1 -1v-1l-2 -2v-1l-5 -4l-8 -10l-2 -1v-1l-2 -3l-3 -1v-2
l-10 -10v-1l-5 -4l-1 -2l-1 -1v-1l-3 -2h1l-1 -1l-3 -2v-1h2l3 3v2h2l1 2l2 2v1l1 2l2 -1l1 3l2 -1l4 4v1l-2 -1l-1 -2l-1 -1l1 2l3 5h1l4 2v2l10 12h-1l1 1l3 1h2l-90 -106l-2 -1l-5 1l1 -2v-2h-7l1 2h-1l-2 3h-2l-6 4l-2 -2l-1 -3l2 -3l7 -2l1 -5l-2 -2l-2 -3h-5l-3 -1v3

<glyph glyph-name=".notdef" horiz-adv-x="920" 
d="M333 354l-1 4l2 2h4v2l-4 6h8l1 1h73l-47 54h-1v2l-5 6l6 1l2 2l-2 3v2l-3 1h-5l-2 3l-2 2l1 5l7 2l2 3l-1 3l-2 2l-6 -4h-2l-2 -3h-1l1 -2h-7v2l1 2l-5 -1l-2 1l-96 113v4l1 -1l2 -3v-1l3 -2l-2 -1l2 -1v-2h2l3 -1l1 -1h-1l10 -12v-2l4 -2h1l3 -5l1 -2l-1 1l-1 2l-2 1
v-1l4 -4l2 1l1 -3l2 1l1 -2v-1l2 -2l1 -2h2v-2l3 -3h2l-1 -1h1v2l-3 2l-1 1h1l-3 2v1l-1 1l-1 2l-5 4v1l-10 10v2l-3 1l-2 3v1l-2 1l-8 10l-5 4v1l-2 2v1l1 1h-2l-1 -1v1l-1 -1l-2 -1l-2 2l-32 25l-2 1l-3 2l-22 34l-5 13v3l-1 5l-1 3l-2 1v4l-4 8v3l1 1l2 1v1h3l4 -1h5
l3 -1l2 -2h4l12 -10l3 -2l12 -10l6 -7l4 -3l10 -11l2 -1l7 -10l3 -2l13 -24h2l1 -1l1 -2l35 -36l2 -1l6 -8l1 -2l5 -2v-2l1 -2l5 -4l2 -2h1l1 -2l-1 -1l3 -1l1 -2l3 -3h1l-1 -1l2 -1v-1h1l5 -5h1l2 -4l5 -4l1 -2l2 -1l1 -2l3 -4l1 -1l4 -2l1 -3l2 -2l2 -3l3 -2l1 -2h1l2 -1
l1 -2l4 -3l8 -12l1 -1v2l4 -2l4 -4v-2l8 -7l15 -16l1 -2l26 -26l18 -22l18 22l26 26l1 2l15 16l8 7v2l4 4l4 2v-2l1 1l8 12l4 3l1 2l2 1h1l1 2l3 2l2 3l2 2l1 3l4 2l1 1l3 4l1 2l2 1l1 2l5 4l2 4h1l5 5h1v1l2 1l-1 1h1l3 3l1 2l3 1l-1 1l1 2h1l2 2l5 4l1 2v2l5 2l1 2l6 8
l2 1l35 36l1 2l1 1h2l13 24l3 2l7 10l2 1l10 11l4 3l6 7l12 10l3 2l12 10h4l2 2l3 1h5l4 1h3v-1l2 -1l1 -1v-3l-4 -8v-4l-2 -1l-1 -3l-1 -5v-3l-5 -13l-22 -34l-3 -2l-2 -1l-32 -25l-2 -2l-2 1l-1 1v-1l-1 1h-2l1 -1v-1l-2 -2v-1l-5 -4l-8 -10l-2 -1v-1l-2 -3l-3 -1v-2
l-10 -10v-1l-5 -4l-1 -2l-1 -1v-1l-3 -2h1l-1 -1l-3 -2v-1h2l3 3v2h2l1 2l2 2v1l1 2l2 -1l1 3l2 -1l4 4v1l-2 -1l-1 -2l-1 -1l1 2l3 5h1l4 2v2l10 12h-1l1 1l3 1h2l-90 -106l-2 -1l-5 1l1 -2v-2h-7l1 2h-1l-2 3h-2l-6 4l-2 -2l-1 -3l2 -3l7 -2l1 -5l-2 -2l-2 -3h-5l-3 -1v3
h-2l-2 3l-3 2l-1 -6l-3 -2l2 -1h2l3 3l4 -2v-2l-2 -3l2 -2l6 -1l-5 -6v-2h-1l-49 -57h13l2 1l5 -1h13l4 -1h3v-2l3 1h29v-1l55 -1l1 -1h23l1 1l19 -1h2l23 1l2 -1h23l5 -1h10l1 1l1 -1l5 1l2 -2l6 2l1 -1l4 1l7 -1h4l1 1l17 -1l2 1l6 -2h2l4 1h1l6 -1h1l11 1l1 -2l3 1l2 1
l31 -1l3 1h1l23 -1l5 -1l6 -7l1 -6l-2 -6l-4 -5l-6 -3l-2 1h-75l-1 -1l-68 -1h-1l-47 1v-1l-94 -1l-1 1l-50 -2l-1 -1l-9 1v-1l-2 1l-2 -1l-25 -1l3 -4l2 -1l10 -14l1 -2l2 -1v-1l6 -6v-1l32 -39h1l12 -14v-1l49 -57v-1l12 -14l1 -1l18 -20l1 -1l43 -51v-1l45 -51l1 -1l3 -5
l3 -1l2 -6l-1 -7l-4 -5l-5 -3h-9l-4 3l-16 17l-1 1l-1 2l-1 1l-9 10v1l-11 11l-1 2l-2 3h-1l-7 9h-1l-4 5h-1l-2 4l-1 1l-5 4l-1 2l-12 12v1l-2 2v1l-5 5l-2 3l-2 1l-2 4l-3 2l-2 3l-2 1v1l-6 7l-4 3l-4 6h-1l-4 5h-1l-5 7l-2 1l-15 18l-1 1l-13 14v1l-16 17h-1l-3 5l-1 1
l-33 35h-1l-5 6v1l-14 15l-1 2l-1 -1l-2 3l-3 2l-9 10l-4 3l-1 2l-22 24l-2 -1l-2 1l-22 -24l-1 -2l-4 -3l-9 -10l-3 -2l-2 -3l-1 1l-1 -2l-14 -15v-1l-5 -6h-1l-33 -35l-1 -1l-3 -5h-1l-16 -17v-1l-13 -14l-1 -1l-15 -18l-2 -1l-5 -7h-1l-4 -5h-1l-4 -6l-4 -3l-6 -7v-1
l-2 -1l-2 -3l-3 -2l-2 -4l-2 -1l-2 -3l-5 -5v-1l-2 -2v-1l-12 -12l-1 -2l-5 -4l-1 -1l-2 -4h-1l-4 -5h-1l-7 -9h-1l-2 -3l-1 -2l-11 -11v-1l-9 -10l-1 -1l-1 -2l-1 -1l-16 -17l-4 -3h-9l-5 3l-4 5l-1 7l2 6l3 1l3 5l1 1l45 51v1l43 51l1 1l18 20l1 1l12 14v1l49 57v1l12 14
h1l32 39v1l6 6v1l2 1l1 2l10 14l2 1l-43 2h-2l-22 1l-11 2l-1 -2h-6l-4 2l2 1h-2l-14 -2l-5 2l-2 -1l-2 1l-1 1l-2 -1l-4 1h-6l-3 -2l-4 2h-6l-3 -1l-2 1l-2 -1l-6 2l-4 -1h-8l-1 2l-1 -1l-2 1v-1h-7l-3 1v-1h-2v1h-12l-1 -2l-5 3h-2l-10 -1l-2 1l-50 2h-4l-1 1l-27 -6l-3 1
l-12 -1l-2 1h-15l-5 2l-9 -1l-16 2l-3 2l-16 2l-3 3h-3l-1 2l-10 8l1 1l-1 2v2l4 2l8 2l3 2h2l3 1l4 2l2 2l14 5l40 6l3 -1l2 -1l41 -8h2v-4l1 1v-1l1 -2v2h4v1l7 -2l13 2l2 -2v1h4l3 -1l1 1l14 -1l1 1l6 -2l2 1h2l1 1l3 -1l-1 1h2l-1 1l-2 -1v1h-5l-2 -1h-2v2l-4 -1l1 2h-6
l-1 -1h4l-7 -1l-1 1l-3 1l-1 -1l-17 -1h-1l-2 1l-1 2l139 2l2 -1l3 -4v2h2l5 -4l-2 -1l-1 -1v-3l1 -2l2 -7h2l3 2l1 3l-4 6l4 5l3 -1h4l5 -5l-2 -2l1 -1l-1 -4l1 -3l5 3l4 -1l-1 2l-1 1zM663 587v2h-2l-2 4v-3l3 -4h-1l-47 -49l-2 -3l-35 -36l3 2l-1 -2l-2 -1l-14 -13l1 -1
l-4 -3l-3 -4l-1 -1v-4l4 -3v4l5 3l1 2l7 8l2 3l4 3l1 1l8 9l2 1l-4 -5v-1l3 3l1 3l25 28l1 1l35 38l2 1l3 4l2 2l5 6l1 2l-2 2zM261 589v-2l1 -1l-2 -2l1 -2l5 -6l2 -2l3 -4l2 -1l35 -38l1 -1l25 -28l1 -3l3 -3v1l-4 5l2 -1l8 -9l1 -1l4 -3l2 -3l7 -8l1 -2l5 -3v-4l4 3v4
l-1 1l-3 4l-4 3l1 1l-14 13l-2 1l-1 2l3 -2l-35 36l-2 3l-47 49h-1l3 4v3l-2 -4h-2zM151 345v-3l1 -1l68 -3l3 1l51 -3l-4 1l2 1l2 -1l19 -3v2l5 -1l5 1h2l3 1l-1 5l-3 -1l-6 1l-2 -1l-10 1l-4 -1l-5 2h-1l-12 -1l-2 2l-38 -1h-1l-52 2l-2 1l-5 -1h-3l-8 1zM256 577l-2 -2
l1 -2l3 -2l1 -1h-2l2 -1l1 -3l4 -3l2 -2l2 -1l1 -1l3 -5l2 -1v-2l1 1l-1 -2l2 -1l1 -2h3l4 -4l-1 -1l1 -2h1v1h2l-15 16l-2 3l-9 9zM670 575l-2 2l-5 -8l-9 -9l-2 -3l-15 -16h2v-1h1l1 2l-1 1l4 4h3l1 2l2 1l-1 2l1 -1v2l2 1l3 5l1 1l2 1l2 2l4 3l1 3l2 1h-2l1 1l3 2z
M154 356v-3l10 1l12 -1l4 1l22 -1l-2 2h1l-1 1l-2 -1v-1h-5l-3 2h-2l-2 1v-1l-2 -1l-2 1l-6 -2h-1l-2 2h-3l-5 1l-3 -2l-2 2l1 -2l-1 1h-6zM376 467l-2 -1l4 -12l2 2l2 4l-2 4zM550 466l-2 1l-4 -3l-2 -4l2 -4l2 -2zM315 337l1 -2l5 -1h4l2 5v2zM543 451v3l-2 2h-1v-3h-2v3
l-1 -1l-1 -2l-4 -1l5 -5h1l2 3l1 4l1 -3h1zM381 454v-3h1l1 3l1 -4l2 -3h1l5 5l-5 1h1l-1 2l-1 1v-3h-2v3h-1zM369 439l4 2l3 -3h2l2 1l-3 2l-1 6l-3 -2l-2 -3h-2v-3zM331 341l-2 -2v-3l3 2l1 -2l-2 -2h1l2 1v1l4 -4v7l-1 1h-3l-4 -2l2 3h-1zM679 568l-6 -7v2l2 1l-2 1l3 2
v1l2 3l1 1v-4zM150 364l4 3h6l-1 -2h-4l-3 -1h-2zM636 537l1 3l-3 -2l-2 -2v-1h-1v-2h1l2 2v2h2zM288 538v-1h2v-2l2 -2h1v2h-1v1l-2 2l-3 2zM150 342l-2 -1l2 -2l-3 -4l4 2v5h-1zM205 354h-3l4 -2h3l1 1v-1l2 2h-4l-1 -1zM311 342v-5h1l1 3l1 1l-1 1h-2zM371 469l-4 -4
l1 -1h2v2l1 2v1zM295 531l-1 -1l3 -3l2 -1v-1h1l-1 2l-3 1l1 1zM630 530l-1 1l-2 -2l1 -1l-3 -1l-1 -2h1v1l2 1zM557 465l-4 3l1 -2v-2h2zM254 579l-4 -5l4 3v2zM339 467l-1 4l-1 -2l2 -3v1zM674 574l-4 5v-2zM321 488l6 -7h1zM586 471l-1 -5l2 3zM269 344h-7l6 -1zM161 365
l-1 2h3zM152 359v-6l1 1zM618 504v2l-2 -1l1 -1h1zM306 506v-2h1l1 1zM258 362l1 -1l1 1v1zM242 363l-2 -1l2 -1v2zM294 519l-1 1l-1 -1h1l1 -1v1zM319 492h-1v-1h1v1zM302 524h-1l1 -2v2zM606 492h-1v-1h1v1zM623 524h-1v-2zM631 520v-1h1z" />
    <glyph glyph-name=".null" horiz-adv-x="0" 
 />
    <glyph glyph-name="nonmarkingreturn" horiz-adv-x="333" 
 />
    <glyph glyph-name="NULL" horiz-adv-x="0" 
 />
    <glyph glyph-name="NULL" horiz-adv-x="0" 
 />
    <glyph glyph-name="CR" unicode="&#xd;" horiz-adv-x="270" 
 />
    <glyph glyph-name="space" unicode=" " horiz-adv-x="270" 
 />
    <glyph glyph-name="exclam" unicode="!" horiz-adv-x="181" 
d="M26 207q-1 26 -1 166q0 38 -2.5 136t-2.5 151q0 3 0.5 21.5t0.5 21.5q1 1 3 6t4.5 7.5t7.5 2.5l4 -1q4 -1 14 -1q19 -2 30 -4t28 -7t26 -12t16 -19.5t7 -29.5q0 -20 -1 -41.5t-2.5 -48.5t-2.5 -42v-40t-0.5 -47.5t-2.5 -40.5q-8 -104 -8 -118q0 -7 2.5 -20t2.5 -19
q0 -15 -8.5 -24.5t-17.5 -12.5t-26 -6h-3q-23 -5 -42 -5h-14q-5 1 -7 6t-3 11.5t-2 9.5zM25 16v60q-2 4 -2 7l2 2v2q-2 0 -2 5q0 13 20 17t24 10l-1 2l1 2h2q9 -5 26 -7t21 -3q3 -1 4.5 -4.5t3.5 -4.5q4 -2 11 -2.5t10 -4.5v-11q0 -18 -1 -28q0 -3 -3.5 -9t-3.5 -10v-1h1
q20 -7 20 -16q0 -14 -8 -18q-23 -16 -90 -16q-19 0 -24 4t-5 11.5t-6 12.5z" />
    <glyph glyph-name="quotedbl" unicode="&#x22;" horiz-adv-x="351" 
d="M54 438q1 0 2 3.5t4 5.5h-7q0 4 -9 -4v4q0 18 8 21q10 4 26 64.5t0 65.5q-31 9 -51 21q-7 12 -7 20v1q1 2 2.5 9t3.5 13t4 9l12 14l2 4q18 24 33 29q1 0 21 4h1q3 0 11 -4l1 -1q1 -1 2 -1q34 -20 43 -40l3 -15q3 -15 4 -19v-10l-1 -8q-1 -7 -1 -8l1 -4q1 -4 1 -5v-6
q0 -32 -17 -64l-2 -2v-5q-1 -4 -3 -5q-2 -5 -42 -67l-5 -6q-1 -1 -2 -3.5t-4 -5.5q-5 -4 -16.5 -5t-14.5 -7q0 8 -3 7zM43 441q1 0 1 -1.5t-1 -1.5t-1 1.5t1 1.5zM84 473q-2 -1 -2 -3v-2zM62 431q0 -2 -2 0q0 1 1 1t1 -1zM222 443q1 0 2 3.5t4 5.5h-7q0 4 -9 -4v4q0 18 8 21
q10 4 26 64.5t0 65.5q-31 9 -51 21q-7 12 -7 20v1q1 2 2.5 9t3.5 13t4 9l12 14l2 4q18 24 33 29q1 0 21 4h1q3 0 11 -4q0 -1 1 -1t2 -1q34 -20 43 -40l3 -15q3 -15 4 -19v-10l-1 -7q-1 -8 -1 -9t1 -5l1 -4v-6q0 -32 -17 -64l-2 -2v-4q-1 -5 -3 -6q-2 -5 -42 -67l-5 -6
q-1 -1 -2 -3.5t-4 -5.5q-5 -4 -16.5 -5t-14.5 -7q0 8 -3 7zM211 446q1 0 1 -1.5t-1 -1.5t-1 1.5t1 1.5zM252 478q-2 -1 -2 -3v-2zM230 436q0 -2 -2 0q0 1 1 1t1 -1z" />
    <glyph glyph-name="dollar" unicode="$" horiz-adv-x="454" 
d="M195 -96q0 4 -0.5 23t-0.5 22v49q-6 -1 -19 -1q-37 0 -70 22.5t-47 57.5q-13 32 -13 72q0 25 7 61.5t21 35.5q31 -1 45.5 -13.5t17 -33t3.5 -42t13 -44t39 -36.5h8q19 0 32 14.5t19 35.5t8.5 40t1.5 34q-3 47 -34 67q-3 2 -9.5 4.5t-9.5 4.5l-85 50q-116 50 -100 180v2
q0 85 72 141l14 10q6 6 17 9q15 5 45 11v11q0 3 -1 26t-1 25v23q1 2 3.5 9t4 10l3.5 7t4.5 6t5.5 2q4 0 11.5 -3t11.5 -3q2 0 6 1.5t6 1.5q4 0 11.5 -7.5t7.5 -13.5q0 -4 -3 -5.5t-3 -6.5v-1l1 -2l1 -2l-1 -4v-1q0 -3 4 -13.5t5 -15.5q3 -12 3 -43q12 -2 16 -4q3 -1 9 -5.5
t10 -5.5l55 -25q40 -26 55.5 -57t15.5 -81q0 -20 -15 -31t-34 -11q-71 0 -87 32q0 13 -5 63q-3 21 -15.5 34.5t-31.5 13.5q-25 0 -47 -24q-19 -26 -20.5 -56.5t7.5 -50.5t19 -26q22 -24 53 -42.5t57 -29t56 -33.5t52 -56q34 -53 34 -110q0 -18 -9.5 -38t-11.5 -32
q-1 1 -4.5 1t-4.5 -1q-1 -6 -1 -7l-12 -13h-2q-3 0 -4 2q-16 -24 -27 -35q0 -5 -6 -8l-35 -21q-22 -12 -45 -17v-16q0 -1 -1 -17t-1 -18v-59q-2 -19 -16 -36l-2 -3l-4 -6l-2 -2q0 -2 -10 -5q-2 0 -12 -3.5t-16 -3.5q-9 0 -13 63v3z" />
    <glyph glyph-name="quotesingle" unicode="'" horiz-adv-x="183" 
d="M54 438q1 0 2 3.5t4 5.5h-7q0 4 -9 -4v4q0 18 8 21q10 4 26 64.5t0 65.5q-31 9 -51 21q-7 12 -7 20v1q1 2 2.5 9t3.5 13t4 9l12 14l2 4q18 24 33 29q1 0 21 4h1q3 0 11 -4l1 -1q1 -1 2 -1q34 -20 43 -40l3 -15q3 -15 4 -19v-10l-1 -8q-1 -7 -1 -8l1 -4q1 -4 1 -5v-6
q0 -32 -17 -64l-2 -2v-5q-1 -4 -3 -5q-2 -5 -42 -67l-5 -6q-1 -1 -2 -3.5t-4 -5.5q-5 -4 -16.5 -5t-14.5 -7q0 8 -3 7zM43 441q1 0 1 -1.5t-1 -1.5t-1 1.5t1 1.5zM84 473q-2 -1 -2 -3v-2zM62 431q0 -2 -2 0q0 1 1 1t1 -1z" />
    <glyph glyph-name="parenleft" unicode="(" horiz-adv-x="290" 
d="M165 265q14 -80 35 -152q0 -9 3 -14q17 -30 26 -30q7 0 20 6q16 1 19.5 -28t-3.5 -49q-38 -9 -62 -9q-102 0 -139 103l-2 10q-1 10 -3 14q-1 1 -4.5 2t-4.5 3q-3 5 -11 49q-19 92 -19 176q0 141 67 266q13 25 52 52t67 27q1 0 28 -3q11 -6 17.5 -27.5t-8.5 -30.5l-5 -3
q-8 -4 -16.5 -5.5t-13 -4t-10.5 -12.5l-17 -24q0 -1 -7.5 -13.5t-8.5 -14.5q-13 -20 -13 -25q1 -15 -1.5 -40.5t-2.5 -36.5v-16q0 -1 2 -14.5t2 -15.5q5 -81 7 -103q1 -4 1.5 -12t1.5 -14t3 -11z" />
    <glyph glyph-name="parenright" unicode=")" horiz-adv-x="290" 
d="M125 265q2 5 3 11t1.5 14t1.5 12q2 22 7 103q0 2 2 15.5t2 14.5v16q0 11 -2.5 36.5t-1.5 40.5q0 5 -13 25q-1 2 -8.5 14.5t-7.5 13.5l-17 24q-6 10 -10.5 12.5t-13 4t-16.5 5.5l-5 3q-15 9 -8.5 30.5t17.5 27.5q27 3 28 3q28 0 67 -27t52 -52q67 -125 67 -266
q0 -84 -19 -176q-8 -44 -11 -49q-1 -2 -4 -3q-4 -1 -5 -2q-2 -4 -3 -14l-2 -10q-37 -103 -139 -103q-24 0 -62 9q-7 20 -3.5 49t19.5 28q13 -6 20 -6q9 0 26 30q3 5 3 14q21 72 35 152z" />
    <glyph glyph-name="asterisk" unicode="*" horiz-adv-x="277" 
d="M227 473q-12 -8 -31 17q-2 2 -2 3q-16 18 -35 48l-4 4q-2 2 -4.5 4t-3.5 3q-2 2 -2.5 4t-1.5 3q0 -1 -0.5 -3t-1.5 -4q-1 -1 -4 -3t-5 -4l-3 -4q-29 -41 -35 -48q0 -1 -1 -1l-1 -2q-19 -25 -31 -17q-2 4 -4 6q-11 11 -11 12t0.5 3t-2.5 4q2 1 3.5 5t2.5 5q30 44 57 73
q-2 1 -5 3t-4 2l-1 1q-21 12 -48 34q-5 2 -5 3q-2 1 -11 4q-1 1 -2.5 3t-3.5 3q-1 1 -1 2q-11 5 0 25l1 1l2 2l1 1q3 4 5.5 4.5t6 -0.5t6.5 0t4 1q4 -3 4 -4q22 -12 62 -40q-1 19 1 58q-1 4 0 5q-2 10 -2 11q-1 2 0 4.5t1 3.5v3q-1 13 24 13h1h2q5 0 6.5 -2t3 -5.5t3.5 -5.5
l3 -3l-1 -5q3 -26 3 -78q31 21 58 36l4 4l4 -1q3 -1 6.5 0t6 0.5t5.5 -4.5l1 -1q0 -1 2 -1l1 -1q11 -20 0 -26l-1 -1q-2 -1 -3.5 -3.5t-2.5 -3.5q-9 -3 -11 -4l-5 -3q-27 -22 -48 -34q0 -1 1 -1q33 -38 56 -73q1 -1 2.5 -5t3.5 -5q-1 -1 -1 -7l-12 -12z" />
    <glyph glyph-name="plus" unicode="+" horiz-adv-x="397" 
d="M129 159q0 1 0.5 2t0.5 2v2l-1 2v10q-1 1 -1 4q0 2 0.5 5.5t0.5 5.5q0 17 1.5 52t1.5 53q-9 0 -25.5 -2t-24.5 -2q-4 0 -16 5q-10 0 -14 2h-9q-9 3 -16 14.5t-7 21.5q0 2 2.5 6.5t2.5 7.5q0 1 -1 3.5t-1 4.5h2q1 0 1 8q0 3 -2 7t-2 6q0 7 9.5 19.5t15.5 12.5
q11 0 34.5 -0.5t34.5 -0.5h25l4 1q5 38 5 55v4v17q-4 2 -5 8.5t-3 7.5q6 0 3 5l-1 6v2q0 4 8 9.5t8 8.5l3 -1q17 0 17 -2q2 0 13 -0.5t16 -1t15 -2t15 -4.5t11.5 -6.5t9 -10t2.5 -14.5q0 -31 -6 -53l-7 -20q0 -6 -3 -6l2 -2q11 -1 15 -1h45q22 4 31 4h7l4 -1q9 -2 14 -8
q1 3 5 3h2q5 -5 5 -16q0 -23 -5 -25q0 -1 -0.5 -5.5t-0.5 -6.5q0 -1 -7 -20.5t-8 -21.5q-8 1 -15.5 0t-16.5 -3t-14 -3t-29 -2t-36 -5q-1 0 -6 -43q0 -5 -1 -14.5t-2 -16.5l-1 -7l-3 -3v-53q0 -8 -7.5 -11.5t-18.5 -5t-14 -3.5h-17q-42 0 -45 16zM160 531q-1 0 -1 -1t1 -1v2
z" />
    <glyph glyph-name="comma" unicode="," horiz-adv-x="171" 
d="M40 -107h-1q-1 0 -3 -2t-3 -2v1q1 2 1 6.5t2 7.5q2 4 7 9.5t6 8.5q9 16 22 46q13 32 13 45v2q-8 -12 -23 -12t-28 8.5t-13 22.5q0 27 18 49.5t44 22.5q25 0 39 -6q0 -2 1 -2l12 -13l6 -3q29 -50 -13 -128q-2 -3 -9.5 -18t-12.5 -21l-9 -9q-5 -3 -6 -3l-1 -2l-21 -7
q-3 -1 -9.5 -6t-9.5 -5q-5 0 -9 10z" />
    <glyph glyph-name="hyphen" unicode="-" horiz-adv-x="386" 
d="M35 314l-13 37q-2 8 -2 9q0 4 9.5 14.5t13.5 12.5q1 0 8.5 0.5t9.5 0.5q3 0 17.5 2t22.5 2h1q2 -1 3 -1h1l49 6h9q9 3 30 3h29q66 6 118 6q2 0 4.5 1t3.5 1t2.5 -1.5t3.5 -0.5q10 -20 10 -52q0 -1 -1 -2.5t-1 -2.5q0 -2 1.5 -5.5t1.5 -6.5v-2l-2 -2q1 -6 -1 -14.5
t-2 -12.5q-15 0 -43 -4t-41 -4q-34 -2 -114.5 2t-117.5 -1q0 2 -4 8t-6 7z" />
    <glyph glyph-name="period" unicode="." horiz-adv-x="151" 
d="M20 49v3q6 21 21 37.5t35 16.5q25 0 35 -14q2 -2 6 -7l6.5 -8t5 -8t2.5 -10q0 -8 -17.5 -27.5t-28.5 -19.5q-5 0 -32 9.5t-28 11.5q-1 3 -1 6t-2 5t-2 5z" />
    <glyph glyph-name="slash" unicode="/" horiz-adv-x="323" 
d="M83 0q-2 -1 -9.5 -1t-8.5 1q-27 5 -34 9q-6 2 -10 12q1 3 1 11q1 5 -0.5 13t-1.5 11q3 28 11 52l-1 -3q0 -6 -2 -15.5t-2 -11.5v-1q0 2 1.5 5.5t1.5 4.5q3 3 4 3q4 5 13 38l10 31l9 28q4 8 8 23.5l5 19.5v3q3 12 19 60q2 7 5.5 21.5t5.5 20.5l6.5 15.5t7 17t5 16
t2.5 17.5v4q-2 0 -2 4v2q1 3 8 25.5t10 36.5l75 204q11 33 30 33q4 0 11 -2t11 -2t11 2t10 2v-3q3 0 6.5 -3t2.5 -7l-4 -60q-1 -7 -8.5 -21t-8.5 -20q0 -1 -1 -8l-1 -8q-2 -9 -7.5 -23.5t-6.5 -22.5l-59 -175q-4 -8 -11.5 -36.5t-12.5 -39.5l-25 -82q-1 -4 -2 -4t-2 -2
l-8 -14q-2 -2 -3.5 -8.5t-3.5 -8.5l-9 -12l-6 -24l-7.5 -14.5t-7.5 -22.5v-1l1 2q1 1 5.5 12.5t5.5 12.5q4 11 5 11h2q-2 -3 -8 -30q-1 -4 -3.5 -11t-2.5 -9q-1 -5 -2.5 -15t-2.5 -15q0 -3 -2.5 -12t-2.5 -15q-5 -3 -6 -10t-2 -8h-5q-1 0 -1 -3t-2 -3q-3 0 -4 3zM131 417
q-1 -1 -1 -4q2 1 1 4zM33 117l1 -2q0 -3 -2 -4v2q1 3 1 4zM136 435q-1 0 -1 -2t1 -2t1 2t-1 2zM136 429q-1 -1 -1 -3q1 1 1 3zM134 422q-1 0 -1 -1.5t1 -1.5t1 1.5t-1 1.5zM129 413q-1 0 -1 -1.5t1 -1.5t1 1.5t-1 1.5z" />
    <glyph glyph-name="zero" unicode="0" horiz-adv-x="509" 
d="M431 83q-1 0 -1 -1.5t1 -1.5q-12 -14 -31 -32q-3 -1 -10.5 -6.5t-11.5 -7.5q-1 0 -6.5 -2t-6.5 -2q-8 -2 -26 -8l-21 -7q-9 -4 -41 -6l-48 -8q-9 -3 -18 -3q-18 0 -64 17q-16 5 -48 33q-77 66 -79 243v35q0 6 9 74q7 46 22 82.5t44 89.5q26 46 105 103q8 7 16 7
q2 1 5.5 0t4.5 -1l2 1l3 2l3 3h1q2 -1 5 -4t6 -5t6 -2h2l2 1q18 3 28 4t31.5 -0.5t37 -9.5t35.5 -26.5t37 -46.5v-4q3 -3 9 -6t10 -6.5t4 -10.5h-4l-4 -3l7 -8q1 0 2 0.5t2 0.5h2q5 -2 8 -9v-1q0 -1 -1.5 -3.5t-0.5 -4.5q0 -1 1 0q2 0 2 3l4 -2q-2 -3 -3 -4q0 -5 -2 -9v-2
q3 -3 6 -3q4 -6 4 -20l8 -60l1 -3l1 -3l2 -1v-11h1q0 -11 2.5 -32t2.5 -31v-32q0 -22 -4 -28q0 -9 -1 -17.5t-2.5 -18.5l-2.5 -17q0 -2 0.5 -15t0.5 -15q0 -9 -4 -17v-13l-2 -2q-9 -67 -42 -108zM194 126q1 -1 4 -7t5.5 -9.5t6.5 -7t8 -3.5q5 0 16 3.5t17 3.5h1q1 0 6 -1.5
t6 -1.5h1q13 0 21 11q7 -4 18 17q1 4 3.5 12.5l4.5 15.5t2 9q9 27 9 41l14 160q2 7 2 15q0 3 -1.5 6t-1.5 5q0 6 2 11l-6 37v18q-2 11 -6.5 26.5t-5.5 23.5q-2 -1 -6 1q3 6 3 11v3l-16 15q-1 -1 -3 2.5t-3 2.5q0 4 -6.5 16.5t-10.5 13.5q-15 -15 -56 -72l-2 -2
q-33 -50 -42 -105t-9 -137q0 -69 25 -134zM450 571q1 0 1 -2t-1 -2q1 0 1 -2t-1 -2q-2 0 -2.5 1.5t1.5 2.5q-2 0 -1.5 2t2.5 2zM453 552l2 -2q0 -1 1 -1q0 1 1 1l-2 2h-2zM466 538q1 -2 1 -3l-1 -2v5zM431 80q3 0 1 2z" />
    <glyph glyph-name="one" unicode="1" horiz-adv-x="309" 
d="M157 9q-6 4 -6 11q0 5 6 5q0 1 1 4q-2 2 -6 3.5t-4 7.5q0 3 2.5 3.5t2.5 2.5v1q-9 0 -9 4h5q-1 2 -2.5 4.5t-2.5 5t-1 5.5q-1 16 -1 110q0 46 3 139t3 140q0 5 -4.5 11.5t-4.5 11.5h-1q-3 0 -8.5 -3t-7.5 -3q-2 -1 -15 -4.5t-15 -4.5q-7 -2 -29 -2h-19q-17 2 -24 14l3 2
v1l-1 3l-2 3v2q1 2 2 3q-2 1 -2 6v1q17 11 32 25.5t36 41.5l25 32l2 2q2 4 3 4l21 32q12 24 13 25q8 15 17 15q12 0 30.5 -10t23.5 -12q2 -1 17.5 -5.5t23.5 -8t16.5 -11.5t8.5 -17v-4q0 -6 -5 -16v-35q0 -7 -4 -63.5t-4 -62.5l-1 -337q0 -3 -0.5 -24t-0.5 -29q-6 20 -10 6
q-5 -22 -7 -24t-2 -7q-10 0 -29 -2.5t-28 -2.5q-8 0 -20 0.5t-21 0.5z" />
    <glyph glyph-name="two" unicode="2" horiz-adv-x="442" 
d="M45 34q-4 8 -4 9v1l4 3q0 3 -3 5q2 2 2 11t-2 12q0 3 -2.5 8.5t-2.5 9.5q0 1 4.5 5t5.5 8l7 36q18 60 24 72l19 45l46 84l3 3q2 4 5 8.5t4 5.5q10 22 32 46q1 3 4 8t5 9.5t1 8.5v1q-3 0 -4 1l1 2l18 25q27 31 30 41l6 19q1 1 8 13.5t9 14.5q-1 4 0.5 13t1.5 12
q-2 20 -22.5 23t-41 -11t-22.5 -34h2q0 -14 -6 -15l3 -2l-2 -2q-3 -28 -4 -33q-6 -1 -6 -11q-3 0 -10.5 -10.5t-15.5 -13.5q-5 -4 -8.5 -4.5t-9.5 1t-10 1.5l-1 -3q4 -4 4 -6h-18l-2 1q-1 0 -2 0.5t-2 0.5h-10q-1 0 -4 1.5t-4 1.5q-4 0 -4 -2h-3q-1 0 -13 4q-1 0 -6.5 1
t-9.5 2t-8.5 3t-7 4.5t-2.5 6.5l5 7l5 -2l4 -2q0 1 -1 2.5t-2 2.5l-1 2l1 3l-2 2l1 13q7 67 35 111l2 1h2q3 -1 5 -1q9 6 18.5 20.5t15.5 20.5q45 43 130 41q79 -1 122.5 -54.5t38.5 -123.5q-3 -40 -39 -99l-2 -4q-9 -20 -14 -22l-36 -49l2 -2l-71 -90q-3 -4 -7.5 -14
t-7.5 -14q-7 -12 -12 -23.5t-10 -27t-9 -24.5q-1 -3 -3 -12.5t-4 -13.5q1 0 5 1l4 1q18 0 56 2t57 2.5t56 -1.5q18 0 30 -3q5 -1 11.5 -4t9.5 -4l-3 -6q1 0 3 2h1q5 -18 5 -40v-4q-4 -47 -14 -52q-3 0 -11 -5q-4 -1 -12 -4.5t-13.5 -4.5t-15.5 0l-5 2l-3 1q-3 0 -41 -3
q-13 -1 -34.5 0t-27.5 1q-7 0 -9 -1l-5 -1q-1 0 -4 1l-3 1h-4q-11 1 -20 -3l-52 4q-3 -4 -12.5 -3.5t-13.5 -0.5q-11 2 -24 11l-2 2q-3 0 -12 3q-6 2 -12 6.5t-11.5 6.5t-15.5 1zM265 85l-4 -1l11 -1q7 -1 40 2q3 0 11.5 -0.5t12.5 1t6 7.5q13 -3 21 3q-7 1 -18.5 4t-18.5 4
q-15 1 -51.5 -1t-37.5 -8v-1l2 -2l8 -6zM230 32l-6 -4l61 -2l5 1q-8 4 -13 4q-2 0 -11.5 -1t-10.5 -1zM267 60q-1 -3 2 -3q1 0 6.5 1t8.5 1l-3 1h-14zM369 106q-2 0 -2 -2t2 -2h1q0 -2 1 -3q1 0 1 2.5t-1 2.5h-1q2 2 -1 2zM312 97q-2 -3 -5 -3l-3 2zM63 624v-1q-2 -3 -5 -4
v2q1 0 3 2q1 1 2 1zM313 25l-4 2l-4 -1zM56 610q1 -1 -1 -4q-2 1 1 4zM313 349q1 0 1 -1.5t-1 -1.5q-1 1 0 3zM34 491q-1 -1 1 -3q0 1 -1 3zM318 94q0 -3 -2 1q1 -1 2 -1zM256 93h2q-1 -1 -4 -1h-1q0 1 3 1zM70 614v-2q1 0 1 1t-1 1zM56 615v-1v1zM124 3h-2v1h1z" />
    <glyph glyph-name="three" unicode="3" horiz-adv-x="430" 
d="M205 2q-3 -2 -4 -2v2q0 -2 -4 -2q-3 0 -6 2.5t-4 2.5l-5 -1h-2q-26 0 -62 24h-1q-14 4 -35.5 15.5t-24.5 12.5q-11 19 -17 33q-1 2 -1 7t-2 6q-4 0 -5 4.5t-0.5 9.5t-0.5 8l-3 8q-1 3 -1.5 13.5t-4.5 14.5v21q0 6 -1 6q0 3 5 5t7 2v1v1l-2 3v1v1q4 -1 5.5 1t3.5 7t6 7
q15 10 25 9q-2 4 2 6h10q19 0 36 -13t21 -31v-9l3 -3l3 -3q4 -5 7.5 -19t3.5 -15q3 -2 3 -13q0 -2 -0.5 -6.5t-0.5 -7.5q25 -3 42.5 -5.5t30.5 5.5t21 15t13.5 23.5t8 30.5t5.5 36q0 53 -22 62q-15 0 -45 5q-23 3 -76 31q-15 13 -15 25v6q4 2 4 3t0.5 6.5t0.5 6.5q1 4 9 11
t11 9h11q4 1 7 7t6 7q31 -1 70 23q1 0 8.5 6t8.5 7q18 10 18 64v5q0 13 -2.5 31t-12.5 39t-27 22q-29 2 -49 -5t-30 -17t-15.5 -29.5t-6.5 -31t-1 -32.5v-15q-3 -1 -9 -14h-3h-3q-5 0 -9 4q-3 0 -16 -3.5t-19 -3.5q-9 0 -21.5 6t-17.5 14q-1 1 -6 28v3q0 87 43.5 143
t121.5 56q110 0 162 -64t47 -161q-3 -51 -31.5 -86.5t-65.5 -42.5q7 -7 11 -9q39 -35 65 -64q29 -35 29 -93q0 -39 -27 -79q-2 -2 -7.5 -8t-9.5 -12t-6 -11q-12 -8 -20 -20q-6 -6 -6 -7l-1 -2l-4 4q-36 -25 -44 -27q-5 -1 -19.5 -5.5t-26 -7t-20.5 -2.5q-3 0 -8 2t-6 2z
M182 8q-1 0 -1 -1.5t1 -1.5q1 1 1 2t-1 1zM50 102q0 -4 2 -4h1l-3 6v-2z" />
    <glyph glyph-name="six" unicode="6" horiz-adv-x="470" 
d="M21 197q-1 24 18 110q10 39 35 102q13 35 37 75t42 64t52 66q30 34 43 46q9 14 19 14l2 -1q28 -9 55.5 -31t28.5 -46v-8q-9 -28 -14 -36q-5 -12 -31 -45q-4 -5 -10.5 -15t-13.5 -22.5t-9 -16.5q0 -1 -1.5 -2t-1.5 -2q-23 -27 -31 -45l-21 -48q41 23 108.5 11t80.5 -33
q3 -5 15 -17t15 -21q9 -48 9 -55q-2 0 -4 5v-4q0 -4 2.5 -17.5t2.5 -20.5q1 -78 -49 -147q-39 -53 -131.5 -64.5t-151.5 24.5q-94 55 -96 180zM184 109q3 -2 11.5 -14.5t15.5 -12.5t22 6.5t17 6.5q5 0 5 -4h3q27 25 38 87q1 1 1 10q0 3 -16 75q-1 0 -2 1l-1 2q-16 11 -53 9
h-5q-33 0 -39 -19q-1 -2 -4 -15.5t-3 -14.5q-7 -26 -7 -48q0 -37 17 -69z" />
    <glyph glyph-name="seven" unicode="7" horiz-adv-x="420" 
d="M135 15q-3 -2 -9 -2q-4 0 -8 3t-10 4h-10q-42 16 -42 27q0 1 1 4t0 6q0 1 -1 4t-1 5q0 7 5 7v-11h4q0 1 -1 6.5t0 9t4 5.5q0 -6 2 -8l2 3v5v2q2 22 14 31l86 205v6l25 49q-1 6 2 14q2 6 9.5 24.5t10.5 21.5q-1 6 0 7.5l3 4.5t3 6l46 97v1q-2 0 -26 -3q-12 -2 -20.5 -2
t-19 0.5t-48 2t-84.5 2.5h-3q-28 0 -35 13l-7 51q0 2 -3.5 15.5t-2.5 18.5q2 1 2 9l4 3q4 2 8 6t5 7q2 0 14.5 2t14.5 2q5 0 32 0.5t31 0.5l187 2q16 -4 20 -4q9 -2 16 -12.5t13 -26.5t8 -20q24 -41 24 -61q0 -34 -17 -81q-8 -21 -22 -54l-51 -120l-86 -209q-9 -19 -15 -47
q-2 -5 -10 -13t-8 -15l-32 -9h-1zM69 92q1 0 1 -1.5t-1 -1.5t-1 1.5t1 1.5z" />
    <glyph glyph-name="eight" unicode="8" horiz-adv-x="452" 
d="M21 168q0 16 2 31.5t3 24.5t7.5 26t8.5 21t12 25.5t12 24.5l1 1q9 15 21 27v2q0 9 -6 25.5t-7 20.5q-8 26 -8 80q0 39 9 78q0 1 1 8t2 9q31 83 155 114q9 3 23 3q8 0 22.5 -3.5t21.5 -3.5q3 0 7.5 -4.5t7.5 -4.5h8q10 -2 22 -14l1 -1q76 -56 77 -119q0 -29 -12 -37
q5 -25 -10 -58q-2 -6 -4 -19.5t-5 -20.5q-2 -7 -5 -12.5t-7.5 -11t-7 -9t-10 -9t-9.5 -7.5t-11 -8t-11 -7v-2q0 -1 4 -3t8.5 -4t5.5 -4q2 -2 12.5 -9.5t18.5 -14.5t10 -11q1 0 1 -8l6 -4q20 -15 20 -53q5 -2 9.5 -30.5t4.5 -38.5l-4 -48q-12 -49 -78 -84q-1 0 -29 -8.5
t-33 -10.5q-11 -3 -32.5 -4t-28.5 -2q-7 0 -20.5 -1.5t-20.5 -1.5q-13 0 -30 5q-6 2 -28.5 10.5t-24.5 8.5q-46 18 -63.5 53.5t-18.5 92.5zM182 84q10 0 23.5 -2.5t21.5 -2.5q27 1 47.5 17t19.5 43q0 11 -4 35l-4 25q-2 4 -4.5 11.5t-5 13.5t-6.5 10q-1 2 -9 11t-9 10
q-5 0 -5 6v9l-9 9l-7 7t-11 10t-9 4q-16 0 -47 -84q-6 -16 -6 -17q-5 -23 -5 -43q0 -60 29 -72zM215 402q7 -5 20 -8l5 -2q26 8 41.5 26t19.5 37.5t5.5 40.5t-0.5 37v8q0 37 -11.5 52t-39.5 2q-3 -2 -11.5 -5.5t-12.5 -5.5l-11 -5.5t-10 -7.5l-7 -9t-5.5 -11.5t-1.5 -14.5
q0 -6 1 -17t1 -16v-16q-2 -4 -2 -9q0 -14 6 -43t13 -33zM273 377l1 -1q2 -2 3 -2l2 2q1 1 7.5 8.5t7.5 9.5h-2q-2 0 -10.5 -8t-8.5 -9zM306 411q0 -1 -1 -1t-1 -1v-2l2 2v2z" />
    <glyph glyph-name="nine" unicode="9" horiz-adv-x="434" 
d="M220 -1q-78 -10 -125 19q-1 1 12 23t14 23t6 1l1 5q0 4 2 5v-5q3 1 6.5 13t6.5 15q1 0 4.5 4l7.5 8.5t5 5.5t6.5 8.5l11.5 15.5t12 17t9.5 15.5t2.5 8.5q14 26 31 72q1 1 1 3t1 3l2 4q4 8 4 11h-12q-12 0 -25.5 2.5t-31 7t-27.5 6.5q-4 1 -29.5 2.5t-34.5 5.5
q-3 2 -5.5 6t-4.5 6q-30 21 -34 46q-17 107 -17 129q0 77 42 132l1 1l2 2q1 0 2 2l1 2q20 29 33 36q58 35 120 36h23q6 -2 18 -4t18 -5q20 -8 43 -27q41 -33 57.5 -64.5t24.5 -86.5q0 -4 3 -13t3 -15v-2q-2 -2 -2 -15v-2q2 -2 2 -6q2 -32 2 -40q1 -56 -12 -124q-1 -1 -1 -9
q-4 -26 -41 -117q-3 -2 -6 -11t-4 -9l-10 -24q-9 -8 -21 -29l-3 -9q0 -2 -14.5 -18.5t-38 -37.5t-42.5 -29zM169 473q0 -21 11.5 -68.5t25.5 -46.5h1l43 15q6 2 10 7t6 9t3.5 11.5t1.5 11t0.5 12t0.5 9.5q0 29 -1 39l-22 128h-3q-6 0 -16 -6q-61 -57 -61 -121zM144 87
l-6 -10q8 6 7 13v4q-7 -4 -5 -8v-1z" />
    <glyph glyph-name="colon" unicode=":" horiz-adv-x="151" 
d="M20 399v3q6 21 21 37.5t35 16.5q25 0 35 -14q2 -2 6 -7l6.5 -8t5 -8t2.5 -10q0 -8 -17.5 -27.5t-28.5 -19.5q-5 0 -32 9.5t-28 11.5q-1 3 -1 6t-2 5t-2 5zM20 49v3q6 21 21 37.5t35 16.5q25 0 35 -14q2 -2 6 -7l6.5 -8t5 -8t2.5 -10q0 -8 -17.5 -27.5t-28.5 -19.5
q-5 0 -32 9.5t-28 11.5q-1 3 -1 6t-2 5t-2 5z" />
    <glyph glyph-name="semicolon" unicode=";" horiz-adv-x="171" 
d="M20 399v3q6 21 21 37.5t35 16.5q25 0 35 -14q2 -2 6 -7l6.5 -8t5 -8t2.5 -10q0 -8 -17.5 -27.5t-28.5 -19.5q-5 0 -32 9.5t-28 11.5q-1 3 -1 6t-2 5t-2 5zM40 -107h-1q-1 0 -3 -2t-3 -2v1q1 2 1 6.5t2 7.5q2 4 7 9.5t6 8.5q9 16 22 46q13 32 13 45v2q-8 -12 -23 -12
t-28 8.5t-13 22.5q0 27 18 49.5t44 22.5q25 0 39 -6q0 -2 1 -2l12 -13l6 -3q29 -50 -13 -128q-2 -3 -9.5 -18t-12.5 -21l-9 -9q-5 -3 -6 -3l-1 -2l-21 -7q-3 -1 -9.5 -6t-9.5 -5q-5 0 -9 10z" />
    <glyph glyph-name="question" unicode="?" horiz-adv-x="448" 
d="M179 163l1 1q0 2 6 2q-2 1 -11.5 2.5t-13.5 5.5l4 2q-3 6 -4 7q-6 10 -7.5 22t0 31t1.5 25l-1 6q-2 6 -2 7v9q0 80 26 120l39 58q23 21 48 59t25 61q0 15 -3 15h-2q-20 20 -49 20q-102 0 -104 -71q0 -35 3 -45q4 -15 4 -27t-3 -20t-10.5 -15t-14.5 -11.5t-19 -8
t-19.5 -5.5t-20.5 -4h-3q-2 0 -3.5 1t-2 3l-1 4t-1.5 3q0 1 -13 5q-8 29 -8 63q0 57 23 108.5t68 76.5q21 11 23 11q12 6 14 6l4 1l4 1h2q33 13 51 13q49 0 126 -33q43 -18 56 -28q3 -2 8.5 -9t8.5 -9v-3q20 -29 20 -62q0 -49 -41 -117q-7 -7 -17 -27t-11 -21
q-10 -20 -27 -37l-11 -10q-6 -7 -13.5 -22t-10.5 -20q-2 -2 -4 -2v9q-15 -11 -24.5 -39t-7.5 -46q0 -2 -4.5 -7t-4.5 -7q0 -1 1 -2t1 -3v-1l-7 -33q-9 -15 -47 -15h-16q-4 0 -4 2h-1zM167 62q0 33 4 39q0 5 7 8q4 0 4 2q1 5 2 5h8q4 1 14 7t17 6q21 0 35 -13q3 0 3 -3
q3 -4 10.5 -10.5t10.5 -10.5q0 -1 0.5 -5t1.5 -9l1 -4v-45q0 -2 -5 -13.5t-6 -12.5q-1 0 -3 -1q-3 -1 -4 -2h-32q-15 -11 -30 -11q-4 0 -14.5 7t-12.5 11q0 7 -2 9l-5 4q-4 7 -4 42zM186 383q-2 0 -2 -1.5t2 -1.5q1 0 1 1.5t-1 1.5z" />
    <glyph glyph-name="at" unicode="@" horiz-adv-x="768" 
d="M108 6q0 8 -9 23q-5 0 -5 2q0 1 -1 5t-1 5q-3 8 -10 20.5t-9 15.5q-34 67 -43.5 108t-9.5 118q0 4 0.5 26t0.5 26q5 69 36 127t86 125q35 38 126 71l13 5q52 19 105 19q64 0 134.5 -23t114.5 -62q6 -5 11.5 -11.5t11.5 -15t10 -12.5q39 -47 68 -120q0 -5 3 -11
q4 -8 6 -19t2 -18.5t-0.5 -22t-0.5 -18.5v-44q-1 -8 -6.5 -31t-8.5 -26q-1 -2 -14.5 -12.5t-14.5 -18.5q-1 -4 -1 -15.5t-2 -16.5q-2 -3 -20.5 -47.5t-44 -75.5t-59.5 -32q-5 -5 -36 -5q-13 0 -20 2t-16.5 9t-16.5 10q-2 1 -8.5 3t-9.5 4q-9 6 -17 21t-11 18l-2 2
q-5 0 -15 -4.5t-12 -5.5q-54 -15 -110 -15h-27q-31 5 -52 26t-21 51q0 32 18 65q1 2 6 10.5l11.5 19t8.5 14.5q15 26 51.5 43.5t69.5 17.5q9 0 24.5 -2t23.5 -2q0 52 -24 81q-4 4 -5 4h-1q-26 0 -66 -35q-18 -16 -53.5 -33t-56.5 -17t-28 12q-1 2 -2 5.5t-5 5.5v14
q0 45 46 87q15 6 43.5 22t37.5 20q16 7 43 7q13 0 28.5 -3t24 -5.5t28 -9l25.5 -8.5q3 -5 23 -15q15 -9 26 -23t17 -26.5t10 -34t5 -33t2.5 -35.5t2.5 -31q1 -10 6.5 -27t6.5 -25q0 -1 1 -19t1 -23q0 -9 3.5 -26t3.5 -26q0 -14 -3 -18q3 1 4.5 3.5t3 6t2.5 5.5q24 30 30 39
l19 39q3 7 12 29.5l18.5 47.5t11.5 29l3 16v2q0 20 -5 27q-1 2 -4.5 4.5t-4.5 5.5q-6 61 -33 121t-70 97q-21 17 -56 28t-64 11q-24 0 -46 -6q-19 -6 -94 -23l-41 -12q-22 -11 -23 -11t-7.5 -1t-6.5 -2l-2 -2l-28 -21q-8 -7 -15 -19q0 -1 -0.5 -1t-0.5 -1q-3 -3 -10 -9.5
t-12 -12.5t-8 -12q-3 -4 -5 -13.5t-4 -13.5q-7 -16 -23 -42v-2l1 -1q1 -1 2 -1l-5 -9l2 -1q-4 -2 -7.5 -23.5t-8.5 -25.5q2 -1 2 -2v-2l-4 -8q-3 -8 -3 -12v-2q3 2 7 12.5t9 10.5q0 -8 -6 -16l3 -2q0 -1 -3 -10l-2 -2v-3l2 -2v-25q-2 -1 -2 -4q0 -4 1.5 -10t1.5 -10
q0 -16 -4 -18q4 -3 4 -7t-3 -11t-3 -11v-5q4 8 5 9q4 -13 6.5 -40.5t7.5 -41.5q11 -38 25 -51q13 -13 39 -55q27 -40 106 -86q1 0 3 -1t3 -1q24 -6 26 -6h71q1 0 5.5 1t5.5 1q52 7 107 23q2 1 10 5.5t9 4.5q37 19 51 24q0 4 3.5 4.5t6 1.5t2.5 4l16 -7q4 -6 8 -17.5t8 -17.5
h-4l-1 -2q1 0 2 -3t1 -4v-1q0 -4 -5 -11l-2 2l-1 1l-1 -1q-1 -2 -3.5 -9t-5.5 -13t-6 -7q-7 -5 -23.5 -5.5t-19.5 -1.5q-10 -2 -27 -9t-23 -9q-47 -20 -120 -20q-53 0 -83 7q-42 9 -89.5 42t-84.5 72zM414 277q-19 0 -50.5 -26t-52.5 -50q-6 -7 -24 -46h4q8 0 18 3t14.5 5
t17.5 9t15 8q43 22 67 32l2 1v8q0 24 -5 54q0 2 -6 2zM99 18q1 0 1 -2h1q1 0 1 -2.5t-1 -2.5q-2 0 -2 2q-2 0 -2 2.5t2 2.5zM75 334q-2 -1 -2 -4v-3q3 1 3 5zM85 35q2 0 2 -2t-2 -2q-1 0 -1 2t1 2zM46 104q2 0 2 -2t-2 -2t-2 2t2 2zM67 68q1 0 1 -2t-1 -2t-1 2t1 2zM105 11
q1 0 1 -1.5t-1 -1.5t-1 1.5t1 1.5zM48 100q2 -1 2 -4v-3q-2 4 -2 5v2zM52 91v-2v2zM96 20q4 -2 0 -2v2zM652 359q1 0 1 -1t-1 -1t-1 1t1 1zM39 121q0 -2 -2 0h2z" />
    <glyph glyph-name="A" unicode="A" 
d="M45 19q-24 9 -24 28q-2 34 88 372q1 5 4 14.5t3 11.5q1 2 1.5 7t2.5 8l22 77q5 15 12 64l7 25q1 4 2 14.5t4 18.5t9 12l21 6h4q11 0 21.5 -3.5t18.5 -4.5q2 0 5.5 -0.5t4.5 -0.5q63 -9 95 -32q31 -21 41 -49q36 -104 46 -182l87 -310q0 -5 3 -15t4 -16q1 -10 -13 -15.5
t-16 -9.5h-12q-3 4 -9 4l-1 -9l2 -5l-3 -3l-3 -2h-33q-4 -10 -29 -10q-2 0 -6 1.5t-6 1.5q0 4 1 5q-1 1 1 5v2q-3 2 -4 2v1q4 10 3 10t-3 -1q-6 0 -7.5 3t-1.5 7t-3 6q3 2 7 6.5t4 6.5l-1 2l-2 3q0 1 2 3l2 2q0 1 -4 6.5t-4 6.5q6 0 9 5l3 -2h2q5 0 8 3l-3 3q-2 26 -10 49
q-1 4 -4.5 11t-4.5 10v9q0 10 -2 16q-2 0 -2.5 5.5t-3.5 5.5q-12 -1 -12 -5q0 -2 1.5 -5.5t1.5 -5.5v-4l-7 16q0 2 -5 -0.5t-10.5 -6t-6.5 -3.5t-6.5 -0.5t-10.5 -2t-5 -3.5l-17 -4q-2 0 -37 -3q-3 -1 -3 -2h-4l-41 -6q-1 0 -7.5 -1.5l-14.5 -3.5t-11 -2q-6 -2 -9 -6l-9 -73
q-7 -36 -19 -49t-47 -20q-1 0 4 -2h-2q-4 0 -28.5 1.5t-29.5 1.5zM267 319q4 -16 13 -16q8 0 12 2q4 0 22.5 2t21.5 2q7 1 7 2q1 1 1 4q-1 5 -9 28q0 1 -2 3q-1 0 -9 5q0 8 -2 16.5t-5.5 18t-4.5 15.5q-3 10 -8.5 31.5t-9.5 31.5q-2 5 -6.5 7t-5.5 5q-1 2 -5 8t-5 9
q-1 2 -3 10t-4.5 12.5t-7.5 8.5q-5 -16 -21 -86q-3 -13 -10 -38t-11.5 -45t-7.5 -38h14q7 0 20 1t20 1h6zM387 35l3 4q2 0 2 -4v-1zM384 147q1 -1 1 -4q-1 -1 -2 1.5t1 2.5zM384 154v-3l-2 -2v1q0 3 2 4zM382 160q2 -2 0 -4v4zM373 184q1 0 1 -1t-1 -1v2zM330 344l1 -3h-1v3
zM375 179v-1v1z" />
    <glyph glyph-name="B" unicode="B" horiz-adv-x="495" 
d="M50 -13q-3 1 -3 6q0 2 1.5 4t1.5 4t-4 4t-5 4q5 0 5 10q0 3 -2.5 6.5t-2.5 5.5t1.5 6.5t1.5 7.5v5q-14 212 -14 317q0 27 1 83t1 85q0 49 -6 83q-6 6 -6 16q0 20 20 37h3q1 0 31.5 2.5t62 4t78.5 -2t85 -12.5q68 -16 104.5 -63.5t36.5 -116.5q0 -73 -47 -110
q-3 -2 -15 -7t-23 -9t-11 -5q1 -1 3 -1q10 -2 20 -4.5t29.5 -11t34 -20t27 -33t14.5 -48.5q2 -32 2 -56q0 -47 -9.5 -75t-43.5 -49q-26 -16 -34 -19q-6 -2 -31 -6t-32 -9q-46 -12 -113 -23q-6 -1 -30 -4q-62 -11 -66 -11q-14 0 -66 5zM206 105q2 -3 8 -3q7 0 3.5 5.5
t3.5 7.5l57 15h-11q0 1 -1 3q1 1 12.5 3.5t11.5 7.5q0 3 -7 3q-12 0 -34.5 -5t-33.5 -5h-6l62 13l-3 3h-1q-16 -4 -23 -4h-4l3 2l74 16q18 4 23 28t-10 64q-36 86 -155 71l1 -86q2 -26 2 -85q0 -1 1 -6t1 -6q0 -3 0.5 -17t0.5 -17q13 0 22 2t20 6t21 6h12l-41 -16
q-7 -2 -9 -6zM212 577l-9 -5q-18 -3 -20 -3l-4 -4q0 -10 -2 -22q0 -5 3.5 -55.5t3.5 -55.5q14 -11 39.5 -10.5t49.5 11.5t36 41.5t0 73.5q-1 3 -10 8l-1 1l-1 1q-53 19 -85 19zM215 109q1 0 1 -2t-1 -2q-2 0 -2 2t2 2zM212 109l-1 -1z" />
    <glyph glyph-name="C" unicode="C" horiz-adv-x="448" 
d="M21 319q0 127 7 170q13 82 68.5 133t137.5 51q26 0 35 -4q81 -11 114.5 -48.5t43.5 -136.5q3 -29 -18 -63q-4 -6 -23.5 -12.5t-23.5 -8.5l-4 4l-2 -1q-2 -1 -3 -1l-1 -1q-4 0 -4 3q-21 -2 -47.5 5t-26.5 24q0 5 3 16t3 16q0 11 3.5 34.5t1.5 39t-13 29.5q-3 1 -9.5 8.5
t-11.5 7.5h-2q-18 -5 -27 -8.5t-25 -12t-24.5 -23.5t-12.5 -37q0 -2 -4 -12t-4 -12v-22q2 -18 0 -72t3 -73q1 -6 8.5 -19.5t7.5 -21.5q0 -3 -2 -8t-2 -9q0 -22 13 -80q3 -3 4 -8.5t1 -6.5q7 -24 16 -36l21 -26h1q11 0 22.5 20.5t14.5 35.5q7 49 14 77q1 8 6 17t6 12
t3.5 12.5l4 15t5.5 12.5t10 10q6 -8 14 -12q2 -2 6 -2q43 -4 57 -18h2l2 1l2 1q-1 -5 9 -5q0 -3 7 -8t8 -7q8 -8 8 -27q0 -45 -16 -97q-4 -6 -9.5 -27t-10.5 -28q-30 -48 -97 -62q-28 -6 -29 -6l-56 -12q-10 -2 -32 5t-35 15q-54 30 -76.5 78.5t-33.5 123.5q-8 51 -8 97z
" />
    <glyph glyph-name="D" unicode="D" horiz-adv-x="446" 
d="M44 -3q-17 26 -24 32v603q2 3 4.5 13t6.5 16t11 6q8 0 13 -4v11q1 0 4 -1t5 -1q31 0 69 8l14 1q55 0 86 -10q33 -10 83 -41q65 -42 87.5 -88t22.5 -132v-34q-1 -7 -2 -15.5t-2 -19t-2 -16.5q-2 -14 -2 -16q-15 -99 -43 -163q-7 -6 -17 -23t-13 -20q-10 -14 -22.5 -25.5
t-32 -27t-26.5 -21.5q-2 -2 -14 -7t-14 -8l-32 -10l-4 -1h-2q-2 0 -3.5 1t-2.5 1q-4 0 -9.5 -2t-7.5 -2q-6 0 -17 3t-17 3h-1q-1 0 -3 -1.5t-5 -3.5l-2 -1q-22 -9 -37 -9h-12zM141 258l6 -147q4 2 15.5 6t17.5 8q54 33 79 118q26 112 26 177q0 33 -1.5 52t-12 45.5
t-31.5 38.5q-9 6 -13 6h-36q-7 4 -37 4q-7 0 -10 -4v-7q0 -9 4.5 -28.5t3.5 -29.5z" />
    <glyph glyph-name="E" unicode="E" horiz-adv-x="453" 
d="M127 21q-9 0 -12 -4q-18 -2 -43 -2h-11l-3 2v15q0 2 -4 4t-4 3v1q0 2 2 4q1 2 1 3q0 3 -4.5 9t-4.5 9l-11 187v13q0 5 -2.5 57t-2.5 58l9 130q-2 6 -2 18v77q0 7 -3 19.5t-3 18.5q0 35 19 47h4l10 -6q18 -3 38 -3h22q8 0 17.5 1.5t16.5 1.5h2q85 0 175 -5h9q3 0 9 1.5
t9 1.5q4 0 9 -5t12 -4q1 -2 3 -11q1 -2 6 -17t6 -17v-11q-2 0 -4 -2v-1q0 -3 2 -8t2 -8q0 -4 -1.5 -5.5l-3.5 -3.5t-3 -5v-10q-1 -5 -17 -5l-27 -7q-31 0 -61 -3q-9 -1 -10 -1q-8 -2 -38 -2q-4 0 -15 -0.5t-14.5 -1t-10 -3t-10 -8t-6.5 -13.5q-3 -22 -3 -62v-7.5v-8.5l1 -3
l6 -5q43 2 90 -2q7 0 9 -2q10 -1 15 -4l3 -2l2 2l1 6h1q1 0 12.5 -3.5t11.5 -4.5l14 -34q2 -4 3 -11t2 -9v-36l-3 -1q0 -13 -7 -17q-4 1 -14.5 1t-13.5 -1l-7 -2q-7 -1 -8 -1q-3 -1 -24 -1t-29 -3h-45q-6 3 -17 3q0 -32 2.5 -89t2.5 -80q0 -15 1 -18h1q5 0 14.5 1.5
t14.5 0.5l158 9q18 2 24 -8q2 5 7 5q4 0 6 -2v-1l1 -2l3 -6q19 -40 19 -62q0 -2 -1.5 -6t-0.5 -10q-7 -2 -7.5 -10t-3.5 -10q-5 0 -55 -6q-84 -8 -126 -11q-5 0 -19 -2t-22 -2q-23 0 -40 2q-3 0 -14 3t-17 3z" />
    <glyph glyph-name="F" unicode="F" horiz-adv-x="371" 
d="M36 24l-3 14l-1 2v2q1 5 1 6q-3 3 -3 7q-3 10 -3 30q-7 158 -7 272q0 37 1.5 131.5t0.5 146.5q0 1 2 9.5t4.5 15.5t6.5 7h1l8 -1q4 0 7 3h6l66 7q77 7 112 7h4q54 0 78 -2q16 -4 20 -4l9 -37v-7v-14l4 -9l1 -21h-5q-4 -12 -12 -16l-25 -4q-22 -2 -135 -1q-20 0 -22 -21
q0 -1 0.5 -21.5t0.5 -35.5v-21q1 -6 1 -7l83 -2q6 0 12 -3.5t7 -3.5h1l2 2l3 2q8 0 12 -12l2 -8q6 -38 3 -54q5 -2 5 -8q0 -4 -2 -5v-19h-4l-4 -11l-117 -9h-3q-4 0 -6 -6v-64q0 -7 0.5 -46t0.5 -45q2 -4 2 -22.5v-22.5q0 -25 4 -45v-27q-2 -12 -9 -15q-4 -1 -23 -8h-3
l-5 -5q-15 -3 -46 -3q-1 0 -8.5 -0.5t-10.5 -0.5l-11 1z" />
    <glyph glyph-name="G" unicode="G" horiz-adv-x="496" 
d="M23 364q0 8 0.5 23t0.5 22t-2 22t-2 23q0 60 40 135q23 43 85 76.5t124 29.5q28 -2 56 -13l12 -6q27 -13 41 -21t33.5 -25t29.5 -42t11 -58l4 -23l-6 -15q-1 1 -10.5 -4t-9.5 -7q-4 0 -2 -2q1 -1 -2 -1t-11 1q-28 0 -68 10q-1 1 -6 4t-6 4q-2 3 -2 4.5v5t-1 6.5
q-4 4 -4 5q0 8 0.5 20t1 20t-0.5 16t-4 12t-9 4q0 2 0.5 3.5t0.5 2.5v1q-5 7 -24 14q-1 0 -1 0.5t-1 0.5h-2q-7 0 -13 -2.5t-9.5 -5t-10 -8t-9.5 -7.5q-2 -1 -23 -13t-29 -21q-1 0 -3 -5l-2 -3q-4 -8 -13 -20v-1q0 -4 5.5 -10t5.5 -11q0 -3 -4 -7.5t-5 -7.5
q-17 -81 -17 -129q0 -13 3 -42.5t2 -44.5q13 -84 30 -129q-4 -9 21.5 -34.5t36.5 -25.5h2l10 6q17 0 19 2q4 0 6 3t4 8t3 6q23 103 23 176q0 18 -1 20q-7 0 -24 -3t-26 -3q-17 0 -22 5.5t-7 23.5q-2 2 -2 28q0 2 1 3t1 2q0 3 -2 6.5t-2 5.5l6 4q-8 0 -8 4t9 6l4 1v9
q0 4 26 4q7 0 14 3t13 4q90 6 91 6h21q7 -4 24 -8t24 -9q6 -5 8 -7q2 -3 3 -3v-19h3q0 -2 -6 -11q-2 -2 -2 -15v-1l3 1q-1 -13 -1 -40t-2 -41q0 -3 -3 -9.5t-3 -9.5v-2l1 -2q1 -3 2 -3v-1q0 -7 -4.5 -22.5t-4.5 -21.5q-11 -86 -48 -133q-22 -27 -47 -37t-70 -16l-3 -3
q-18 -6 -41 -6q-38 0 -90 29q-26 15 -45.5 33t-30.5 33.5t-20 42t-12.5 43.5l-10.5 52q0 5 -2 15l-3 15q0 1 -2.5 8t-2.5 8q-5 29 -5 89zM330 264q0 -14 -3 -41t-3 -40v-6q1 -6 1 -7l2 2q0 6 5 31q0 5 2 5v46q2 2 2.5 5.5t3.5 5.5v41l-2 2q0 -4 -3 -7v8q-8 0 -8 -15
q0 -5 1.5 -14.5t1.5 -15.5zM335 298q1 -1 1 -3.5t-1 -3.5v7zM465 244q1 0 1 -1.5t-1 -1.5q-4 0 -2 2q1 1 2 1zM335 288q2 -2 0 -2v2z" />
    <glyph glyph-name="H" unicode="H" horiz-adv-x="499" 
d="M351 545q2 0 2 -2.5t-2 -2.5q-1 0 -1 4q-2 -8 -9 -9v34l-2 -1h-4h-3t-1 4v32q0 12 2.5 40t1.5 43l13 14l3 -3l3 3h2q6 0 15 -5.5t12 -6.5q5 -2 15.5 -5.5t17 -6.5t13.5 -9q26 -26 30 -31q20 -32 20 -33q0 -4 -4 -8.5t-4 -8.5q1 -27 -2.5 -75t-3.5 -69q0 -3 1 -6.5t1 -5.5
v-2l-1 -5q-1 -6 -1 -7l-6 -75q-1 -1 -1 -2q1 -3 1 -4v-2q0 -42 -4.5 -125.5t-4.5 -124.5l1 -5q1 -5 1 -6q0 -7 -0.5 -12.5t-4.5 -11.5t-11 -5q-6 -10 -18.5 -13t-14.5 -6q-6 -3 -19 -3q-4 0 -16 -2t-15 -2l-2 1q-1 1 -1 2q-3 -4 -12 -4q-15 0 -26 17q0 2 1 2l4 -2q2 1 3 1
v19h-2q0 3 -3 7.5t-3 7.5h5v7q3 -3 6 -3h1q5 0 5 3q0 2 -1.5 5t-1.5 4q5 0 9.5 5.5t4.5 10.5q0 1 -1 3t-1 4v1q0 1 1 5l1 3l2 -2v6q0 9 -1 25.5t-1 24.5q0 7 1 20t1 20v14q-4 3 -4 10.5t-3 10.5l-6 -6q6 -2 6 -9v-5l-4 -3q0 -3 1 -4q2 -2 3 -2q0 -16 -9 -16v43l3 4
q-1 0 -1 1q-5 0 -32.5 0.5t-32.5 0.5q-21 -1 -47 -3t-47 -3v-116q0 -27 4 -75q-7 -38 -98 -34l-2 -2h-3l-1 2h-29q-3 0 -7.5 10t-4.5 13q-1 2 -1 9t1 8q-1 0 -1 3v11q-1 1 -2 7.5t-1 7.5q0 10 -1 64t-1 63v43q0 20 1 62t1 62v39q0 9 -3 14q0 6 -0.5 41t-0.5 42v29v37l1 16
q0 68 3 89q3 1 6.5 5.5t6.5 4.5q6 0 38 -8q51 -14 72.5 -37t21.5 -73v-201l1 -19h6q17 0 36.5 3.5t35.5 3.5q13 0 37.5 -5t27.5 -5h5v10l3 -12q0 -2 5 -2q2 0 3 2.5t2 2.5q0 -5 1 -5l8 -2q4 -1 10.5 -8t10.5 -8l2 14v129q0 4 3 13.5t3 13.5q-18 18 -19 20l-2 2q-1 1 -2 3
l-2 2h1q6 0 6 -7h10q0 13 -10 20l-1 -1h1zM323 103q0 1 1 7l1 5q0 1 0.5 7.5t0.5 8.5q5 -15 5 -18q0 -5 -2 -6v-13q0 -1 -1 -1l-2 -1h-1q-2 2 -2 11zM325 143q0 7 5 7q0 2 -2 6t-2 6v3q7 0 9 -4v-5q0 -4 -4 -11t-4 -11h-1q-1 6 -1 8v1zM354 480v-2q0 -20 -7 -20q0 22 7 22z
M330 187q2 0 2 -1q-4 -15 -8 -15q0 16 6 16zM338 410q0 6 6 9v-4q0 -8 -4 -13q-2 2 -2 8zM335 388l-4 -10l-1 2v3q0 5 3 5q1 1 2 0zM319 390h2q0 -13 -2 -15v15zM332 417l3 2v-2q-1 -1 -2 -6.5t-1 -6.5v13zM329 500v-9h-3v1q0 5 3 8zM340 502v-10h-2q0 4 2 10zM321 416
q1 -2 1 -6t-1 -6v12zM326 487q2 -1 2 -4t-2 -4v8zM321 400q1 0 1 -2t-1 -2t-1 2t1 2zM359 373v-2q0 -3 -2 -3v1q0 4 2 4zM332 564q2 0 2 -2t-2 -2q-1 0 -1 2t1 2zM312 48h2q0 -4 -2 -6v6zM313 60q2 -2 2 -5q-1 -1 -2 -1v6zM332 396q2 0 2 -1.5t-2 -2.5v4zM331 550q1 0 1 -2
t-1 -2t-1 2t1 2zM331 539q1 0 1 -2t-1 -2t-1 2t1 2zM335 442q1 0 1 -1.5t-1 -1.5q-4 0 -2 2q1 1 2 1zM312 63q1 0 1 -1.5t-1 -1.5q-4 0 -2 2q1 1 2 1zM344 458v-2l-1 -2q-1 -1 -1 -2v2q0 3 2 4zM329 511q1 0 1 -1.5t-1 -1.5t-1 1t1 2zM323 439q1 0 1 -1t-1 -2q-1 0 -1 1.5
t1 1.5zM335 433q1 0 1 -1t-1 -2q-1 0 -1 1.5t1 1.5zM331 529q1 0 1 -1.5t-1 -1.5t-1 1.5t1 1.5zM355 433q4 -2 0 -4v4zM336 456q2 -2 0 -4v4zM325 458q1 0 1 -1t-1 -1v2zM348 450q2 0 0 -2v2zM340 364l-2 -5v3zM345 354v-2v2zM323 430v-1v1zM335 446h1v-1h-1v1z" />
    <glyph glyph-name="I" unicode="I" horiz-adv-x="209" 
d="M32 1q-12 7 -12 16v39q4 9 2 20l2 3q-1 1 -1 8t1 9q1 4 2 4q0 -3 0.5 -15t0.5 -14l2 -9q4 1 4 4v3q0 1 -1 7v6v112q0 7 -2.5 17.5t-2.5 16.5t2.5 18t2.5 19q0 8 -10 15q-2 19 -2 42l6 168q0 5 -0.5 23.5t-0.5 21.5l-1 6v69q-4 10 -4 17q0 12 8.5 21.5t20.5 5.5q2 3 2 12
q3 0 7 -2t8 -2h19q9 0 25 1t24 1h2q49 0 49 -24v-1q0 -1 -0.5 -2t-0.5 -2q0 -2 2.5 -5.5t2.5 -6.5q0 -5 -4 -16.5t-4 -17.5q0 -3 2.5 -9t2.5 -9t-3.5 -10t-3.5 -10q0 -39 -3 -66q-12 -163 -10 -414q0 -3 -0.5 -17t-0.5 -16q-4 -19 -9 -21l-1 2q0 -2 -1.5 -3.5t-5.5 -1.5
l-3 -1q-3 -1 -8.5 -4t-9.5 -4q-19 -5 -57 -5q-22 0 -38 1zM23 117h3v-12q-3 3 -3 12zM24 134h2v-11h-2v11z" />
    <glyph glyph-name="J" unicode="J" horiz-adv-x="438" 
d="M20 249q0 5 0.5 20t0.5 16l5 30q9 4 9 12q9 0 13 2l21 -7h66q17 0 23 -10v-6q0 -1 3 -2.5t3 -3.5q0 -4 -3 -8v-21q0 -15 12 -73q1 -7 4 -29.5t7 -37.5t12 -27q11 3 23.5 18t15.5 28l10 42q13 78 13 97v130q-5 25 -4 66t0 66q-1 8 -4.5 33t-3.5 39v10l1 1q6 10 12 10
q0 -2 -1.5 -3t-3.5 -2.5t-2 -3.5q-2 -12 -2 -18q0 -7 2 -13q1 3 1.5 8.5t1.5 9.5t3 7l4 4l6 12v1q-8 5 -9 6v2q2 2 5 2q9 0 21 -4h2l1 2q0 1 -5 2.5t-5 2.5l1 1l4 2q-2 1 -8.5 2t-11.5 3.5t-4 7.5h5q6 0 7 -1v8q3 0 6.5 -1t5.5 -1h1q-3 3 -3 5v1q0 17 11 17q5 0 24.5 -6.5
t26.5 -9.5q1 -2 2 -2q0 -1 0.5 -2t0.5 -2h1q1 0 3 1.5t4 1.5q7 0 19 -5.5t15 -10.5l1 -3t2 -3q0 -1 3 -1l3 -1l3 -2q2 -2 4 -3.5t2 -2.5q0 -2 2 -14t2 -15q8 -111 8 -252q0 -14 -1 -41.5t-1 -40.5q0 -2 -1 -14t-1 -15q0 -10 -3 -16v-2q-9 -83 -31 -144q-9 -24 -42.5 -51
t-58.5 -32q-4 -1 -15.5 -1.5t-17.5 -2.5l-50 -13h-3q-3 -1 -7 -2t-5 -1h-1q-34 0 -67 18q-38 21 -54 45t-28 70q-2 4 -2 10q-8 45 -8 66l-1 19v26zM273 645q5 -4 14 -4h1q-1 4 -13 4h-2zM350 681q-2 0 -2 -2t2 -2t2 2t-2 2zM259 649q2 0 2 -2t-2 -2q-1 0 -1 2t1 2zM265 662
h4v-2h-4v2z" />
    <glyph glyph-name="K" unicode="K" horiz-adv-x="536" 
d="M28 88q-8 411 -8 460v94q1 12 5.5 19t13.5 9.5t15.5 3t20 -0.5t18.5 -1q6 0 19 3t20 3q25 0 28 -12l4 -18v-46q6 -24 6 -48v-151q1 -3 1 -14t-1 -14q11 11 28 43.5l51.5 99l70.5 129.5l16 18h13q0 5 -7 5v1q62 0 99 1q7 0 20 2t20 2q8 0 16.5 -4t8.5 -11q0 -1 -0.5 -2
t-0.5 -2l-12 -12q-2 -2 -9 -9.5l-12.5 -13.5t-5.5 -7l-135 -231q-1 -2 -1 -8l151 -301q3 -3 8 -10.5t9.5 -12.5t10.5 -5q0 -11 7 -14l-7 -8h7v-4q0 -1 -10 -8q-4 -2 -5 -2l1 -2q4 0 4 -3v-1l-2 -1l-1 -2q-2 -3 -3 -3l-1 -1q-1 0 -4 1.5t-5 1.5h-4l-77 -8h-6q-7 0 -17 3
t-13 3q0 4 -5 9.5t-6 10.5l-113 223v4q-3 0 -12 11l-4 4q-2 0 -29.5 -33t-27.5 -36v2l-2 -160q-2 -6 -3 -7q-2 -12 -7 -21q-4 -6 -28.5 -10.5t-35.5 -4.5q-59 0 -62 9q-1 5 -2 6q0 3 -5 8v6q0 7 -0.5 21t-1 25.5t-1.5 21.5z" />
    <glyph glyph-name="L" unicode="L" horiz-adv-x="421" 
d="M38 33q0 1 1.5 2t1.5 3q-3 0 -3 5q0 2 -1.5 12t-1.5 11l-15 393v3q0 27 3.5 92t2.5 100q1 2 2 8t3 8l13 14h3q11 0 43 -16q4 -1 16.5 -4.5t18.5 -6.5q32 -15 40.5 -30t8.5 -52q0 -30 -3.5 -88t-3.5 -85l-1 -119l-3 -1l3 -2v-4q0 -5 0.5 -10.5t0.5 -8.5q0 -5 1 -37t1 -38
l-1 -3q-1 -3 -1 -4v-4q0 -2 1 -9.5t1 -8.5q1 0 1 -9q5 0 33 -0.5t32 -0.5q32 4 66 4h6q7 0 8 -2q17 0 27 -2q33 -3 35 -4q3 -4 4 -4q2 0 3 1q-1 -3 2 -6t6 -2q9 -21 9 -44q0 -3 -2 -7t-2 -5q-2 -4 -2 -19q-1 -7 -10.5 -13.5t-16.5 -6.5q-3 0 -7 0.5t-6 0.5q-7 0 -17.5 -7
t-16.5 -8q-16 -2 -46 -4t-41 -3q-20 0 -29 -3q-24 -8 -33 -8h-2q-8 0 -25.5 2.5t-26.5 2.5q-3 0 -14 0.5t-21 1.5t-21 3t-17.5 8t-6.5 14z" />
    <glyph glyph-name="M" unicode="M" horiz-adv-x="681" 
d="M527 5l-3 -1l-2 4q-2 4 -4 9t-3 6q0 1 -1 4h3v6l-4 -2q0 3 1 19t1 19q4 61 4 137v280l-127 -286q-2 0 -10.5 -3.5t-9.5 -3.5l-61 -3l-7 -2h-3q-19 0 -31 33l-105 187l-2 -4q1 -15 -1.5 -42t-2.5 -38v-1q0 -1 1 -2t1 -2v-77l-2 -2q6 -4 6 -14q2 -73 1 -111q2 -4 3 -13.5
t1.5 -21.5t0.5 -15v-1q0 -1 -1 -4t-2.5 -6t-1.5 -4q0 -6 -3 -12q-2 1 -10.5 -1.5t-9.5 -4.5h-13q-3 -1 -4 -1q-2 -1 -3 -1q-8 0 -11.5 4.5t-6.5 5.5q-8 0 -14 -2q8 -5 8 -12q-5 0 -11 1t-9 1h-5t0 -3q-1 0 -7.5 0.5t-7.5 0.5q-12 3 -14 5l-2 5v29q4 0 4 2v2q-3 1 -4 2t-1 2
h7q-1 3 -3 5.5l-5 6t-4 5.5q-5 9 -5 47v3q0 -9 5 -14q3 4 3 14h2v21q3 -1 4 -5t3 -5q3 1 3.5 10t3.5 12v129q0 6 -5 10t-6 7q-3 8 -2 24t-1 24l-2 1h-3q-12 0 -15 -10v1q0 25 2 74.5t2 75.5v34l-2 3v1q0 1 1 2.5t1 3.5v3l-4 -2q2 15 2 38v14q-1 0 -1 2l-1 2v2l1 1l1 1v25
q4 2 6 12.5t10 10.5h3q3 0 22.5 -2.5t26.5 -3.5l24.5 -3.5t27.5 -6l23.5 -8t23.5 -11.5t18 -15q10 -11 48 -74l2 -3q7 -12 22.5 -43.5t25.5 -47.5l2 -2l36 -64l2 3l33 73l10 15q71 172 96 200q0 1 1 1l1 2q42 8 80 8h3l77 -18q8 -1 12 -23v-1v-12q1 -12 1 -16v-1
q0 -14 -3 -41.5t-3 -40.5q0 -40 5 -47v-39q-2 -2 -2 -8q-8 -75 -8 -90q0 -5 1 -14t1 -13v-16l-1 -7q-1 -7 -1 -8l-1 -23q-1 -23 -1 -31q0 -9 -2 -16v-48l2 -5l-2 -4q-1 -1 -1 -2l1 -2q0 -7 4 -11q-1 -19 1.5 -54t2.5 -50q0 -2 -2 -7t-2 -11q-7 1 -9 -3t-3 -13q-52 -5 -64 -5
q-8 0 -23 2.5t-24 2.5zM36 371q2 1 2 2l-8 5q-2 -6 -2 -7v-2l4 1q3 1 4 1zM642 26v-1l2 -2q5 3 5 6q-7 0 -7 -3zM613 623l4 -9v9h-4zM39 475q-1 0 -1 -2t1 -2q2 0 2 2t-2 2zM26 614q-2 0 -2 -2t2 -2t2 2t-2 2zM519 27q-1 0 -1 -2t1 -2t1 2t-1 2zM522 14q-1 0 -1 -2t1 -2
q2 0 2 2t-2 2zM22 621q2 0 2 -1.5t-2 -1.5t-2 1.5t2 1.5zM42 471q-4 0 -2 -2q1 -1 2 -1t1 1.5t-1 1.5zM37 482q-1 0 -1 -1.5t1 -1.5t1 1.5t-1 1.5zM652 20q2 -2 0 -3q-2 0 -2 1.5t2 1.5zM47 323v-2h2v2h-2zM45 59l2 -2v2h-2zM39 446l-2 -2h2v2zM36 469h1l-1 2v-2z" />
    <glyph glyph-name="N" unicode="N" horiz-adv-x="493" 
d="M48 17q2 4 -2 15l-7 7v5q0 2 -2 6q-3 8 -5 125q-5 217 -12 450v3q0 39 16 39q6 0 15.5 -2l14.5 -3h5q47 -4 83 -32l44 -45q3 -4 10.5 -15.5t10.5 -15.5l53 -86l41 -88q3 -7 4 -7v1q0 10 -4 30v173q0 5 1 30t1 29q0 10 2 14l5 -13v21h1q0 -12 6 -17q0 -1 1 -7.5t1 -8.5v-2
q0 -30 -6 -38v-15q0 -29 8 -40v-25q0 -7 -1.5 -25t-0.5 -27l-2 -2q0 -3 -3 -12.5t-3 -13.5v-61l-1 -1l1 -2q4 -7 5 -8l6 25q0 -1 1 -4l1 -4q0 -1 2 -3l6 11v9v22.5t0.5 29t0.5 30.5v24v26q0 10 -1 42.5t0 50.5l-3 4q4 13 5 18l4 7l2 2l-2 4l-1 7q3 3 3 4q1 3 1 4l-1 3
q-3 -1 -7 -8t-8 -7h-1q3 4 8 12.5t11 13.5q-3 -6 3 -6h1l2 2l3 2h23v-2q9 0 15 -2q3 -1 4 -2v-1l-1 -3q2 -2 3 -2l-1 -2q4 0 9.5 2t8.5 2t7.5 -3t7.5 -3v-2l-1 -3q-2 -3 -1 -3q0 -1 3 -2l3 -1q10 -8 10 -48q0 -6 -1 -16.5t-1 -14.5q0 -7 2 -20.5t2 -19.5v-14l-1 -5l-1 -5
q0 -10 1.5 -30t1.5 -31l-3 1v-1q0 -5 3 -5q-1 -12 2 -33.5t3 -31.5q3 -35 3 -107l1 -5q1 -5 1 -7q6 -76 6 -117q0 -20 -4 -33.5t-7.5 -19t-17 -19t-20.5 -21.5q-24 -8 -40 -21q-3 -1 -6 -2.5t-7 -1.5h-5l1 4v1q-1 0 -5 1t-5 1t-11 -4.5t-18 -4.5t-13 8t-9.5 21t-6.5 16
l-74 191l-41 90q-5 3 -5 9q-8 8 -15 26v-152q-2 -10 -2 -52q0 -13 2 -39.5t2 -39.5v-9q-2 -1 -2 -2l2 -6v-5q0 -1 -1 -11t-1 -12q-18 -21 -54 -26q-1 0 -2.5 -0.5t-2.5 -0.5l-50 -8l-2 -1q-4 0 -5 3zM315 37q0 -14 8 -14h2q-4 14 -10 14zM352 612l-2 -1v-10h4v10q-1 1 -2 1z
M346 646q2 0 2 -2.5t-2 -2.5q-1 0 -1 2.5t1 2.5zM313 662q1 0 1 -2t-1 -2t-1 2t1 2zM457 592q1 0 1 -1.5t-1 -1.5t-1 1.5t1 1.5zM456 597q1 -1 1 -2t-1 -1t-1 1t1 2zM336 647v-1v1z" />
    <glyph glyph-name="O" unicode="O" horiz-adv-x="480" 
d="M20 346q0 141 67 266q13 25 52 52t67 27q9 0 25.5 -3t19.5 -3h14q1 0 8 -1.5t8 -1.5t14 -5t14 -6q5 -2 14.5 -5t16.5 -6t13 -7q1 -2 16 -17l1 -2l4 -4l1 -1q2 -2 4.5 -3t3.5 -1.5t2 -2.5t1 -6q0 -2 -1 -4t-1 -3h4v7q3 0 4 -1q10 -6 17 -24q0 -1 1 -3q1 2 15 -20t17 -29
q17 -27 13 -82l1 -3q1 -4 1 -5q2 -24 2 -64q0 -39 -2 -48q0 -9 -2.5 -62t-3.5 -63v-20q0 -2 -1.5 -13t-1.5 -13t-0.5 -6t-0.5 -5q-2 -28 -4 -41.5t-12 -31t-29 -33.5q-2 -2 -10.5 -6.5t-11.5 -7.5q-41 -23 -70 -28q-10 -1 -48 -9.5t-59 -8.5q-102 0 -139 103l-2 10
q-1 10 -3 14q-1 1 -4.5 2t-4.5 3q-3 5 -11 49q-19 92 -19 176zM165 265q14 -80 35 -152q0 -9 3 -14q17 -30 26 -30q7 0 31.5 12t28.5 18l6 18l10 126l2 9q2 -6 2 -14q0 -7 -1 -21t-1 -20v-9l2 -4l4 4q4 4 7 159v61v60q0 12 -2 18q-6 27 -13 55l-9 18q-1 4 0 8t-1 7
q-12 12 -15 18q-6 6 -13 20q-2 2 -11.5 9.5t-12.5 8.5l-5 -3q-8 -4 -16.5 -5.5t-13 -4t-10.5 -12.5q-1 -1 -5 -7t-8 -11t-4 -6t-7.5 -13.5t-8.5 -14.5q-13 -20 -13 -25q1 -15 -1.5 -40.5t-2.5 -36.5v-16q0 -1 2 -14.5t2 -15.5q5 -81 7 -103q1 -4 1.5 -12t1.5 -14t3 -11z
M310 320q4 -2 0 -4v4zM310 329v-2v2zM313 340v-3q0 -4 -3 -5v1v1zM313 365v-1v1zM313 376v-1v1z" />
    <glyph glyph-name="P" unicode="P" horiz-adv-x="431" 
d="M42 114l-20 451v5q0 4 -0.5 9t-0.5 8q0 61 6 78q6 12 18 12h44q10 3 24 5t24 2t26 -0.5t21 -0.5t28 -0.5t27 -0.5q25 -2 64 -20q1 0 1 -0.5t1 -0.5l6 -3q40 -18 56 -34q44 -45 44 -121q0 -12 -4.5 -46t-8.5 -38q-1 -3 -5.5 -24t-5.5 -25q-1 -3 -3.5 -9.5t-7 -13
t-7.5 -4.5q-1 -4 -15.5 -26t-19.5 -26l-4 -2l-7 -4.5t-6 -3.5q-32 -23 -96 -43h-11q-6 0 -15 2.5t-13 2.5t-4 -4q0 -17 2.5 -52t2.5 -53v-45v-1q-3 -12 -3 -20q0 -4 1.5 -12.5t1.5 -13.5v-10q-1 -2 -4.5 -7.5t-7 -9.5t-5.5 -5q-2 -2 -9 -2q-5 -1 -11.5 -3.5t-8.5 -3.5
q-4 -1 -13 -2t-13 -2h-43q-13 0 -19 26q-9 55 -7 91zM148 612q0 -2 9 -59q4 -37 11 -88v-49q0 -3 0.5 -20t0.5 -19q3 -28 4 -31h-1q6 4 34.5 14t38.5 22q24 32 24 112v24q-1 22 -13.5 57t-29.5 36q-3 1 -33.5 3t-33.5 3h-2q-9 0 -9 -5z" />
    <glyph glyph-name="Q" unicode="Q" horiz-adv-x="473" 
d="M293 35q-58 -20 -95 -20q-41 0 -77.5 20.5t-53.5 56.5q-17 37 -29 101q-1 5 -3 17.5t-4 22.5t-2 12q-7 49 -7 75q-2 4 -2 11v42q0 86 13 151q26 96 111 153q2 2 22 12q2 1 16 9t21 8h1l4 -1q4 -1 5 -2h2q3 0 7 1.5t6 1.5q9 0 18 -2.5t21.5 -8t16.5 -6.5q21 -7 24 -7l4 -2
l11 -4.5t8 -3.5q17 -7 17 -15q5 0 8 -5.5t4 -6.5q2 -3 12 -7t13 -8l2 -3q2 -3 2 -4q3 -5 12 -12t12 -10q5 -5 5.5 -13.5t1.5 -11.5q11 -28 12 -50l5 -3l1 -7q2 -7 3.5 -15.5t1.5 -12.5q1 -2 3.5 -20.5t2.5 -20.5q4 -16 4 -23q0 -58 -5 -130q-1 -9 -2.5 -48.5t-5.5 -65.5
t-13 -45q-12 -25 -55 -63q0 -1 1 -4t2 -4q0 -2 7 -16t7 -15q0 -7 4 -11l1 -3q0 -1 -2 -5l-3 -3q0 -2 1 -4t1 -3l-1 -2q-9 -1 -28.5 -7t-30.5 -6q-1 1 -3 4q-7 0 -9 2q-4 1 -12 19t-14 21zM148 327q6 -21 14 -67t15 -70q23 -86 50 -86q3 0 8 3.5t8 3.5l3 -1h2q6 0 6 6v1
q-2 1 -7.5 9t-6.5 9l-1 4l-2 1q-1 2 -6 13t-6 13t-7.5 19.5t-7.5 19.5t-5.5 9t-5.5 12l1 2q1 2 1 3l-2 3q-1 3 -1 4q0 3 2.5 5.5t2.5 7.5q1 0 8 -0.5t8 -0.5q20 5 26 5q13 0 24 -12q22 -50 29 -60q3 0 5.5 3.5t3.5 9.5t1.5 11t1 11t0.5 7q11 107 7 184q2 3 2 16q0 21 -2 61
q-2 7 -2 22t-3.5 23t-15.5 10v1q0 2 1 6t2.5 8t1.5 5q-4 3 -6 7t-3 10t-2 8q-2 6 -22.5 25.5t-27.5 22.5q-2 -4 -5 -6.5t-6.5 -3.5t-8 -2.5t-7.5 -3.5q-5 -7 -16 -13q-7 -7 -13 -14t-11.5 -18t-8 -15t-8.5 -19.5t-7 -17.5q0 -4 -9 -22q-4 -14 -4 -52q0 -24 1 -25
q5 -62 11 -91v-4zM290 570q1 0 1 -1t-1 -1t-1 1t1 1z" />
    <glyph glyph-name="R" unicode="R" horiz-adv-x="499" 
d="M49 24q-4 21 -5 22l-13 243q1 32 -1.5 91.5t-2.5 85.5q0 12 1 37t1 38v8q0 23 -5 68q0 5 -2 13.5t-2 13.5v10q5 18 16 18h1q7 0 7 -2h2q86 11 140 11q36 0 71.5 -4.5t76 -16t69 -35t35.5 -56.5q5 -1 9 -22.5t4 -29.5q0 -83 -34 -123l-7 -7t-8 -7q-1 -2 -7 -11t-6 -11
q-14 -18 -63 -27h-2l-24 -10q19 -18 56 -79q24 -46 56 -81l10 -20l13 -16q42 -53 42 -60l-1 -4q0 -1 0.5 -1t0.5 -1q2 -2 2 -6q0 -1 -1 -1t-1 -1v-4h-15v-1q13 0 15 -8q-1 -2 -6.5 -2.5t-7.5 -1.5q0 -5 5 -5l-4 -2t-4.5 -2t-3.5 -2h-76q-4 -2 -17 -2h-1q-13 0 -13 7
q12 0 12 6v2l-2 1l-11 20q-8 4 -8 10q2 0 2 -1h2q2 -1 3 -1t1 5v2q-3 4 -12 17l-16 23t-9 10q-3 0 -6 -3l-1 1q-2 2 -4.5 5.5l-4.5 6.5l-2 2l-65 104l-9 11h-13l-2 2l-3 -3q-4 2 -14 21.5t-15 25.5v-131q2 -6 2 -21q0 -9 2 -27t2 -25v-2l-6 -40q-3 -23 -33.5 -32.5
t-60.5 -9.5h-19q-5 2 -6 9t-4 8zM160 580q0 -7 4.5 -21t4.5 -20q2 -13 0 -34.5t-2 -34.5q0 -51 2 -75l1 -1q3 0 8 3.5t7 4.5q15 5 45 18.5t47 19.5q12 5 16 8q6 3 8 10q12 27 12 51q0 57 -49 75h-103q-1 -1 -1 -4zM252 170q4 0 24 -30t20 -36q-1 0 -11.5 13.5t-21.5 30
t-11 22.5zM310 80h3l9 -8q5 -8 5 -9q0 -4 -3 -4t-5.5 4.5t-5 10t-3.5 6.5zM332 48v3l9 -7l1 -2v-2q0 -3 -3 -3q-7 3 -7 11zM327 84v2q12 -9 12 -16v-1q-12 8 -12 15zM307 119q1 0 1 -1.5t-1 -1.5t-1 1.5t1 1.5zM413 154q-1 0 -1 -2t1 -2q2 0 2 2t-2 2zM199 255l2 -4l1 2
l-1 2h-2zM325 89q1 0 1 -1.5t-1 -1.5t-1 1.5t1 1.5zM202 246l1 -1q1 -1 1 -2v-1l-2 1v3zM170 298v-2q1 0 1 1t-1 1zM350 47v-1h-2z" />
    <glyph glyph-name="S" unicode="S" horiz-adv-x="454" 
d="M45 149q0 25 7 61.5t21 35.5q31 -1 45.5 -13.5t17 -33t3.5 -42t13 -44t39 -36.5h8q19 0 32 14.5t19 35.5t8.5 40t1.5 34q-3 47 -34 67q-3 2 -9.5 4.5t-9.5 4.5l-85 50q-116 50 -100 180v2q0 85 72 141l14 10q6 6 17 9q30 9 47 11q9 2 33 2q48 0 61 -5q3 -1 9 -5.5
t10 -5.5l55 -25q40 -26 55.5 -57t15.5 -81q0 -20 -15 -31t-34 -11q-71 0 -87 32q0 13 -5 63q-3 21 -15.5 34.5t-31.5 13.5q-25 0 -47 -24q-19 -26 -20.5 -56.5t7.5 -50.5t19 -26q22 -24 53 -42.5t57 -29t56 -33.5t52 -56q34 -53 34 -110q0 -18 -9.5 -38t-11.5 -32
q-1 1 -4.5 1t-4.5 -1q-1 -6 -1 -7l-12 -13h-2q-3 0 -4 2q-16 -24 -27 -35q0 -5 -6 -8l-35 -21q-25 -14 -63 -20q-42 -7 -79 -7t-70 22.5t-47 57.5q-13 32 -13 72z" />
    <glyph glyph-name="T" unicode="T" horiz-adv-x="501" 
d="M192 58l-9 339q-3 108 -3 121l-3 29q0 6 -16 6h-1q-28 5 -29 6q-1 0 -7 1l-5 2l-2 1q-24 0 -39 -5l-41 3q-5 0 -7.5 5.5t-4 14t-2.5 10.5l-3 63l1 1q0 3 7 1q1 1 3.5 8t7.5 8h8q8 0 24 2t25 2q6 0 45 -1.5t80 -2.5t99 0.5t107 6.5q6 -1 17 -5t16 -5q7 -5 14 -39.5
t7 -50.5v-1q0 -1 -1 -2.5t-1.5 -3.5t-1.5 -4l-1 -2v-10q0 -4 -17 -8q-40 2 -59 0h-3l-3 -1l-38 -5q-3 0 -8.5 -0.5t-8 -1t-5.5 -2t-4.5 -5.5t-1.5 -10q-1 -32 0.5 -90.5t1.5 -80.5v-37q-1 -6 -0.5 -39.5t0.5 -38.5q3 -8 1 -14q4 -79 1 -139q1 -8 1 -22q0 -33 -11 -40
q-5 0 -25 -10q-5 -2 -13.5 -3t-12.5 -2q-9 -1 -60 -1h-2q-8 0 -9 5q-2 2 -2 13l-2 5q-2 5 -2 6l-1 10q-1 10 -1 13z" />
    <glyph glyph-name="U" unicode="U" horiz-adv-x="468" 
d="M20 380l7 219q2 4 2 11l6 57q13 18 25 18q8 0 26 -4.5t26 -4.5h5.5h9.5h10h5q1 0 6 -1t7 -1q7 -1 9.5 -6t4.5 -5v-17q-1 0 -2 -25.5t-2.5 -53.5t-3.5 -32q7 -31 7 -106v-20q0 -1 -1 -18t-1 -18q0 -43 2 -59q1 -12 13 -80q15 -98 58 -141q2 -1 6 -1q7 0 18 9t17 10
q4 7 9.5 22.5t10.5 23.5q8 39 6 80l4 3v12l5 2q0 7 3 34v46l3 7l-16 275q0 10 3 15q3 -2 4.5 2t1.5 7q0 1 -2.5 1.5t-4 2.5t-0.5 5q0 1 5 3l-2 1l-2 1v1q0 3 6 3q2 0 6.5 -1.5t6.5 -1.5q4 0 4 5v1q-1 0 -2 -0.5t-2 -0.5h-2q-1 0 -8 1.5t-9 1.5l-4 2q-1 0 -1 1q0 11 19 6
q-3 3 -3 6l6 3q0 1 -1 2t-1 2q0 4 4 4q5 0 5 -4q1 2 5 2q5 0 15 -4t16 -4h1q-4 3 -4 6q6 0 35 -6.5t29 -12.5v-1l-1 -2q-2 -2 -3 -2q2 -3 6.5 -4t5.5 -3q0 -1 -1 -7t-2 -7v-3q3 -12 4.5 -33.5t2 -47t1.5 -33.5q6 -77 6 -192q0 -11 -2 -19l2 -1v-79q-4 -7 -2 -15q0 -5 -5 -38
t-6 -39q-4 -28 -32.5 -61.5t-57.5 -47.5q-9 -4 -27 -9t-22 -6q-55 -16 -80 -16q-28 0 -60 15q-29 14 -65 51q-39 42 -55 135t-16 179zM327 695q27 0 29 -6h-5q-24 0 -24 4v2zM323 667q0 -4 5 -4q-2 4 -5 4zM336 679h-7q2 -1 5 -1h2v1zM352 674h-1h1z" />
    <glyph glyph-name="V" unicode="V" horiz-adv-x="557" 
d="M224 6q-1 0 -7 1t-7 1l-3 2q0 -1 -2 -3h-2q0 1 -1 3l3 2q-10 5 -10 20v1q2 3 2 4t-6.5 18t-7.5 21l-53 166q-1 2 -4.5 6t-4.5 7l-89 339q-6 35 -12 39v9q2 22 12 25h25q62 -4 88 -28q7 -6 20 -31q20 -42 25 -74q4 -20 15.5 -56t15.5 -53l27 -112q3 -5 4 -18.5t4 -18.5
l17 -59l68 217q5 7 6 7l-1 -10q11 3 13 17q4 10 15 55l2 1q3 2 5.5 4.5t2.5 5.5q4 7 9 31q1 1 3.5 9t5 18t4.5 14l9 26q2 5 3.5 13.5t1.5 10.5t2.5 3.5t2.5 3.5q0 3 -3 5t-8 4l-5 2q-5 -8 -5 -23l-24 -77q-10 -17 -16 -44l-17 -61l-7 -11v12l34 142q9 17 25 72q3 6 3 9l2 2
h2q7 -7 14 -7h8q0 2 -8.5 7.5t-9.5 10.5v1q0 -2 3 -2q65 -9 90 -9q1 -3 2.5 -8t3 -9t2.5 -7h2l4 4q6 1 9 -9t4 -11q1 -3 4 -4.5t3 -4.5q0 -5 -6 -14q-3 -9 -11 -28t-13.5 -35t-8.5 -29q-8 -41 -50 -170l-14 -46q-1 -3 -2 -7.5t-3 -7.5l-33 -134q-3 -4 -5.5 -13.5t-4.5 -13.5
q-20 -46 -64 -79q-3 -2 -3.5 -8.5t-2.5 -9.5q-9 -11 -35 -19q-41 -10 -54 -9h-1q-2 0 -2 2zM413 662q-1 -4 1.5 -5t6.5 -1h1h4v2l-3 1q-3 1 -3 2l-3 1q-3 2 -4 2v-2zM207 5l9 -1v-2q-6 0 -8 2z" />
    <glyph glyph-name="W" unicode="W" horiz-adv-x="730" 
d="M136 42l1 1q1 1 1 3l-3 12q-5 15 -11 47.5t-12 47.5l-28 150q-2 6 -3 18.5t-2 15.5q0 1 -3.5 13t-3.5 14q0 9 -4 21q0 4 -1 4l-23 141q-3 7 -7 21.5t-5 18.5l-5.5 34.5t-4.5 33.5q0 1 -1 9t-1 11v2q0 8 5 11h7q6 0 18 -0.5t18 -0.5q4 0 12.5 0.5t13.5 0.5q51 0 60 -8
q6 -6 8.5 -18.5t3.5 -27.5t2 -20q1 -8 6 -21.5t6 -18.5v-6q0 -15 5 -40q3 -16 9 -58t10 -65q15 -73 17 -87l2 -3l14 57l11 33q7 42 15 62q0 1 3.5 11l6.5 19l4 12q5 15 19 15q0 4 -4.5 5.5t-5.5 4.5q9 2 14 9h9q21 0 43 -8q1 0 1 -2t0.5 -2.5t3.5 -0.5q1 0 1 1t1 1h3
q5 0 7.5 -4.5t4.5 -5.5t4.5 -1t3.5 -2q0 -8 7 -15l2 -2l5 -5l3 -2q25 -24 37.5 -44.5t26.5 -56.5q2 -6 6.5 -17.5l8 -21t6.5 -18.5q1 -3 7 -30t7 -30v-4l1 -2h3l15 65l2 3v-11q0 -13 -6 -39t-6 -39q0 -5 1 -8t6 -2l5 -11h1q4 0 8 8t3 12q22 83 28 133q0 1 5 11q5 8 11 37
q1 6 5 17t5 17q1 4 1.5 9t1 11.5t0.5 9.5q0 2 2.5 8t2.5 9q1 3 1 14t3 18v-17q7 0 7 -8q0 -2 -1 -6t-1 -6v-2q1 1 4 7t3 7q-2 4 -2 5v3q0 4 5.5 9t5.5 8q-4 4 -6 4q-2 2 -2 -1v26q3 2 3 7q-1 3 -1 4q-4 -8 -10 -32h-6q0 -7 -1 -7v11l-5 -15h-1q-2 0 -4 6.5t-2 8.5
q-2 -1 -2 -6v-6q-1 -9 -5.5 -25t-4.5 -17q-15 -80 -17 -128q-11 -33 -15 -37l-1 3v10q0 36 3 44l13 97v12l27 170q7 17 7 20v1v2l-1 2l-1 1l4 1h5l4 1h1l-3 4h2q3 0 9 -2.5t8 -2.5q7 -2 27 -2q7 0 20 2.5t20 2.5q12 0 20 -3q-2 -9 7 -11v-22q-4 -20 -16 -104q0 -3 -9 -41
t-10 -38l-7 -26q-2 -12 -7 -14q-13 -54 -19 -90q-1 -7 -12 -47v-4q-3 -15 -3 -22q-8 -24 -8 -28q0 -85 -16 -124q0 -2 -1 -3q-3 -5 -6.5 -17t-7.5 -17q-2 -3 -7 -6t-6 -5q-2 -2 -3 -2q-4 2 -5 2q0 -1 -0.5 -2t-0.5 -2l-3 -1h-4h-2q-26 -20 -55 -18q-6 -9 -48 -9l-4 1h-4
q-2 2 -4.5 10.5t-3.5 10.5q-4 0 -6 3q2 6 10 6q0 14 -12 10q0 3 3.5 3.5t3.5 4.5t-6 16.5t-9 30.5l-4 4l2 1l-1 3q-1 3 -1 4t-3 9.5t-5 15.5t-3 8q-1 3 -5 10t-5 11v13q-1 9 -14 45q-5 14 -17 68l-2 1q-2 0 -5.5 2.5t-5.5 6.5v-5q0 -4 2.5 -12t2.5 -12l-1 -2q-2 5 -4 16.5
t-4 16.5q0 -1 -0.5 -3t-0.5 -3q0 -5 2.5 -16t2.5 -17v-2q-1 6 -6 15.5t-6 13.5h-1q-2 0 -6 -14t-3 -16l-12 -50q-1 -5 -5.5 -33.5t-10.5 -43.5l-34 -66l-1 -1q-8 -11 -8 -23q0 -2 0.5 -5t0.5 -5q0 -3 -2.5 -6t-7 -6t-8.5 -5t-9.5 -4t-6.5 -3q-1 0 -7 -4l-7 -4
q-2 -1 -26 -6.5t-29 -5.5h-2q1 2 -2 4h-4q-1 0 -7.5 9.5t-6.5 10.5zM358 273l1 3q2 -4 2 -8v-4q-3 4 -3 9zM585 551q-2 -2 -2 -9v-1h2v10zM593 437q-2 -4 -2 -5v-3q3 1 3 5zM551 475q2 0 2 -2t-2 -2q-1 0 -1 2t1 2zM367 244q1 -1 1 -2.5t-1 -2.5v5zM293 518q-1 0 -1 -1.5
t1 -1.5t1 1.5t-1 1.5zM169 624q1 0 1 -1.5t-1 -1.5t-1 1.5t1 1.5zM661 410q1 0 1 -1.5t-1 -1.5t-1 1.5t1 1.5zM382 276q0 1 -1 2l-1 -3h2v1zM357 282q1 -1 1 -2t-1 -1v3zM364 254q1 0 1 -1t-1 -2v3zM430 89h2v-3zM366 248q2 -2 0 -3q-1 0 -1 1.5t1 1.5zM382 272q-1 0 -1 -2
t1 -2v4z" />
    <glyph glyph-name="X" unicode="X" horiz-adv-x="520" 
d="M253 184l-25 -48v-6l-28 -55q-7 -8 -9 -28q0 -2 -5.5 -7.5t-6.5 -8.5q-5 -11 -9 -13t-7 -4q-11 1 -28 -1.5t-26 -2.5h-2l-8 2q-1 0 -9 -1t-9 -1h-24l-2 2q-16 0 -26 5v2q0 1 1 4t1 4t-1 3t-1 3t2 5q10 15 16 21q1 5 1.5 8.5t1 6.5t1.5 5.5t1.5 4t2.5 4t3 3.5t4 4.5t5 5.5
q3 4 5 8t3 6.5t4 4.5t9 3l3 2l11 16l68 129q3 4 6.5 10t7 13l4.5 9v4l-4 6q-3 7 -4 8l-28 47l-132 273v1l2 1l2 1q3 4 3 6q9 13 41 13q8 0 22.5 -3.5t20.5 -3.5q1 0 11 -0.5t15 -1t15 -2t16 -4t11.5 -7.5t6.5 -12v-16q0 -1 3 -8l3 -6q2 -4 2 -7q26 -51 59 -122
q6 -1 5.5 -5.5t1.5 -4.5q18 27 24 40q0 -4 4 -4q1 1 2 1t3 3.5t2 4.5v5l7 7q3 4 7 12.5l5 10.5l21 32.5t26 43.5v2q-2 2 -4 3l8 5l1 -1q1 1 5 4t4 6q0 1 -1 3t-1 4q3 0 4 -1v13q2 2 3 2q4 2 7 2h2q4 -2 5 -2l3 2q2 0 2 -2h13q6 0 19.5 3t20.5 3q25 0 34 -18q8 6 14 6v-8
q-11 -9 -22.5 -33.5t-13.5 -27.5l-21 -34q-1 -1 -25 -47q-3 -6 -11 -18.5t-10 -16.5q-12 -34 -13 -35q-28 -43 -42 -76q-1 -1 -5 -11t-4 -12v-2l28 -52q1 -3 3.5 -6.5t3.5 -5.5l12 -26l15 -31t14 -25q32 -46 36 -57q-2 0 -2 -4q0 -3 12 -15q5 -7 10 -17t10 -16t16 -10v-18
q0 -3 -2.5 -4.5t-3.5 -2.5l-3 -3q-1 -3 -2 -4.5t-3.5 -2.5t-4.5 -2q-46 -31 -83 -31q-21 0 -35 10q-6 5 -11 13.5t-9.5 20.5t-7.5 17zM83 113q-4 0 -4 -4q4 0 4 4zM63 101q1 0 1 -2t-1 -2q-2 0 -2 2t2 2zM81 117v-2q4 0 0 2zM83 120l2 -2v2h-2z" />
    <glyph glyph-name="Y" unicode="Y" horiz-adv-x="556" 
d="M138 19l-3 -2h-4q-3 0 -7.5 1.5t-9.5 0.5q-46 18 -47 19v2q0 1 5 9t5 12h-2q-2 -2 -3 -2v2q0 1 2.5 5t2.5 9h-2v2l3 3q14 21 15 28v6q0 2 1 6l2 5l80 158q2 12 21 42t19 46q-1 0 -7 -1h-6q-4 1 -11.5 11t-8.5 11l-22 30l-2 2l-81 111q-12 16 -44 66q-1 1 -3 5t-4 7l-2 3
v8q0 2 -5 7v22q0 2 9 9t12 7q14 0 38 -8q27 2 56 -6.5t43 -27.5q5 -5 14 -23l47 -72q9 -7 21.5 -26.5t19.5 -26.5l2 2l46 73v2l1 2q4 5 11 19t10 19l45 68q6 16 23 16q1 0 4.5 -1t5.5 -1q0 2 -2 2q-1 2 -1 3v2q6 -4 17 -4q8 0 22 3t22 3q20 0 35 -12t15 -31v-3
q-9 -19 -49 -85q0 -1 -4 -12.5t-6 -13.5q-5 -9 -14 -14q-6 -7 -12.5 -19.5t-12.5 -28l-8 -20.5q-10 -19 -52 -87q-2 -2 -6 -11t-8 -12l-29 -44q-17 -25 -42 -75t-38 -71l-6 -9l-6 -9l-6 -12q-3 -5 -10 -13.5t-9 -12.5q-3 -4 -12 -25.5t-19 -35.5t-23 -15h-3q-3 1 -4 1h-2
q-3 0 -4 -3q-6 0 -9 3l-2 1z" />
    <glyph glyph-name="Z" unicode="Z" horiz-adv-x="504" 
d="M31 78q-1 2 -4.5 3.5t-4.5 3.5q0 3 3 9t2 10l1 2l-5 5q0 3 5.5 6t5.5 4l-3 6v1q1 -1 2 -1l39 33q3 1 8 12q2 4 8 12.5t8 13.5q30 58 85 133q1 2 16.5 22t21.5 31q1 3 1 9.5t2 9.5q2 0 9 11q1 0 1 0.5t1 0.5l42 75q-1 1 -1 8t-1 7q2 6 16 20.5t13 20.5q-23 2 -68 -11
l-98 -2q-43 4 -75 23t-31 54l-8 21l-1 3q-1 4 5 10q11 10 27.5 15t28 6t35 1.5t31.5 0.5q6 0 36.5 3t49.5 1h48q0 -2 1 -3q1 2 0 3l126 3l13 -1q22 -2 29 -6l6 -3l5 -37q-2 -5 -2 -19q1 -7 7 -23.5t7 -25.5q2 -21 -6 -41q-2 -5 -3 -6l-25 -46q-6 -8 -67.5 -102.5
t-88.5 -127.5q0 -4 -3 -4q-1 -2 -6.5 -8.5t-5.5 -7.5q1 -4 -18 -30l-1 -1l-1 -1l-11 -21l-6 -14q1 -5 7 -5l14 -1q1 -3 10 -12l17 -2q9 -1 47 2q13 0 22.5 2t24.5 1l1 1h1q1 0 3 -0.5t4.5 -1.5t3.5 -1l26 6q0 3 -5 8v3l13 -1q5 5 24 2q1 0 1 1.5t1 1.5q0 3 2 1q1 -1 1 -2
l4 -7l1 4q2 -1 2 -6q0 -3 -2.5 -5t-1.5 -4v-1l2 -2l5 3q2 -3 4 -10t5 -11q3 2 5 -3.5t2 -8.5q2 -5 0.5 -20.5t-7.5 -14.5v-1q1 -1 5 -5.5t5 -4.5t3 1l1 -4q0 -8 -3 -8l-11 1q5 -6 4 -9t6 -7v-1l-4 -2q-2 -6 -3 -6q-1 -2 -5.5 -3.5t-5.5 -2.5h6l1 -2h-29q-8 0 -23.5 -1
t-24.5 0l-4 1l-3 1q1 -1 0.5 -2t-1.5 -1t-1.5 1t0.5 2q-2 1 -5 0.5t-4 -2.5q-11 2 -14.5 -0.5t-14.5 -1.5q-3 0 -6 2l-1 1q-3 0 -6 -2t-6 -2q-36 -2 -63 1h-1l-3 2q-5 2 -10 -3h-27l-12 -2q-3 -1 -20 -2.5t-19 -1.5q-42 -3 -44 -3q-6 0 -8 5l-7 5h-8q-2 1 -5.5 4.5t-6.5 4.5
q-23 2 -29 4l-4 3q-15 12 -20 22.5t-7 30.5zM113 244h2q1 -4 -14 -23q0 -2 -7 -9q2 7 10 19t9 13zM258 211q-2 -1 -7 -9.5t-5 -10.5v-1q16 7 13 19v1zM166 316h1q0 -2 -3 -6.5t-8 -9.5l-6 -6q2 7 7 15t9 7zM445 140l-3 -5q3 0 3 5zM196 361q2 -2 2 -3q0 -3 -3 -3l-1 2
q0 1 1 2t1 2zM130 268q2 -5 -1 -5l-2 1q2 4 3 4zM455 71q-2 0 -2 -2t2 -2q1 0 1 2t-1 2zM248 180v-4h-1q-2 1 1 4zM276 223q1 -1 1 -3q-1 1 -1 3zM388 20q-4 0 -4 -1h3h3zM463 139l3 2v-4zM462 146q5 -2 0 -4v4zM181 340l1 -4h-2q0 4 1 4zM458 15h-1q-1 -2 1 -3v3zM274 236
l-2 -2l3 -1zM209 377l-2 -2h-2l3 2h1zM464 133l3 -1l-3 -1v2zM135 274q0 -2 -1 -2h-2q2 0 2 2h1zM213 383q0 -1 -1 -1t-1 1v1zM223 154l1 -2q0 1 -1 2zM283 672v-1h-1q0 1 1 1zM469 129q-2 -2 -2 0h2z" />
    <glyph glyph-name="underscore" unicode="_" horiz-adv-x="546" 
d="M42 14l-19 25q-3 3 -3 7q0 3 13.5 10t18.5 8q4 0 19.5 0.5t47 1t77 1t123.5 1.5t171 1q3 0 6.5 0.5t5.5 0.5l2 -1q2 -1 6 0q15 -17 15 -36q0 -1 -1 -1l-2 -2q0 -2 2 -5t2 -4v-1l-3 -2q1 -3 -3 -4l-8 -2t-4 -4q-56 -7 -225 -5t-227 0q0 2 -5.5 6t-8.5 5z" />
    <glyph glyph-name="a" unicode="a" horiz-adv-x="521" 
d="M20 41v2q0 3 2 8.5t2 7.5q0 3 -1 7.5t-1 6.5l7 19q5 34 12.5 68t19.5 81.5t16 66.5q13 61 22 86q1 0 13.5 47t12.5 51q29 107 41 167l9 19l1 2h7q6 0 17 -2.5t17 -2.5q1 0 3 0.5t4 0.5h3q2 -3 3 -3h6q36 -4 58.5 -12.5t45.5 -31.5q10 -9 19 -42t16.5 -75.5t9.5 -49.5
q23 -97 40 -160v-17q3 -1 6 -15.5t5.5 -32.5t3.5 -21l4 -3q1 -4 2.5 -13.5t3.5 -13.5q1 -2 5 -8l4 -7q19 -39 30 -93q0 -2 1 -2l9 -8l2 -2v-1q0 -2 -2 -4.5t-2 -3.5v-3q3 -5 4 -5v-2q-2 -3 -2.5 -7.5t-1 -6.5t-1.5 -2h-11l-4 -6q-3 -2 -44 -6q-1 0 -12.5 -0.5t-15.5 -0.5h-4
q-15 0 -27 3l-1 1q-4 3 -4 5q0 4 5 4q-5 4 -10.5 17t-8.5 15l-1 7v8l-8 24q-1 1 -2.5 6l-3 10t-1.5 6q-1 2 -3 12.5t-5.5 16.5t-8.5 7q-16 2 -25 2q-6 0 -15 -5.5t-12 -6.5q-58 -17 -73 -17v2q8 3 11 3h10l3 2q3 1 6.5 2.5t4.5 1.5l1 1q1 1 2 1h-3q-9 0 -27 -4t-27 -4
q-2 0 -5 3h-1q-6 0 -8.5 -2t-3 -8.5t-1.5 -10.5q-2 -6 -2 -7l-10 -43q-8 -10 -10 -25q-4 -2 -6 -9t-6 -9q-5 -3 -15.5 -4.5t-14.5 -3.5q-5 0 -5 -4h-2l-3 3h-5q-6 -1 -11.5 -1t-13.5 1t-14.5 3t-13.5 7t-11 13zM253 437l-30 -105q-1 -3 -8.5 -22.5t-8.5 -30.5h7l80 9l2 3
q-2 7 -2 11q-22 70 -24 76q-14 54 -16 59zM445 63q0 -5 4 -5q0 4 -4 6v-1z" />
    <glyph glyph-name="b" unicode="b" horiz-adv-x="450" 
d="M44 45l-18 498q-3 12 -3 30q-1 9 -1 39.5t1 39.5q-3 6 -3 10q0 16 12 21q32 -2 91 2t83 4q62 0 100 -19t64 -69q34 -75 6.5 -136.5t-79.5 -66.5q93 -19 113 -84q20 -48 20 -130q0 -27 -33 -84q-19 -33 -32 -44t-50 -27q-23 -10 -28 -10v2q-16 -6 -38 -8q0 -4 -1 -4t-1 4
q-3 -1 -9 -1q-4 -2 -11 -8q-2 -2 -21 -2q0 2 1.5 3t1.5 3q-7 0 -21.5 -4t-22.5 -4q-7 0 -23.5 4t-24.5 4q-4 0 -7 -2q-32 -8 -42 -8h-4l-3 1q-5 4 -8.5 20t-7.5 21l-1 2v3zM168 315v-194q16 0 32 4q35 10 47 12q2 1 2.5 2.5t3.5 2.5l5 2q45 17 55 59q2 5 2.5 18t-1.5 31.5
t-16.5 36t-40.5 25.5h-8q-8 1 -11 3q-8 -1 -20.5 1t-17.5 2t-15.5 -2.5t-16.5 -2.5zM167 570q0 -17 1.5 -60.5t1.5 -61.5l55 6q29 7 37 37t-14 57.5t-67 27.5q-14 0 -14 -6z" />
    <glyph glyph-name="c" unicode="c" horiz-adv-x="432" 
d="M25 217q0 10 -2.5 66.5t-2.5 65.5v8q0 19 10 101q0 2 0.5 19.5t0.5 19.5q7 55 37.5 101.5t79.5 67.5q39 18 88 18q19 0 36.5 -2t44.5 -12.5t46.5 -28t34 -52.5t14.5 -83v-24q0 -10 -3 -10q-5 -1 -5 -2q-1 -1 -4 -7.5t-6 -7.5q-39 -11 -63 -10l-2 -2h-5q-11 0 -26.5 4
t-15.5 13q0 4 1.5 27t1.5 36t-2 25q0 1 -2.5 9.5l-3.5 12t-4 11t-6 10.5t-8.5 6t-11.5 3h-2l-5 -2l-9 -4.5t-14 -6.5t-8 -4l-2 -3l-4 -3q-28 -19 -36 -29q-11 -12 -22 -47t-11 -54q0 -5 1 -14.5t1 -14.5v-2q0 -1 -0.5 -9.5t-0.5 -9.5v-2q3 -39 6 -46q0 -1 0.5 -4t0.5 -4v-32
q0 -8 3.5 -23t4.5 -21q0 -1 0.5 -4t0.5 -5q10 -94 31 -125q7 -9 21.5 -22.5t20.5 -19.5q35 18 46 94q3 12 8 65q0 30 2 38q0 5 10 28.5t12 23.5h1q0 -2 4 -2q2 1 2 2v6q2 0 5.5 -1.5t5.5 -1.5t6 1.5t6 1.5t5 -1.5t6 -1.5l1 2q10 0 14 -2q-5 0 -5 -1l3 -2q2 -2 3 -2l2 1
q1 -1 1 -3l2 2l9 -6v8q3 -9 12 -13l1 -1q1 0 2 3l2 3v-2v-3l-1 -3v-1l5 -3q5 -4 6 -5q10 -11 10 -31q0 -76 -38 -181q-8 -10 -15.5 -26t-15.5 -26t-23 -17q-7 -3 -23.5 -6.5t-24.5 -7.5l-3 -2l-3 -3q0 -1 -1.5 -1t-1.5 -1q-17 -7 -43 -11q-11 -1 -16 -1q-52 0 -94.5 36
t-62.5 88q-12 33 -20 94zM285 250l3 -2q6 6 6 10v30q-9 -6 -9 -29v-9zM329 332v-6q3 0 12 2.5t9 3.5v2h-22v-2h1zM364 336l-2 2l-1 -1q0 1 -3 4h10l-2 -3z" />
    <glyph glyph-name="d" unicode="d" horiz-adv-x="466" 
d="M67 19q-1 -1 -4 -1t-4 -1h-2l-8 6q0 2 -0.5 8t-0.5 7q-2 7 -2 8v19q-6 6 -6 11q-6 15 -6 49v10q4 -8 8 -47l2 1v8q0 11 -1.5 33.5t-1.5 34.5h5q0 -3 1 -16t1 -15q0 -35 5 -35h1q0 2 7 23v3q0 13 -3.5 71.5t-3.5 120.5q-7 110 -8 111l-4 4q-4 -10 -6 -13q-5 5 -7 5v10
q-1 -3 -6 -8v203l1 3q0 2 -2 5t-2 5h4q-4 1 -4 7q0 4 8.5 5.5t8.5 12.5q4 0 11.5 -2t10.5 -2q8 0 26 7.5t28 7.5h74h33l2 1h1q1 0 3 -0.5t5 -0.5t5 1t5 1v-4q0 -3 15 -3h5l3 3q4 0 6 -2h-6q5 -4 24 -4q1 0 2 1t2 1h3q16 -6 34 -10q3 0 8 -5l-2 -4v-1q0 -5 10 -5h5l7 4
q5 1 8 -6t7 -7h1l2 1h1q3 0 3 -4q0 -2 -2 -3l1 -2q4 0 5 1v-2q2 0 4 -3t3 -4q23 -15 38.5 -43t15.5 -55q0 -4 -1 -10t-1 -9q0 -8 2 -26t2 -27v-19q-2 -14 -2 -44q-2 -6 -4 -10q4 -42 -15 -118q0 -1 -0.5 -2t-0.5 -2q-3 -20 -6 -25q-3 -8 -10 -23.5l-12.5 -28t-8.5 -23.5
q0 -1 -1.5 -7t-3.5 -10.5t-5 -6.5l-15 -31q-2 -2 -9.5 -10.5t-10.5 -10.5q-1 -1 -5.5 -1.5t-5.5 -0.5q-6 -3 -16.5 -10t-19.5 -11q-2 0 -12 -4t-21 -9t-13 -6q-12 -5 -48 -8t-42 -4q-7 -1 -21 -4.5t-25 -5.5t-21 -2h-4q-15 0 -19 4h-2zM162 212q2 0 2 -2t-2 -2h-1v-36
q1 -4 1 -22q0 -8 -0.5 -22t-0.5 -21v-12l3 -1l2 -2q21 0 46 17t32 34v1l1 2q5 0 9.5 11.5t8.5 24.5t5 15v-11q-7 -21 -7 -30v-1q0 -10 3 -13l15 52l2 -4q8 32 11 67q3 -3 3 -21l3 -2v-21q4 -6 4 -10q0 1 1 1l1 2q2 0 2 13l8 8q6 7 6 35v4t0.5 6.5t0 7.5t-1 7t-2.5 5t-5 2v-5
h-2l-2 -1h-2q-1 2 -2 8t-3 9v30q0 -3 3 -3q3 1 6 9.5t5.5 18.5t3.5 12q0 1 0.5 7t0.5 7q0 15 -5.5 46t-12.5 35l-1 -4l-9 33q-2 -2 -3 -2l-2 2q6 17 10 17v4q0 1 -2.5 6t-2.5 6l-1 -3l-12 25q-8 9 -11 10q-15 4 -94 12l-10 -3v-6q0 -15 1 -43.5t1 -42.5v-10q-2 -1 -2 -2
l1 -3l1 -3v-1q0 -12 -5 -12q-3 -11 -3 -33l1 -11l2 -2q1 -16 1 -23v-25q0 -9 -0.5 -27t-0.5 -28v-19q4 -12 4 -27q0 -8 -2 -22t-2 -19zM30 420v-4q1 -3 2.5 -5.5t3.5 -2.5v-14q-3 0 -3 5l-4 -4v8q0 2 0.5 9t0.5 8zM36 232v4q5 -2 5 -18h-3q-2 0 -2 14zM239 580q3 -2 13 -6v3
l-1 3h-12zM164 419q0 -1 0.5 -3l0.5 -2q0 -8 -5 -8q0 9 4 13zM30 378h3v-1q0 -2 -1 -11t-2 -11v23zM29 388l1 5l3 -3q0 -3 -3 -6l-1 2v2zM34 464q-3 1 -3.5 -0.5t-0.5 -4.5v-2q4 4 4 5v2zM29 319q0 5 1 8v-18q-1 4 -1 10zM30 352q2 0 2 -2.5t-2 -2.5q-1 0 -1 2.5t1 2.5z
M36 508q0 -3 2 -3l1 1q0 4 -3 4v-2zM292 276l1 -3q0 -4 -2 -5v2q0 4 1 6zM38 499v-12q1 1 1 6t-1 6zM344 90q-2 0 -2 -1.5t2 -1.5q4 0 2 2q-1 1 -2 1zM394 626q2 0 2 -2t-2 -2t-2 2t2 2zM34 490q-1 0 -1 -2.5t1 -2.5q2 0 2 2.5t-2 2.5zM298 513q-1 0 -1 -2t1 -2q2 0 2 2
t-2 2zM292 670q-1 0 -1 -2t1 -2q2 0 2 2t-2 2zM42 183q2 0 2 -1.5t-2 -1.5t-2 1.5t2 1.5zM304 394q2 0 2 -1.5t-2 -1.5t-2 1.5t2 1.5zM258 577v-5l3 5h-3zM36 484q-1 0 -1 -2.5t1 -2.5q2 1 2 2.5t-2 2.5zM264 574l2 -3q0 -1 1 -1q0 1 1 1l-2 3h-2zM279 186v-4q1 1 1 2.5
t-1 1.5zM49 202q1 -1 1 -3t-1 -3v6zM30 474v-4q2 0 2 2t-2 2zM369 643q1 0 1 -2t-1 -2t-1 2t1 2zM42 36q1 -1 1 -3t-1 -3v6zM298 348q2 0 2 -1.5t-2 -1.5v3zM34 500q-1 0 -1 -1.5t1 -1.5q2 0 2 1.5t-2 1.5zM30 178q1 -2 0 -3q-1 0 -1 1.5t1 1.5zM34 434v-4l2 4h-2zM292 288
v-2v2zM40 202q1 0 1 -1.5t-1 -1.5v3zM283 222q1 0 1 -1.5t-1 -1.5v3zM40 52q2 -2 0 -3q-1 0 -1 1.5t1 1.5zM270 203q1 0 1 -1t-1 -1v2zM277 568v-1v1zM38 428h-2q2 -2 2 0zM312 360v-1v1z" />
    <glyph glyph-name="e" unicode="e" horiz-adv-x="433" 
d="M33 40q0 4 4 8q-11 6 -9 23l-4 381q0 19 1.5 58.5t1.5 59.5v3q-3 60 -3 68l-3 13q-1 1 7 17q3 6 13.5 6.5t13.5 1.5h46q4 -2 20 -2q12 0 36.5 1t37.5 1q17 0 59 -1.5t65 -0.5l5 -2l2 1q2 1 3 1h6q10 0 16 -6l4 2q2 -1 2 -2q11 -30 18 -78q0 -2 2.5 -6t2.5 -7
q0 -11 -25 -14h-2l-3 -4q-13 1 -36 -2t-31 -3q-1 0 -23.5 -1t-30.5 -1h-11t-17 -1t-17 -2.5t-15 -5t-7 -9.5q0 -25 -2 -35q0 -5 0.5 -26.5t0.5 -24.5h24q0 -4 13 -5.5t32.5 -1.5h21.5q4 0 12.5 -4t12.5 -4q1 0 3 1t3 1h9q14 0 16 -6v-2q1 -1 1 -2q8 -32 8 -43v-8
q-3 -1 -3 -4q0 -2 2.5 -4t2.5 -4q0 -5 -2 -6v-30q0 -3 -7 -7t-11 -4h-49q-2 -2 -10 -2l-63 -8h-1l-16 -2l-3 -6v-129q0 -8 -3 -14v-2l1 -1q1 -1 2 -1h1q30 4 109 4h63q1 0 4.5 -0.5t7.5 -0.5l3 -1h3l17 -2v-9l4 7h1q15 0 24.5 -6.5t13 -21t4.5 -24.5t1 -28v-6q-6 0 -6 -8.5
t-8 -8.5q-4 0 -7 7v-16q0 -2 -12 -5t-15 -3q-50 -1 -122 -10h-119q-4 -2 -8 -2h-36q-7 0 -13.5 -4t-14.5 -4q-3 0 -11 12.5t-8 16.5zM358 146q-6 0 -21.5 -6.5t-23.5 -7.5q-12 0 -25.5 -1t-29.5 -2.5t-25 -2.5h-20l-3 -1q-8 -2 -25 -1.5t-25 -2.5l-8 -6h27q31 0 92 3.5
t92 3.5v12q0 1 3.5 3.5t3.5 4.5v2q0 -1 -2 -2l-2 -1h-1q-1 0 -3.5 2.5t-3.5 2.5zM321 361q1 0 1 -1.5t-1 -1.5t-1 1.5t1 1.5z" />
    <glyph glyph-name="f" unicode="f" horiz-adv-x="448" 
d="M272 434q2 0 2 -2q7 0 10 2l-2 -4q-3 -4 -4 -5q2 1 5.5 -1t5.5 -2q0 1 -2 4t-2 5q4 0 5.5 -1.5t2.5 -4.5t3 -5q3 1 3 0l2 -5q17 -43 17 -57q0 -29 -29 -41.5t-64 -12.5h-14q-2 2 -6 2h-1l-3 -1l-3 -1h-23q-6 -2 -6 -6q0 -16 2.5 -47.5t2.5 -47.5h-5q0 5 -2 15t-2 14
q0 2 1.5 5t1.5 4q0 6 -1.5 13t-4.5 6q-3 9 -3 16q0 8 3 11v4q0 5 -3 6l-1 -4v-39q2 -3 2 -12v-3q-1 -3 -1 -4q-1 -1 -1 -2q-2 -9 -2 -11q-2 -12 -2 -30q0 -6 2 -8q1 2 4 2q0 -10 -2 -27.5t-2 -26.5q0 -10 3 -17q-1 -1 -1 -4q0 -5 3 -17t3 -18v-3q0 -3 -5 -8v-11
q-1 -4 -7.5 -9.5t-11.5 -4.5q0 -11 -17.5 -16.5t-32.5 -5.5q-6 0 -4 6v3q-4 0 -4.5 -1.5t-0.5 -9.5q-4 0 -8.5 -1t-7.5 -1h-1h-3l-3 1q-3 -1 -4 -1h-3q-6 0 -8 1v1q-2 18 -23 24v475q0 19 2.5 67t1.5 74q1 2 4.5 4t3.5 6q2 0 7 -1t6 -1q1 4 9 4h33l4 -3h92q1 0 3 -0.5
t3 -0.5q15 0 45 2.5t44 2.5h52q1 0 11.5 1t13.5 1l9 3l9 3q-1 1 -0.5 2.5t1.5 1.5t1 -1.5t-1 -2.5h3l-1 -2q20 -1 36 -25l6.5 -15.5t7 -19.5t2.5 -17q0 -7 -4 -22.5t-4 -24.5q-2 -2 -4.5 -4t-4 -3.5t-3 -4t-1.5 -6.5h-2q-1 0 -4.5 3.5t-5.5 3.5l-2 -1q2 -2 2 -3l-2 -4h-5
q-4 0 -11 2.5t-12 2.5q-17 0 -16 -5q-10 8 -58 8q-3 0 -11 -3.5t-12 -3.5h-2q-3 3 -4 5t-2 2.5t-7 1.5q-2 0 -11 0.5t-10 0.5q-5 0 -17 -4v6q-2 0 -31 -8q-13 0 -25 -4l-5 -1v-1q0 -7 1 -22t1 -23v-21q-4 -18 -4 -24q0 -13 2 -16q6 0 6 13v4l-1 4q-3 3 -3 4q1 6 2 9
q0 1 0.5 3t0.5 3l5 37q1 -1 1 -12q4 -40 4 -64h44l4 -2h-6q2 -1 6 -1.5t6 0.5l3 2l4 -2q7 -1 10 -1q10 0 25 3v1q-3 3 -6 3q5 3 11 3q0 2 2 2zM57 253q3 -1 3 -10q1 -2 1 -8t-1 -8q4 11 4 36q0 5 -1 14.5t-1 14.5q0 11 1.5 36t0.5 42l5 1v-7q4 34 4 60q0 5 -3 9t-8 3
q-2 0 -5 -6l-3 -5q0 -1 -1.5 -8.5t-1.5 -9.5l3 3v-2l1 -2q0 -3 -1.5 -9.5t-1.5 -11.5v-8l2 -4l3 4q-1 -7 0 -15t1 -11v-5l-4 2l-2 -4v-34q6 -2 6 -13q0 -6 -0.5 -18t-0.5 -17v-9zM299 593q-1 0 -12 -1t-12 -1h-18q-4 -1 -12.5 -4t-12.5 -4h9q44 0 64 8zM366 606q-6 -2 -6 -6
q3 0 9.5 2.5t12.5 1.5l-5 12l-3 7h-16v-1q9 0 9 -8q-3 0 -4.5 1t-3.5 1h-1l-1 -2v-1q0 -3 4 -4t5 -3zM73 316q0 -2 1 -14.5t2 -14.5q0 -1 0.5 -3t0.5 -3l2 2v8q0 21 -2 34h-2v16q-3 0 -3 -1q-2 -1 -2 -11q0 -11 3 -13zM58 194q0 -11 2 -14l2 2q3 14 4 19v5q0 7 -4 8
q-4 -1 -4 -20zM173 199q2 -2 2 -6q0 -15 -2 -15l-2 -1v9q0 12 2 13zM154 576v-4l11 1v3h-11zM79 246q0 -8 3 -14v5q0 7 -3 14v-5zM376 567q-2 0 -5 -4l-1 -1h2q4 0 5 4zM211 582q-1 0 -6 -3h3q2 0 5 3h-2zM67 390q1 -2 1 -3q0 -4 -2 -4v2q0 3 1 5zM357 603q-3 -1 -3 -5h3v5z
M379 671q-1 0 -1 -1.5t1 -1.5q4 0 2 2q-1 1 -2 1zM370 608q2 0 2 -2t-2 -2t-2 2t2 2zM372 612q2 0 2 -2t-2 -2t-2 2t2 2zM67 417q2 0 2 -2t-2 -2q-1 0 -1 2t1 2zM316 595v-2h6zM270 426q-1 0 -1 -1.5t1 -1.5q2 0 2 1.5t-2 1.5zM58 340q2 0 2 -1.5t-2 -1.5q-1 0 -1 1.5t1 1.5
zM159 134q1 -2 0 -3v3zM225 536h1v-3h-1v3zM276 429q-1 0 -1 -1.5t1 -1.5q2 2 0 3zM368 533h2v-1h-2v1zM377 671h-1h1zM376 614q2 -2 0 -2q-1 0 -1 1t1 1z" />
    <glyph glyph-name="g" unicode="g" horiz-adv-x="478" 
d="M133 32q-4 2 -6 4l-3 2q-31 21 -36 41l-3 -3v1q-28 38 -43 87q0 -6 -3 -7q-4 4 -4 17v3l5 -5l-10 43q-1 7 -5.5 52.5t-4.5 65.5v21q0 28 19 129q0 1 1 9l1 8q3 26 21 65q29 63 81 96.5t119 33.5q9 0 18 0.5t11.5 0.5t8 -1t10 -3t16.5 -8l9 -6q6 -4 43 -20q3 -4 12 -10
t13 -11v-2q5 -5 5 -9q1 -1 7 -6.5t6 -6.5q2 0 2 -4q1 -1 5.5 -9.5t5.5 -14.5q2 -6 3.5 -16t2.5 -16q0 -105 -12 -105q-17 -14 -39 -14q-3 0 -8.5 1.5t-7.5 1.5l3 3v1l-4 3q-3 4 -4 5l-1 -4h-22q0 -1 0.5 -3l0.5 -2l-5 -5h-10q-25 0 -27 5l-3 13v3q0 3 0.5 8t0.5 8h-1
q0 4 -2.5 13t-2.5 12v3l6 11q2 -9 9 -9l4 1v2l-10 9v4h11v2l-1 2q-3 3 -3.5 8t-3.5 8q2 4 6 4v14q0 36 -12 50.5t-30 11.5q-14 -2 -38 -12h-1l-1 -1q-12 -5 -21.5 -21.5t-12.5 -20.5q-2 -3 -21 -46q-14 -26 -15 -29q-17 -51 -17 -124q0 -29 7 -120q5 -53 21 -108q0 -6 2 -6
h2l20 -32v-2q3 0 9 -3.5t10 -3.5q7 0 20 5.5t19 5.5q1 0 4 -1t5 -1t12 10v1l19 32q3 3 4.5 10.5t3.5 10.5v-2q0 -4 -1 -11.5t-1 -12.5v-6l2 -3q-10 -7 -10 -22h2l-1 -1q1 -1 1 -2q1 0 6 4t6 5h8q2 1 8.5 16t7.5 19q3 17 6 18v82q-2 1 -2 5t-1 4q-3 0 -8.5 -2.5t-8.5 -1.5
l2 -1q4 -2 11 -2q-7 -9 -34 -9v-4q-7 -1 -10 -1q-21 -3 -23 -3q-41 0 -41 19v2l1 2l2 1q0 3 -2 10t-2 11q0 6 2 19.5t2 20.5q0 3 -2 6.5t-2 5.5v1l6 5l-4 4l-1 1q0 4 6 4.5t6 3.5q-2 4 -2 5h35l4 3v-6h10q0 6 2 6t3 -1.5t2 -1.5t5.5 2t7.5 2q5 0 7 -3q16 9 43 9q3 0 3 -2h12
l6 -2q5 0 7 2l2 2l-2 4h17l4 -4h4q-1 -1 -0.5 -2.5t1.5 -1.5t1 1.5t-1 2.5q10 0 13 -2q-1 -2 -2.5 -2.5t-2.5 0.5q0 -2 3.5 -3t8.5 -2t6 -2l3 -4q1 0 4.5 -1.5t6.5 -2.5t4 -1q-1 -4 1 -7t4 -3l-6 -7l5 -3l-2 -3q2 -1 2 -3t1 -2l-11 -6q8 -11 6 -19l4 1q5 -2 5 -14
q0 -144 -73 -210q-34 -32 -109 -51l-2 -2l-6 -1l-12.5 -2.5t-11.5 -1.5q-22 -2 -31 -2q-41 0 -79 20q-3 1 -1 6zM124 65q18 -20 45.5 -33t53.5 -13h1q11 0 17 2q-11 4 -24 11q6 1 6 4h-5l-32 16l-15 4l-3 1q-2 1 -3 1l2 1q-10 4 -26 27t-29 23q-7 0 -7 -13l2 -2q0 -6 5 -11
q2 -4 15.5 -11.5t19.5 -9.5q0 -3 -2 -3q-3 0 -9.5 3t-10.5 3h-1zM298 304q-2 -2 -5 -3.5t-4.5 -3.5t-1.5 -7h34q-2 1 -7 2t-8.5 2.5t-3.5 5.5q11 0 11 11q-7 0 -11 -3q2 5 -3 5h-1l-3 -5q-4 4 -4 6v2l2 1q1 -2 3 -2q8 0 6 7q-3 3 -4 3v1l-1 2h-15v-12v-4l-1 -4q0 -1 3 -1
q4 0 3 6q3 -1 3 -5q7 0 8 -4zM175 23q13 -11 52 -11q25 0 38 5h-4q-5 0 -13.5 -1t-12.5 -1q-10 0 -30 4t-28 4h-2zM40 153h2q0 -5 4.5 -18t4.5 -18l-1 -2q-10 14 -10 38zM285 244q0 -5 4 -5q6 5 18 5l-3 2q-1 1 -2 3.5t-2.5 3.5t-6.5 1h-2l4 -4q-1 -3 -5.5 -3.5t-4.5 -2.5z
M51 113q3 0 11.5 -16t8.5 -19q-3 2 -6.5 7.5t-4.5 6.5l-9 19v2zM309 235h25l-9 -4q-13 0 -14 3zM272 248q1 -2 7 -2h4q0 3 -6 3q-1 0 -3 -0.5zM387 298q-11 0 -15 -2h15v2zM355 438q3 3 6 3q0 -4 -3 -4h-1zM92 58q2 0 2 -2.5t-2 -2.5t-2 2.5t2 2.5zM313 298q-1 0 -1 -2.5
t1 -2.5t1 2.5t-1 2.5zM283 313q2 0 2 -2.5t-2 -2.5q-1 0 -1 2.5t1 2.5zM335 309q-6 0 -7 -2h7v2zM98 53v-1h1q1 0 1 -2t-1 -2t-1 3v2zM215 36q1 0 1 -2t-1 -2t-1 2t1 2zM173 26q-1 0 -1 -1.5t1 -1.5t1 1.5t-1 1.5zM306 299q-2 0 -2 -1.5t2 -1.5t2 1.5t-2 1.5zM130 41l6 -3
l1 1h-1q-2 1 -3 2h-3zM308 308q1 0 1 -2t-1 -2q-2 0 -2 2t2 2zM349 360q-1 0 -1 -2t1 -2t1 2t-1 2zM281 332q-4 0 -2 -2q1 -1 2 -1t1 1.5t-1 1.5zM289 349h-3q1 -1 3 0zM266 228q1 -1 1 -2t-1 -1q-2 0 -2 1.5t2 1.5zM109 105q1 0 1 -1.5t-1 -1.5t-1 1.5t1 1.5zM324 308h-4
l2 -1l2 -1v2zM342 446l-1 -2q3 0 3 2h-2zM291 242q0 -2 -2 0h2zM41 171v-5v5zM360 362q-2 -2 -3 0q0 1 1.5 1t1.5 -1zM282 336v-2h1v2h-1zM83 67l2 -2h-2v2zM295 323h-2q0 1 1 1t1 -1zM75 74v-1v1zM164 26v-1v1z" />
    <glyph glyph-name="h" unicode="h" horiz-adv-x="483" 
d="M328 506v-1v1zM305 25l5 17l1 -4q7 2 8 3q-1 4 -8 4l4 14l3 3h10l-3 -3h3q6 0 6 9q0 2 -1 7t-1 7q0 1 1 3t1 3q0 10 -12 13q7 11 7 27q0 19 -4 45q0 5 -3 7l-4 -1v-13q-1 7 -1 21q-5 9 -6 9q-3 0 -6 -1t-5 -1v43q-3 0 -3 4q-2 4 -2 17h-1q-22 0 -62.5 -5t-57.5 -6l-2 -1
v-128q-5 -41 -4 -71q-2 -6 -8.5 -14.5t-11.5 -10.5q-22 -4 -26 -7q-4 -1 -16 -2.5t-25.5 -3t-15.5 -1.5h-7q-5 0 -7 2t-2.5 7t-1.5 7q-5 2 -6 3v9l-2 5v3l1 1v2l-3 6q-2 59 -2 175q-5 30 -5 89.5t-4 88.5q0 12 -2 83.5t-2 84.5v78l-2 5v2q0 8 15 18h5q4 0 10.5 -2t9.5 -2
q11 0 32 3t32 3h15q8 -3 13.5 -15t5.5 -21v-5l-2 -33l-4 -8q0 -1 6 -25q0 -3 2 -5q0 -3 1 -22t1 -22v-3v-5q1 -5 1 -7v-99q0 -23 4 -51h6q10 0 29.5 1t29.5 1h33q5 -2 11.5 -3t11.5 -2q4 0 22.5 -4t20.5 -4l1 3q6 84 8 119v2l-4 30h-4l-4 -3q-5 -2 -6 -2l7 7v3q0 7 -1 8v9
l3 -6q1 8 1 20v6h-1l-5 -12v2q0 -2 -1 -7t-1.5 -8t-0.5 -4l-1 -1v-2v28l-3 4v10q0 15 4.5 45t4.5 45q0 4 -3 5q3 0 4 1.5t1.5 3.5t1.5 3l-3 4q4 6 11 2q0 8 3 13q2 0 2 -3q0 -2 -2 -2l15 -4h80q10 0 13 -2t3.5 -7.5t2.5 -9.5q5 -1 6 -2v-2l-3 -3v-2q1 -2 2 -2q-2 -1 -2 -8
l-1 -8q-1 -3 -5.5 -10.5t-5.5 -9.5q2 -3 3 -3q3 -11 3 -49q0 -12 -1.5 -43.5t-0.5 -49.5q-2 -4 -2.5 -13t-1.5 -12q-5 -24 -7 -109q0 -1 -0.5 -6.5t-0.5 -6.5q-6 -24 -6 -88q0 -23 1.5 -83t0.5 -92l2 -1q0 -5 -1.5 -6.5t-5 -2.5t-4.5 -2q-31 -23 -61 -22q1 -4 -10 -4
q-2 -1 -10 -2t-10 -1h-4q-3 0 -13 6h-1l-1 1q-10 5 -12 14zM314 28q0 -2 2.5 -5t1.5 -6q2 4 2 5q0 7 -5 7zM325 78l1 -1q0 -2 -3 -4.5t-4 -4.5v2q0 5 6 8zM325 511q2 0 2 -2.5t-2 -2.5q-1 0 -1 2.5t1 2.5zM347 498q-2 -2 -2 -9h2v9zM338 74v-6q2 1 2 6h-2zM446 605
q-1 0 -1 -2.5t1 -2.5q2 0 2 2.5t-2 2.5zM319 187q-1 0 -1 -2t1 -2q2 0 2 2t-2 2zM309 201q-1 0 -1 -1.5t1 -1.5t1 1.5t-1 1.5zM323 652q1 0 1 -2t-1 -2t-1 2t1 2zM331 650q-1 0 -1 -1.5t1 -1.5t1 1.5t-1 1.5zM347 505l-2 -4h2v4zM310 42l-1 3h2zM331 533q1 0 1 -1t-1 -1v2z
M322 501v-1v1zM323 643h2v-1zM366 675h-1h1z" />
    <glyph glyph-name="i" unicode="i" horiz-adv-x="183" 
d="M43 23v6q0 9 4 10q-7 6 -9 21v1l-4 28v266q0 3 -0.5 17.5t-0.5 16.5q0 9 -2 34.5t-2 39.5v4l2 7l-1 4q-1 4 -1 5q-2 6 -2 24q0 3 2 5v4q-2 6 -2 7q-1 2 -1 19q-1 5 -1 20.5t1 19.5q-6 18 -6 48q0 2 0.5 5.5t0.5 4.5t-0.5 3t-0.5 4q0 7 9 14.5t14 6.5q14 2 48 2h6q6 1 8 1
q18 0 46 -7q1 0 2 -0.5t2 -0.5q8 -3 8 -24q0 -2 -3 -3q-3 0 -4 -2l-4 -10v-1q0 -1 5.5 -12t5.5 -17t-2 -17t-2 -13v-74q0 -21 1.5 -63t1.5 -63v-23q-4 -4 -4 -32q0 -3 0.5 -9.5t0.5 -10.5v-2q0 -2 -0.5 -18t-0.5 -18v-124q-5 -15 -5 -26q0 -5 1 -14t1 -15v-9
q-3 -1 -4.5 -13.5t-3.5 -12.5q-5 1 -6 1q1 -5 1 -6t-4.5 -3l-10 -4.5t-7.5 -3.5q-36 -16 -65 -16q-4 0 -5 6.5t-3 8.5q-1 1 -2 1z" />
    <glyph glyph-name="j" unicode="j" horiz-adv-x="365" 
d="M216 556v2q-6 4 -6 30q0 3 0.5 5t0.5 4q0 5 -4 8q-2 0 -2 -2q0 -1 -1 -5v-4h-1q-2 2 -2 4v22q0 2 2 4l6 8l-2 2l-2 -3v21q0 5 12 8q-1 1 -4 2l-3 2v2l-1 2q0 8 15 8q2 0 8 -1t9 -1q1 0 3 2t3 2q2 0 4.5 -3t5.5 -3l3 2q1 1 2 1q4 0 11.5 -3t9.5 -3q41 0 42 -12
q0 -1 -0.5 -8t-0.5 -8h5q0 -5 -2 -14.5t-2 -13.5q0 -5 4 -11.5t4 -10.5q11 -116 11 -120q0 -2 -1 -7t-1 -8q0 -2 1 -3t1 -3q0 -5 -1 -14.5t-1 -14.5q0 -12 1.5 -37t1.5 -37v-2q0 -3 -0.5 -33t-0.5 -34v-71l-1 -3q-1 -4 -1 -5v-27q0 -7 -2 -13q-1 -4 -1 -5l1 -1
q0 -14 -14 -42q-1 -1 -4.5 -13.5t-7.5 -18.5q-3 0 -3 -1q-1 -1 -4.5 -6.5t-6.5 -7.5q-25 -21 -76 -38l-7 -2l-72 -12h-9q-44 0 -74 35t-36 81q-5 65 -5 85l-1 5v6v5l1 4q0 14 3 26q4 0 9.5 3.5t9.5 3.5t16 -4q12 -6 31 -6q10 -3 32 -19.5t25 -26.5q2 -2 2 -14q1 -7 3.5 -20
l3.5 -18q9 -57 9 -59h2q14 0 24 7l2 4q4 11 6 27l8 79v46l1 17l2 3q0 -2 0.5 -21t2.5 -27q0 6 6 4q0 4 3 15t3 16l-9 284v-1q-2 0 -2 2t2 2zM210 620l-2 1q-1 1 -1 2q-2 -4 -2 -11v-6l5 6l1 2h-3v3zM208 309q2 -7 2 -18q0 -7 -2 -8v26zM203 556l2 -2v-15h-2v17zM205 582
q1 -1 1 -3.5t-1 -3.5l-1 4zM253 618v-4l6 4h-6zM203 586q1 0 1 -2t-1 -2t-1 2t1 2zM213 636v-2h3l2 2h-5zM207 646v-5h2q0 3 -2 5zM208 314q2 0 2 -1.5t-2 -1.5q-1 0 -1 1.5t1 1.5zM210 655l-2 -3h2q1 0 1 2zM203 591l2 -4h-2v4zM201 577q1 0 1 -1t-1 -1t-1 1t1 1zM213 627
v-1h1l2 1h-3z" />
    <glyph glyph-name="k" unicode="k" horiz-adv-x="508" 
d="M34 0l3 3l-4 4l-7 5v1l2 2v12l1 4v2q0 2 -3 5l-6 602q0 3 5 29q0 7 1 7l4 3q3 3 3 4q2 2 7 4t7 6q0 -3 5 -3h45q7 3 20 3q18 0 27.5 -7.5t10.5 -19.5t1.5 -26.5t0.5 -27.5l1 -4v-5t1 -7.5t1 -8.5v-56q0 -14 1 -64t1 -64v-1q4 1 7 6l138 256q18 26 37 26l75 -5
q22 0 22 -33q0 -3 -2 -5.5t-2 -3.5l-131 -242v-9q0 -9 3 -17t10.5 -19l9.5 -14q2 -5 4.5 -14.5t5.5 -13.5q1 -4 14 -25q29 -48 31 -51t6 -13t8 -13q2 -8 28 -65q1 -2 4.5 -6.5t4.5 -7.5q1 -2 1.5 -7t1.5 -8l2 -2q2 -1 9 -18q1 -4 5 -10.5t5 -9.5q8 -30 22 -42q0 -2 1.5 -6.5
t1.5 -7.5q0 -2 1.5 -5.5t2 -5t-2.5 -3.5l-24 -7h-54q-1 1 -12 2t-12 2q-4 0 -4 3l-1 -3l-3 3q-8 6 -12 10t-8.5 10.5t-13 23.5l-19.5 38l-34 66l-51 97l-12 29l-12 12q-1 0 -2 1t-2 1q-1 2 -2 2q-6 -7 -43 -31l-2 -2l-4 -83q-1 -1 -1 -5v-1q0 -7 0.5 -21.5t0.5 -22.5v-25
q-1 -1 -1 -10q0 -6 0.5 -20t0.5 -21v-9l-1 -2q1 -9 1 -20v-6l-1 -2q-2 -3 -9 -7.5t-9 -8.5q-2 3 -6 3q-5 0 -13.5 -4t-11.5 -4q-3 -1 -19 -1h-14q-1 0 -2 -1t-2 -1h-33q-1 1 -1 2z" />
    <glyph glyph-name="l" unicode="l" horiz-adv-x="412" 
d="M20 460v164q5 21 7 28q2 8 14 14.5t14 10.5q12 -1 30 1.5t25 2.5q18 0 46 -16l1 -1h1q7 -7 9 -14.5t2 -24v-17.5l2 -9v-4q-3 -35 -5 -210q0 -1 -1 -5l-1 -4q-1 -25 -2 -35v-2q0 -2 1 -21t1 -21q3 -92 10 -165q2 -8 2 -16l2 4h187q27 -4 27 -51q0 -9 -2 -33q-4 -9 -10 -9
h-2l-4 11h-4q-1 -11 -5 -11l-2 2q-5 -1 -9 -4t-5 -3h-1l-10 2q-16 0 -26 -2q-82 -11 -88 -11h-5l-5 2q-6 0 -23.5 -1.5t-26.5 -0.5q-3 -5 -31 -10.5t-38 -5.5h-8l-2 2q-1 0 -3 -1t-3 -1h-6q-11 0 -15 3.5t-7 12.5q-1 1 -1 2t-2 5l-1 4l-1 5z" />
    <glyph glyph-name="m" unicode="m" horiz-adv-x="691" 
d="M654 358q1 0 1 -1.5t-1 -1.5h-2q2 -4 2 -7h-3l-1 -1v-1l2 -1l2 -1v-22l-3 -4v-19l3 -1l-3 -4l1 -5l2 -5l-3 -4q3 -3 3 -4v-6q-4 0 -4 -4l1 -3v-2q0 -11 -1 -12l-2 1q0 1 -1 5l-1 4q-1 -7 -1 -15q0 -56 9 -79q1 1 1 2v1q0 2 -1 6t-1 7q0 1 0.5 3l0.5 2q10 -29 10 -32v-2
q-3 9 -11 9q0 -10 6 -34q-2 -2 -2 -4l1 -5q1 -4 1 -5v-5l1 -30l4 -1q0 -7 2 -11q0 -7 3 -7h2v-2l-2 -10q-1 -1 -5 -1.5t-5 0.5v-3l2 -1q3 -1 3 -3v-1q-10 -2 -14 -5q1 0 1 -2q1 0 1 -1q0 -6 -19.5 -13.5t-26.5 -7.5h-3l7 3v1q-32 0 -36 -1l8 -3h-7q-11 0 -12 5q-7 1 -15 1
h-4l1 -1h-1q-2 0 -3.5 2t-2.5 4.5t-2 3.5v19q-5 3 -5 13v5q2 8 2 31l3 5v2l-1 1q-1 1 -2 1v31q4 2 4 7q-1 6 -1 7t0.5 13t0.5 13t-1 9v8v23q0 1 -1 7.5t-2 7.5q0 1 -1 3t-1 3q5 5 5 7q0 1 -3 3l-2 1v1q2 2 2 7v1q0 3 -5 3v11l3 4v2h-3q0 5 2.5 13t2.5 13q3 42 3 85l3 12
l-3 6v20l-3 2v-16h-2q0 2 -0.5 10.5t-0.5 9.5l-8 57q-6 0 -13 -21v-12q-1 -7 -8 -21t-8 -21v-8q-1 -5 -4 -13t-4 -10q-3 -7 -6.5 -23t-7.5 -24q-2 -4 -9 -22v-1q-1 -1 -1 -2l-4 -5v-8q-5 -24 -18 -45h-3q-6 0 -5 3q-11 -15 -12 -20q-5 0 -7 -3t-3 -8.5t-2 -6.5
q-8 -11 -25.5 -16t-30.5 -3l-2 -3q-10 0 -27 -1.5t-26 -1.5q0 2 -1 3q-2 0 -3 1v2l7 3l-2 2h-2q-1 0 -5 1.5t-5 2.5l-1 1q0 4 4 4l-1 1l-2 5q-1 1 -4 2l-3 1q-2 1 -5.5 4t-3.5 4v2q3 0 5.5 -2.5t4.5 -2.5q5 0 4 3q-1 2 -4.5 4t-3.5 5v6q-1 4 -3.5 9.5t-2.5 8.5v12q-1 3 -5 7
t-5 6l-7 14l-4 3q-3 -1 -3 -2q0 3 2 5v2l-4 -2l1 2q0 1 1 1v3l-4 -3q3 5 3 6l-1 2l-3 -2q0 1 -1 5.5t-1 6.5h2v2l-2 3l-2 -3l-1 3l-1 2h2v6l-1 1q-2 -2 -2 -6l-6 13v2q2 1 2 2q1 0 1 1h-1q-1 0 -3 -1q-5 0 -5 3l-2 -1v-6l-2 2l-5 10l-40 106q0 1 -2.5 6.5t-5 9t-4.5 2.5
q-12 24 -16 28q-2 -3 -2 -8v-3l2 -5q0 -1 -1 -5l-1 -4q5 -50 5 -63v-5l1 -4q1 -4 1 -5q2 -22 2 -78q0 -31 4.5 -99.5t4.5 -104.5q0 -7 -1 -18.5t-1 -17.5q0 -4 9 -31q-1 0 -2 -2l-1 -2v-1l3 -7q0 -2 -6 -4t-3 -6q-4 -2 -14 -4.5t-14 -4.5q-50 -23 -79 -23q-22 0 -25 41
q-3 21 -3 51q0 42 -1.5 124t-1.5 123q0 51 3 80v1l1 -1l3 -4q3 -3 4 -3h1q4 0 4 2q3 33 3 69l1 115q-2 3 -2 4l-1 1q-1 2 -2.5 3.5t-2.5 3.5l-1 2v2q0 1 2 4.5t2 5.5t-1 3.5t-2 2.5l-2.5 2.5l-2.5 2.5v2l2 1l-2 4v4q2 2 2 3l-2 2v4h5q0 2 -3.5 3t-3.5 2q0 2 8 3t17.5 2
t10.5 1t8 1l7 1q5 0 16.5 5t15.5 5q10 0 39 -9q57 -12 73 -34q11 -16 19.5 -38t16.5 -50t13 -41q10 -20 10 -24q2 -5 6.5 -18.5t7.5 -20.5q14 -21 28 -64q1 -1 3 -7.5l4 -13.5t2 -8v-1q6 -21 12 -25q2 8 8.5 26.5t8.5 28.5q1 2 1.5 8.5t2.5 9.5l38 126v4q5 24 14 58l3 6
q2 6 3 7q1 2 8.5 26.5t16 38.5t19.5 15h28q1 0 5.5 1t5.5 1l3 2q4 2 32 5q4 4 5 4q4 0 15.5 -2.5t14.5 -2.5l4 -3q5 -2 6 -3q3 -3 4 -3q4 -1 5 2t3 3q4 0 12.5 -4.5t12.5 -4.5q0 -2 16.5 -6t16.5 -20q0 -2 -2 -5t-2 -5q0 -19 4 -28q1 -3 3.5 -4.5t2.5 -2.5q-1 -9 2 -9v-7
q0 -10 -8 -66v-2q-1 -8 -1 -22l1 -5l1 -2l-1 -2v-4q-1 -2 -2 -11t-1 -11l-1 -2q2 -5 2 -28q0 -1 -0.5 -9t-0.5 -10v-3q0 -5 1.5 -8t1.5 -6q-4 0 -4 -5v-2l1 3h1l2 -1v-1q0 -1 -2 -2l-1 -2v-2q3 -3 3 -7l-4 -8v-1l2 -5l2 -5v-2h-2v-3q1 1 2 1zM387 378q2 -2 2 -5h2l16 35
l-2 4q0 9 10.5 30t10.5 33h-1l-1 1q5 6 7 10t4 12.5l3 12.5q2 5 6 17.5t6 17.5l7 36q0 8 7 25q1 2 7 16t6 20h-13l-2 -1q-15 -24 -29 -70q-2 -5 -10 -39q0 -1 -1 -3q0 -1 -2 -6t-3.5 -9.5t-1.5 -6.5l-24 -96q1 -2 -1.5 -12.5t-2.5 -13.5v-8zM464 574l3 -2h2q4 0 7 5t5 13
l2 8q4 3 4 4l-2 3l3 7v2q-1 2 -1 3q-2 -1 -9 -5v7q-5 0 -7 -7q-7 -24 -7 -33v-5zM562 174l-3 -9q3 3 5 10.5t3 8.5l-2 2q0 -1 -1 -3.5t-2 -3.5v2q0 2 0.5 6.5t0.5 7.5v6l-4 4h-1q0 3 2 7t2 7q0 2 -2 4t-2 3q0 2 1 5t1 4q0 7 -5 7q-6 0 -6 -33q0 -7 6.5 -18.5t6.5 -16.5z
M445 500l3 1q6 13 12 14q-1 1 -1 7v5l-3 5q-1 1 -0.5 4.5t1.5 4.5h-1q-2 0 -3 -3.5t-2 -7.5t-1 -5l-7 -14l-4 -1q6 -6 6 -10zM580 144l2 -5h2q0 15 5 19v30q0 13 -4 13q-1 0 -1.5 -3.5l-1 -7t-0.5 -4.5l3 2q1 -3 1 -4q0 -3 -3 -6t-3 -5q0 -3 1 -8.5t1 -8.5v-10q-2 -1 -2 -2z
M575 241q0 -8 4 -15q1 3 1 25q5 0 5 -2q0 -1 1 -4.5t2 -6.5v-3q1 7 1 16q0 8 -4 8q-2 0 -5 -4v1l-1 2h-2q-2 -6 -2 -14v-3zM27 404q0 -5 2.5 -16t1.5 -18q2 8 2 25q0 2 -1 7v5l-1 5l-4 -2v-6zM218 365q0 -5 4 -7q2 1 2 3v3q-2 5 -2 6q-4 0 -4 -5zM31 367q-3 -11 -3 -21h3v21
zM610 647q2 -2 4 -2l3 6v1q-5 0 -7 -4v-1zM659 153q2 -4 2 -14h-2v14zM625 652q-4 -4 -5 -7h1q5 0 5 6zM579 271l-2 -10l1 -1l1 1q1 1 1 5q0 5 -1 5zM248 271q4 -1 4 -7v-1q-4 0 -4 7v1zM219 376q-2 -1 -2 -4v-2l4 3zM519 492q-1 0 -1 -2t1 -2h1q0 -1 2 -1q1 0 1 1.5t-1 1.5
h-1q0 2 -2 2zM264 234v1q4 -4 4 -6q-4 0 -4 5zM589 155q-2 -1 -2 -5l1 -2q1 0 1 4v3zM253 261l3 -3v-1q-1 -1 -1 -2q-2 2 -2 4v2zM533 38q4 0 2 -2q-1 -1 -2 -1t-1 1.5t1 1.5zM436 520q2 0 2 -2t-2 -2t-2 2t2 2zM481 607q1 0 1 -2t-1 -2t-1 2t1 2zM283 223q-1 0 -1 -2t1 -2
t1 2t-1 2zM243 284q1 0 1 -2t-1 -2t-1 2t1 2zM585 298q-1 0 -1 -2t1 -2q2 0 2 2t-2 2zM554 264q-1 0 -1 -5v-4q1 1 1 6v3zM233 342q-1 0 -1 -1.5t1 -1.5t1 1.5t-1 1.5zM219 381q-1 0 -1 -1.5t1 -1.5t1 1.5t-1 1.5zM285 195q1 0 1 -1.5t-1 -1.5t-1 1.5t1 1.5zM577 280v-7l2 3
zM540 21q0 -1 4 -1h1l-5 3v-2zM240 324q-2 0 -2 -2t2 -2q1 0 1 2t-1 2zM275 258q-1 0 -1 -2t1 -2t1 2t-1 2zM229 320q1 0 1 -1.5t-1 -2.5q-1 0 -1 2t1 2zM35 660q-4 0 -2 -2q1 -1 2 -1t1 1.5t-1 1.5zM654 372q1 0 1 -1.5t-1 -1.5q-4 0 -2 2q1 1 2 1zM599 487v-2h3v2h-3z
M259 275h3v-2h-3v2zM245 280q2 -1 2 -4v-1l-2 3v2zM235 304q1 0 1 -1.5t-1 -1.5t-1 1.5t1 1.5zM248 299q2 0 2 -1.5t-2 -1.5q-1 0 -1 1.5t1 1.5zM262 241q2 0 2 -1.5t-2 -1.5q-1 0 -1 1.5t1 1.5zM233 310q1 -2 0 -3q-1 0 -1 1.5t1 1.5zM531 17h5l-3 -2zM588 226v-7q1 1 1 2
v2zM481 610q2 -2 -2 -2zM255 284q3 -2 0 -3q-1 0 -1 1.5t1 1.5zM415 227h1q0 -4 1 -4h-2v4zM536 428q0 1 -1.5 1t-1.5 -1q1 -3 3 0zM281 192q3 -2 0 -3q-1 0 -1 1.5t1 1.5zM588 9q-2 -3 -3 0q0 1 1.5 1t1.5 -1zM413 464q1 2 2 3v-1q-1 -3 -2 -4v2zM311 188q-2 -2 -4 0
q0 1 2 1t2 -1zM654 642q1 0 1 -1t-1 -1v2zM588 212v-2q1 0 1 1t-1 1zM217 388q-1 0 -1 -2t1 -2q2 2 0 4zM257 254q1 0 1 -1.5t-1 -2.5v4zM241 320q-1 0 -1 -1t1 -1v2zM241 287v-2q-1 0 -1 1t1 1zM415 448v-1q-1 -2 -2 -2v2zM233 344h-2q0 -2 2 0zM290 188q-1 -1 -2 -1t-1 1
h3zM226 358v-5q1 2 1 3zM585 163q4 0 0 -2v2zM476 591h2l-2 -3v3zM222 333h2v-3zM655 160l2 -3h-2v3zM275 209l3 -2h-2zM261 245v-1v1zM405 433h2l-2 -2v2zM410 452h2l-2 -2v2zM478 600h1v-2h-1v2zM221 365v-1v1zM231 315q1 0 1 -1t-1 -1t-1 1t1 1zM281 214q0 -2 -2 0h2z
M227 324q2 -2 0 -2v2zM250 296q2 -2 0 -2q-1 0 -1 1t1 1zM521 490q-2 -2 -1 -2t1 2zM531 405v-1v1zM253 287q1 0 1 -1t-1 -1v2zM522 49h1l-1 -2v2zM436 245v-1h-2zM394 384q1 0 1 -1t-1 -1v2zM567 155v-2v2zM252 290v-1v1z" />
    <glyph glyph-name="n" unicode="n" horiz-adv-x="528" 
d="M30 148l-6 300q1 33 -1.5 94.5t-2.5 84.5q0 3 0.5 18t0.5 17q3 11 16 11q29 0 39 -2q12 -1 24 -6t19.5 -9.5t20.5 -13.5l19 -13q49 -47 93 -158q3 -7 9 -25t10 -27l57 -109q4 -7 17 -40l11.5 -24l11.5 -25v15q0 68 -0.5 205t-0.5 206q-5 0 -8 -2v2q0 1 4.5 3.5t4.5 11.5
l-1 1q-1 1 -1 2q1 0 8 11q6 0 8 2h40q3 -2 7.5 -1.5t7.5 -0.5q3 0 5 -2q5 -2 17 -4.5t14 -3.5t6.5 -4.5t6.5 -4.5q13 -4 14 -9q8 -20 8 -22q0 -37 -13 -78q-5 -4 -6 -10.5t-3 -9.5h-1q-2 -4 -2 -18q0 -16 1.5 -48t1.5 -48v-14q0 -7 -6 -61l4 -203q1 -4 1 -12v-8q0 -1 -1 -4
v-4q0 -1 1.5 -9.5t1.5 -10.5q-2 -9 -2 -12q-1 -4 -1 -5q0 -8 3 -18v-2q0 -2 -3 -5.5t-3 -5.5v-14q-3 -8 -23 -8q-6 0 -7.5 5t-5.5 5t-16 -6q-28 -10 -41 -10q-12 0 -21 2.5t-15 5.5t-12.5 11.5t-9.5 13t-10 18.5t-11 20q-24 53 -62 121l-4 5q-3 1 -4 1q-3 6 -3 11l-83 157
q-2 -2 -2 -6q-2 -13 -2 -56v-36q4 -9 4 -30q0 -5 -7.5 -27t-7.5 -23q-5 -40 -5 -51v-1q4 0 7 -3l1 -2l1 -2l21 -33v-42q0 -1 4.5 -10.5t4.5 -15.5q0 -12 -30 -24t-43 -12h-3q-34 0 -44 9q-3 3 -8 12q0 2 -3 5t-3 5q-3 8 -4 19t-0.5 23.5t0.5 16.5t-2 27t-2 27zM464 99
l-10 -38q8 0 10 5q2 6 2 21q0 8 -2 12zM478 39q-7 0 -7 -6l1 -2q6 2 6 8zM388 674q-4 0 -2 -2q1 -1 2 -1t1 1.5t-1 1.5zM370 219v-1v1z" />
    <glyph glyph-name="o" unicode="o" horiz-adv-x="472" 
d="M20 301q0 81 21 195q19 95 49 130q14 15 35 31q22 19 73 19h6q6 1 8 1q82 0 102 -7q40 -22 66 -34q32 -16 46 -48l4.5 -13t6.5 -15q9 -41 9 -74q0 -1 -2 -7l-1 -6v-29q8 -10 8 -40v-52q0 -1 1 -8v-6v-3q0 -7 -1.5 -21t-1.5 -21q0 -3 1 -8t1 -7q0 -7 -2 -19.5t-2 -16.5
q0 -2 -0.5 -11.5t-0.5 -10.5l-4 -65q-1 -2 -2 -6t-1.5 -8.5t-0.5 -6.5v-8q-4 -27 -12 -38q-9 -20 -22 -34.5t-31.5 -23t-34.5 -13.5t-40.5 -6t-41 -1.5t-44.5 0.5t-42 1q-71 0 -102.5 41.5t-39.5 117.5l-8 84v47zM196 99l3 -4h6q-8 0 5 -6q38 -17 67 2q10 6 17 17q3 4 3 9
q4 10 6 24q0 1 1.5 18t1.5 21l8 133v204q-1 3 -4 20.5t-4 20.5q-1 12 -8 27t-18 15q-29 0 -43 -1.5t-31.5 -8.5t-25 -24t-7.5 -46v-58q1 0 1 -3t1 -3v-1q0 -17 -2 -51t-2 -40q0 -36 -1 -40v-30q0 -44 3 -89q4 -6 4.5 -24.5t1.5 -22.5q2 -11 8.5 -31.5t8.5 -27.5z" />
    <glyph glyph-name="p" unicode="p" horiz-adv-x="428" 
d="M24 37q-4 206 -4 295v84q0 83 4 199l5 54q2 17 17 20l5 -1q5 -1 6 -1h4q7 0 21.5 1t22.5 1h7l38 -7q11 -3 58.5 -8t65.5 -13q3 -1 22.5 -9t23.5 -10q88 -39 88 -127v-18q-2 -4 -4 -18l-5 -23l-2 -5v-18q-1 -5 -4 -13t-3 -11q-5 -37 -7 -41q-10 -19 -11 -23
q-9 -39 -12 -47q-2 -6 -11 -15v-5q-1 -5 -8.5 -10t-8.5 -6q-2 -2 -2 -3l-9 -13q-1 -1 -15.5 -5.5t-15.5 -4.5q-17 -5 -46 -9q-4 0 -42.5 -4.5t-43.5 -4.5v-26q0 -4 -0.5 -38t-0.5 -37q0 -77 -10 -92q-3 -3 -11 -3q-3 -1 -4 -4t-3 -3q-29 -18 -65 -18q-2 0 -7.5 -0.5t-8 0
t-6.5 1.5t-6 3.5t-4 7.5q0 1 -2.5 7.5t-4 12.5t-1.5 8zM158 370q0 -42 4 -73h4q109 1 106 230q0 9 -3 16t-6.5 11t-12 8t-13.5 5.5t-18 5t-18 4.5q-20 8 -35 11l-3 1q-5 0 -5 -4v-1q1 -6 2 -7q1 -20 0.5 -27.5t-1.5 -62t-1 -117.5z" />
    <glyph glyph-name="q" unicode="q" horiz-adv-x="463" 
d="M272 30h-1q-56 -14 -71 -14q-16 0 -53 10h-1l-2 1q-25 5 -52 30q-20 16 -23 23q-34 43 -45 154q-4 36 -4 85q0 130 24 213q19 64 50 98q46 49 95.5 56.5t121.5 -17.5q2 -1 10.5 -2.5t12.5 -4.5q12 -4 23 -18q11 -9 13 -14.5t2 -19.5v-3q4 0 16.5 -4.5t12.5 -7.5
q0 -6 -14 -13v-5q0 -3 6 -17t8 -15q1 1 2 3t3 2q3 0 17 -48t15 -59v-21q0 -1 2 -11t2 -11v-2q1 -124 -19 -196.5t-61 -118.5q-2 -3 -8.5 -9t-8.5 -10v-2q6 -17 28 -60l2 -5l-2 -5q0 -3 2 -8.5t2 -7.5q0 -5 -16.5 -11.5t-23.5 -6.5q-16 0 -30.5 18t-23 36t-11.5 18zM146 246
q4 -13 9.5 -39t9.5 -42t15.5 -35t28.5 -31l1 -1l1 1q3 0 9.5 4t6.5 8q-1 3 -2 4l-14 23l-21 41q-11 29 -11 32v14q0 2 5.5 4.5t3.5 7.5q6 0 16.5 3.5t16.5 3.5q11 0 13 -1q6 -4 28.5 -45.5t22.5 -47.5q13 12 21 35.5t10.5 52.5t2.5 51t-1 47t-1 26v112l-1 4q-1 4 -1 5
q-3 41 -16 66t-29.5 31.5t-33.5 10t-29 -0.5q-1 0 -3.5 -0.5t-3.5 -0.5q-3 0 -14.5 -5t-13.5 -8l-16 -34q-5 -20 -9 -28q-11 -77 -11 -151q0 -19 4 -55z" />
    <glyph glyph-name="r" unicode="r" horiz-adv-x="500" 
d="M346 1q0 -1 -1 -3l-1 -2h-2q-2 2 -6 3t-4 2q-4 12 -19.5 34.5l-17.5 25.5q-17 30 -27 53q-3 14 -21 39q-1 1 -9 7q-3 6 -10.5 18t-10.5 19q-1 2 -3 3q-1 0 -2 1t-3 10.5t-6 16t-9 6.5q-3 0 -6 -2q1 3 -1.5 7t-5.5 4h-1q-3 -1 -4 -2q1 1 -2.5 8.5t-5.5 7.5q-6 0 -7 -2
q2 -22 2.5 -66t2.5 -67l7 -85q0 -6 -12 -14q0 -1 -4.5 -5.5t-5.5 -4.5q-48 -14 -76 -14h-14q0 2 -2 2.5t-4 0.5l-2 -1q-4 1 -2.5 7t-0.5 8q-6 0 -6 4q-1 1 -1 2t1 3.5t1 4.5q0 3 -4.5 12t-4.5 14l-16 593v2q0 3 2 8l3.5 9t1.5 5l5 1q5 1 6 1q1 2 2 2h1q1 0 5 -1t7 -1
q4 0 12.5 2.5t12.5 2.5h3q13 0 41 3t39 3h17q5 0 26 -3t25 -3h2q10 -4 54 -17.5t66 -25.5q38 -20 60.5 -64t22.5 -89q0 -58 -10 -64l-5 -24q-14 -37 -16 -40l-5 -5q-8 -3 -13 -19l-34 -34q-47 -19 -49 -26v-4q1 0 18 -25h2q0 -7 8 -14.5t9 -11.5q0 -2 2 -3t4 -2.5t3 -3.5
q15 -30 18 -34q1 -2 9.5 -10.5t9.5 -15.5q0 2 2 0q10 -3 18 -29q1 -2 14 -15q4 -5 11 -15.5t11 -15t12 -10.5t18 -9q2 -1 2 -3t-2 -4t-2 -3h2q0 -2 5 -2v-3q-3 -3 -3 -8v-1l1 -3q0 -6 -3 -9l-6 -3q-1 -1 -0.5 -2.5t1.5 -1.5v-1l-10 -5l-4 -4q-11 -8 -46 -8q-4 0 -19 2t-28 4
zM154 337q6 -3 7 -3q8 0 8 3l2 2q12 -6 43.5 13.5t43.5 31.5q18 13 26 54.5t8 71.5q0 51 -35 66.5t-98 10.5q-3 -2 -3 -3.5t-3 -5.5l-2 2v-191q2 -10 2.5 -30t0.5 -22zM478 29h2v-2z" />
    <glyph glyph-name="s" unicode="s" horiz-adv-x="434" 
d="M34 189q0 35 4 58l3 7q3 6 6.5 11.5t6.5 5.5q2 0 7 -3t7 -3l1 -1h2q3 0 5 -1h1q8 0 20.5 -7.5t17.5 -15.5l9 -18l25 -40l1 -1q2 0 8 -6q3 -2 5.5 -14.5t5 -27.5t4.5 -20l11 -23l2 -4q1 -4 5 -4q12 0 20.5 11t12.5 13h6l5 5q12 22 14.5 32t1.5 20t2 36v3q0 38 -96 97
q-7 2 -62 31q-78 39 -78 102q0 69 16.5 135t58.5 91q36 22 121 22q36 0 118 -40q39 -15 56 -38q11 -14 21 -77q0 -3 3 -14.5t3 -18.5q0 -11 -1.5 -16.5t-5.5 -13t-6 -10.5q-36 -15 -47 -15q-24 0 -48 6q-7 0 -7 2q-2 0 -2 3h-1l-2 -2l-1 -1l-1 1q-16 11 -19 32q-4 20 -4 43
l-7 34q-3 15 -13 31.5t-21 16.5h-41q-6 0 -7 -1q-1 0 -6 -3.5t-10 -7.5t-6 -4q-8 -6 -16.5 -49t-3.5 -60q1 -3 1 -8t0.5 -7.5t2 -6t5.5 -7.5l4 -4q16 -19 26 -22l119 -71q61 -37 82.5 -67.5t21.5 -74.5v-7l-2 -1q0 -5 2 -9v-2q0 -4 -2 -10.5t-1 -13.5q-1 2 -5 2
q0 -10 -1 -19t-1 -11l-4 -9v-2q-5 -19 -20.5 -45.5t-29.5 -40.5q-19 -20 -69 -31t-87 -11q-146 0 -146 189zM394 162q0 -11 -3 -20q0 2 1 7zM257 161v-2q2 2 0 2zM391 142q0 -1 -0.5 -2.5l-0.5 -1.5v1q0 2 1 3z" />
    <glyph glyph-name="t" unicode="t" horiz-adv-x="433" 
d="M155 42l-1 510l-12 1q-1 0 -20 -2.5t-22 1.5q-1 2 -7 2q-4 0 -11.5 -4t-12.5 -3q-4 0 -7.5 2t-8 6.5l-5.5 5.5q-1 2 -5 5.5t-6 7.5q-15 26 -15 67v9q0 7 -2 7v4q0 3 1.5 4t4 1.5t4.5 1.5q3 3 4.5 5.5t3 4.5t6.5 3q5 2 23 2q7 0 26.5 2t29.5 1l253 1q5 0 5 -3l4 -4l6 2
q1 0 7 -6q1 -1 5 -2t6 -2.5t1 -3.5q2 -16 2 -75q0 -10 -2 -16.5t-2.5 -10t-6.5 -5.5t-8 -2.5t-13.5 -1t-15.5 -0.5q-56 -3 -79 -8l-4 -2q-5 -24 -3 -49l5 -440q0 -3 0.5 -9.5t1.5 -9.5q0 -4 -1 -5t-2 -1.5t-3 -2.5l-2 -5q-2 -5 -7 -8t-11.5 -4.5t-12 -2t-12.5 -1t-8 -0.5
q-7 0 -22.5 -3t-23.5 -2q-5 0 -7.5 1.5t-3.5 3.5t-2 7.5t-2 8.5q-1 2 -5.5 7t-4.5 10z" />
    <glyph glyph-name="u" unicode="u" horiz-adv-x="481" 
d="M105 38q-9 9 -21 28.5t-11 29.5l-20 53q-4 0 -5 1t0 4v5h-2q-3 10 -4 15q-22 127 -22 245q2 197 12 258q9 3 10 7l5 1l5 1l2 1q2 1 3 1l1 -2l5 2h5q1 0 15.5 -2t16.5 -2q5 0 16 0.5t18 0.5t16 -1.5t16 -5.5q2 0 2 -1l-3 -169q0 -5 -3 -41t-3 -39v-4q0 -14 3.5 -39
t3.5 -35q5 -70 8 -91q0 -7 2 -9q8 -56 8 -70q18 -92 47 -92q12 0 43 25q12 -2 22 15q15 45 15 61v118l2 2q0 -1 0.5 -7t0.5 -8v-16q0 -1 1 -8l1 -7q6 -26 8 -26q3 10 3 42q0 16 -0.5 47.5t-0.5 46.5v6l1 -1q5 -13 2 -37l2 -4q2 2 2 10q0 5 -1 15t-1 16q0 3 2 7.5t2 7.5
q0 18 -3 54.5t-3 53.5q0 4 1.5 9t1.5 8q0 13 -7.5 39.5t-8.5 32.5q0 -6 -4 -6q0 3 1 6.5t1 5.5q0 5 -0.5 14.5t-0.5 15.5q0 15 5 24q3 -1 6 4t5.5 11t3.5 7q8 10 36 10q31 0 75 -11q7 -2 5.5 -6t-0.5 -4q-9 -3 -11 -5q1 -3 3.5 -5.5l5.5 -5.5t4 -5v-3h-3q0 -2 2.5 -5t2.5 -6
q6 -61 7 -127.5t-1 -151t-2 -114.5q0 -12 -2 -16v-24q0 -7 -5 -32q-1 -3 -3 -5t-1 -8q-11 -36 -30 -60q-2 -2 -2 -3l2 -2v-1q-1 -2 -2 -2q-20 -20 -37 -30q-4 -3 -13 -7t-14 -6q-82 -41 -143 -41q-12 0 -22.5 2t-16.5 3.5t-16.5 7t-13.5 7.5t-15.5 11t-15.5 11q0 1 -1 1
t-1 -1zM120 644q0 -7 3 -8l2 5q0 3 -5 3zM324 396h2v-9h-2v9zM322 447q2 0 2 -2.5t-2 -2.5t-2 2.5t2 2.5zM313 547q1 0 1 -2.5t-1 -2.5t-1 2.5t1 2.5zM324 246q2 0 2 -1.5t-2 -1.5t-2 1.5t2 1.5zM366 629v-3h3q0 3 -3 3zM427 650q-1 0 -1 -2t1 -2t1 2t-1 2zM448 656l2 -3h-4
zM424 653l2 -1v1q0 1 -1 1l-1 2v-3zM207 24h-2q0 -1 1 -1t1 1zM368 615q-1 0 -1 -1t1 -1v2zM312 553h2v-3zM49 154v-2q4 0 0 2zM132 625l2 -3v3h-2z" />
    <glyph glyph-name="v" unicode="v" horiz-adv-x="620" 
d="M256 8l-9 18l-10 30q0 4 -3 10q-1 2 -4.5 11.5l-6.5 17.5t-3 11q0 1 -4.5 13.5t-5.5 15.5l-29 80q-3 1 -3 9l-19 45q1 1 -6.5 22.5l-16 46.5t-9.5 32q-1 2 -3 6.5t-3 8t0 5.5l-16 59l-3 3l-11 38v2h3l24 -64l1 5q0 4 -6 16.5t-3 15.5l-2 7q-13 41 -30 57l-2 -2h-2
q-10 33 -12 37q-2 3 -8 9.5t-8 9.5q-5 10 -13 33.5t-7 30.5q0 5 3 4q-5 2 -4 8v2q3 3 7 3v2q-1 2 -1 3h-2l2 1q0 2 4 2l16 -1q29 -1 59 -14q3 -2 17.5 -5t21.5 -8q20 -20 36 -52q3 -8 13 -24t14 -26q3 -7 5.5 -23.5t4.5 -23.5q4 -13 13.5 -37t13.5 -36q6 -22 21.5 -63.5
t19.5 -54.5q18 -59 26 -74l5 10q9 17 11 27q0 9 3 12q0 1 5 9.5t5 12.5v1l-1 1v2q0 1 1 3t1 3l-1 2q1 5 6 13t5 13h-3q0 6 5 11.5t6 7.5q0 7 1 7q2 6 9.5 23.5t8.5 27.5q0 2 -1 4t-1 3t7 18q3 14 13 39.5t13 37.5q0 16 1 18q0 4 10 34q1 1 5 10.5t4 11.5t2 5.5t2 4.5l14 44
q4 15 27 32l12 -1q14 -2 18 -6l9 7v-2q-2 -5 -3 -6h3q3 0 5 1.5t3 1.5l1 -1q3 -1 11.5 -2t17 -2.5t17 -3.5t13.5 -4.5t5 -5.5q7 0 7.5 -2t0.5 -12l-1 -8l-2 -3v-1l1 -1l1 -1v-1q-1 -7 -8 -18.5t-7 -12.5l-6 -26q-25 -57 -29 -64q2 -4 2 -6q0 -4 -3 -8.5t-7 -9.5t-5 -7
q0 -9 -5 -14q-1 -3 -4 -15t-7 -18q-7 -8 -11 -17q-1 -2 -4 -4t-3 -4q0 -3 2 -4q-5 -3 -10.5 -15.5t-10.5 -31t-6 -20.5l-19 -45v-3h2q0 -6 -5 -11q-1 -4 -3 -11t-4 -12.5t-5 -10.5q0 -1 -1 -1q-1 -2 -8 -32q-1 -2 -10.5 -15.5t-10.5 -22.5l2 -6q0 -2 -2 -2q-5 -12 -12.5 -34
t-9.5 -29q-1 -3 -4.5 -8t-3.5 -6q-4 -7 -6 -21l-11 -13q0 -3 1 -5q-3 -1 -3.5 -7t-2.5 -11t-7 -5l-4 5l1 2v4l1 4v1l-1 -1q-8 -13 -15 -14l5 -3l3 5q2 1 4 -2.5t2 -4.5q-1 -6 -20 -6h-1q-3 -1 -27 -1q-5 0 -7 -1l-2 -1h-4t-7 -0.5t-10.5 0.5t-14.5 2zM215 178q3 2 8 -12
q2 -5 6 -16q5 -15 6 -17q3 -3 3 -4q1 -2 1 -6q0 -6 4 -8q5 4 5 11v1l-7 12l2 10q0 1 -3 4l-2 3q0 5 3 8l3 5v1q0 5 -5 4l-4 -4q-4 14 -4 15v3q9 -2 7 -11q5 0 5 3q0 8 -15 21q1 -4 -2 -4l-5 1q0 1 2 3.5t3 5.5q-1 3 -1 4q0 -2 -4 -2h-2q-2 1 -2 2l4 3q0 24 -14 48l-6 -2
q-1 1 -2 1q0 4 -7 33q3 0 3 2q1 4 -9 17l-1 -4q-1 -1 -3 0l-1 1l1 1l-2 11l-1 -4l-9 -3h2q2 -1 3 -14t2 -14q0 -2 7 -9t6 -11l-2 -4q4 -4 5 -4v-1q0 -2 -2 -4.5t-2 -3.5q0 -2 1.5 -6t1.5 -5l-1 -2q-5 3 -5 9l-4 1q-1 -7 5.5 -13.5t6.5 -9.5l2 1l3 3q-1 2 -5 4l1 8q0 2 4 2
q6 -4 6 -7.5t-3.5 -10t-3.5 -7.5q0 -3 3 -9.5t5 -7.5q-2 2 -0.5 4.5t4.5 3.5q-1 -10 4 -28v-1zM289 272q2 -5 6 -25t12 -29q3 2 3 6q2 23 -14 39q-2 0 -2 4q-1 1 -1.5 5t-2.5 6zM245 101l2 -2q0 -2 1 -5.5t2.5 -7.5t3 -7t2.5 -3l11 2q0 1 0.5 2t-3 8.5t-9.5 17.5v3l-5 -3
l-2 7h-3l1 -2l1 -3q1 -3 1 -4zM442 356q0 -4 -3 -11.5t-4 -10.5q3 0 7.5 10t9 25t5.5 17q4 8 4 20h-1q-3 0 -3.5 -3t-1.5 -7.5t-3 -5.5l-2 -2q-3 -2 -3 -3t-0.5 -7.5t-2 -12.5t-4.5 -7q1 -1 2 -1v-1zM486 599q0 -3 -3.5 -7t-4.5 -9v-1q2 1 5 7l2 -2q11 8 11 22l1 5l-15 4
l-1 -19l5 3v-3zM120 427q0 -21 7 -27l4 -4q4 0 4 6q1 2 0 6t-4 4h-1q-2 0 -2 -1q0 1 -3 7.5t-3 8.5h-2zM454 537q-9 -2 -11 -14v-6q2 1 3 5l2 4q3 -3 5 -3l1 3l-2 3v3q0 3 2 5zM480 543q-17 -6 -19 -23zM457 559q-2 0 -4 -7.5t-2 -10.5l-1 -1h1q1 1 2 1l1 4l9 12l-5 2h-1z
M163 303q0 -9 4 -9l1 7h-2v6q-3 0 -3 -4zM467 423l-7 -14h1q5 0 5 9zM138 377q1 0 1 -2t-1 -2v-2l1 3q0 3 -3 5t-4 5v-6l5 -10v1q-3 1 0 4q-1 0 -1 2h-1q-1 0 -1 1.5t1 1.5t1 -0.5t1 -0.5h1zM167 290q0 -7 5 -14v3q0 1 -1 4q-3 7 -4 8v-1zM86 506q5 0 5 -7q-5 0 -5 7z
M226 191q1 -1 1 -2q0 -4 -5 -4q0 5 4 6zM127 429q0 -3 3 -5h1l-2 9q-2 -2 -2 -4zM232 165q1 0 2.5 1.5t3.5 1.5v-4h-6v1zM245 159l6 2q0 2 -2 2q-4 0 -4 -4zM207 215h3q0 -6 -3 -6v6zM491 574q-5 0 -5 -3h5v3zM202 252h4v-5l-4 4v1zM418 536q-2 0 -2 -2.5t2 -2.5q1 0 1 2.5
t-1 2.5zM211 215q2 0 2 -2.5t-2 -2.5q-1 0 -1 2.5t1 2.5zM234 162q2 0 2 -2t-2 -2t-2 2t2 2zM172 314q-2 0 -2.5 -2t1.5 -2l1 3v1zM438 332q-2 1 -2 -1t2 -3q2 0 2 2t-2 2zM179 256l2 -7l1 7h-3zM23 645q2 -1 -1 -5q0 2 1 5zM127 398q-1 0 -1 -2t1 -2q1 -1 1 1t-1 3z
M546 508q-2 0 -2 -2t2 -2t2 2t-2 2zM486 567q-2 0 -2 -2t2 -2t2 2t-2 2zM129 391v-2q0 -3 1 -4l1 6h-2zM196 235q-2 0 -2 -1.5t2 -1.5t2 1.5t-2 1.5zM371 417q1 0 1 -1.5t-1 -2.5q0 -2 -1 -3q0 1 1 3q-1 0 -1 2t1 2zM195 248l2 2v-6l-2 2v2zM502 654q0 -3 3 -3v2l-3 3v-2z
M325 245q-1 0 -1 -1.5t1 -1.5h1q1 2 -1 3zM246 168q-2 1 -2 -1t2 -3q1 0 1 2t-1 2zM381 65q2 -2 0 -4l-1 4h1zM159 326h-2q-2 -2 2 -3q1 0 1 1.5t-1 1.5zM159 317h-2q-2 -2 2 -3q1 0 1 1.5t-1 1.5zM490 660q-1 -1 -1 -3q1 1 1 3zM228 197q1 0 1 -2t-1 -2t-1 2t1 2zM371 389
q1 0 1 -1.5t-1 -1.5t-1 1.5t1 1.5zM354 364q1 0 1 -1.5t-1 -1.5q-2 0 -2 1.5t2 1.5zM131 419q0 -3 1 -4v1q1 3 -1 4v-1zM190 286q1 -1 1 -2.5t-2 -1.5zM369 405q0 -3 -2 -3q0 1 2 3zM155 307v-3h1q1 2 -1 3zM227 203q-2 0 -2 -1t2 -1q1 0 1 1t-1 1zM196 257l-1 -4h-2z
M238 149q0 -3 -1 -4q-1 1 1 4zM158 301v-2q1 0 1 1t-1 1zM186 316q-2 0 -2 -1t2 -1v2zM495 625l2 -3v3h-2zM160 314l-1 -4l2 2zM363 391v-4h-1zM176 268l-1 -2q1 1 1 2zM232 194l-1 -2l-2 1zM377 432v-2l-2 1zM201 264v-1v1zM266 65v-1v1zM239 135h-2q0 1 1 1t1 -1zM371 49
h1v-2zM480 665v-1v1z" />
    <glyph glyph-name="w" unicode="w" horiz-adv-x="766" 
d="M468 28q0 2 -2 2q-9 7 -9 20v1l2 3q0 4 -3.5 11.5t-6.5 8.5v-12l-1 -1q-1 2 -8 22v6l-2 5l-3 -1q0 4 1 5v2l-6 19l-11 30h-2q-1 5 -8.5 36.5t-12.5 48.5q-31 108 -32 111l-3 4q-1 -2 -4 -9.5t-4 -11.5q-2 -10 -3 -30.5t-2 -26.5q-2 -8 -9 -29t-8 -33q-1 -9 -2 -25.5
t-2 -26.5t-5 -23.5t-10 -24.5q-21 -36 -37 -58q-4 -5 -5.5 -8t-1.5 -4t-3 -3.5t-11 -7.5q-3 -2 -3 -5q-11 -2 -33 -8t-40 -6h-7q0 5 -5.5 10t-6.5 7q-5 10 -5 13q-2 2 -2 5l-126 577q-6 16 -6 30q0 22 9 28h8q87 0 118 -26q6 -5 10 -12t7.5 -17t5.5 -14l46 -299
q21 60 35 136l10 24q1 3 6.5 5t6.5 3l2 3q19 17 54 17h2q53 -9 69 -15q15 -5 21 -15l2 -7q6 -14 24.5 -37.5t24.5 -36.5q2 -5 8 -22.5t11 -26.5q4 -26 11 -48q0 -1 5 -16.5t6 -20.5l1 -2q1 -1 2 -1l22 133l2 8h2l-6 -49v-4q0 -5 2 -5q4 2 7 12.5t8 10.5q0 -4 -1 -12t-1 -13
q5 0 8 21t6 48t7 35q-1 -10 2 -20q-1 16 3 49.5t2 50.5l3 -2q3 14 3 27q1 6 -1 6q-1 0 -3 -1l-2 -2q-2 2 -2 3l-3 30q0 10 2.5 30t2.5 30v9l-5 -2l2 4q4 4 9 19.5t5 21.5q24 0 36 2h75q9 0 15 -2q4 0 11.5 -3t7.5 -7v-1l-3 -3q5 0 5 -5q0 -4 -6 -6.5t-6 -5.5v-1l2 -1v-1
q0 -2 -4 -10.5t-4 -11.5q-3 -49 -29 -175q-4 -18 -5.5 -53.5t-2.5 -41.5q-15 -60 -19 -64q-1 -7 -6 -23.5t-6 -26.5l-4 -4q-1 -11 -2 -15q-2 -20 -19 -117q-1 -5 -2 -16t-2 -17.5t-3.5 -15t-8 -14.5t-13.5 -10q-2 -2 -7 -2q-4 -1 -8.5 -3t-9.5 -3q-15 0 -27 -4
q-6 0 -18.5 -4.5t-19.5 -4.5q-5 0 -16 8q-1 1 -6 1h-26zM432 138l1 -1l-3 4q-6 6 -7 8v-2q10 -22 17 -49q3 -2 6 -9t7 -9q0 1 -1 3t-2 4.5t-1 3.5v2l2 1q-2 4 -4 6q0 -2 -1 -2q-2 0 -2 2t2 2q-6 8 -6 13l-6 21q0 -2 -2 -2t-2 2t2 2zM675 299v-1q0 -1 -3 -13v1q0 12 3 13z
M448 80q-2 0 -2 -2.5t2 -2.5q1 0 1 2.5t-1 2.5zM417 172q-1 0 -1 -2t1 -2t1 2t-1 2zM591 550q-4 0 -2 -2q1 -1 2 -1t1 1.5t-1 1.5zM428 149q0 -3 2 -3v1q0 3 -2 4v-2zM448 98q1 0 1 -2t-1 -2q-2 0 -2 2t2 2zM415 177q-1 0 -1 -2t1 -2t1 2t-1 2zM425 162q-1 0 -1 -1t1 -2
q1 0 1 1t-1 2zM406 213q-1 0 -1 -2t1 -2q2 2 0 4zM427 157q-1 0 -1 -2t1 -2t1 1.5t-1 2.5zM423 166q-1 0 -1 -1t1 -1q2 2 0 2z" />
    <glyph glyph-name="x" unicode="x" horiz-adv-x="566" 
d="M392 17l-49 74q-5 8 -25.5 43t-33.5 52l-3 -4q-3 -5 -4 -6q-24 -36 -35 -56q0 -2 -2 -4q-37 -78 -74 -101q-5 -3 -13.5 -2.5t-13.5 -1.5h-21h-22q-1 0 -9.5 1t-10.5 1q-23 0 -23 10q0 3 3 5.5t4 4.5q-6 -4 4 13q14 23 60 87l5 7l1 2q0 1 1 1q3 4 16.5 27t14.5 24
q10 12 13 18l2 1l42 69l-164 295q-5 7 -19 21l-13 14q0 4 -1 5v2l1 4q0 1 -1 7l-2 5v3v3q3 2 3 3q1 2 2 6q1 5 9 5h23q13 0 37 8h6q34 0 45 -12q17 -17 37.5 -52.5t46.5 -85.5t45 -79l10 15h2q0 -5 3 -6q19 40 25 50q3 7 10.5 20.5l13.5 23.5l5 10l6 8l46 84q4 3 17 24
l-8 -8q8 17 28 17q5 0 14.5 -2t14.5 -2q7 0 23 4t23 4q25 0 39 -19q0 -1 -1 -7l-1 -7q0 -1 -2 -4l-1 -3l3 -3v-3q0 -5 -4.5 -11.5t-12 -14.5t-9.5 -10q-5 -6 -9.5 -16t-6.5 -12q-7 -4 -12 -18l-1 -4q-1 -3 -2 -6.5t-1 -4.5q-3 -9 -8.5 -17.5t-14.5 -18t-12 -13.5q-2 -2 0 -2
l-17 -29q0 -4 -10 -25t-24 -46l-14 -26q-26 -48 -26 -49v-3q0 -6 3 -10q16 -33 35 -54q0 -1 7 -8.5t7 -8.5q8 -11 19.5 -33.5t15.5 -29.5l2 -2q20 -36 31 -49q2 -2 11.5 -13.5t16.5 -22t7 -15.5v-1l-13 -15q0 -7 -3 -8q-1 0 -6.5 -0.5t-6.5 -0.5l-3 -3q-2 -2 -8 -3.5
t-8 -3.5l-56 -13q-1 -1 -6 -1q-11 0 -13 8zM483 610q-1 0 -1 -1.5t1 -1.5q1 1 1 2t-1 1zM400 649q4 0 0 -2v2z" />
    <glyph glyph-name="y" unicode="y" horiz-adv-x="554" 
d="M93 38q0 21 6 23q-6 11 23.5 57.5t29.5 49.5l12 27l2 5q-2 1 -3 1v4q0 6 21 42l11.5 25.5l14 30t13.5 25.5q-1 1 -32 55l-39.5 51.5t-41.5 58.5q-6 9 -24.5 42t-33.5 57t-27 39q-5 22 -5 26q0 6 2.5 15t5.5 9h42q10 5 34 5h19q3 -2 11.5 -4t12.5 -6q30 -26 71 -108
q4 -6 5 -7l36 -56l5 -4q1 -2 2 -2q3 -5 14 -21l12 -15l3 -6q1 -2 2 -2q6 11 16.5 33.5l15.5 32.5v4l8 20v5l50 99q3 9 9 24q13 20 22 20q2 0 6 -2t7 -2h8l7 1h7q6 0 43.5 -13t37.5 -16q0 -23 -19 -57l-1 -1v-1l-3 -5l-4 -6v-13q0 -4 -2 -10q-1 0 -2 -3l-1 -2l-19 -38l-1 -2
q-5 -5 -43 -75l-40.5 -77.5l-44.5 -85.5q-20 -44 -25 -52q-1 -3 -5.5 -8t-6.5 -9t-6.5 -16t-7.5 -17q-8 -17 -25.5 -47l-20.5 -35q-1 0 -2 -3l-1 -2q0 -3 -10 -15t-20 -22.5t-11 -9.5q-8 -8 -8 -10l-3 -9q-12 -22 -57 -22q-11 0 -31.5 10t-20.5 20zM478 632q2 -2 7 -5
q0 1 1 3l1 2v2z" />
    <glyph glyph-name="z" unicode="z" horiz-adv-x="445" 
d="M49 26q-1 3 -6 5q-1 0 -6 3.5t-6 4.5q-4 4 -6 15q-1 4 0 11t1 10q0 2 -2.5 8t-2.5 9q0 1 -1 6v4q2 0 9 10l4 4q0 1 -1 4v2l-1 5q-1 10 10 32t17 28q-15 -31 -18 -34q-1 -3 -3 -7t-3 -7t-1 -7v-3q5 6 18 38q2 4 31 56l59 103q1 2 5 7t6.5 9.5t3.5 9.5h1l-1 1
q-14 -26 -35 -56v2l44 73l11 13v-3q0 4 3 4l5 11l-1 2l4 6l-2 -2l3 3q3 4 3 5v2l2 4q0 -2 2 -4q2 1 -1 6l5 5q0 4 2 6q20 36 32 53q2 5 11.5 19.5t11.5 24.5h-1q-11 1 -31.5 -0.5t-30.5 -1.5q-21 0 -48 3q-2 2 -8 2q-2 0 -10.5 1.5t-9.5 1.5l-3 3q-44 31 -68 85l-9 18l-1 11
q2 7 7.5 10.5t9 4.5t12.5 2t11 1t14 3.5t21 2.5l212 7l43 -2q8 -7 11 -10q1 -1 5 -4.5t5 -6t0 -6.5q31 -39 37 -93q1 -17 -3 -30t-16 -30.5t-15 -22.5t-9 -19t-10 -21l-2 -3l-23 -36q-13 -20 -14 -28l-29 -44l-1.5 -4.5t-2.5 -4.5l-76 -128q-1 -2 -2 -2l-11 -19h-2
q1 1 1.5 3t-0.5 3l-2 5q-3 0 -6.5 -4t-6.5 -10.5t-4 -7.5l-9 -20l-1 -3l143 15l21 -1l-1 -2h1l3 2l1 -1q14 0 27 -5q3 0 6.5 -8t6.5 -9l1 5h1q3 -1 8.5 -15.5t5.5 -17.5l-1 -2v-1q0 -1 6 -11v-2l-4 -4q-1 0 -1 -1q1 -5 9 -5q1 -3 -0.5 -5.5t-1.5 -5.5l1 -4q-1 -1 0 -2l1 -1
l-1 -3l1 -2q1 0 2 -1.5t2 -1.5v-2q-6 0 -8 -6t-5 -9l-3 -2l-1 -2l-11 -2q-68 -14 -116 -13q-27 0 -42 3l-47 3q-18 -8 -25 -7l-6 1l2 2h-4q-5 -2 -17 -2.5t-17 -3.5l-42 1q-10 0 -25 11q-8 4 -9 8l-1 2h9zM33 67q-2 0 -2 -1v-11h2v12zM107 271l-11 -20l-1 2q0 3 7 10z
M74 215q0 -6 -5 -6l4 6h1zM92 248q1 -1 -1 -3.5t-3 -2.5zM88 237q0 -1 -2 -3.5t-3 -2.5zM211 184v-5q2 -1 2 1q1 3 -2 4zM115 289q1 0 1 -2t-1 -2t-1 2t1 2zM165 366q-1 1 -4 -4q1 0 3 1.5t1 2.5zM68 205q0 -7 -5 -7zM110 281q1 0 1 -2t-1 -2t-1 2t1 2zM364 148l1 1l1 -1
l2 -2h-1zM160 360q-1 -1 -1 -4zM61 193v-2t-1 0q0 1 1 2zM119 293q-1 -1 -2 -1zM214 184q-3 3 -3 1q2 -2 3 -1zM217 190q-1 1 -1 0v-2zM361 148h-1h1zM194 419l-1 -2q0 2 1 2z" />
    <glyph glyph-name="Agrave" unicode="&#xc0;" 
d="M45 19q-24 9 -24 28q-2 34 88 372q1 5 4 14.5t3 11.5q1 2 1.5 7t2.5 8l22 77q5 15 12 64l7 25q1 4 2 14.5t4 18.5t9 12l21 6h4q11 0 21.5 -3.5t18.5 -4.5q2 0 5.5 -0.5t4.5 -0.5q63 -9 95 -32q31 -21 41 -49q36 -104 46 -182l87 -310q0 -5 3 -15t4 -16q1 -10 -13 -15.5
t-16 -9.5h-12q-3 4 -9 4l-1 -9l2 -5l-3 -3l-3 -2h-33q-4 -10 -29 -10q-2 0 -6 1.5t-6 1.5q0 4 1 5q-1 1 1 5v2q-3 2 -4 2v1q4 10 3 10t-3 -1q-6 0 -7.5 3t-1.5 7t-3 6q3 2 7 6.5t4 6.5l-1 2l-2 3q0 1 2 3l2 2q0 1 -4 6.5t-4 6.5q6 0 9 5l3 -2h2q5 0 8 3l-3 3q-2 26 -10 49
q-1 4 -4.5 11t-4.5 10v9q0 10 -2 16q-2 0 -2.5 5.5t-3.5 5.5q-12 -1 -12 -5q0 -2 1.5 -5.5t1.5 -5.5v-4l-7 16q0 2 -5 -0.5t-10.5 -6t-6.5 -3.5t-6.5 -0.5t-10.5 -2t-5 -3.5l-17 -4q-2 0 -37 -3q-3 -1 -3 -2h-4l-41 -6q-1 0 -7.5 -1.5l-14.5 -3.5t-11 -2q-6 -2 -9 -6l-9 -73
q-7 -36 -19 -49t-47 -20q-1 0 4 -2h-2q-4 0 -28.5 1.5t-29.5 1.5zM267 319q4 -16 13 -16q8 0 12 2q4 0 22.5 2t21.5 2q7 1 7 2q1 1 1 4q-1 5 -9 28q0 1 -2 3q-1 0 -9 5q0 8 -2 16.5t-5.5 18t-4.5 15.5q-3 10 -8.5 31.5t-9.5 31.5q-2 5 -6.5 7t-5.5 5q-1 2 -5 8t-5 9
q-1 2 -3 10t-4.5 12.5t-7.5 8.5q-5 -16 -21 -86q-3 -13 -10 -38t-11.5 -45t-7.5 -38h14q7 0 20 1t20 1h6zM387 35l3 4q2 0 2 -4v-1zM384 147q1 -1 1 -4q-1 -1 -2 1.5t1 2.5zM384 154v-3l-2 -2v1q0 3 2 4zM382 160q2 -2 0 -4v4zM373 184q1 0 1 -1t-1 -1v2zM330 344l1 -3h-1v3
zM375 179v-1v1zM180 805q0 3 1 4l-3 3v2q2 2 2 10q2 2 5 2l2 6q3 2 4 3q8 4 15 4h52q20 0 70 -65l1 -4q1 -5 2.5 -10t1.5 -6q0 -19 -13 -19h-44q-2 0 -12.5 1t-15.5 4q-7 3 -22 15q-4 4 -14.5 16.5t-16.5 18.5q-1 1 -3.5 3l-5.5 4.5t-4 4.5z" />
    <glyph glyph-name="Aacute" unicode="&#xc1;" 
d="M45 19q-24 9 -24 28q-2 34 88 372q1 5 4 14.5t3 11.5q1 2 1.5 7t2.5 8l22 77q5 15 12 64l7 25q1 4 2 14.5t4 18.5t9 12l21 6h4q11 0 21.5 -3.5t18.5 -4.5q2 0 5.5 -0.5t4.5 -0.5q63 -9 95 -32q31 -21 41 -49q36 -104 46 -182l87 -310q0 -5 3 -15t4 -16q1 -10 -13 -15.5
t-16 -9.5h-12q-3 4 -9 4l-1 -9l2 -5l-3 -3l-3 -2h-33q-4 -10 -29 -10q-2 0 -6 1.5t-6 1.5q0 4 1 5q-1 1 1 5v2q-3 2 -4 2v1q4 10 3 10t-3 -1q-6 0 -7.5 3t-1.5 7t-3 6q3 2 7 6.5t4 6.5l-1 2l-2 3q0 1 2 3l2 2q0 1 -4 6.5t-4 6.5q6 0 9 5l3 -2h2q5 0 8 3l-3 3q-2 26 -10 49
q-1 4 -4.5 11t-4.5 10v9q0 10 -2 16q-2 0 -2.5 5.5t-3.5 5.5q-12 -1 -12 -5q0 -2 1.5 -5.5t1.5 -5.5v-4l-7 16q0 2 -5 -0.5t-10.5 -6t-6.5 -3.5t-6.5 -0.5t-10.5 -2t-5 -3.5l-17 -4q-2 0 -37 -3q-3 -1 -3 -2h-4l-41 -6q-1 0 -7.5 -1.5l-14.5 -3.5t-11 -2q-6 -2 -9 -6l-9 -73
q-7 -36 -19 -49t-47 -20q-1 0 4 -2h-2q-4 0 -28.5 1.5t-29.5 1.5zM267 319q4 -16 13 -16q8 0 12 2q4 0 22.5 2t21.5 2q7 1 7 2q1 1 1 4q-1 5 -9 28q0 1 -2 3q-1 0 -9 5q0 8 -2 16.5t-5.5 18t-4.5 15.5q-3 10 -8.5 31.5t-9.5 31.5q-2 5 -6.5 7t-5.5 5q-1 2 -5 8t-5 9
q-1 2 -3 10t-4.5 12.5t-7.5 8.5q-5 -16 -21 -86q-3 -13 -10 -38t-11.5 -45t-7.5 -38h14q7 0 20 1t20 1h6zM387 35l3 4q2 0 2 -4v-1zM384 147q1 -1 1 -4q-1 -1 -2 1.5t1 2.5zM384 154v-3l-2 -2v1q0 3 2 4zM382 160q2 -2 0 -4v4zM373 184q1 0 1 -1t-1 -1v2zM330 344l1 -3h-1v3
zM375 179v-1v1zM176 735l-2 8l5 9l40 52q1 1 2.5 5.5t2.5 5.5q2 1 6.5 4t6.5 5q20 -4 67 -4q3 0 8 -2l6 -3q14 0 21 -10q0 -3 -10 -10q2 -6 0 -12l-6 -8l-11 -7h-4q-2 -1 -9.5 -6.5t-8.5 -6.5q-39 -29 -57 -29h-3q-40 0 -54 9zM249 806l-1 -4q0 1 4 2l3 1z" />
    <glyph glyph-name="Acircumflex" unicode="&#xc2;" 
d="M45 19q-24 9 -24 28q-2 34 88 372q1 5 4 14.5t3 11.5q1 2 1.5 7t2.5 8l22 77q5 15 12 64l7 25q1 4 2 14.5t4 18.5t9 12l21 6h4q11 0 21.5 -3.5t18.5 -4.5q2 0 5.5 -0.5t4.5 -0.5q63 -9 95 -32q31 -21 41 -49q36 -104 46 -182l87 -310q0 -5 3 -15t4 -16q1 -10 -13 -15.5
t-16 -9.5h-12q-3 4 -9 4l-1 -9l2 -5l-3 -3l-3 -2h-33q-4 -10 -29 -10q-2 0 -6 1.5t-6 1.5q0 4 1 5q-1 1 1 5v2q-3 2 -4 2v1q4 10 3 10t-3 -1q-6 0 -7.5 3t-1.5 7t-3 6q3 2 7 6.5t4 6.5l-1 2l-2 3q0 1 2 3l2 2q0 1 -4 6.5t-4 6.5q6 0 9 5l3 -2h2q5 0 8 3l-3 3q-2 26 -10 49
q-1 4 -4.5 11t-4.5 10v9q0 10 -2 16q-2 0 -2.5 5.5t-3.5 5.5q-12 -1 -12 -5q0 -2 1.5 -5.5t1.5 -5.5v-4l-7 16q0 2 -5 -0.5t-10.5 -6t-6.5 -3.5t-6.5 -0.5t-10.5 -2t-5 -3.5l-17 -4q-2 0 -37 -3q-3 -1 -3 -2h-4l-41 -6q-1 0 -7.5 -1.5l-14.5 -3.5t-11 -2q-6 -2 -9 -6l-9 -73
q-7 -36 -19 -49t-47 -20q-1 0 4 -2h-2q-4 0 -28.5 1.5t-29.5 1.5zM267 319q4 -16 13 -16q8 0 12 2q4 0 22.5 2t21.5 2q7 1 7 2q1 1 1 4q-1 5 -9 28q0 1 -2 3q-1 0 -9 5q0 8 -2 16.5t-5.5 18t-4.5 15.5q-3 10 -8.5 31.5t-9.5 31.5q-2 5 -6.5 7t-5.5 5q-1 2 -5 8t-5 9
q-1 2 -3 10t-4.5 12.5t-7.5 8.5q-5 -16 -21 -86q-3 -13 -10 -38t-11.5 -45t-7.5 -38h14q7 0 20 1t20 1h6zM387 35l3 4q2 0 2 -4v-1zM384 147q1 -1 1 -4q-1 -1 -2 1.5t1 2.5zM384 154v-3l-2 -2v1q0 3 2 4zM382 160q2 -2 0 -4v4zM373 184q1 0 1 -1t-1 -1v2zM330 344l1 -3h-1v3
zM375 179v-1v1zM259 785l-2 -3q-24 -22 -30 -29q-4 -5 -14 -28q1 -1 1 -2h1q0 -1 -1 -1.5t-3.5 -1l-5 -1t-6 -0.5h-4.5h-3q-4 0 -11.5 0.5t-11.5 0.5q-5 0 -14 -1t-14 -1h-12q-11 2 -11 11q-1 5 5 17l51 59q4 5 7 7l26 28q4 4 2 8q8 5 21 5h1q1 0 9 -1l8 -2q15 0 19 -2
q9 -1 16 -7t14 -14.5t10 -11.5l19 -17q0 -1 3 -3t4 -3l36 -40q1 -1 4 -5t5 -6q0 -1 7.5 -6.5t7.5 -8.5q1 -13 -36 -13q-18 0 -26 2q-1 0 -3 1l-2 2q-14 0 -16 1q-9 4 -14.5 9.5t-12 18t-7.5 13.5q-4 11 -17 25z" />
    <glyph glyph-name="Atilde" unicode="&#xc3;" 
d="M45 19q-24 9 -24 28q-2 34 88 372q1 5 4 14.5t3 11.5q1 2 1.5 7t2.5 8l22 77q5 15 12 64l7 25q1 4 2 14.5t4 18.5t9 12l21 6h4q11 0 21.5 -3.5t18.5 -4.5q2 0 5.5 -0.5t4.5 -0.5q63 -9 95 -32q31 -21 41 -49q36 -104 46 -182l87 -310q0 -5 3 -15t4 -16q1 -10 -13 -15.5
t-16 -9.5h-12q-3 4 -9 4l-1 -9l2 -5l-3 -3l-3 -2h-33q-4 -10 -29 -10q-2 0 -6 1.5t-6 1.5q0 4 1 5q-1 1 1 5v2q-3 2 -4 2v1q4 10 3 10t-3 -1q-6 0 -7.5 3t-1.5 7t-3 6q3 2 7 6.5t4 6.5l-1 2l-2 3q0 1 2 3l2 2q0 1 -4 6.5t-4 6.5q6 0 9 5l3 -2h2q5 0 8 3l-3 3q-2 26 -10 49
q-1 4 -4.5 11t-4.5 10v9q0 10 -2 16q-2 0 -2.5 5.5t-3.5 5.5q-12 -1 -12 -5q0 -2 1.5 -5.5t1.5 -5.5v-4l-7 16q0 2 -5 -0.5t-10.5 -6t-6.5 -3.5t-6.5 -0.5t-10.5 -2t-5 -3.5l-17 -4q-2 0 -37 -3q-3 -1 -3 -2h-4l-41 -6q-1 0 -7.5 -1.5l-14.5 -3.5t-11 -2q-6 -2 -9 -6l-9 -73
q-7 -36 -19 -49t-47 -20q-1 0 4 -2h-2q-4 0 -28.5 1.5t-29.5 1.5zM267 319q4 -16 13 -16q8 0 12 2q4 0 22.5 2t21.5 2q7 1 7 2q1 1 1 4q-1 5 -9 28q0 1 -2 3q-1 0 -9 5q0 8 -2 16.5t-5.5 18t-4.5 15.5q-3 10 -8.5 31.5t-9.5 31.5q-2 5 -6.5 7t-5.5 5q-1 2 -5 8t-5 9
q-1 2 -3 10t-4.5 12.5t-7.5 8.5q-5 -16 -21 -86q-3 -13 -10 -38t-11.5 -45t-7.5 -38h14q7 0 20 1t20 1h6zM387 35l3 4q2 0 2 -4v-1zM384 147q1 -1 1 -4q-1 -1 -2 1.5t1 2.5zM384 154v-3l-2 -2v1q0 3 2 4zM382 160q2 -2 0 -4v4zM373 184q1 0 1 -1t-1 -1v2zM330 344l1 -3h-1v3
zM375 179v-1v1zM131 745v1l1 2v4q2 27 7 39.5t24 25.5q14 10 35 10q37 0 66 -21q2 -1 5.5 -2t4.5 -2q3 -3 8 -9t9 -8.5t10 -2.5q7 0 9 1q0 2 0.5 14.5t1.5 17.5t4 13.5t8.5 12t13.5 3.5q1 0 25 -3h7.5t7 -0.5t5 -2t4.5 -5t1 -8.5q0 -7 -3 -17.5t-3 -12.5q-9 -36 -23 -58
q-9 -14 -40 -14q-44 0 -57 13q-5 5 -11.5 12.5t-10 10.5t-10 6t-16.5 3h-5q-1 -1 -4.5 -8.5l-7 -15.5t-7 -14t-5.5 -6l-3 3h-1q-2 0 -4.5 -2.5t-5.5 -2.5q-40 0 -40 23z" />
    <glyph glyph-name="Adieresis" unicode="&#xc4;" 
d="M45 19q-24 9 -24 28q-2 34 88 372q1 5 4 14.5t3 11.5q1 2 1.5 7t2.5 8l22 77q5 15 12 64l7 25q1 4 2 14.5t4 18.5t9 12l21 6h4q11 0 21.5 -3.5t18.5 -4.5q2 0 5.5 -0.5t4.5 -0.5q63 -9 95 -32q31 -21 41 -49q36 -104 46 -182l87 -310q0 -5 3 -15t4 -16q1 -10 -13 -15.5
t-16 -9.5h-12q-3 4 -9 4l-1 -9l2 -5l-3 -3l-3 -2h-33q-4 -10 -29 -10q-2 0 -6 1.5t-6 1.5q0 4 1 5q-1 1 1 5v2q-3 2 -4 2v1q4 10 3 10t-3 -1q-6 0 -7.5 3t-1.5 7t-3 6q3 2 7 6.5t4 6.5l-1 2l-2 3q0 1 2 3l2 2q0 1 -4 6.5t-4 6.5q6 0 9 5l3 -2h2q5 0 8 3l-3 3q-2 26 -10 49
q-1 4 -4.5 11t-4.5 10v9q0 10 -2 16q-2 0 -2.5 5.5t-3.5 5.5q-12 -1 -12 -5q0 -2 1.5 -5.5t1.5 -5.5v-4l-7 16q0 2 -5 -0.5t-10.5 -6t-6.5 -3.5t-6.5 -0.5t-10.5 -2t-5 -3.5l-17 -4q-2 0 -37 -3q-3 -1 -3 -2h-4l-41 -6q-1 0 -7.5 -1.5l-14.5 -3.5t-11 -2q-6 -2 -9 -6l-9 -73
q-7 -36 -19 -49t-47 -20q-1 0 4 -2h-2q-4 0 -28.5 1.5t-29.5 1.5zM267 319q4 -16 13 -16q8 0 12 2q4 0 22.5 2t21.5 2q7 1 7 2q1 1 1 4q-1 5 -9 28q0 1 -2 3q-1 0 -9 5q0 8 -2 16.5t-5.5 18t-4.5 15.5q-3 10 -8.5 31.5t-9.5 31.5q-2 5 -6.5 7t-5.5 5q-1 2 -5 8t-5 9
q-1 2 -3 10t-4.5 12.5t-7.5 8.5q-5 -16 -21 -86q-3 -13 -10 -38t-11.5 -45t-7.5 -38h14q7 0 20 1t20 1h6zM387 35l3 4q2 0 2 -4v-1zM384 147q1 -1 1 -4q-1 -1 -2 1.5t1 2.5zM384 154v-3l-2 -2v1q0 3 2 4zM382 160q2 -2 0 -4v4zM373 184q1 0 1 -1t-1 -1v2zM330 344l1 -3h-1v3
zM375 179v-1v1zM291 743v10q0 19 10.5 42.5t25.5 31.5h7q41 0 67 -33q3 -5 3 -7v-18l-2 -3q-2 -2 -4 -5t-3 -4l-6 -5q-2 -1 -16 -15q-15 -19 -43 -19h-9q-1 6 -5 8.5t-10 3.5t-9 2q-1 0 -6 11zM120 745q0 2 -1 14t-1 13v3q4 4 4 17q2 21 12 28q2 0 6 -1t5 -1q5 0 12.5 2
t11.5 2t18 -4h1l10.5 -4t8 -2.5t5.5 -2.5t4.5 -3.5t3.5 -5t3.5 -7.5t4.5 -11q0 -13 -14 -29l-3 -3q-4 -5 -14.5 -11t-13.5 -8l-10 -10q-10 -4 -12 -4q-4 0 -25 14q-11 0 -11 4z" />
    <glyph glyph-name="Aring" unicode="&#xc5;" 
d="M45 19q-24 9 -24 28q-2 34 88 372q1 5 4 14.5t3 11.5q1 2 1.5 7t2.5 8l22 77q5 15 12 64l7 25q1 4 2 14.5t4 18.5t9 12l21 6h4q11 0 21.5 -3.5t18.5 -4.5q2 0 5.5 -0.5t4.5 -0.5q63 -9 95 -32q31 -21 41 -49q36 -104 46 -182l87 -310q0 -5 3 -15t4 -16q1 -10 -13 -15.5
t-16 -9.5h-12q-3 4 -9 4l-1 -9l2 -5l-3 -3l-3 -2h-33q-4 -10 -29 -10q-2 0 -6 1.5t-6 1.5q0 4 1 5q-1 1 1 5v2q-3 2 -4 2v1q4 10 3 10t-3 -1q-6 0 -7.5 3t-1.5 7t-3 6q3 2 7 6.5t4 6.5l-1 2l-2 3q0 1 2 3l2 2q0 1 -4 6.5t-4 6.5q6 0 9 5l3 -2h2q5 0 8 3l-3 3q-2 26 -10 49
q-1 4 -4.5 11t-4.5 10v9q0 10 -2 16q-2 0 -2.5 5.5t-3.5 5.5q-12 -1 -12 -5q0 -2 1.5 -5.5t1.5 -5.5v-4l-7 16q0 2 -5 -0.5t-10.5 -6t-6.5 -3.5t-6.5 -0.5t-10.5 -2t-5 -3.5l-17 -4q-2 0 -37 -3q-3 -1 -3 -2h-4l-41 -6q-1 0 -7.5 -1.5l-14.5 -3.5t-11 -2q-6 -2 -9 -6l-9 -73
q-7 -36 -19 -49t-47 -20q-1 0 4 -2h-2q-4 0 -28.5 1.5t-29.5 1.5zM267 319q4 -16 13 -16q8 0 12 2q4 0 22.5 2t21.5 2q7 1 7 2q1 1 1 4q-1 5 -9 28q0 1 -2 3q-1 0 -9 5q0 8 -2 16.5t-5.5 18t-4.5 15.5q-3 10 -8.5 31.5t-9.5 31.5q-2 5 -6.5 7t-5.5 5q-1 2 -5 8t-5 9
q-1 2 -3 10t-4.5 12.5t-7.5 8.5q-5 -16 -21 -86q-3 -13 -10 -38t-11.5 -45t-7.5 -38h14q7 0 20 1t20 1h6zM387 35l3 4q2 0 2 -4v-1zM384 147q1 -1 1 -4q-1 -1 -2 1.5t1 2.5zM384 154v-3l-2 -2v1q0 3 2 4zM382 160q2 -2 0 -4v4zM373 184q1 0 1 -1t-1 -1v2zM330 344l1 -3h-1v3
zM375 179v-1v1zM228 726q-3 1 -16 4q-47 12 -55 49q0 3 -1 17t-1 17v4q0 5 7 30q20 56 90 56q38 0 69.5 -25.5t31.5 -62.5v-1q-1 -14 -4 -20q0 -1 -2.5 -9.5t-6 -16t-11.5 -18t-20.5 -15.5t-33 -9.5t-47.5 0.5zM225 798v-1q0 -26 16 -26h4q6 0 16 5l3 3q28 28 33 41
q0 16 -11 31l-9 9h-6q-4 -3 -13.5 -8t-12.5 -7q-20 -16 -20 -47z" />
    <glyph glyph-name="AE" unicode="&#xc6;" horiz-adv-x="701" 
d="M375 31q-9 0 -12 -4q-18 -2 -43 -2h-11l-3 2v15q0 2 -4 4t-4 3v1q0 2 2 4q1 2 1 3q0 3 -4.5 9t-4.5 9l-7 112h-10q-3 -1 -3 -2h-4l-42 -6q-1 0 -7.5 -1.5l-14.5 -3.5t-11 -2q-7 -2 -10 -6l-15 -76q-10 -38 -22.5 -51t-47.5 -20l3 -1v-1h-2q-4 0 -28.5 1.5t-29.5 1.5
q-22 9 -20 29q0 34 118 385q0 3 9 26q4 15 5 16l28 80l17 66l9 26q1 4 3 15t5.5 19t10.5 12l21 6h4q25 0 36 -0.5t15.5 -1.5t22 -3t45.5 -4q8 0 17.5 1.5t16.5 1.5h2q85 0 175 -5h9q3 0 9 1.5t9 1.5q4 0 9 -5t12 -4q1 -2 3 -11q1 -2 6 -17t6 -17v-11q-2 0 -4 -2v-1
q0 -3 2 -8t2 -8q0 -4 -1.5 -5.5l-3.5 -3.5t-3 -5v-10q-1 -5 -17 -5l-27 -7q-31 0 -61 -3q-9 -1 -10 -1q-8 -2 -38 -2q-4 0 -15 -0.5t-14.5 -1t-10 -3t-10 -8t-6.5 -13.5q-3 -22 -3 -62v-7.5v-8.5l1 -3l6 -5q43 2 90 -2q7 0 9 -2q10 -1 15 -4l3 -2l2 2l1 6h1q1 0 12.5 -3.5
t11.5 -4.5l14 -34q2 -4 3 -11t2 -9v-36l-3 -1q0 -13 -7 -17q-4 1 -14.5 1t-13.5 -1l-7 -2q-7 -1 -8 -1q-3 -1 -24 -1t-29 -3h-45q-6 3 -17 3q0 -32 2.5 -89t2.5 -80q0 -15 1 -18h1q5 0 14.5 1.5t14.5 0.5l158 9q18 2 24 -8q2 5 7 5q4 0 6 -2v-1l1 -2l3 -6q19 -40 19 -62
q0 -2 -1.5 -6t-0.5 -10q-7 -2 -7.5 -10t-3.5 -10q-5 0 -55 -6q-84 -8 -126 -11q-5 0 -19 -2t-22 -2q-23 0 -40 2q-3 0 -14 3t-17 3zM241 328q6 0 18.5 1t18.5 1q-2 52 -2 60l8 123l-5.5 -19l-6.5 -22t-6 -19q-1 -4 -17 -52t-22 -73h14z" />
    <glyph glyph-name="Ccedilla" unicode="&#xc7;" horiz-adv-x="448" 
d="M128 -163h2q0 1 -0.5 4t-0.5 4q0 2 2 6.5t2 7.5q0 -2 4 -2h1q22 0 51 9q10 6 11 6q5 2 22 13q23 11 23 25v4q-7 2 -29.5 3.5t-35.5 8t-13 24.5q0 9 1.5 27t1.5 27v2q-16 5 -31 14q-54 30 -76.5 78.5t-33.5 123.5q-8 51 -8 97q0 163 7 206q13 82 68.5 133t137.5 51
q26 0 35 -4q81 -11 114.5 -48.5t43.5 -136.5q3 -29 -18 -63q-4 -6 -23.5 -12.5t-23.5 -8.5l-4 4l-2 -1q-2 -1 -3 -1l-1 -1q-4 0 -4 3q-21 -2 -47.5 5t-26.5 24q0 5 3 16t3 16q0 11 3.5 34.5t1.5 39t-13 29.5q-3 1 -9.5 8.5t-11.5 7.5h-2q-18 -5 -27 -8.5t-25 -12
t-24.5 -23.5t-12.5 -37q0 -2 -4 -12t-4 -12v-22q2 -17 0 -90t3 -91q1 -6 8.5 -19.5t7.5 -21.5q0 -3 -2 -8t-2 -9q0 -22 13 -80q3 -3 4 -8.5t1 -6.5q7 -24 16 -36l21 -26h1q11 0 22.5 20.5t14.5 35.5q7 49 14 77q1 8 6 17t6 12t3.5 12.5l4 15t5.5 12.5t10 10q6 -8 14 -12
q2 -2 6 -2q43 -4 57 -18h2l2 1l2 1q-1 -5 9 -5q0 -3 7 -8t8 -7q8 -8 8 -27q0 -45 -16 -97q-4 -6 -9.5 -27t-10.5 -28q-30 -48 -97 -62q-28 -6 -29 -6l-2 -1q3 -4 3 -11v-3l-13 -40v-1q0 -2 3 -3.5t7 -2.5t5 -2l30 -20q13 -9 18 -19q1 -1 2 -3.5t2 -4.5t3 -3v-13q0 -5 -3 -8
q0 -7 2 -11l1 -1v-1q0 -5 -1.5 -9.5t-5 -8l-6 -6t-8 -5.5t-8 -4.5t-9.5 -4t-8 -3.5q-27 -12 -29 -12h-43v2q-2 -2 -7 -2q-11 0 -39 9.5t-28 16.5z" />
    <glyph glyph-name="Egrave" unicode="&#xc8;" horiz-adv-x="453" 
d="M127 21q-9 0 -12 -4q-18 -2 -43 -2h-11l-3 2v15q0 2 -4 4t-4 3v1q0 2 2 4q1 2 1 3q0 3 -4.5 9t-4.5 9l-11 187v13q0 5 -2.5 57t-2.5 58l9 130q-2 6 -2 18v77q0 7 -3 19.5t-3 18.5q0 35 19 47h4l10 -6q18 -3 38 -3h22q8 0 17.5 1.5t16.5 1.5h2q85 0 175 -5h9q3 0 9 1.5
t9 1.5q4 0 9 -5t12 -4q1 -2 3 -11q1 -2 6 -17t6 -17v-11q-2 0 -4 -2v-1q0 -3 2 -8t2 -8q0 -4 -1.5 -5.5l-3.5 -3.5t-3 -5v-10q-1 -5 -17 -5l-27 -7q-31 0 -61 -3q-9 -1 -10 -1q-8 -2 -38 -2q-4 0 -15 -0.5t-14.5 -1t-10 -3t-10 -8t-6.5 -13.5q-3 -22 -3 -62v-7.5v-8.5l1 -3
l6 -5q43 2 90 -2q7 0 9 -2q10 -1 15 -4l3 -2l2 2l1 6h1q1 0 12.5 -3.5t11.5 -4.5l14 -34q2 -4 3 -11t2 -9v-36l-3 -1q0 -13 -7 -17q-4 1 -14.5 1t-13.5 -1l-7 -2q-7 -1 -8 -1q-3 -1 -24 -1t-29 -3h-45q-6 3 -17 3q0 -32 2.5 -89t2.5 -80q0 -15 1 -18h1q5 0 14.5 1.5
t14.5 0.5l158 9q18 2 24 -8q2 5 7 5q4 0 6 -2v-1l1 -2l3 -6q19 -40 19 -62q0 -2 -1.5 -6t-0.5 -10q-7 -2 -7.5 -10t-3.5 -10q-5 0 -55 -6q-84 -8 -126 -11q-5 0 -19 -2t-22 -2q-23 0 -40 2q-3 0 -14 3t-17 3zM122 815q0 3 1 4l-3 3v2q2 2 2 10q2 2 5 2l2 6q3 2 4 3q8 4 15 4
h52q20 0 70 -65l1 -4q1 -5 2.5 -10t1.5 -6q0 -19 -13 -19h-44q-2 0 -12.5 1t-15.5 4q-6 3 -22 15q-4 4 -14.5 16.5t-16.5 18.5l-5 5q-6 5 -8 7z" />
    <glyph glyph-name="Eacute" unicode="&#xc9;" horiz-adv-x="453" 
d="M127 21q-9 0 -12 -4q-18 -2 -43 -2h-11l-3 2v15q0 2 -4 4t-4 3v1q0 2 2 4q1 2 1 3q0 3 -4.5 9t-4.5 9l-11 187v13q0 5 -2.5 57t-2.5 58l9 130q-2 6 -2 18v77q0 7 -3 19.5t-3 18.5q0 35 19 47h4l10 -6q18 -3 38 -3h22q8 0 17.5 1.5t16.5 1.5h2q85 0 175 -5h9q3 0 9 1.5
t9 1.5q4 0 9 -5t12 -4q1 -2 3 -11q1 -2 6 -17t6 -17v-11q-2 0 -4 -2v-1q0 -3 2 -8t2 -8q0 -4 -1.5 -5.5l-3.5 -3.5t-3 -5v-10q-1 -5 -17 -5l-27 -7q-31 0 -61 -3q-9 -1 -10 -1q-8 -2 -38 -2q-4 0 -15 -0.5t-14.5 -1t-10 -3t-10 -8t-6.5 -13.5q-3 -22 -3 -62v-7.5v-8.5l1 -3
l6 -5q43 2 90 -2q7 0 9 -2q10 -1 15 -4l3 -2l2 2l1 6h1q1 0 12.5 -3.5t11.5 -4.5l14 -34q2 -4 3 -11t2 -9v-36l-3 -1q0 -13 -7 -17q-4 1 -14.5 1t-13.5 -1l-7 -2q-7 -1 -8 -1q-3 -1 -24 -1t-29 -3h-45q-6 3 -17 3q0 -32 2.5 -89t2.5 -80q0 -15 1 -18h1q5 0 14.5 1.5
t14.5 0.5l158 9q18 2 24 -8q2 5 7 5q4 0 6 -2v-1l1 -2l3 -6q19 -40 19 -62q0 -2 -1.5 -6t-0.5 -10q-7 -2 -7.5 -10t-3.5 -10q-5 0 -55 -6q-84 -8 -126 -11q-5 0 -19 -2t-22 -2q-23 0 -40 2q-3 0 -14 3t-17 3zM118 745l-2 8l5 9l40 52q1 1 2.5 5.5t2.5 5.5q2 2 6.5 5t6.5 4
q20 -4 67 -4q3 0 8 -2l6 -3q14 0 21 -10q0 -3 -10 -10q2 -6 0 -12l-6 -8l-11 -7h-4q-2 -1 -9.5 -6.5t-8.5 -6.5q-39 -29 -57 -29h-3q-40 0 -54 9zM191 816l-1 -4q0 1 4 2l3 1z" />
    <glyph glyph-name="Ecircumflex" unicode="&#xca;" horiz-adv-x="453" 
d="M127 21q-9 0 -12 -4q-18 -2 -43 -2h-11l-3 2v15q0 2 -4 4t-4 3v1q0 2 2 4q1 2 1 3q0 3 -4.5 9t-4.5 9l-11 187v13q0 5 -2.5 57t-2.5 58l9 130q-2 6 -2 18v77q0 7 -3 19.5t-3 18.5q0 35 19 47h4l10 -6q18 -3 38 -3h22q8 0 17.5 1.5t16.5 1.5h2q85 0 175 -5h9q3 0 9 1.5
t9 1.5q4 0 9 -5t12 -4q1 -2 3 -11q1 -2 6 -17t6 -17v-11q-2 0 -4 -2v-1q0 -3 2 -8t2 -8q0 -4 -1.5 -5.5l-3.5 -3.5t-3 -5v-10q-1 -5 -17 -5l-27 -7q-31 0 -61 -3q-9 -1 -10 -1q-8 -2 -38 -2q-4 0 -15 -0.5t-14.5 -1t-10 -3t-10 -8t-6.5 -13.5q-3 -22 -3 -62v-7.5v-8.5l1 -3
l6 -5q43 2 90 -2q7 0 9 -2q10 -1 15 -4l3 -2l2 2l1 6h1q1 0 12.5 -3.5t11.5 -4.5l14 -34q2 -4 3 -11t2 -9v-36l-3 -1q0 -13 -7 -17q-4 1 -14.5 1t-13.5 -1l-7 -2q-7 -1 -8 -1q-3 -1 -24 -1t-29 -3h-45q-6 3 -17 3q0 -32 2.5 -89t2.5 -80q0 -15 1 -18h1q5 0 14.5 1.5
t14.5 0.5l158 9q18 2 24 -8q2 5 7 5q4 0 6 -2v-1l1 -2l3 -6q19 -40 19 -62q0 -2 -1.5 -6t-0.5 -10q-7 -2 -7.5 -10t-3.5 -10q-5 0 -55 -6q-84 -8 -126 -11q-5 0 -19 -2t-22 -2q-23 0 -40 2q-3 0 -14 3t-17 3zM201 795l-2 -3q-24 -22 -30 -29q-4 -5 -14 -28q1 -1 1 -2h1
q0 -1 -1 -1.5t-3.5 -1l-5 -1t-6 -0.5h-4.5h-3q-4 0 -11.5 0.5t-11.5 0.5q-5 0 -14 -1t-14 -1h-12q-11 2 -11 11q-1 5 5 17l51 59q4 5 7 7l26 28q4 4 2 8q8 5 21 5h1q1 0 9 -1l8 -2q15 0 19 -2q9 -1 16 -7t14 -14.5t10 -11.5l19 -17q1 -1 4 -3t3 -3l36 -40q1 -1 4 -5t5 -6
q0 -1 7.5 -6.5t7.5 -8.5q1 -13 -36 -13q-18 0 -26 2q-1 0 -3 1l-2 2q-14 0 -16 1q-9 4 -14.5 9.5t-12 18t-7.5 13.5q-4 11 -17 25z" />
    <glyph glyph-name="Edieresis" unicode="&#xcb;" horiz-adv-x="453" 
d="M127 21q-9 0 -12 -4q-18 -2 -43 -2h-11l-3 2v15q0 2 -4 4t-4 3v1q0 2 2 4q1 2 1 3q0 3 -4.5 9t-4.5 9l-11 187v13q0 5 -2.5 57t-2.5 58l9 130q-2 6 -2 18v77q0 7 -3 19.5t-3 18.5q0 35 19 47h4l10 -6q18 -3 38 -3h22q8 0 17.5 1.5t16.5 1.5h2q85 0 175 -5h9q3 0 9 1.5
t9 1.5q4 0 9 -5t12 -4q1 -2 3 -11q1 -2 6 -17t6 -17v-11q-2 0 -4 -2v-1q0 -3 2 -8t2 -8q0 -4 -1.5 -5.5l-3.5 -3.5t-3 -5v-10q-1 -5 -17 -5l-27 -7q-31 0 -61 -3q-9 -1 -10 -1q-8 -2 -38 -2q-4 0 -15 -0.5t-14.5 -1t-10 -3t-10 -8t-6.5 -13.5q-3 -22 -3 -62v-7.5v-8.5l1 -3
l6 -5q43 2 90 -2q7 0 9 -2q10 -1 15 -4l3 -2l2 2l1 6h1q1 0 12.5 -3.5t11.5 -4.5l14 -34q2 -4 3 -11t2 -9v-36l-3 -1q0 -13 -7 -17q-4 1 -14.5 1t-13.5 -1l-7 -2q-7 -1 -8 -1q-3 -1 -24 -1t-29 -3h-45q-6 3 -17 3q0 -32 2.5 -89t2.5 -80q0 -15 1 -18h1q5 0 14.5 1.5
t14.5 0.5l158 9q18 2 24 -8q2 5 7 5q4 0 6 -2v-1l1 -2l3 -6q19 -40 19 -62q0 -2 -1.5 -6t-0.5 -10q-7 -2 -7.5 -10t-3.5 -10q-5 0 -55 -6q-84 -8 -126 -11q-5 0 -19 -2t-22 -2q-23 0 -40 2q-3 0 -14 3t-17 3zM233 753v10q0 19 10.5 42.5t25.5 31.5h7q41 0 67 -33q3 -5 3 -7
v-18l-2 -3q-2 -2 -4 -5t-3 -4l-6 -5q-2 -1 -16 -15q-15 -19 -43 -19h-9q-1 6 -5 8.5t-10 3.5t-9 2q-1 0 -6 11zM62 755q0 2 -1 14t-1 13v3q4 4 4 17q2 21 12 28q2 0 6 -1t5 -1q5 0 12.5 2t11.5 2t18 -4h1l10.5 -4t8 -2.5t5.5 -2.5t4.5 -3.5t3.5 -5t3.5 -7.5t4.5 -11
q0 -13 -14 -29l-3 -3q-4 -5 -14.5 -11t-13.5 -8l-10 -10q-10 -4 -12 -4q-4 0 -25 14q-11 0 -11 4z" />
    <glyph glyph-name="Igrave" unicode="&#xcc;" horiz-adv-x="209" 
d="M32 1q-12 7 -12 16v39q4 9 2 20l2 3q-1 1 -1 8t1 9q1 4 2 4q0 -3 0.5 -15t0.5 -14l2 -9q4 1 4 4v3q0 1 -1 7v6v112q0 7 -2.5 17.5t-2.5 16.5t2.5 18t2.5 19q0 8 -10 15q-2 19 -2 42l6 168q0 5 -0.5 23.5t-0.5 21.5l-1 6v69q-4 10 -4 17q0 12 8.5 21.5t20.5 5.5q2 3 2 12
q3 0 7 -2t8 -2h19q9 0 25 1t24 1h2q49 0 49 -24v-1q0 -1 -0.5 -2t-0.5 -2q0 -2 2.5 -5.5t2.5 -6.5q0 -5 -4 -16.5t-4 -17.5q0 -3 2.5 -9t2.5 -9t-3.5 -10t-3.5 -10q0 -39 -3 -66q-12 -163 -10 -414q0 -3 -0.5 -17t-0.5 -16q-4 -19 -9 -21l-1 2q0 -2 -1.5 -3.5t-5.5 -1.5
l-3 -1q-3 -1 -8.5 -4t-9.5 -4q-19 -5 -57 -5q-22 0 -38 1zM23 117h3v-12q-3 3 -3 12zM24 134h2v-11h-2v11zM28 801q0 3 1 4l-3 3v2q2 2 2 10q2 2 5 2l2 6q3 2 4 3q8 4 15 4h52q20 0 70 -65l1 -4q1 -5 2.5 -10t1.5 -6q0 -19 -13 -19h-44q-2 0 -12.5 1t-15.5 4q-7 3 -22 15
q-4 4 -14.5 16.5t-16.5 18.5q-1 1 -3.5 3l-5.5 4.5t-4 4.5z" />
    <glyph glyph-name="Iacute" unicode="&#xcd;" horiz-adv-x="209" 
d="M32 1q-12 7 -12 16v39q4 9 2 20l2 3q-1 1 -1 8t1 9q1 4 2 4q0 -3 0.5 -15t0.5 -14l2 -9q4 1 4 4v3q0 1 -1 7v6v112q0 7 -2.5 17.5t-2.5 16.5t2.5 18t2.5 19q0 8 -10 15q-2 19 -2 42l6 168q0 5 -0.5 23.5t-0.5 21.5l-1 6v69q-4 10 -4 17q0 12 8.5 21.5t20.5 5.5q2 3 2 12
q3 0 7 -2t8 -2h19q9 0 25 1t24 1h2q49 0 49 -24v-1q0 -1 -0.5 -2t-0.5 -2q0 -2 2.5 -5.5t2.5 -6.5q0 -5 -4 -16.5t-4 -17.5q0 -3 2.5 -9t2.5 -9t-3.5 -10t-3.5 -10q0 -39 -3 -66q-12 -163 -10 -414q0 -3 -0.5 -17t-0.5 -16q-4 -19 -9 -21l-1 2q0 -2 -1.5 -3.5t-5.5 -1.5
l-3 -1q-3 -1 -8.5 -4t-9.5 -4q-19 -5 -57 -5q-22 0 -38 1zM23 117h3v-12q-3 3 -3 12zM24 134h2v-11h-2v11zM24 731l-2 8l5 9l40 52q1 1 2.5 5.5t2.5 5.5q2 1 6.5 4t6.5 5q20 -4 67 -4q2 0 5.5 -1t6.5 -3l2 -1q14 0 21 -10q0 -3 -10 -10q2 -6 0 -12l-6 -8l-11 -7h-4
q-1 -1 -8.5 -6.5t-9.5 -6.5q-39 -29 -57 -29h-3q-40 0 -54 9zM97 802l-1 -4q0 1 4 2l3 1z" />
    <glyph glyph-name="Icircumflex" unicode="&#xce;" horiz-adv-x="209" 
d="M32 1q-12 7 -12 16v39q4 9 2 20l2 3q-1 1 -1 8t1 9q1 4 2 4q0 -3 0.5 -15t0.5 -14l2 -9q4 1 4 4v3q0 1 -1 7v6v112q0 7 -2.5 17.5t-2.5 16.5t2.5 18t2.5 19q0 8 -10 15q-2 19 -2 42l6 168q0 5 -0.5 23.5t-0.5 21.5l-1 6v69q-4 10 -4 17q0 12 8.5 21.5t20.5 5.5q2 3 2 12
q3 0 7 -2t8 -2h19q9 0 25 1t24 1h2q49 0 49 -24v-1q0 -1 -0.5 -2t-0.5 -2q0 -2 2.5 -5.5t2.5 -6.5q0 -5 -4 -16.5t-4 -17.5q0 -3 2.5 -9t2.5 -9t-3.5 -10t-3.5 -10q0 -39 -3 -66q-12 -163 -10 -414q0 -3 -0.5 -17t-0.5 -16q-4 -19 -9 -21l-1 2q0 -2 -1.5 -3.5t-5.5 -1.5
l-3 -1q-3 -1 -8.5 -4t-9.5 -4q-19 -5 -57 -5q-22 0 -38 1zM23 117h3v-12q-3 3 -3 12zM24 134h2v-11h-2v11zM107 781l-2 -3q-24 -22 -30 -29q-4 -5 -14 -28q1 -1 1 -2h1q0 -1 -1 -1.5t-3.5 -1l-5 -1t-6 -0.5h-4.5h-3q-4 0 -11.5 0.5t-11.5 0.5q-5 0 -14 -1t-14 -1h-12
q-11 2 -11 11q-1 5 5 17l51 59q4 5 7 7l26 28q4 4 2 8q7 5 21 5h1q1 0 9 -1l8 -2q15 0 19 -2q9 -1 16 -7t14 -14.5t10 -11.5l19 -17q0 -1 3 -3t4 -3l36 -40q1 -1 4 -5t5 -6q0 -1 7.5 -6.5t7.5 -8.5q1 -13 -36 -13q-18 0 -26 2q-1 0 -3 1l-2 2q-14 0 -16 1q-9 4 -14.5 9.5
t-12 18t-7.5 13.5q-4 11 -17 25z" />
    <glyph glyph-name="Idieresis" unicode="&#xcf;" horiz-adv-x="209" 
d="M32 1q-12 7 -12 16v39q4 9 2 20l2 3q-1 1 -1 8t1 9q1 4 2 4q0 -3 0.5 -15t0.5 -14l2 -9q4 1 4 4v3q0 1 -1 7v6v112q0 7 -2.5 17.5t-2.5 16.5t2.5 18t2.5 19q0 8 -10 15q-2 19 -2 42l6 168q0 5 -0.5 23.5t-0.5 21.5l-1 6v69q-4 10 -4 17q0 12 8.5 21.5t20.5 5.5q2 3 2 12
q3 0 7 -2t8 -2h19q9 0 25 1t24 1h2q49 0 49 -24v-1q0 -1 -0.5 -2t-0.5 -2q0 -2 2.5 -5.5t2.5 -6.5q0 -5 -4 -16.5t-4 -17.5q0 -3 2.5 -9t2.5 -9t-3.5 -10t-3.5 -10q0 -39 -3 -66q-12 -163 -10 -414q0 -3 -0.5 -17t-0.5 -16q-4 -19 -9 -21l-1 2q0 -2 -1.5 -3.5t-5.5 -1.5
l-3 -1q-3 -1 -8.5 -4t-9.5 -4q-19 -5 -57 -5q-22 0 -38 1zM23 117h3v-12q-3 3 -3 12zM24 134h2v-11h-2v11zM139 739v10q0 19 10.5 42.5t25.5 31.5h7q41 0 67 -33q3 -5 3 -7v-18l-2 -3q-2 -2 -4 -5t-3 -4l-6 -5q-2 -1 -16 -15q-15 -19 -43 -19h-9q-1 6 -5 8.5t-10 3.5t-9 2
q-1 0 -6 11zM-32 741q0 2 -1 14t-1 13v3q4 4 4 17q2 21 12 28q2 0 6 -1t5 -1q5 0 12.5 2t11.5 2t18 -4h1l10.5 -4t8 -2.5t5.5 -2.5t4.5 -3.5t3.5 -5t3.5 -7.5t4.5 -11q0 -13 -14 -29l-3 -3q-4 -5 -14.5 -11t-13.5 -8l-10 -10q-10 -4 -12 -4q-4 0 -25 14q-11 0 -11 4z" />
    <glyph glyph-name="Ntilde" unicode="&#xd1;" horiz-adv-x="493" 
d="M48 17q2 4 -2 15l-7 7v5q0 2 -2 6q-3 8 -5 125q-5 217 -12 450v3q0 39 16 39q6 0 15.5 -2l14.5 -3h5q47 -4 83 -32l44 -45q3 -4 10.5 -15.5t10.5 -15.5l53 -86l41 -88q3 -7 4 -7v1q0 10 -4 30v173q0 5 1 30t1 29q0 10 2 14l5 -13v21h1q0 -12 6 -17q0 -1 1 -7.5t1 -8.5v-2
q0 -30 -6 -38v-15q0 -29 8 -40v-25q0 -7 -1.5 -25t-0.5 -27l-2 -2q0 -3 -3 -12.5t-3 -13.5v-61l-1 -1l1 -2q4 -7 5 -8l6 25q0 -1 1 -4l1 -4q0 -1 2 -3l6 11v9v22.5t0.5 29t0.5 30.5v24v26q0 10 -1 42.5t0 50.5l-3 4q4 13 5 18l4 7l2 2l-2 4l-1 7q3 3 3 4q1 3 1 4l-1 3
q-3 -1 -7 -8t-8 -7h-1q3 4 8 12.5t11 13.5q-3 -6 3 -6h1l2 2l3 2h23v-2q9 0 15 -2q3 -1 4 -2v-1l-1 -3q2 -2 3 -2l-1 -2q4 0 9.5 2t8.5 2t7.5 -3t7.5 -3v-2l-1 -3q-2 -3 -1 -3q0 -1 3 -2l3 -1q10 -8 10 -48q0 -6 -1 -16.5t-1 -14.5q0 -7 2 -20.5t2 -19.5v-14l-1 -5l-1 -5
q0 -10 1.5 -30t1.5 -31l-3 1v-1q0 -5 3 -5q-1 -12 2 -33.5t3 -31.5q3 -35 3 -107l1 -5q1 -5 1 -7q6 -76 6 -117q0 -20 -4 -33.5t-7.5 -19t-17 -19t-20.5 -21.5q-24 -8 -40 -21q-3 -1 -6 -2.5t-7 -1.5h-5l1 4v1q-1 0 -5 1t-5 1t-11 -4.5t-18 -4.5t-13 8t-9.5 21t-6.5 16
l-74 191l-41 90q-5 3 -5 9q-8 8 -15 26v-152q-2 -10 -2 -52q0 -13 2 -39.5t2 -39.5v-9q-2 -1 -2 -2l2 -6v-5q0 -1 -1 -11t-1 -12q-18 -21 -54 -26q-1 0 -2.5 -0.5t-2.5 -0.5l-50 -8l-2 -1q-4 0 -5 3zM315 37q0 -14 8 -14h2q-4 14 -10 14zM352 612l-2 -1v-10h4v10q-1 1 -2 1z
M346 646q2 0 2 -2.5t-2 -2.5q-1 0 -1 2.5t1 2.5zM313 662q1 0 1 -2t-1 -2t-1 2t1 2zM457 592q1 0 1 -1.5t-1 -1.5t-1 1.5t1 1.5zM456 597q1 -1 1 -2t-1 -1t-1 1t1 2zM336 647v-1v1zM105 727v1l1 2v4q2 27 7 39.5t24 25.5q14 10 35 10q37 0 66 -21q2 -1 5.5 -2t4.5 -2
q3 -3 8 -9t9 -8.5t10 -2.5q7 0 9 1q0 2 0.5 14.5t1.5 17.5t4 13.5t8.5 12t13.5 3.5q1 0 25 -3h7.5t7 -0.5t5 -2t4.5 -5t1 -8.5q0 -7 -3 -17.5t-3 -12.5q-9 -36 -23 -58q-9 -14 -40 -14q-44 0 -57 13q-5 5 -11.5 12.5t-10 10.5t-10 6t-16.5 3h-5q-1 -1 -4.5 -8.5l-7 -15.5
t-7 -14t-5.5 -6l-3 3h-1q-2 0 -4.5 -2.5t-5.5 -2.5q-40 0 -40 23z" />
    <glyph glyph-name="Ograve" unicode="&#xd2;" horiz-adv-x="480" 
d="M20 346q0 141 67 266q13 25 52 52t67 27q9 0 25.5 -3t19.5 -3h14q1 0 8 -1.5t8 -1.5t14 -5t14 -6q5 -2 14.5 -5t16.5 -6t13 -7q1 -2 16 -17l1 -2l4 -4l1 -1q2 -2 4.5 -3t3.5 -1.5t2 -2.5t1 -6q0 -2 -1 -4t-1 -3h4v7q3 0 4 -1q10 -6 17 -24q0 -1 1 -3q1 2 15 -20t17 -29
q17 -27 13 -82l1 -3q1 -4 1 -5q2 -24 2 -64q0 -39 -2 -48q0 -9 -2.5 -62t-3.5 -63v-20q0 -2 -1.5 -13t-1.5 -13t-0.5 -6t-0.5 -5q-2 -28 -4 -41.5t-12 -31t-29 -33.5q-2 -2 -10.5 -6.5t-11.5 -7.5q-41 -23 -70 -28q-10 -1 -48 -9.5t-59 -8.5q-102 0 -139 103l-2 10
q-1 10 -3 14q-1 1 -4.5 2t-4.5 3q-3 5 -11 49q-19 92 -19 176zM165 265q14 -80 35 -152q0 -9 3 -14q17 -30 26 -30q7 0 31.5 12t28.5 18l6 18l10 126l2 9q2 -6 2 -14q0 -7 -1 -21t-1 -20v-9l2 -4l4 4q4 4 7 159v61v60q0 12 -2 18q-6 27 -13 55l-9 18q-1 4 0 8t-1 7
q-12 12 -15 18q-6 6 -13 20q-2 2 -11.5 9.5t-12.5 8.5l-5 -3q-8 -4 -16.5 -5.5t-13 -4t-10.5 -12.5q-1 -1 -5 -7t-8 -11t-4 -6t-7.5 -13.5t-8.5 -14.5q-13 -20 -13 -25q1 -15 -1.5 -40.5t-2.5 -36.5v-16q0 -1 2 -14.5t2 -15.5q5 -81 7 -103q1 -4 1.5 -12t1.5 -14t3 -11z
M310 320q4 -2 0 -4v4zM310 329v-2v2zM313 340v-3q0 -4 -3 -5v1v1zM313 365v-1v1zM313 376v-1v1zM150 821q0 3 1 4l-3 3v2q2 2 2 10q2 2 5 2l2 6q3 2 4 3q8 4 15 4h52q20 0 70 -65l1 -4q1 -5 2.5 -10t1.5 -6q0 -19 -13 -19h-44q-2 0 -12.5 1t-15.5 4q-7 3 -22 15
q-4 4 -14.5 16.5t-16.5 18.5l-5 5q-6 5 -8 7z" />
    <glyph glyph-name="Oacute" unicode="&#xd3;" horiz-adv-x="480" 
d="M20 346q0 141 67 266q13 25 52 52t67 27q9 0 25.5 -3t19.5 -3h14q1 0 8 -1.5t8 -1.5t14 -5t14 -6q5 -2 14.5 -5t16.5 -6t13 -7q1 -2 16 -17l1 -2l4 -4l1 -1q2 -2 4.5 -3t3.5 -1.5t2 -2.5t1 -6q0 -2 -1 -4t-1 -3h4v7q3 0 4 -1q10 -6 17 -24q0 -1 1 -3q1 2 15 -20t17 -29
q17 -27 13 -82l1 -3q1 -4 1 -5q2 -24 2 -64q0 -39 -2 -48q0 -9 -2.5 -62t-3.5 -63v-20q0 -2 -1.5 -13t-1.5 -13t-0.5 -6t-0.5 -5q-2 -28 -4 -41.5t-12 -31t-29 -33.5q-2 -2 -10.5 -6.5t-11.5 -7.5q-41 -23 -70 -28q-10 -1 -48 -9.5t-59 -8.5q-102 0 -139 103l-2 10
q-1 10 -3 14q-1 1 -4.5 2t-4.5 3q-3 5 -11 49q-19 92 -19 176zM165 265q14 -80 35 -152q0 -9 3 -14q17 -30 26 -30q7 0 31.5 12t28.5 18l6 18l10 126l2 9q2 -6 2 -14q0 -7 -1 -21t-1 -20v-9l2 -4l4 4q4 4 7 159v61v60q0 12 -2 18q-6 27 -13 55l-9 18q-1 4 0 8t-1 7
q-12 12 -15 18q-6 6 -13 20q-2 2 -11.5 9.5t-12.5 8.5l-5 -3q-8 -4 -16.5 -5.5t-13 -4t-10.5 -12.5q-1 -1 -5 -7t-8 -11t-4 -6t-7.5 -13.5t-8.5 -14.5q-13 -20 -13 -25q1 -15 -1.5 -40.5t-2.5 -36.5v-16q0 -1 2 -14.5t2 -15.5q5 -81 7 -103q1 -4 1.5 -12t1.5 -14t3 -11z
M310 320q4 -2 0 -4v4zM310 329v-2v2zM313 340v-3q0 -4 -3 -5v1v1zM313 365v-1v1zM313 376v-1v1zM146 751l-2 8l5 9l40 52q1 1 2.5 5.5t2.5 5.5q2 2 6.5 5t6.5 4q20 -4 67 -4q3 0 8 -2l6 -3q14 0 21 -10q0 -3 -10 -10q2 -6 0 -12l-6 -8l-11 -7h-4q-2 -1 -9.5 -6.5t-8.5 -6.5
q-39 -29 -57 -29h-3q-40 0 -54 9zM219 822l-1 -4q0 1 4 2l3 1z" />
    <glyph glyph-name="Ocircumflex" unicode="&#xd4;" horiz-adv-x="480" 
d="M20 346q0 141 67 266q13 25 52 52t67 27q9 0 25.5 -3t19.5 -3h14q1 0 8 -1.5t8 -1.5t14 -5t14 -6q5 -2 14.5 -5t16.5 -6t13 -7q1 -2 16 -17l1 -2l4 -4l1 -1q2 -2 4.5 -3t3.5 -1.5t2 -2.5t1 -6q0 -2 -1 -4t-1 -3h4v7q3 0 4 -1q10 -6 17 -24q0 -1 1 -3q1 2 15 -20t17 -29
q17 -27 13 -82l1 -3q1 -4 1 -5q2 -24 2 -64q0 -39 -2 -48q0 -9 -2.5 -62t-3.5 -63v-20q0 -2 -1.5 -13t-1.5 -13t-0.5 -6t-0.5 -5q-2 -28 -4 -41.5t-12 -31t-29 -33.5q-2 -2 -10.5 -6.5t-11.5 -7.5q-41 -23 -70 -28q-10 -1 -48 -9.5t-59 -8.5q-102 0 -139 103l-2 10
q-1 10 -3 14q-1 1 -4.5 2t-4.5 3q-3 5 -11 49q-19 92 -19 176zM165 265q14 -80 35 -152q0 -9 3 -14q17 -30 26 -30q7 0 31.5 12t28.5 18l6 18l10 126l2 9q2 -6 2 -14q0 -7 -1 -21t-1 -20v-9l2 -4l4 4q4 4 7 159v61v60q0 12 -2 18q-6 27 -13 55l-9 18q-1 4 0 8t-1 7
q-12 12 -15 18q-6 6 -13 20q-2 2 -11.5 9.5t-12.5 8.5l-5 -3q-8 -4 -16.5 -5.5t-13 -4t-10.5 -12.5q-1 -1 -5 -7t-8 -11t-4 -6t-7.5 -13.5t-8.5 -14.5q-13 -20 -13 -25q1 -15 -1.5 -40.5t-2.5 -36.5v-16q0 -1 2 -14.5t2 -15.5q5 -81 7 -103q1 -4 1.5 -12t1.5 -14t3 -11z
M310 320q4 -2 0 -4v4zM310 329v-2v2zM313 340v-3q0 -4 -3 -5v1v1zM313 365v-1v1zM313 376v-1v1zM229 801l-2 -3q-24 -22 -30 -29q-4 -5 -14 -28q1 -1 1 -2h1q0 -1 -1 -1.5t-3.5 -1l-5 -1t-6 -0.5h-4.5h-3q-4 0 -11.5 0.5t-11.5 0.5q-5 0 -14 -1t-14 -1h-12q-11 2 -11 11
q-1 5 5 17l51 59q4 5 7 7l26 28q4 4 2 8q7 5 21 5h1q1 0 9 -1l8 -2q15 0 19 -2q9 -1 16 -7t14 -14.5t10 -11.5l19 -17q0 -1 3 -3t4 -3l36 -40q1 -1 4 -5t5 -6q0 -1 7.5 -6.5t7.5 -8.5q1 -13 -36 -13q-18 0 -26 2q-1 0 -3 1l-2 2q-14 0 -16 1q-9 4 -14.5 9.5t-12 18
t-7.5 13.5q-4 11 -17 25z" />
    <glyph glyph-name="Otilde" unicode="&#xd5;" horiz-adv-x="480" 
d="M20 346q0 141 67 266q13 25 52 52t67 27q9 0 25.5 -3t19.5 -3h14q1 0 8 -1.5t8 -1.5t14 -5t14 -6q5 -2 14.5 -5t16.5 -6t13 -7q1 -2 16 -17l1 -2l4 -4l1 -1q2 -2 4.5 -3t3.5 -1.5t2 -2.5t1 -6q0 -2 -1 -4t-1 -3h4v7q3 0 4 -1q10 -6 17 -24q0 -1 1 -3q1 2 15 -20t17 -29
q17 -27 13 -82l1 -3q1 -4 1 -5q2 -24 2 -64q0 -39 -2 -48q0 -9 -2.5 -62t-3.5 -63v-20q0 -2 -1.5 -13t-1.5 -13t-0.5 -6t-0.5 -5q-2 -28 -4 -41.5t-12 -31t-29 -33.5q-2 -2 -10.5 -6.5t-11.5 -7.5q-41 -23 -70 -28q-10 -1 -48 -9.5t-59 -8.5q-102 0 -139 103l-2 10
q-1 10 -3 14q-1 1 -4.5 2t-4.5 3q-3 5 -11 49q-19 92 -19 176zM165 265q14 -80 35 -152q0 -9 3 -14q17 -30 26 -30q7 0 31.5 12t28.5 18l6 18l10 126l2 9q2 -6 2 -14q0 -7 -1 -21t-1 -20v-9l2 -4l4 4q4 4 7 159v61v60q0 12 -2 18q-6 27 -13 55l-9 18q-1 4 0 8t-1 7
q-12 12 -15 18q-6 6 -13 20q-2 2 -11.5 9.5t-12.5 8.5l-5 -3q-8 -4 -16.5 -5.5t-13 -4t-10.5 -12.5q-1 -1 -5 -7t-8 -11t-4 -6t-7.5 -13.5t-8.5 -14.5q-13 -20 -13 -25q1 -15 -1.5 -40.5t-2.5 -36.5v-16q0 -1 2 -14.5t2 -15.5q5 -81 7 -103q1 -4 1.5 -12t1.5 -14t3 -11z
M310 320q4 -2 0 -4v4zM310 329v-2v2zM313 340v-3q0 -4 -3 -5v1v1zM313 365v-1v1zM313 376v-1v1zM101 761v1l1 2v4q2 27 7 39.5t24 25.5q14 10 35 10q37 0 66 -21q2 -1 5.5 -2t4.5 -2q3 -3 8 -9t9 -8.5t10 -2.5q7 0 9 1q0 2 0.5 14.5t1.5 17.5t4 13.5t8.5 12t13.5 3.5
q1 0 25 -3h7.5t7 -0.5t5 -2t4.5 -5t1 -8.5q0 -7 -3 -17.5t-3 -12.5q-9 -36 -23 -58q-9 -14 -40 -14q-44 0 -57 13q-5 5 -11.5 12.5t-10 10.5t-10 6t-16.5 3h-5q-1 -1 -4.5 -8.5l-7 -15.5t-7 -14t-5.5 -6l-3 3h-1q-2 0 -4.5 -2.5t-5.5 -2.5q-40 0 -40 23z" />
    <glyph glyph-name="Odieresis" unicode="&#xd6;" horiz-adv-x="480" 
d="M20 346q0 141 67 266q13 25 52 52t67 27q9 0 25.5 -3t19.5 -3h14q1 0 8 -1.5t8 -1.5t14 -5t14 -6q5 -2 14.5 -5t16.5 -6t13 -7q1 -2 16 -17l1 -2l4 -4l1 -1q2 -2 4.5 -3t3.5 -1.5t2 -2.5t1 -6q0 -2 -1 -4t-1 -3h4v7q3 0 4 -1q10 -6 17 -24q0 -1 1 -3q1 2 15 -20t17 -29
q17 -27 13 -82l1 -3q1 -4 1 -5q2 -24 2 -64q0 -39 -2 -48q0 -9 -2.5 -62t-3.5 -63v-20q0 -2 -1.5 -13t-1.5 -13t-0.5 -6t-0.5 -5q-2 -28 -4 -41.5t-12 -31t-29 -33.5q-2 -2 -10.5 -6.5t-11.5 -7.5q-41 -23 -70 -28q-10 -1 -48 -9.5t-59 -8.5q-102 0 -139 103l-2 10
q-1 10 -3 14q-1 1 -4.5 2t-4.5 3q-3 5 -11 49q-19 92 -19 176zM165 265q14 -80 35 -152q0 -9 3 -14q17 -30 26 -30q7 0 31.5 12t28.5 18l6 18l10 126l2 9q2 -6 2 -14q0 -7 -1 -21t-1 -20v-9l2 -4l4 4q4 4 7 159v61v60q0 12 -2 18q-6 27 -13 55l-9 18q-1 4 0 8t-1 7
q-12 12 -15 18q-6 6 -13 20q-2 2 -11.5 9.5t-12.5 8.5l-5 -3q-8 -4 -16.5 -5.5t-13 -4t-10.5 -12.5q-1 -1 -5 -7t-8 -11t-4 -6t-7.5 -13.5t-8.5 -14.5q-13 -20 -13 -25q1 -15 -1.5 -40.5t-2.5 -36.5v-16q0 -1 2 -14.5t2 -15.5q5 -81 7 -103q1 -4 1.5 -12t1.5 -14t3 -11z
M310 320q4 -2 0 -4v4zM310 329v-2v2zM313 340v-3q0 -4 -3 -5v1v1zM313 365v-1v1zM313 376v-1v1zM261 759v10q0 19 10.5 42.5t25.5 31.5h7q41 0 67 -33q3 -5 3 -7v-18l-2 -3q-2 -2 -4 -5t-3 -4l-6 -5q-2 -1 -16 -15q-15 -19 -43 -19h-9q-1 6 -5 8.5t-10 3.5t-9 2q-1 0 -6 11z
M90 761q0 2 -1 14t-1 13v3q4 4 4 17q2 21 12 28q2 0 6 -1t5 -1q5 0 12.5 2t11.5 2t18 -4h1l10.5 -4t8 -2.5t5.5 -2.5t4.5 -3.5t3.5 -5t3.5 -7.5t4.5 -11q0 -13 -14 -29l-3 -3q-4 -5 -14.5 -11t-13.5 -8l-10 -10q-10 -4 -12 -4q-4 0 -25 14q-11 0 -11 4z" />
    <glyph glyph-name="Oslash" unicode="&#xd8;" horiz-adv-x="480" 
d="M20 346q0 141 67 266q13 25 52 52t67 27q9 0 25.5 -3t19.5 -3h14q1 0 8 -1.5t8 -1.5l28 -11q5 -2 16 -5.5t16 -5.5q9 17 19 19q3 0 7.5 -1.5t7.5 -0.5q2 0 4 1l5 2.5l5 2.5v-4q6 0 3 -9l-11 -45q5 -2 5 -9q0 -2 -1 -4t-1 -3h4v7q3 0 4 -1q10 -6 17 -24q0 -1 1 -3
q1 2 15 -20t17 -29q17 -27 13 -82l1 -3q1 -4 1 -5q2 -24 2 -64q0 -39 -2 -48l-6 -125v-20q0 -2 -1.5 -13t-1.5 -13t-0.5 -6t-0.5 -5q-2 -28 -4 -41.5t-12 -31t-29 -33.5q-2 -2 -10.5 -6.5t-11.5 -7.5q-41 -23 -70 -28q-10 -1 -48 -9.5t-59 -8.5q-51 0 -86 24q-2 -6 -3 -7
l-4 -1q0 -6 -3 -6q-1 0 -1 3q-3 -1 -7.5 -2t-4.5 0l-21 6q-3 1 -5 11q3 3 3 11q2 4 2.5 11.5t1.5 10.5l3 9q-7 11 -14 33l-2 10q-1 10 -3 14q-1 1 -4.5 2t-4.5 3q-3 5 -11 49q-19 92 -19 176zM192 189l-9 -14l17 -62q0 -9 3 -14q17 -30 26 -30q7 0 31.5 12t28.5 18l6 18
l10 126l2 9q2 -6 2 -14q0 -7 -1 -21t-1 -20v-9l2 -4l4 4q1 1 2.5 30t3 68t1.5 61v121q0 7 -1 11l-124 -284l-2 -5zM165 265q0 -4 1 -6l8 18q5 9 16 41l1 2l1 2q19 34 26 59l1 4l-1 3v2l10 22v-2t1 0q0 2 -2 4l68 147q0 2 1 6t-1 7q-12 12 -15 18q-6 6 -13 20q-2 2 -11.5 9.5
t-12.5 8.5l-5 -3q-8 -4 -16.5 -5.5t-13 -4t-10.5 -12.5l-17 -24q0 -1 -7.5 -13.5t-8.5 -14.5q-13 -20 -13 -25q1 -15 -1.5 -40.5t-2.5 -36.5v-16q0 -1 2 -14.5t2 -15.5q5 -81 7 -103q1 -4 1.5 -12t1.5 -14t3 -11zM313 340v-3q0 -4 -3 -5v2zM223 396q-1 -1 -2 -4q1 1 2 4z
M310 320q4 -2 0 -4v4zM310 329v-2v2zM220 392v-2q1 2 0 2zM225 401q-1 -3 0 -3q1 3 0 3zM313 376v-1v1zM313 365v-1v1zM227 405l1 2q-1 -1 -1 -2z" />
    <glyph glyph-name="Ugrave" unicode="&#xd9;" horiz-adv-x="468" 
d="M20 380l7 219q2 4 2 11l6 57q13 18 25 18q8 0 26 -4.5t26 -4.5h5.5h9.5h10h5q1 0 6 -1t7 -1q7 -1 9.5 -6t4.5 -5v-17q-1 0 -2 -25.5t-2.5 -53.5t-3.5 -32q7 -31 7 -106v-20q0 -1 -1 -18t-1 -18q0 -43 2 -59q1 -12 13 -80q15 -98 58 -141q2 -1 6 -1q7 0 18 9t17 10
q4 7 9.5 22.5t10.5 23.5q8 39 6 80l4 3v12l5 2q0 7 3 34v46l3 7l-16 275q0 10 3 15q3 -2 4.5 2t1.5 7q0 1 -2.5 1.5t-4 2.5t-0.5 5q0 1 5 3l-2 1l-2 1v1q0 3 6 3q2 0 6.5 -1.5t6.5 -1.5q4 0 4 5v1q-1 0 -2 -0.5t-2 -0.5h-2q-1 0 -8 1.5t-9 1.5l-4 2q-1 0 -1 1q0 11 19 6
q-3 3 -3 6l6 3q0 1 -1 2t-1 2q0 4 4 4q5 0 5 -4q1 2 5 2q5 0 15 -4t16 -4h1q-4 3 -4 6q6 0 35 -6.5t29 -12.5v-1l-1 -2q-2 -2 -3 -2q2 -3 6.5 -4t5.5 -3q0 -1 -1 -7t-2 -7v-3q3 -12 4.5 -33.5t2 -47t1.5 -33.5q6 -77 6 -192q0 -11 -2 -19l2 -1v-79q-4 -7 -2 -15q0 -5 -5 -38
t-6 -39q-4 -28 -32.5 -61.5t-57.5 -47.5q-9 -4 -27 -9t-22 -6q-55 -16 -80 -16q-28 0 -60 15q-29 14 -65 51q-39 42 -55 135t-16 179zM327 695q27 0 29 -6h-5q-24 0 -24 4v2zM323 667q0 -4 5 -4q-2 4 -5 4zM336 679h-7q2 -1 5 -1h2v1zM352 674h-1h1zM152 805q0 3 1 4l-3 3v2
q2 2 2 10q2 2 5 2l2 6q3 2 4 3q8 4 15 4h52q20 0 70 -65l1 -4q1 -5 2.5 -10t1.5 -6q0 -19 -13 -19h-44q-2 0 -12.5 1t-15.5 4q-6 3 -22 15q-4 4 -14.5 16.5t-16.5 18.5q-1 1 -3.5 3l-5.5 4.5t-4 4.5z" />
    <glyph glyph-name="Uacute" unicode="&#xda;" horiz-adv-x="468" 
d="M20 380l7 219q2 4 2 11l6 57q13 18 25 18q8 0 26 -4.5t26 -4.5h5.5h9.5h10h5q1 0 6 -1t7 -1q7 -1 9.5 -6t4.5 -5v-17q-1 0 -2 -25.5t-2.5 -53.5t-3.5 -32q7 -31 7 -106v-20q0 -1 -1 -18t-1 -18q0 -43 2 -59q1 -12 13 -80q15 -98 58 -141q2 -1 6 -1q7 0 18 9t17 10
q4 7 9.5 22.5t10.5 23.5q8 39 6 80l4 3v12l5 2q0 7 3 34v46l3 7l-16 275q0 10 3 15q3 -2 4.5 2t1.5 7q0 1 -2.5 1.5t-4 2.5t-0.5 5q0 1 5 3l-2 1l-2 1v1q0 3 6 3q2 0 6.5 -1.5t6.5 -1.5q4 0 4 5v1q-1 0 -2 -0.5t-2 -0.5h-2q-1 0 -8 1.5t-9 1.5l-4 2q-1 0 -1 1q0 11 19 6
q-3 3 -3 6l6 3q0 1 -1 2t-1 2q0 4 4 4q5 0 5 -4q1 2 5 2q5 0 15 -4t16 -4h1q-4 3 -4 6q6 0 35 -6.5t29 -12.5v-1l-1 -2q-2 -2 -3 -2q2 -3 6.5 -4t5.5 -3q0 -1 -1 -7t-2 -7v-3q3 -12 4.5 -33.5t2 -47t1.5 -33.5q6 -77 6 -192q0 -11 -2 -19l2 -1v-79q-4 -7 -2 -15q0 -5 -5 -38
t-6 -39q-4 -28 -32.5 -61.5t-57.5 -47.5q-9 -4 -27 -9t-22 -6q-55 -16 -80 -16q-28 0 -60 15q-29 14 -65 51q-39 42 -55 135t-16 179zM327 695q27 0 29 -6h-5q-24 0 -24 4v2zM323 667q0 -4 5 -4q-2 4 -5 4zM336 679h-7q2 -1 5 -1h2v1zM352 674h-1h1zM148 735l-2 8l5 9l40 52
q1 1 2.5 5.5t2.5 5.5q2 1 6.5 4t6.5 5q20 -4 67 -4q3 0 8 -2l6 -3q14 0 21 -10q0 -3 -10 -10q2 -6 0 -12l-6 -8l-11 -7h-4q-2 -1 -9.5 -6.5t-8.5 -6.5q-39 -29 -57 -29h-3q-40 0 -54 9zM221 806l-1 -4q0 1 4 2l3 1z" />
    <glyph glyph-name="Ucircumflex" unicode="&#xdb;" horiz-adv-x="468" 
d="M20 380l7 219q2 4 2 11l6 57q13 18 25 18q8 0 26 -4.5t26 -4.5h5.5h9.5h10h5q1 0 6 -1t7 -1q7 -1 9.5 -6t4.5 -5v-17q-1 0 -2 -25.5t-2.5 -53.5t-3.5 -32q7 -31 7 -106v-20q0 -1 -1 -18t-1 -18q0 -43 2 -59q1 -12 13 -80q15 -98 58 -141q2 -1 6 -1q7 0 18 9t17 10
q4 7 9.5 22.5t10.5 23.5q8 39 6 80l4 3v12l5 2q0 7 3 34v46l3 7l-16 275q0 10 3 15q3 -2 4.5 2t1.5 7q0 1 -2.5 1.5t-4 2.5t-0.5 5q0 1 5 3l-2 1l-2 1v1q0 3 6 3q2 0 6.5 -1.5t6.5 -1.5q4 0 4 5v1q-1 0 -2 -0.5t-2 -0.5h-2q-1 0 -8 1.5t-9 1.5l-4 2q-1 0 -1 1q0 11 19 6
q-3 3 -3 6l6 3q0 1 -1 2t-1 2q0 4 4 4q5 0 5 -4q1 2 5 2q5 0 15 -4t16 -4h1q-4 3 -4 6q6 0 35 -6.5t29 -12.5v-1l-1 -2q-2 -2 -3 -2q2 -3 6.5 -4t5.5 -3q0 -1 -1 -7t-2 -7v-3q3 -12 4.5 -33.5t2 -47t1.5 -33.5q6 -77 6 -192q0 -11 -2 -19l2 -1v-79q-4 -7 -2 -15q0 -5 -5 -38
t-6 -39q-4 -28 -32.5 -61.5t-57.5 -47.5q-9 -4 -27 -9t-22 -6q-55 -16 -80 -16q-28 0 -60 15q-29 14 -65 51q-39 42 -55 135t-16 179zM327 695q27 0 29 -6h-5q-24 0 -24 4v2zM323 667q0 -4 5 -4q-2 4 -5 4zM336 679h-7q2 -1 5 -1h2v1zM352 674h-1h1zM231 785l-2 -3
q-24 -22 -30 -29q-4 -5 -14 -28q1 -1 1 -2h1q0 -1 -1 -1.5t-3.5 -1l-5 -1t-6 -0.5h-4.5h-3q-4 0 -11.5 0.5t-11.5 0.5q-5 0 -14 -1t-14 -1h-12q-11 2 -11 11q-1 5 5 17l51 59q4 5 7 7l26 28q4 4 2 8q8 5 21 5h1q1 0 9 -1l8 -2q15 0 19 -2q9 -1 16 -7t14 -14.5t10 -11.5
l19 -17q1 -1 4 -3t3 -3l36 -40q1 -1 4 -5t5 -6q0 -1 7.5 -6.5t7.5 -8.5q1 -13 -36 -13q-18 0 -26 2q-1 0 -3 1l-2 2q-14 0 -16 1q-9 4 -14.5 9.5t-12 18t-7.5 13.5q-4 11 -17 25z" />
    <glyph glyph-name="Udieresis" unicode="&#xdc;" horiz-adv-x="468" 
d="M20 380l7 219q2 4 2 11l6 57q13 18 25 18q8 0 26 -4.5t26 -4.5h5.5h9.5h10h5q1 0 6 -1t7 -1q7 -1 9.5 -6t4.5 -5v-17q-1 0 -2 -25.5t-2.5 -53.5t-3.5 -32q7 -31 7 -106v-20q0 -1 -1 -18t-1 -18q0 -43 2 -59q1 -12 13 -80q15 -98 58 -141q2 -1 6 -1q7 0 18 9t17 10
q4 7 9.5 22.5t10.5 23.5q8 39 6 80l4 3v12l5 2q0 7 3 34v46l3 7l-16 275q0 10 3 15q3 -2 4.5 2t1.5 7q0 1 -2.5 1.5t-4 2.5t-0.5 5q0 1 5 3l-2 1l-2 1v1q0 3 6 3q2 0 6.5 -1.5t6.5 -1.5q4 0 4 5v1q-1 0 -2 -0.5t-2 -0.5h-2q-1 0 -8 1.5t-9 1.5l-4 2q-1 0 -1 1q0 11 19 6
q-3 3 -3 6l6 3q0 1 -1 2t-1 2q0 4 4 4q5 0 5 -4q1 2 5 2q5 0 15 -4t16 -4h1q-4 3 -4 6q6 0 35 -6.5t29 -12.5v-1l-1 -2q-2 -2 -3 -2q2 -3 6.5 -4t5.5 -3q0 -1 -1 -7t-2 -7v-3q3 -12 4.5 -33.5t2 -47t1.5 -33.5q6 -77 6 -192q0 -11 -2 -19l2 -1v-79q-4 -7 -2 -15q0 -5 -5 -38
t-6 -39q-4 -28 -32.5 -61.5t-57.5 -47.5q-9 -4 -27 -9t-22 -6q-55 -16 -80 -16q-28 0 -60 15q-29 14 -65 51q-39 42 -55 135t-16 179zM327 695q27 0 29 -6h-5q-24 0 -24 4v2zM323 667q0 -4 5 -4q-2 4 -5 4zM336 679h-7q2 -1 5 -1h2v1zM352 674h-1h1zM263 743v10
q0 19 10.5 42.5t25.5 31.5h7q41 0 67 -33q3 -5 3 -7v-18l-2 -3q-2 -2 -4 -5t-3 -4l-6 -5q-2 -1 -16 -15q-15 -19 -43 -19h-9q-1 6 -5 8.5t-10 3.5t-9 2q-1 0 -6 11zM92 745q0 2 -1 14t-1 13v3q4 4 4 17q2 21 12 28q2 0 6 -1t5 -1q5 0 12.5 2t11.5 2t18 -4h1l10.5 -4t8 -2.5
t5.5 -2.5t4.5 -3.5t3.5 -5t3.5 -7.5t4.5 -11q0 -13 -14 -29l-3 -3q-4 -5 -14.5 -11t-13.5 -8l-10 -10q-10 -4 -12 -4q-4 0 -25 14q-11 0 -11 4z" />
    <glyph glyph-name="germandbls" unicode="&#xdf;" horiz-adv-x="536" 
d="M51 -49q-13 8 -16 25l-2 1q0 20 -3 31q3 65 -3 184.5t-6 165.5q0 7 -0.5 38t0 45.5t2 43t5 46t11 39t17.5 36.5q6 9 13.5 17t18 17.5t15.5 15.5q73 41 120 41t86 -12q1 0 3 -1.5t3 -1.5q7 -4 25 -13.5t26.5 -14.5t21 -15t21.5 -21q1 -1 3.5 -2t3.5 -4l3 -16q3 -15 7 -20
v-39l2 -3l-1 -4q-1 -3 -2 -7.5t-1 -6.5q-1 -3 -2 -4q-4 -6 -9 -19q-2 -4 -28.5 -41t-26.5 -56q0 -8 4 -15t9 -10.5t13.5 -9t12.5 -8.5q2 -1 4 -3q1 -2 6 -2q2 -1 19 -11.5t27 -18.5t17 -16l1 -1l-1 -2q-3 -1 -4 -1q10 -1 14 -9.5t8 -8.5q0 -4 7 -11q21 -24 21 -57
q0 -19 -8 -37q-2 -5 -6 -24t-9 -26q0 -1 -4.5 -5t-5.5 -4q-20 -25 -48 -39q-3 -1 -9 -7t-10 -8q-10 -6 -49 -6h-25q-16 3 -18 6h-27q-4 3 -11 3.5t-10 1.5q-10 5 -15 15t-5.5 20t-0.5 22v22q-7 5 -7 19l1 4q2 4 2 15q13 15 25 16l50 4l23 7q12 5 12 37q0 13 -8 24
q-2 3 -23 16q-112 69 -112 130q0 18 6 26q2 41 14 65l38 70v3q0 9 -6 27h-3q-17 0 -43.5 -22.5t-32.5 -39.5q-13 -46 -13 -82v-1l1 -2q1 -1 2 -1v-13q0 -5 -2.5 -14t-2.5 -13l2 -3v-2q0 -7 -1 -20.5t-1 -20.5q0 -17 5 -97q0 -4 2 -14t2 -15q0 -2 -1.5 -5.5t-1.5 -4.5
q0 -12 3 -33t3 -29q6 -81 6 -85q0 -3 1.5 -16t1.5 -14q3 -6 3 -10v-15q0 -1 2 -5l3 -3q2 -2 2 -16l2 -5v-1v-1q0 -2 -1.5 -10.5t-2.5 -10.5q-9 -10 -24.5 -15t-42.5 -8.5t-29 -3.5l-25 -6l-5 -2q-5 -1 -6 -1q-6 -2 -22 2zM430 555q2 0 2 -2t-2 -2t-2 2t2 2z" />
    <glyph glyph-name="agrave" unicode="&#xe0;" horiz-adv-x="521" 
d="M20 41v2q0 3 2 8.5t2 7.5q0 3 -1 7.5t-1 6.5l7 19q5 34 12.5 68t19.5 81.5t16 66.5q13 61 22 86q1 0 13.5 47t12.5 51q29 107 41 167l9 19l1 2h7q6 0 17 -2.5t17 -2.5q1 0 3 0.5t4 0.5h3q2 -3 3 -3h6q36 -4 58.5 -12.5t45.5 -31.5q10 -9 19 -42t16.5 -75.5t9.5 -49.5
q23 -97 40 -160v-17q3 -1 6 -15.5t5.5 -32.5t3.5 -21l4 -3q1 -4 2.5 -13.5t3.5 -13.5q1 -2 5 -8l4 -7q19 -39 30 -93q0 -2 1 -2l9 -8l2 -2v-1q0 -2 -2 -4.5t-2 -3.5v-3q3 -5 4 -5v-2q-2 -3 -2.5 -7.5t-1 -6.5t-1.5 -2h-11l-4 -6q-3 -2 -44 -6q-1 0 -12.5 -0.5t-15.5 -0.5h-4
q-15 0 -27 3l-1 1q-4 3 -4 5q0 4 5 4q-5 4 -10.5 17t-8.5 15l-1 7v8l-8 24q-1 1 -2.5 6l-3 10t-1.5 6q-1 2 -3 12.5t-5.5 16.5t-8.5 7q-16 2 -25 2q-6 0 -15 -5.5t-12 -6.5q-58 -17 -73 -17v2q8 3 11 3h10l3 2q3 1 6.5 2.5t4.5 1.5l1 1q1 1 2 1h-3q-9 0 -27 -4t-27 -4
q-2 0 -5 3h-1q-6 0 -8.5 -2t-3 -8.5t-1.5 -10.5q-2 -6 -2 -7l-10 -43q-8 -10 -10 -25q-4 -2 -6 -9t-6 -9q-5 -3 -15.5 -4.5t-14.5 -3.5q-5 0 -5 -4h-2l-3 3h-5q-6 -1 -11.5 -1t-13.5 1t-14.5 3t-13.5 7t-11 13zM253 437l-30 -105q-1 -3 -8.5 -22.5t-8.5 -30.5h7l80 9l2 3
q-2 7 -2 11q-22 70 -24 76q-14 54 -16 59zM445 63q0 -5 4 -5q0 4 -4 6v-1zM164 811q0 3 1 4l-3 3v2q2 2 2 10q2 2 5 2l2 6q3 2 4 3q8 4 15 4h52q20 0 70 -65l1 -4q1 -5 2.5 -10t1.5 -6q0 -19 -13 -19h-44q-2 0 -12.5 1t-15.5 4q-6 3 -22 15q-4 4 -14.5 16.5t-16.5 18.5
q-1 1 -3.5 3l-5.5 4.5t-4 4.5z" />
    <glyph glyph-name="aacute" unicode="&#xe1;" horiz-adv-x="521" 
d="M20 41v2q0 3 2 8.5t2 7.5q0 3 -1 7.5t-1 6.5l7 19q5 34 12.5 68t19.5 81.5t16 66.5q13 61 22 86q1 0 13.5 47t12.5 51q29 107 41 167l9 19l1 2h7q6 0 17 -2.5t17 -2.5q1 0 3 0.5t4 0.5h3q2 -3 3 -3h6q36 -4 58.5 -12.5t45.5 -31.5q10 -9 19 -42t16.5 -75.5t9.5 -49.5
q23 -97 40 -160v-17q3 -1 6 -15.5t5.5 -32.5t3.5 -21l4 -3q1 -4 2.5 -13.5t3.5 -13.5q1 -2 5 -8l4 -7q19 -39 30 -93q0 -2 1 -2l9 -8l2 -2v-1q0 -2 -2 -4.5t-2 -3.5v-3q3 -5 4 -5v-2q-2 -3 -2.5 -7.5t-1 -6.5t-1.5 -2h-11l-4 -6q-3 -2 -44 -6q-1 0 -12.5 -0.5t-15.5 -0.5h-4
q-15 0 -27 3l-1 1q-4 3 -4 5q0 4 5 4q-5 4 -10.5 17t-8.5 15l-1 7v8l-8 24q-1 1 -2.5 6l-3 10t-1.5 6q-1 2 -3 12.5t-5.5 16.5t-8.5 7q-16 2 -25 2q-6 0 -15 -5.5t-12 -6.5q-58 -17 -73 -17v2q8 3 11 3h10l3 2q3 1 6.5 2.5t4.5 1.5l1 1q1 1 2 1h-3q-9 0 -27 -4t-27 -4
q-2 0 -5 3h-1q-6 0 -8.5 -2t-3 -8.5t-1.5 -10.5q-2 -6 -2 -7l-10 -43q-8 -10 -10 -25q-4 -2 -6 -9t-6 -9q-5 -3 -15.5 -4.5t-14.5 -3.5q-5 0 -5 -4h-2l-3 3h-5q-6 -1 -11.5 -1t-13.5 1t-14.5 3t-13.5 7t-11 13zM253 437l-30 -105q-1 -3 -8.5 -22.5t-8.5 -30.5h7l80 9l2 3
q-2 7 -2 11q-22 70 -24 76q-14 54 -16 59zM445 63q0 -5 4 -5q0 4 -4 6v-1zM160 741l-2 8l5 9l40 52q1 1 2.5 5.5t2.5 5.5q2 1 6.5 4t6.5 5q20 -4 67 -4q3 0 8 -2l6 -3q14 0 21 -10q0 -3 -10 -10q2 -6 0 -12l-6 -8l-11 -7h-4q-2 -1 -9.5 -6.5t-8.5 -6.5q-39 -29 -57 -29h-3
q-40 0 -54 9zM233 812l-1 -4q0 1 4 2l3 1z" />
    <glyph glyph-name="acircumflex" unicode="&#xe2;" horiz-adv-x="521" 
d="M20 41v2q0 3 2 8.5t2 7.5q0 3 -1 7.5t-1 6.5l7 19q5 34 12.5 68t19.5 81.5t16 66.5q13 61 22 86q1 0 13.5 47t12.5 51q29 107 41 167l9 19l1 2h7q6 0 17 -2.5t17 -2.5q1 0 3 0.5t4 0.5h3q2 -3 3 -3h6q36 -4 58.5 -12.5t45.5 -31.5q10 -9 19 -42t16.5 -75.5t9.5 -49.5
q23 -97 40 -160v-17q3 -1 6 -15.5t5.5 -32.5t3.5 -21l4 -3q1 -4 2.5 -13.5t3.5 -13.5q1 -2 5 -8l4 -7q19 -39 30 -93q0 -2 1 -2l9 -8l2 -2v-1q0 -2 -2 -4.5t-2 -3.5v-3q3 -5 4 -5v-2q-2 -3 -2.5 -7.5t-1 -6.5t-1.5 -2h-11l-4 -6q-3 -2 -44 -6q-1 0 -12.5 -0.5t-15.5 -0.5h-4
q-15 0 -27 3l-1 1q-4 3 -4 5q0 4 5 4q-5 4 -10.5 17t-8.5 15l-1 7v8l-8 24q-1 1 -2.5 6l-3 10t-1.5 6q-1 2 -3 12.5t-5.5 16.5t-8.5 7q-16 2 -25 2q-6 0 -15 -5.5t-12 -6.5q-58 -17 -73 -17v2q8 3 11 3h10l3 2q3 1 6.5 2.5t4.5 1.5l1 1q1 1 2 1h-3q-9 0 -27 -4t-27 -4
q-2 0 -5 3h-1q-6 0 -8.5 -2t-3 -8.5t-1.5 -10.5q-2 -6 -2 -7l-10 -43q-8 -10 -10 -25q-4 -2 -6 -9t-6 -9q-5 -3 -15.5 -4.5t-14.5 -3.5q-5 0 -5 -4h-2l-3 3h-5q-6 -1 -11.5 -1t-13.5 1t-14.5 3t-13.5 7t-11 13zM253 437l-30 -105q-1 -3 -8.5 -22.5t-8.5 -30.5h7l80 9l2 3
q-2 7 -2 11q-22 70 -24 76q-14 54 -16 59zM445 63q0 -5 4 -5q0 4 -4 6v-1zM243 791l-2 -3q-24 -22 -30 -29q-4 -5 -14 -28q1 -1 1 -2h1q0 -1 -1 -1.5t-3.5 -1l-5 -1t-6 -0.5h-4.5h-3q-4 0 -11.5 0.5t-11.5 0.5q-5 0 -14 -1t-14 -1h-12q-11 2 -11 11q-1 5 5 17l51 59q4 5 7 7
l26 28q4 4 2 8q8 5 21 5h1q1 0 9 -1l8 -2q15 0 19 -2q9 -1 16 -7t14 -14.5t10 -11.5l19 -17q1 -1 4 -3t3 -3l36 -40q1 -1 4 -5t5 -6q0 -1 7.5 -6.5t7.5 -8.5q1 -13 -36 -13q-18 0 -26 2q-1 0 -3 1l-2 2q-14 0 -16 1q-9 4 -14.5 9.5t-12 18t-7.5 13.5q-4 11 -17 25z" />
    <glyph glyph-name="atilde" unicode="&#xe3;" horiz-adv-x="521" 
d="M20 41v2q0 3 2 8.5t2 7.5q0 3 -1 7.5t-1 6.5l7 19q5 34 12.5 68t19.5 81.5t16 66.5q13 61 22 86q1 0 13.5 47t12.5 51q29 107 41 167l9 19l1 2h7q6 0 17 -2.5t17 -2.5q1 0 3 0.5t4 0.5h3q2 -3 3 -3h6q36 -4 58.5 -12.5t45.5 -31.5q10 -9 19 -42t16.5 -75.5t9.5 -49.5
q23 -97 40 -160v-17q3 -1 6 -15.5t5.5 -32.5t3.5 -21l4 -3q1 -4 2.5 -13.5t3.5 -13.5q1 -2 5 -8l4 -7q19 -39 30 -93q0 -2 1 -2l9 -8l2 -2v-1q0 -2 -2 -4.5t-2 -3.5v-3q3 -5 4 -5v-2q-2 -3 -2.5 -7.5t-1 -6.5t-1.5 -2h-11l-4 -6q-3 -2 -44 -6q-1 0 -12.5 -0.5t-15.5 -0.5h-4
q-15 0 -27 3l-1 1q-4 3 -4 5q0 4 5 4q-5 4 -10.5 17t-8.5 15l-1 7v8l-8 24q-1 1 -2.5 6l-3 10t-1.5 6q-1 2 -3 12.5t-5.5 16.5t-8.5 7q-16 2 -25 2q-6 0 -15 -5.5t-12 -6.5q-58 -17 -73 -17v2q8 3 11 3h10l3 2q3 1 6.5 2.5t4.5 1.5l1 1q1 1 2 1h-3q-9 0 -27 -4t-27 -4
q-2 0 -5 3h-1q-6 0 -8.5 -2t-3 -8.5t-1.5 -10.5q-2 -6 -2 -7l-10 -43q-8 -10 -10 -25q-4 -2 -6 -9t-6 -9q-5 -3 -15.5 -4.5t-14.5 -3.5q-5 0 -5 -4h-2l-3 3h-5q-6 -1 -11.5 -1t-13.5 1t-14.5 3t-13.5 7t-11 13zM253 437l-30 -105q-1 -3 -8.5 -22.5t-8.5 -30.5h7l80 9l2 3
q-2 7 -2 11q-22 70 -24 76q-14 54 -16 59zM445 63q0 -5 4 -5q0 4 -4 6v-1zM115 751v1l1 2v4q2 27 7 39.5t24 25.5q14 10 35 10q37 0 66 -21q2 -1 5.5 -2t4.5 -2q3 -3 8 -9t9 -8.5t10 -2.5q7 0 9 1q0 2 0.5 14.5t1.5 17.5t4 13.5t8.5 12t13.5 3.5q1 0 25 -3h7.5t7 -0.5t5 -2
t4.5 -5t1 -8.5q0 -7 -3 -17.5t-3 -12.5q-9 -36 -23 -58q-9 -14 -40 -14q-44 0 -57 13q-5 5 -11.5 12.5t-10 10.5t-10 6t-16.5 3h-5q-1 -1 -4.5 -8.5l-7 -15.5t-7 -14t-5.5 -6l-3 3h-1q-2 0 -4.5 -2.5t-5.5 -2.5q-40 0 -40 23z" />
    <glyph glyph-name="adieresis" unicode="&#xe4;" horiz-adv-x="521" 
d="M20 41v2q0 3 2 8.5t2 7.5q0 3 -1 7.5t-1 6.5l7 19q5 34 12.5 68t19.5 81.5t16 66.5q13 61 22 86q1 0 13.5 47t12.5 51q29 107 41 167l9 19l1 2h7q6 0 17 -2.5t17 -2.5q1 0 3 0.5t4 0.5h3q2 -3 3 -3h6q36 -4 58.5 -12.5t45.5 -31.5q10 -9 19 -42t16.5 -75.5t9.5 -49.5
q23 -97 40 -160v-17q3 -1 6 -15.5t5.5 -32.5t3.5 -21l4 -3q1 -4 2.5 -13.5t3.5 -13.5q1 -2 5 -8l4 -7q19 -39 30 -93q0 -2 1 -2l9 -8l2 -2v-1q0 -2 -2 -4.5t-2 -3.5v-3q3 -5 4 -5v-2q-2 -3 -2.5 -7.5t-1 -6.5t-1.5 -2h-11l-4 -6q-3 -2 -44 -6q-1 0 -12.5 -0.5t-15.5 -0.5h-4
q-15 0 -27 3l-1 1q-4 3 -4 5q0 4 5 4q-5 4 -10.5 17t-8.5 15l-1 7v8l-8 24q-1 1 -2.5 6l-3 10t-1.5 6q-1 2 -3 12.5t-5.5 16.5t-8.5 7q-16 2 -25 2q-6 0 -15 -5.5t-12 -6.5q-58 -17 -73 -17v2q8 3 11 3h10l3 2q3 1 6.5 2.5t4.5 1.5l1 1q1 1 2 1h-3q-9 0 -27 -4t-27 -4
q-2 0 -5 3h-1q-6 0 -8.5 -2t-3 -8.5t-1.5 -10.5q-2 -6 -2 -7l-10 -43q-8 -10 -10 -25q-4 -2 -6 -9t-6 -9q-5 -3 -15.5 -4.5t-14.5 -3.5q-5 0 -5 -4h-2l-3 3h-5q-6 -1 -11.5 -1t-13.5 1t-14.5 3t-13.5 7t-11 13zM253 437l-30 -105q-1 -3 -8.5 -22.5t-8.5 -30.5h7l80 9l2 3
q-2 7 -2 11q-22 70 -24 76q-14 54 -16 59zM445 63q0 -5 4 -5q0 4 -4 6v-1zM275 749v10q0 19 10.5 42.5t25.5 31.5h7q41 0 67 -33q3 -5 3 -7v-18l-2 -3q-2 -2 -4 -5t-3 -4l-6 -5q-2 -1 -16 -15q-15 -19 -43 -19h-9q-1 6 -5 8.5t-10 3.5t-9 2q-1 0 -6 11zM104 751q0 2 -1 14
t-1 13v3q4 4 4 17q2 21 12 28q2 0 6 -1t5 -1q5 0 12.5 2t11.5 2t18 -4h1l10.5 -4t8 -2.5t5.5 -2.5t4.5 -3.5t3.5 -5t3.5 -7.5t4.5 -11q0 -13 -14 -29l-3 -3q-4 -5 -14.5 -11t-13.5 -8l-10 -10q-10 -4 -12 -4q-4 0 -25 14q-11 0 -11 4z" />
    <glyph glyph-name="aring" unicode="&#xe5;" horiz-adv-x="521" 
d="M20 41v2q0 3 2 8.5t2 7.5q0 3 -1 7.5t-1 6.5l7 19q5 34 12.5 68t19.5 81.5t16 66.5q13 61 22 86q1 0 13.5 47t12.5 51q29 107 41 167l9 19l1 2h7q6 0 17 -2.5t17 -2.5q1 0 3 0.5t4 0.5h3q2 -3 3 -3h6q36 -4 58.5 -12.5t45.5 -31.5q10 -9 19 -42t16.5 -75.5t9.5 -49.5
q23 -97 40 -160v-17q3 -1 6 -15.5t5.5 -32.5t3.5 -21l4 -3q1 -4 2.5 -13.5t3.5 -13.5q1 -2 5 -8l4 -7q19 -39 30 -93q0 -2 1 -2l9 -8l2 -2v-1q0 -2 -2 -4.5t-2 -3.5v-3q3 -5 4 -5v-2q-2 -3 -2.5 -7.5t-1 -6.5t-1.5 -2h-11l-4 -6q-3 -2 -44 -6q-1 0 -12.5 -0.5t-15.5 -0.5h-4
q-15 0 -27 3l-1 1q-4 3 -4 5q0 4 5 4q-5 4 -10.5 17t-8.5 15l-1 7v8l-8 24q-1 1 -2.5 6l-3 10t-1.5 6q-1 2 -3 12.5t-5.5 16.5t-8.5 7q-16 2 -25 2q-6 0 -15 -5.5t-12 -6.5q-58 -17 -73 -17v2q8 3 11 3h10l3 2q3 1 6.5 2.5t4.5 1.5l1 1q1 1 2 1h-3q-9 0 -27 -4t-27 -4
q-2 0 -5 3h-1q-6 0 -8.5 -2t-3 -8.5t-1.5 -10.5q-2 -6 -2 -7l-10 -43q-8 -10 -10 -25q-4 -2 -6 -9t-6 -9q-5 -3 -15.5 -4.5t-14.5 -3.5q-5 0 -5 -4h-2l-3 3h-5q-6 -1 -11.5 -1t-13.5 1t-14.5 3t-13.5 7t-11 13zM253 437l-30 -105q-1 -3 -8.5 -22.5t-8.5 -30.5h7l80 9l2 3
q-2 7 -2 11q-22 70 -24 76q-14 54 -16 59zM445 63q0 -5 4 -5q0 4 -4 6v-1zM212 732q-3 1 -16 4q-47 12 -55 49q0 3 -1 17t-1 17v4q0 5 7 30q20 56 90 56q38 0 69.5 -25.5t31.5 -62.5v-1q-1 -14 -4 -20q0 -1 -2.5 -9.5t-6 -16t-11.5 -18t-20.5 -15.5t-33 -9.5t-47.5 0.5z
M209 804v-1q0 -26 16 -26h4q6 0 16 5l3 3q28 28 33 41q0 16 -11 31l-9 9h-6q-4 -3 -13.5 -8t-12.5 -7q-20 -16 -20 -47z" />
    <glyph glyph-name="ae" unicode="&#xe6;" horiz-adv-x="678" 
d="M278 44q0 4 4 8q-11 6 -9 23l-1 69q-42 -14 -65 -14v2q9 3 12 3h10l3 1q3 2 6.5 3.5t4.5 1.5t1 1l2 1h-3q-9 0 -27 -4t-27 -4q-2 0 -5 3h-1q-6 0 -8.5 -2t-4 -9t-2.5 -10q-2 -6 -2 -7l-13 -43q-10 -12 -12 -26q-4 -1 -6.5 -8.5t-7.5 -9.5q-5 -3 -15.5 -4.5t-14.5 -3.5
q-5 0 -5 -4h-2l-3 3h-5q-6 -1 -11.5 -1t-13.5 1t-14.5 3t-12.5 7t-10 13l1 2q0 3 2 9t2 7q0 3 -0.5 8t-0.5 7q0 4 1.5 6.5l3.5 6t3 6.5q13 49 29.5 105.5t28.5 93.5l34.5 105l32.5 99q38 112 53 169l11 19l1 2h7q6 0 17 -2.5t17 -2.5q1 0 3 0.5t4 0.5h3v-2q3 5 13.5 5.5
t13.5 1.5h46q4 -2 20 -2q12 0 36.5 1t37.5 1q17 0 59 -1.5t65 -0.5l5 -2q1 0 3 1l2 1h6q10 0 16 -6l4 2q2 -1 2 -2q11 -30 18 -78q0 -2 2.5 -6t2.5 -7q0 -11 -25 -14h-2l-3 -4q-13 1 -36 -2t-31 -3q-1 0 -23.5 -1t-30.5 -1h-11t-17 -1t-17 -2.5t-15 -5t-7 -9.5q0 -25 -2 -35
q0 -5 0.5 -26.5t0.5 -24.5h24q0 -4 13 -5.5t32.5 -1.5h21.5q4 0 12.5 -4t12.5 -4l3 1l3 1h9q15 0 16 -6l1 -2v-2q8 -32 8 -43v-8q-3 -1 -3 -4q0 -2 2.5 -4t2.5 -4q0 -5 -2 -6v-30q0 -3 -7 -7t-11 -4h-49q-1 -2 -10 -2l-63 -8h-1l-16 -2l-3 -6v-129q0 -8 -3 -14v-2q1 0 1 -1
l2 -1h1q30 4 109 4h63q1 0 4.5 -0.5t6.5 -0.5l4 -1h3l17 -2v-9l4 7h1q15 0 24.5 -6.5t13 -21t4.5 -24.5t1 -28v-6q-6 0 -6 -8.5t-8 -8.5q-4 0 -7 7v-16q0 -2 -12 -5t-15 -3q-50 -1 -122 -10h-119q-4 -2 -8 -2h-36q-7 0 -13.5 -4t-14.5 -4q-3 0 -11 12.5t-8 16.5zM223 277h7
l41 4l-2 123q-16 -50 -25 -73q-2 -5 -7.5 -16t-9 -20t-4.5 -18zM603 150q-6 0 -21.5 -6.5t-23.5 -7.5q-12 0 -25.5 -1t-29.5 -2.5t-25 -2.5h-20l-3 -1q-8 -2 -25 -1.5t-25 -2.5l-8 -6h27q31 0 92 3.5t92 3.5v12q0 1 3.5 3.5t3.5 4.5v2q0 -1 -2 -2l-2 -1h-1q-1 0 -3.5 2.5
t-3.5 2.5zM566 365q2 0 2 -1.5t-2 -1.5t-2 1.5t2 1.5z" />
    <glyph glyph-name="ccedilla" unicode="&#xe7;" horiz-adv-x="451" 
d="M129 -163h2q0 1 -0.5 4t-0.5 4q0 2 2 6.5t2 7.5q0 -2 4 -2h1q22 0 51 9q10 6 11 6q5 2 22 13q23 11 23 25v4q-7 2 -29.5 3.5t-35.5 8t-13 24.5q0 9 1.5 26.5t1.5 25.5q-42 10 -76 43.5t-50 77.5q-12 33 -20 94q0 10 -2.5 66.5t-2.5 65.5v8q0 19 10 101q0 2 0.5 19.5
t0.5 19.5q7 55 37.5 101.5t79.5 67.5q39 18 88 18q19 0 36.5 -2t44.5 -12.5t46.5 -28t34 -52.5t14.5 -83v-24q0 -10 -3 -10q-5 -1 -5 -2q-1 -1 -4 -7.5t-6 -7.5q-39 -11 -63 -10l-2 -2h-5q-11 0 -26.5 4t-15.5 13q0 4 1.5 27t1.5 36t-2 25q0 1 -2.5 9.5l-3.5 12t-4 11
t-6 10.5t-8.5 6t-11.5 3h-2l-5 -2l-9 -4.5t-14 -6.5t-8 -4l-2 -3l-4 -3q-28 -19 -36 -29q-11 -12 -22 -47t-11 -54q0 -5 1 -14.5t1 -14.5v-2q0 -1 -0.5 -9.5t-0.5 -9.5v-2q3 -39 6 -46q0 -1 0.5 -4t0.5 -4v-32q0 -8 3.5 -23t4.5 -21q0 -1 0.5 -4t0.5 -5q10 -94 31 -125
q7 -9 21.5 -22.5t20.5 -19.5q35 18 46 94q3 12 8 65q0 30 2 38q0 5 10 28.5t12 23.5h1q0 -2 4 -2q2 1 2 2v6q2 0 5.5 -1.5t5.5 -1.5t6 1.5t6 1.5t5 -1.5t6 -1.5l1 2q19 0 18 -9l4 4q1 3 2 3q4 0 6 -1l3 -2q2 -2 3 -2l3 2q9 -5 11 -8v8q4 -9 12 -13l1 -1q1 0 3 3l1 3v-2
l-1 -3v-3v-1l5 -3q5 -4 6 -5q10 -11 10 -31q0 -76 -38 -181q-40 -53 -75 -69q-7 -3 -23.5 -6.5t-24.5 -7.5l-3 -2l-3 -3q0 -1 -1.5 -1t-1.5 -1q3 -6 3 -11v-3l-13 -40v-1q0 -2 3 -3.5t7 -2.5t5 -2l30 -20q13 -9 18 -19q1 -1 2 -3.5t2 -4.5t3 -3v-13q0 -5 -3 -8q0 -7 2 -11
l1 -1v-1q0 -5 -1.5 -9.5t-5 -8l-6 -6t-8 -5.5t-8 -4.5t-9.5 -4t-8 -3.5q-27 -12 -29 -12h-43v2q-2 -2 -7 -2q-11 0 -39 9.5t-28 16.5zM285 250l3 -2q6 6 6 10v30q-9 -6 -9 -29v-9zM329 332v-6q3 0 12 2.5t9 3.5v2h-22v-2h1z" />
    <glyph glyph-name="egrave" unicode="&#xe8;" horiz-adv-x="433" 
d="M33 40q0 4 4 8q-11 6 -9 23l-4 381q0 19 1.5 58.5t1.5 59.5v3q-3 60 -3 68l-3 13q-1 1 7 17q3 6 13.5 6.5t13.5 1.5h46q4 -2 20 -2q12 0 36.5 1t37.5 1q17 0 59 -1.5t65 -0.5l5 -2l2 1q2 1 3 1h6q10 0 16 -6l4 2q2 -1 2 -2q11 -30 18 -78q0 -2 2.5 -6t2.5 -7
q0 -11 -25 -14h-2l-3 -4q-13 1 -36 -2t-31 -3q-1 0 -23.5 -1t-30.5 -1h-11t-17 -1t-17 -2.5t-15 -5t-7 -9.5q0 -25 -2 -35q0 -5 0.5 -26.5t0.5 -24.5h24q0 -4 13 -5.5t32.5 -1.5h21.5q4 0 12.5 -4t12.5 -4q1 0 3 1t3 1h9q14 0 16 -6v-2q1 -1 1 -2q8 -32 8 -43v-8
q-3 -1 -3 -4q0 -2 2.5 -4t2.5 -4q0 -5 -2 -6v-30q0 -3 -7 -7t-11 -4h-49q-2 -2 -10 -2l-63 -8h-1l-16 -2l-3 -6v-129q0 -8 -3 -14v-2l1 -1q1 -1 2 -1h1q30 4 109 4h63q1 0 4.5 -0.5t7.5 -0.5l3 -1h3l17 -2v-9l4 7h1q15 0 24.5 -6.5t13 -21t4.5 -24.5t1 -28v-6q-6 0 -6 -8.5
t-8 -8.5q-4 0 -7 7v-16q0 -2 -12 -5t-15 -3q-50 -1 -122 -10h-119q-4 -2 -8 -2h-36q-7 0 -13.5 -4t-14.5 -4q-3 0 -11 12.5t-8 16.5zM358 146q-6 0 -21.5 -6.5t-23.5 -7.5q-12 0 -25.5 -1t-29.5 -2.5t-25 -2.5h-20l-3 -1q-8 -2 -25 -1.5t-25 -2.5l-8 -6h27q31 0 92 3.5
t92 3.5v12q0 1 3.5 3.5t3.5 4.5v2q0 -1 -2 -2l-2 -1h-1q-1 0 -3.5 2.5t-3.5 2.5zM321 361q1 0 1 -1.5t-1 -1.5t-1 1.5t1 1.5zM112 817q0 3 1 4l-3 3v2q2 2 2 10q2 2 5 2l2 6q3 2 4 3q8 4 15 4h52q20 0 70 -65l1 -4q1 -5 2.5 -10t1.5 -6q0 -19 -13 -19h-44q-2 0 -12.5 1
t-15.5 4q-6 3 -22 15q-4 4 -14.5 16.5t-16.5 18.5q-1 1 -3.5 3l-5.5 4.5t-4 4.5z" />
    <glyph glyph-name="eacute" unicode="&#xe9;" horiz-adv-x="433" 
d="M33 40q0 4 4 8q-11 6 -9 23l-4 381q0 19 1.5 58.5t1.5 59.5v3q-3 60 -3 68l-3 13q-1 1 7 17q3 6 13.5 6.5t13.5 1.5h46q4 -2 20 -2q12 0 36.5 1t37.5 1q17 0 59 -1.5t65 -0.5l5 -2l2 1q2 1 3 1h6q10 0 16 -6l4 2q2 -1 2 -2q11 -30 18 -78q0 -2 2.5 -6t2.5 -7
q0 -11 -25 -14h-2l-3 -4q-13 1 -36 -2t-31 -3q-1 0 -23.5 -1t-30.5 -1h-11t-17 -1t-17 -2.5t-15 -5t-7 -9.5q0 -25 -2 -35q0 -5 0.5 -26.5t0.5 -24.5h24q0 -4 13 -5.5t32.5 -1.5h21.5q4 0 12.5 -4t12.5 -4q1 0 3 1t3 1h9q14 0 16 -6v-2q1 -1 1 -2q8 -32 8 -43v-8
q-3 -1 -3 -4q0 -2 2.5 -4t2.5 -4q0 -5 -2 -6v-30q0 -3 -7 -7t-11 -4h-49q-2 -2 -10 -2l-63 -8h-1l-16 -2l-3 -6v-129q0 -8 -3 -14v-2l1 -1q1 -1 2 -1h1q30 4 109 4h63q1 0 4.5 -0.5t7.5 -0.5l3 -1h3l17 -2v-9l4 7h1q15 0 24.5 -6.5t13 -21t4.5 -24.5t1 -28v-6q-6 0 -6 -8.5
t-8 -8.5q-4 0 -7 7v-16q0 -2 -12 -5t-15 -3q-50 -1 -122 -10h-119q-4 -2 -8 -2h-36q-7 0 -13.5 -4t-14.5 -4q-3 0 -11 12.5t-8 16.5zM358 146q-6 0 -21.5 -6.5t-23.5 -7.5q-12 0 -25.5 -1t-29.5 -2.5t-25 -2.5h-20l-3 -1q-8 -2 -25 -1.5t-25 -2.5l-8 -6h27q31 0 92 3.5
t92 3.5v12q0 1 3.5 3.5t3.5 4.5v2q0 -1 -2 -2l-2 -1h-1q-1 0 -3.5 2.5t-3.5 2.5zM321 361q1 0 1 -1.5t-1 -1.5t-1 1.5t1 1.5zM108 747l-2 8l5 9l40 52q1 1 2.5 5.5t2.5 5.5q2 1 6.5 4t6.5 5q20 -4 67 -4q3 0 8 -2l6 -3q14 0 21 -10q0 -3 -10 -10q2 -6 0 -12l-6 -8l-11 -7h-4
q-1 -1 -8.5 -6.5t-9.5 -6.5q-39 -29 -57 -29h-3q-40 0 -54 9zM181 818l-1 -4q0 1 4 2l3 1z" />
    <glyph glyph-name="ecircumflex" unicode="&#xea;" horiz-adv-x="433" 
d="M33 40q0 4 4 8q-11 6 -9 23l-4 381q0 19 1.5 58.5t1.5 59.5v3q-3 60 -3 68l-3 13q-1 1 7 17q3 6 13.5 6.5t13.5 1.5h46q4 -2 20 -2q12 0 36.5 1t37.5 1q17 0 59 -1.5t65 -0.5l5 -2l2 1q2 1 3 1h6q10 0 16 -6l4 2q2 -1 2 -2q11 -30 18 -78q0 -2 2.5 -6t2.5 -7
q0 -11 -25 -14h-2l-3 -4q-13 1 -36 -2t-31 -3q-1 0 -23.5 -1t-30.5 -1h-11t-17 -1t-17 -2.5t-15 -5t-7 -9.5q0 -25 -2 -35q0 -5 0.5 -26.5t0.5 -24.5h24q0 -4 13 -5.5t32.5 -1.5h21.5q4 0 12.5 -4t12.5 -4q1 0 3 1t3 1h9q14 0 16 -6v-2q1 -1 1 -2q8 -32 8 -43v-8
q-3 -1 -3 -4q0 -2 2.5 -4t2.5 -4q0 -5 -2 -6v-30q0 -3 -7 -7t-11 -4h-49q-2 -2 -10 -2l-63 -8h-1l-16 -2l-3 -6v-129q0 -8 -3 -14v-2l1 -1q1 -1 2 -1h1q30 4 109 4h63q1 0 4.5 -0.5t7.5 -0.5l3 -1h3l17 -2v-9l4 7h1q15 0 24.5 -6.5t13 -21t4.5 -24.5t1 -28v-6q-6 0 -6 -8.5
t-8 -8.5q-4 0 -7 7v-16q0 -2 -12 -5t-15 -3q-50 -1 -122 -10h-119q-4 -2 -8 -2h-36q-7 0 -13.5 -4t-14.5 -4q-3 0 -11 12.5t-8 16.5zM358 146q-6 0 -21.5 -6.5t-23.5 -7.5q-12 0 -25.5 -1t-29.5 -2.5t-25 -2.5h-20l-3 -1q-8 -2 -25 -1.5t-25 -2.5l-8 -6h27q31 0 92 3.5
t92 3.5v12q0 1 3.5 3.5t3.5 4.5v2q0 -1 -2 -2l-2 -1h-1q-1 0 -3.5 2.5t-3.5 2.5zM321 361q1 0 1 -1.5t-1 -1.5t-1 1.5t1 1.5zM191 797l-2 -3q-24 -22 -30 -29q-4 -5 -14 -28q1 -1 1 -2h1q0 -1 -1 -1.5t-3.5 -1l-5 -1t-6 -0.5h-4.5h-3q-4 0 -11.5 0.5t-11.5 0.5q-5 0 -14 -1
t-14 -1h-12q-11 2 -11 11q-1 5 5 17l51 59q4 5 7 7l26 28q4 4 2 8q7 5 21 5h1q1 0 9 -1l8 -2q15 0 19 -2q9 -1 16 -7t14 -14.5t10 -11.5l19 -17q0 -1 3 -3t4 -3l36 -40q1 -1 4 -5t5 -6q0 -1 7.5 -6.5t7.5 -8.5q1 -13 -36 -13q-18 0 -26 2q-1 0 -3 1l-2 2q-14 0 -16 1
q-9 4 -14.5 9.5t-12 18t-7.5 13.5q-4 11 -17 25z" />
    <glyph glyph-name="edieresis" unicode="&#xeb;" horiz-adv-x="433" 
d="M33 40q0 4 4 8q-11 6 -9 23l-4 381q0 19 1.5 58.5t1.5 59.5v3q-3 60 -3 68l-3 13q-1 1 7 17q3 6 13.5 6.5t13.5 1.5h46q4 -2 20 -2q12 0 36.5 1t37.5 1q17 0 59 -1.5t65 -0.5l5 -2l2 1q2 1 3 1h6q10 0 16 -6l4 2q2 -1 2 -2q11 -30 18 -78q0 -2 2.5 -6t2.5 -7
q0 -11 -25 -14h-2l-3 -4q-13 1 -36 -2t-31 -3q-1 0 -23.5 -1t-30.5 -1h-11t-17 -1t-17 -2.5t-15 -5t-7 -9.5q0 -25 -2 -35q0 -5 0.5 -26.5t0.5 -24.5h24q0 -4 13 -5.5t32.5 -1.5h21.5q4 0 12.5 -4t12.5 -4q1 0 3 1t3 1h9q14 0 16 -6v-2q1 -1 1 -2q8 -32 8 -43v-8
q-3 -1 -3 -4q0 -2 2.5 -4t2.5 -4q0 -5 -2 -6v-30q0 -3 -7 -7t-11 -4h-49q-2 -2 -10 -2l-63 -8h-1l-16 -2l-3 -6v-129q0 -8 -3 -14v-2l1 -1q1 -1 2 -1h1q30 4 109 4h63q1 0 4.5 -0.5t7.5 -0.5l3 -1h3l17 -2v-9l4 7h1q15 0 24.5 -6.5t13 -21t4.5 -24.5t1 -28v-6q-6 0 -6 -8.5
t-8 -8.5q-4 0 -7 7v-16q0 -2 -12 -5t-15 -3q-50 -1 -122 -10h-119q-4 -2 -8 -2h-36q-7 0 -13.5 -4t-14.5 -4q-3 0 -11 12.5t-8 16.5zM358 146q-6 0 -21.5 -6.5t-23.5 -7.5q-12 0 -25.5 -1t-29.5 -2.5t-25 -2.5h-20l-3 -1q-8 -2 -25 -1.5t-25 -2.5l-8 -6h27q31 0 92 3.5
t92 3.5v12q0 1 3.5 3.5t3.5 4.5v2q0 -1 -2 -2l-2 -1h-1q-1 0 -3.5 2.5t-3.5 2.5zM321 361q1 0 1 -1.5t-1 -1.5t-1 1.5t1 1.5zM223 755v10q0 19 10.5 42.5t25.5 31.5h7q41 0 67 -33q3 -5 3 -7v-18l-2 -3q-2 -2 -4 -5t-3 -4l-6 -5q-2 -1 -16 -15q-15 -19 -43 -19h-9
q-1 6 -5 8.5t-10 3.5t-9 2q-1 0 -6 11zM52 757q0 2 -1 14t-1 13v3q4 4 4 17q2 21 12 28q2 0 6 -1t5 -1q5 0 12.5 2t11.5 2t18 -4h1l10.5 -4t8 -2.5t5.5 -2.5t4.5 -3.5t3.5 -5t3.5 -7.5t4.5 -11q0 -13 -14 -29l-3 -3q-4 -5 -14.5 -11t-13.5 -8l-10 -10q-10 -4 -12 -4
q-4 0 -25 14q-11 0 -11 4z" />
    <glyph glyph-name="igrave" unicode="&#xec;" horiz-adv-x="183" 
d="M43 23v6q0 9 4 10q-7 6 -9 21v1l-4 28v266q0 3 -0.5 17.5t-0.5 16.5q0 9 -2 34.5t-2 39.5v4l2 7l-1 4q-1 4 -1 5q-2 6 -2 24q0 3 2 5v4q-2 6 -2 7q-1 2 -1 19q-1 5 -1 20.5t1 19.5q-6 18 -6 48q0 2 0.5 5.5t0.5 4.5t-0.5 3t-0.5 4q0 7 9 14.5t14 6.5q14 2 48 2h6q6 1 8 1
q18 0 46 -7q1 0 2 -0.5t2 -0.5q8 -3 8 -24q0 -2 -3 -3q-3 0 -4 -2l-4 -10v-1q0 -1 5.5 -12t5.5 -17t-2 -17t-2 -13v-74q0 -21 1.5 -63t1.5 -63v-23q-4 -4 -4 -32q0 -3 0.5 -9.5t0.5 -10.5v-2q0 -2 -0.5 -18t-0.5 -18v-124q-5 -15 -5 -26q0 -5 1 -14t1 -15v-9
q-3 -1 -4.5 -13.5t-3.5 -12.5q-5 1 -6 1q1 -5 1 -6t-4.5 -3l-10 -4.5t-7.5 -3.5q-36 -16 -65 -16q-4 0 -5 6.5t-3 8.5q-1 1 -2 1zM14 807q0 3 1 4l-3 3v2q2 2 2 10q2 2 5 2l2 6q3 2 4 3q8 4 15 4h52q20 0 70 -65l1 -4q1 -5 2.5 -10t1.5 -6q0 -19 -13 -19h-44q-2 0 -12.5 1
t-15.5 4q-6 3 -22 15q-4 4 -14.5 16.5t-16.5 18.5q-1 1 -3.5 3l-5.5 4.5t-4 4.5z" />
    <glyph glyph-name="iacute" unicode="&#xed;" horiz-adv-x="183" 
d="M43 23v6q0 9 4 10q-7 6 -9 21v1l-4 28v266q0 3 -0.5 17.5t-0.5 16.5q0 9 -2 34.5t-2 39.5v4l2 7l-1 4q-1 4 -1 5q-2 6 -2 24q0 3 2 5v4q-2 6 -2 7q-1 2 -1 19q-1 5 -1 20.5t1 19.5q-6 18 -6 48q0 2 0.5 5.5t0.5 4.5t-0.5 3t-0.5 4q0 7 9 14.5t14 6.5q14 2 48 2h6q6 1 8 1
q18 0 46 -7q1 0 2 -0.5t2 -0.5q8 -3 8 -24q0 -2 -3 -3q-3 0 -4 -2l-4 -10v-1q0 -1 5.5 -12t5.5 -17t-2 -17t-2 -13v-74q0 -21 1.5 -63t1.5 -63v-23q-4 -4 -4 -32q0 -3 0.5 -9.5t0.5 -10.5v-2q0 -2 -0.5 -18t-0.5 -18v-124q-5 -15 -5 -26q0 -5 1 -14t1 -15v-9
q-3 -1 -4.5 -13.5t-3.5 -12.5q-5 1 -6 1q1 -5 1 -6t-4.5 -3l-10 -4.5t-7.5 -3.5q-36 -16 -65 -16q-4 0 -5 6.5t-3 8.5q-1 1 -2 1zM10 737l-2 8l5 9l40 52q1 1 2.5 5.5t2.5 5.5q2 1 6.5 4t6.5 5q20 -4 67 -4q3 0 8 -2l6 -3q14 0 21 -10q0 -3 -10 -10q2 -6 0 -12l-6 -8l-11 -7
h-4q-2 -1 -9.5 -6.5t-8.5 -6.5q-39 -29 -57 -29h-3q-40 0 -54 9zM83 808l-1 -4q0 1 4 2l3 1z" />
    <glyph glyph-name="icircumflex" unicode="&#xee;" horiz-adv-x="183" 
d="M43 23v6q0 9 4 10q-7 6 -9 21v1l-4 28v266q0 3 -0.5 17.5t-0.5 16.5q0 9 -2 34.5t-2 39.5v4l2 7l-1 4q-1 4 -1 5q-2 6 -2 24q0 3 2 5v4q-2 6 -2 7q-1 2 -1 19q-1 5 -1 20.5t1 19.5q-6 18 -6 48q0 2 0.5 5.5t0.5 4.5t-0.5 3t-0.5 4q0 7 9 14.5t14 6.5q14 2 48 2h6q6 1 8 1
q18 0 46 -7q1 0 2 -0.5t2 -0.5q8 -3 8 -24q0 -2 -3 -3q-3 0 -4 -2l-4 -10v-1q0 -1 5.5 -12t5.5 -17t-2 -17t-2 -13v-74q0 -21 1.5 -63t1.5 -63v-23q-4 -4 -4 -32q0 -3 0.5 -9.5t0.5 -10.5v-2q0 -2 -0.5 -18t-0.5 -18v-124q-5 -15 -5 -26q0 -5 1 -14t1 -15v-9
q-3 -1 -4.5 -13.5t-3.5 -12.5q-5 1 -6 1q1 -5 1 -6t-4.5 -3l-10 -4.5t-7.5 -3.5q-36 -16 -65 -16q-4 0 -5 6.5t-3 8.5q-1 1 -2 1zM93 787l-2 -3q-24 -22 -30 -29q-4 -5 -14 -28q1 -1 1 -2h1q0 -1 -1 -1.5t-3.5 -1l-5 -1t-6 -0.5h-4.5h-3q-4 0 -11.5 0.5t-11.5 0.5t-13.5 -1
t-14.5 -1h-12q-11 2 -11 11q-1 5 5 17l51 59q4 5 7 7l26 28q4 4 2 8q8 5 21 5h1q1 0 9 -1l8 -2q15 0 19 -2q9 -1 16 -7t14 -14.5t10 -11.5l19 -17q1 -1 4 -3t3 -3l36 -40q1 -1 4 -5t5 -6q0 -1 7.5 -6.5t7.5 -8.5q1 -13 -36 -13q-18 0 -26 2q-1 0 -3 1l-2 2q-14 0 -16 1
q-9 4 -14.5 9.5t-12 18t-7.5 13.5q-4 11 -17 25z" />
    <glyph glyph-name="idieresis" unicode="&#xef;" horiz-adv-x="183" 
d="M43 23v6q0 9 4 10q-7 6 -9 21v1l-4 28v266q0 3 -0.5 17.5t-0.5 16.5q0 9 -2 34.5t-2 39.5v4l2 7l-1 4q-1 4 -1 5q-2 6 -2 24q0 3 2 5v4q-2 6 -2 7q-1 2 -1 19q-1 5 -1 20.5t1 19.5q-6 18 -6 48q0 2 0.5 5.5t0.5 4.5t-0.5 3t-0.5 4q0 7 9 14.5t14 6.5q14 2 48 2h6q6 1 8 1
q18 0 46 -7q1 0 2 -0.5t2 -0.5q8 -3 8 -24q0 -2 -3 -3q-3 0 -4 -2l-4 -10v-1q0 -1 5.5 -12t5.5 -17t-2 -17t-2 -13v-74q0 -21 1.5 -63t1.5 -63v-23q-4 -4 -4 -32q0 -3 0.5 -9.5t0.5 -10.5v-2q0 -2 -0.5 -18t-0.5 -18v-124q-5 -15 -5 -26q0 -5 1 -14t1 -15v-9
q-3 -1 -4.5 -13.5t-3.5 -12.5q-5 1 -6 1q1 -5 1 -6t-4.5 -3l-10 -4.5t-7.5 -3.5q-36 -16 -65 -16q-4 0 -5 6.5t-3 8.5q-1 1 -2 1zM125 745v10q0 19 10.5 42.5t25.5 31.5h7q41 0 67 -33q3 -5 3 -7v-18l-2 -3q-2 -2 -4 -5t-3 -4l-6 -5q-2 -1 -16 -15q-15 -19 -43 -19h-9
q-1 6 -5 8.5t-10 3.5t-9 2q-1 0 -6 11zM-46 747q0 2 -1 14t-1 13v3q4 4 4 17q2 21 12 28q2 0 6 -1t5 -1q5 0 12.5 2t11.5 2t18 -4h1l10.5 -4t8 -2.5t5.5 -2.5t4.5 -3.5t3.5 -5t3.5 -7.5t4.5 -11q0 -13 -14 -29l-3 -3q-4 -5 -14.5 -11t-13.5 -8l-10 -10q-10 -4 -12 -4
q-4 0 -25 14q-11 0 -11 4z" />
    <glyph glyph-name="ntilde" unicode="&#xf1;" horiz-adv-x="528" 
d="M30 148l-6 300q1 33 -1.5 94.5t-2.5 84.5q0 3 0.5 18t0.5 17q3 11 16 11q29 0 39 -2q12 -1 24 -6t19.5 -9.5t20.5 -13.5l19 -13q49 -47 93 -158q3 -7 9 -25t10 -27l57 -109q4 -7 17 -40l11.5 -24l11.5 -25v15q0 68 -0.5 205t-0.5 206q-5 0 -8 -2v2q0 1 4.5 3.5t4.5 11.5
l-1 1q-1 1 -1 2q1 0 8 11q6 0 8 2h40q3 -2 7.5 -1.5t7.5 -0.5q3 0 5 -2q5 -2 17 -4.5t14 -3.5t6.5 -4.5t6.5 -4.5q13 -4 14 -9q8 -20 8 -22q0 -37 -13 -78q-5 -4 -6 -10.5t-3 -9.5h-1q-2 -4 -2 -18q0 -16 1.5 -48t1.5 -48v-14q0 -7 -6 -61l4 -203q1 -4 1 -12v-8q0 -1 -1 -4
v-4q0 -1 1.5 -9.5t1.5 -10.5q-2 -9 -2 -12q-1 -4 -1 -5q0 -8 3 -18v-2q0 -2 -3 -5.5t-3 -5.5v-14q-3 -8 -23 -8q-6 0 -7.5 5t-5.5 5t-16 -6q-28 -10 -41 -10q-12 0 -21 2.5t-15 5.5t-12.5 11.5t-9.5 13t-10 18.5t-11 20q-24 53 -62 121l-4 5q-3 1 -4 1q-3 6 -3 11l-83 157
q-2 -2 -2 -6q-2 -13 -2 -56v-36q4 -9 4 -30q0 -5 -7.5 -27t-7.5 -23q-5 -40 -5 -51v-1q4 0 7 -3l1 -2l1 -2l21 -33v-42q0 -1 4.5 -10.5t4.5 -15.5q0 -12 -30 -24t-43 -12h-3q-34 0 -44 9q-3 3 -8 12q0 2 -3 5t-3 5q-3 8 -4 19t-0.5 23.5t0.5 16.5t-2 27t-2 27zM464 99
l-10 -38q8 0 10 5q2 6 2 21q0 8 -2 12zM478 39q-7 0 -7 -6l1 -2q6 2 6 8zM388 674q-4 0 -2 -2q1 -1 2 -1t1 1.5t-1 1.5zM370 219v-1v1zM133 739v1l1 2v4q2 27 7 39.5t24 25.5q14 10 35 10q37 0 66 -21q2 -1 5.5 -2t4.5 -2q3 -3 8 -9t9 -8.5t10 -2.5q7 0 9 1q0 2 0.5 14.5
t1.5 17.5t4 13.5t8.5 12t13.5 3.5q1 0 25 -3h7.5t7 -0.5t5 -2t4.5 -5t1 -8.5q0 -7 -3 -17.5t-3 -12.5q-9 -36 -23 -58q-9 -14 -40 -14q-44 0 -57 13q-5 5 -11.5 12.5t-10 10.5t-10 6t-16.5 3h-5q-1 -1 -4.5 -8.5l-7 -15.5t-7 -14t-5.5 -6l-3 3h-1q-2 0 -4.5 -2.5t-5.5 -2.5
q-40 0 -40 23z" />
    <glyph glyph-name="ograve" unicode="&#xf2;" horiz-adv-x="472" 
d="M20 301q0 81 21 195q19 95 49 130q14 15 35 31q22 19 73 19h6q6 1 8 1q82 0 102 -7q40 -22 66 -34q32 -16 46 -48l4.5 -13t6.5 -15q9 -41 9 -74q0 -1 -2 -7l-1 -6v-29q8 -10 8 -40v-52q0 -1 1 -8v-6v-3q0 -7 -1.5 -21t-1.5 -21q0 -3 1 -8t1 -7q0 -7 -2 -19.5t-2 -16.5
q0 -2 -0.5 -11.5t-0.5 -10.5l-4 -65q-1 -2 -2 -6t-1.5 -8.5t-0.5 -6.5v-8q-4 -27 -12 -38q-9 -20 -22 -34.5t-31.5 -23t-34.5 -13.5t-40.5 -6t-41 -1.5t-44.5 0.5t-42 1q-71 0 -102.5 41.5t-39.5 117.5l-8 84v47zM196 99l3 -4h6q-8 0 5 -6q38 -17 67 2q10 6 17 17q3 4 3 9
q4 10 6 24q0 1 1.5 18t1.5 21l8 133v204q-1 3 -4 20.5t-4 20.5q-1 12 -8 27t-18 15q-29 0 -43 -1.5t-31.5 -8.5t-25 -24t-7.5 -46v-58q1 0 1 -3t1 -3v-1q0 -17 -2 -51t-2 -40q0 -36 -1 -40v-30q0 -44 3 -89q4 -6 4.5 -24.5t1.5 -22.5q2 -11 8.5 -31.5t8.5 -27.5zM162 805
q0 3 1 4l-3 3v2q2 2 2 10q2 2 5 2l2 6q3 2 4 3q8 4 15 4h52q20 0 70 -65l1 -4q1 -5 2.5 -10t1.5 -6q0 -19 -13 -19h-44q-2 0 -12.5 1t-15.5 4q-6 3 -22 15q-4 4 -14.5 16.5t-16.5 18.5q-1 1 -3.5 3l-5.5 4.5t-4 4.5z" />
    <glyph glyph-name="oacute" unicode="&#xf3;" horiz-adv-x="472" 
d="M20 301q0 81 21 195q19 95 49 130q14 15 35 31q22 19 73 19h6q6 1 8 1q82 0 102 -7q40 -22 66 -34q32 -16 46 -48l4.5 -13t6.5 -15q9 -41 9 -74q0 -1 -2 -7l-1 -6v-29q8 -10 8 -40v-52q0 -1 1 -8v-6v-3q0 -7 -1.5 -21t-1.5 -21q0 -3 1 -8t1 -7q0 -7 -2 -19.5t-2 -16.5
q0 -2 -0.5 -11.5t-0.5 -10.5l-4 -65q-1 -2 -2 -6t-1.5 -8.5t-0.5 -6.5v-8q-4 -27 -12 -38q-9 -20 -22 -34.5t-31.5 -23t-34.5 -13.5t-40.5 -6t-41 -1.5t-44.5 0.5t-42 1q-71 0 -102.5 41.5t-39.5 117.5l-8 84v47zM196 99l3 -4h6q-8 0 5 -6q38 -17 67 2q10 6 17 17q3 4 3 9
q4 10 6 24q0 1 1.5 18t1.5 21l8 133v204q-1 3 -4 20.5t-4 20.5q-1 12 -8 27t-18 15q-29 0 -43 -1.5t-31.5 -8.5t-25 -24t-7.5 -46v-58q1 0 1 -3t1 -3v-1q0 -17 -2 -51t-2 -40q0 -36 -1 -40v-30q0 -44 3 -89q4 -6 4.5 -24.5t1.5 -22.5q2 -11 8.5 -31.5t8.5 -27.5zM158 735
l-2 8l5 9l40 52q1 1 2.5 5.5t2.5 5.5q2 1 6.5 4t6.5 5q20 -4 67 -4q2 0 5.5 -1t6.5 -3l2 -1q14 0 21 -10q0 -3 -10 -10q2 -6 0 -12l-6 -8l-11 -7h-4q-2 -1 -9.5 -6.5t-8.5 -6.5q-39 -29 -57 -29h-3q-40 0 -54 9zM231 806l-1 -4q0 1 4 2l3 1z" />
    <glyph glyph-name="ocircumflex" unicode="&#xf4;" horiz-adv-x="472" 
d="M20 301q0 81 21 195q19 95 49 130q14 15 35 31q22 19 73 19h6q6 1 8 1q82 0 102 -7q40 -22 66 -34q32 -16 46 -48l4.5 -13t6.5 -15q9 -41 9 -74q0 -1 -2 -7l-1 -6v-29q8 -10 8 -40v-52q0 -1 1 -8v-6v-3q0 -7 -1.5 -21t-1.5 -21q0 -3 1 -8t1 -7q0 -7 -2 -19.5t-2 -16.5
q0 -2 -0.5 -11.5t-0.5 -10.5l-4 -65q-1 -2 -2 -6t-1.5 -8.5t-0.5 -6.5v-8q-4 -27 -12 -38q-9 -20 -22 -34.5t-31.5 -23t-34.5 -13.5t-40.5 -6t-41 -1.5t-44.5 0.5t-42 1q-71 0 -102.5 41.5t-39.5 117.5l-8 84v47zM196 99l3 -4h6q-8 0 5 -6q38 -17 67 2q10 6 17 17q3 4 3 9
q4 10 6 24q0 1 1.5 18t1.5 21l8 133v204q-1 3 -4 20.5t-4 20.5q-1 12 -8 27t-18 15q-29 0 -43 -1.5t-31.5 -8.5t-25 -24t-7.5 -46v-58q1 0 1 -3t1 -3v-1q0 -17 -2 -51t-2 -40q0 -36 -1 -40v-30q0 -44 3 -89q4 -6 4.5 -24.5t1.5 -22.5q2 -11 8.5 -31.5t8.5 -27.5zM241 785
l-2 -3q-24 -22 -30 -29q-4 -5 -14 -28q1 -1 1 -2h1q0 -1 -1 -1.5t-3.5 -1l-5 -1t-6 -0.5h-4.5h-3q-4 0 -11.5 0.5t-11.5 0.5q-5 0 -14 -1t-14 -1h-12q-11 2 -11 11q-1 5 5 17l51 59q4 5 7 7l26 28q4 4 2 8q7 5 21 5h1q1 0 9 -1l8 -2q15 0 19 -2q9 -1 16 -7t14 -14.5
t10 -11.5l19 -17q0 -1 3 -3t4 -3l36 -40q1 -1 4 -5t5 -6q0 -1 7.5 -6.5t7.5 -8.5q1 -13 -36 -13q-18 0 -26 2q-1 0 -3 1l-2 2q-14 0 -16 1q-9 4 -14.5 9.5t-12 18t-7.5 13.5q-4 11 -17 25z" />
    <glyph glyph-name="otilde" unicode="&#xf5;" horiz-adv-x="472" 
d="M20 301q0 81 21 195q19 95 49 130q14 15 35 31q22 19 73 19h6q6 1 8 1q82 0 102 -7q40 -22 66 -34q32 -16 46 -48l4.5 -13t6.5 -15q9 -41 9 -74q0 -1 -2 -7l-1 -6v-29q8 -10 8 -40v-52q0 -1 1 -8v-6v-3q0 -7 -1.5 -21t-1.5 -21q0 -3 1 -8t1 -7q0 -7 -2 -19.5t-2 -16.5
q0 -2 -0.5 -11.5t-0.5 -10.5l-4 -65q-1 -2 -2 -6t-1.5 -8.5t-0.5 -6.5v-8q-4 -27 -12 -38q-9 -20 -22 -34.5t-31.5 -23t-34.5 -13.5t-40.5 -6t-41 -1.5t-44.5 0.5t-42 1q-71 0 -102.5 41.5t-39.5 117.5l-8 84v47zM196 99l3 -4h6q-8 0 5 -6q38 -17 67 2q10 6 17 17q3 4 3 9
q4 10 6 24q0 1 1.5 18t1.5 21l8 133v204q-1 3 -4 20.5t-4 20.5q-1 12 -8 27t-18 15q-29 0 -43 -1.5t-31.5 -8.5t-25 -24t-7.5 -46v-58q1 0 1 -3t1 -3v-1q0 -17 -2 -51t-2 -40q0 -36 -1 -40v-30q0 -44 3 -89q4 -6 4.5 -24.5t1.5 -22.5q2 -11 8.5 -31.5t8.5 -27.5zM113 745v1
l1 2v4q2 27 7 39.5t24 25.5q14 10 35 10q37 0 66 -21q2 -1 5.5 -2t4.5 -2q3 -3 8 -9t9 -8.5t10 -2.5q7 0 9 1q0 2 0.5 14.5t1.5 17.5t4 13.5t8.5 12t13.5 3.5q1 0 25 -3h7.5t7 -0.5t5 -2t4.5 -5t1 -8.5q0 -7 -3 -17.5t-3 -12.5q-9 -36 -23 -58q-9 -14 -40 -14q-44 0 -57 13
q-5 5 -11.5 12.5t-10 10.5t-10 6t-16.5 3h-5q-1 -1 -4.5 -8.5l-7 -15.5t-7 -14t-5.5 -6l-3 3h-1q-2 0 -4.5 -2.5t-5.5 -2.5q-40 0 -40 23z" />
    <glyph glyph-name="odieresis" unicode="&#xf6;" horiz-adv-x="472" 
d="M20 301q0 81 21 195q19 95 49 130q14 15 35 31q22 19 73 19h6q6 1 8 1q82 0 102 -7q40 -22 66 -34q32 -16 46 -48l4.5 -13t6.5 -15q9 -41 9 -74q0 -1 -2 -7l-1 -6v-29q8 -10 8 -40v-52q0 -1 1 -8v-6v-3q0 -7 -1.5 -21t-1.5 -21q0 -3 1 -8t1 -7q0 -7 -2 -19.5t-2 -16.5
q0 -2 -0.5 -11.5t-0.5 -10.5l-4 -65q-1 -2 -2 -6t-1.5 -8.5t-0.5 -6.5v-8q-4 -27 -12 -38q-9 -20 -22 -34.5t-31.5 -23t-34.5 -13.5t-40.5 -6t-41 -1.5t-44.5 0.5t-42 1q-71 0 -102.5 41.5t-39.5 117.5l-8 84v47zM196 99l3 -4h6q-8 0 5 -6q38 -17 67 2q10 6 17 17q3 4 3 9
q4 10 6 24q0 1 1.5 18t1.5 21l8 133v204q-1 3 -4 20.5t-4 20.5q-1 12 -8 27t-18 15q-29 0 -43 -1.5t-31.5 -8.5t-25 -24t-7.5 -46v-58q1 0 1 -3t1 -3v-1q0 -17 -2 -51t-2 -40q0 -36 -1 -40v-30q0 -44 3 -89q4 -6 4.5 -24.5t1.5 -22.5q2 -11 8.5 -31.5t8.5 -27.5zM273 743v10
q0 19 10.5 42.5t25.5 31.5h7q41 0 67 -33q3 -5 3 -7v-18l-2 -3q-2 -2 -4 -5t-3 -4l-6 -5q-2 -1 -16 -15q-15 -19 -43 -19h-9q-1 6 -5 8.5t-10 3.5t-9 2q-1 0 -6 11zM102 745q0 2 -1 14t-1 13v3q4 4 4 17q2 21 12 28q2 0 6 -1t5 -1q5 0 12.5 2t11.5 2t18 -4h1l10.5 -4t8 -2.5
t5.5 -2.5t4.5 -3.5t3.5 -5t3.5 -7.5t4.5 -11q0 -13 -14 -29l-3 -3q-4 -5 -14.5 -11t-13.5 -8l-10 -10q-10 -4 -12 -4q-4 0 -25 14q-11 0 -11 4z" />
    <glyph glyph-name="oslash" unicode="&#xf8;" horiz-adv-x="472" 
d="M20 301q0 81 21 195q19 95 49 130q14 15 35 31q22 19 73 19h6q6 1 8 1q82 0 102 -7l25 -14q12 22 21 23q3 0 7.5 -1.5t7.5 -0.5q2 0 4 1l5 2.5l5 2.5v-4q6 0 3 -9l-9 -36q30 -17 43 -46l4.5 -13t6.5 -15q9 -41 9 -74q0 -1 -2 -7l-1 -6v-29q8 -10 8 -40v-52q0 -1 1 -8v-6
v-3q0 -7 -1.5 -21t-1.5 -21q0 -3 1 -8t1 -7q0 -7 -2 -19.5t-2 -16.5q0 -2 -0.5 -11.5t-0.5 -10.5l-4 -65q-1 -2 -2 -6t-1.5 -8.5t-0.5 -6.5v-8q-4 -27 -12 -38q-9 -20 -22 -34.5t-31.5 -23t-34.5 -13.5t-40.5 -6t-41 -1.5t-44.5 0.5t-42 1q-30 0 -51 7l-2 -4t-1 -3.5
t-0.5 -3t-1.5 -1.5l-4 -1q0 -6 -3 -6q-1 0 -1 3q-3 -1 -7.5 -2t-4.5 0l-21 6q-3 1 -5 11q3 3 3 11q0 1 3 17q-37 36 -46 125l-8 84v47zM196 99l3 -4h5q-5 -1 6 -6q34 -16 64 0q12 6 20 19q3 4 3 9q4 10 6 24q0 1 1.5 18t1.5 21l8 133v155l-119 -273l-2 -5l-1 -1l-9 -14
l-5 -10q0 -5 1 -7q2 -11 8.5 -31.5t8.5 -27.5zM192 322l110 253q-8 25 -22 25q-29 0 -43 -1.5t-31.5 -8.5t-25 -24t-7.5 -46v-58q1 0 1 -3t1 -3v-1q0 -17 -2 -51t-2 -40q0 -36 -1 -40v-57q1 2 2.5 5.5t1.5 4.5q5 9 16 41l1 2z" />
    <glyph glyph-name="ugrave" unicode="&#xf9;" horiz-adv-x="481" 
d="M105 38q-9 9 -21 28.5t-11 29.5l-20 53q-4 0 -5 1t0 4v5h-2q-3 10 -4 15q-22 127 -22 245q2 197 12 258q9 3 10 7l5 1l5 1l2 1q2 1 3 1l1 -2l5 2h5q1 0 15.5 -2t16.5 -2q5 0 16 0.5t18 0.5t16 -1.5t16 -5.5q2 0 2 -1l-3 -169q0 -5 -3 -41t-3 -39v-4q0 -14 3.5 -39
t3.5 -35q5 -70 8 -91q0 -7 2 -9q8 -56 8 -70q18 -92 47 -92q12 0 43 25q12 -2 22 15q15 45 15 61v118l2 2q0 -1 0.5 -7t0.5 -8v-16q0 -1 1 -8l1 -7q6 -26 8 -26q3 10 3 42q0 16 -0.5 47.5t-0.5 46.5v6l1 -1q5 -13 2 -37l2 -4q2 2 2 10q0 5 -1 15t-1 16q0 3 2 7.5t2 7.5
q0 18 -3 54.5t-3 53.5q0 4 1.5 9t1.5 8q0 13 -7.5 39.5t-8.5 32.5q0 -6 -4 -6q0 3 1 6.5t1 5.5q0 5 -0.5 14.5t-0.5 15.5q0 15 5 24q3 -1 6 4t5.5 11t3.5 7q8 10 36 10q31 0 75 -11q7 -2 5.5 -6t-0.5 -4q-9 -3 -11 -5q1 -3 3.5 -5.5l5.5 -5.5t4 -5v-3h-3q0 -2 2.5 -5t2.5 -6
q6 -61 7 -127.5t-1 -151t-2 -114.5q0 -12 -2 -16v-24q0 -7 -5 -32q-1 -3 -3 -5t-1 -8q-11 -36 -30 -60q-2 -2 -2 -3l2 -2v-1q-1 -2 -2 -2q-20 -20 -37 -30q-4 -3 -13 -7t-14 -6q-82 -41 -143 -41q-12 0 -22.5 2t-16.5 3.5t-16.5 7t-13.5 7.5t-15.5 11t-15.5 11q0 1 -1 1
t-1 -1zM120 644q0 -7 3 -8l2 5q0 3 -5 3zM324 396h2v-9h-2v9zM322 447q2 0 2 -2.5t-2 -2.5t-2 2.5t2 2.5zM313 547q1 0 1 -2.5t-1 -2.5t-1 2.5t1 2.5zM324 246q2 0 2 -1.5t-2 -1.5t-2 1.5t2 1.5zM366 629v-3h3q0 3 -3 3zM427 650q-1 0 -1 -2t1 -2t1 2t-1 2zM448 656l2 -3h-4
zM424 653l2 -1v1q0 1 -1 1l-1 2v-3zM207 24h-2q0 -1 1 -1t1 1zM368 615q-1 0 -1 -1t1 -1v2zM312 553h2v-3zM49 154v-2q4 0 0 2zM132 625l2 -3v3h-2zM176 805q0 3 1 4l-3 3v2q2 2 2 10q2 2 5 2l2 6q3 2 4 3q8 4 15 4h52q20 0 70 -65l1 -4q1 -5 2.5 -10t1.5 -6q0 -19 -13 -19
h-44q-2 0 -12.5 1t-15.5 4q-6 3 -22 15q-4 4 -14.5 16.5t-16.5 18.5q-1 1 -3.5 3l-5.5 4.5t-4 4.5z" />
    <glyph glyph-name="uacute" unicode="&#xfa;" horiz-adv-x="481" 
d="M105 38q-9 9 -21 28.5t-11 29.5l-20 53q-4 0 -5 1t0 4v5h-2q-3 10 -4 15q-22 127 -22 245q2 197 12 258q9 3 10 7l5 1l5 1l2 1q2 1 3 1l1 -2l5 2h5q1 0 15.5 -2t16.5 -2q5 0 16 0.5t18 0.5t16 -1.5t16 -5.5q2 0 2 -1l-3 -169q0 -5 -3 -41t-3 -39v-4q0 -14 3.5 -39
t3.5 -35q5 -70 8 -91q0 -7 2 -9q8 -56 8 -70q18 -92 47 -92q12 0 43 25q12 -2 22 15q15 45 15 61v118l2 2q0 -1 0.5 -7t0.5 -8v-16q0 -1 1 -8l1 -7q6 -26 8 -26q3 10 3 42q0 16 -0.5 47.5t-0.5 46.5v6l1 -1q5 -13 2 -37l2 -4q2 2 2 10q0 5 -1 15t-1 16q0 3 2 7.5t2 7.5
q0 18 -3 54.5t-3 53.5q0 4 1.5 9t1.5 8q0 13 -7.5 39.5t-8.5 32.5q0 -6 -4 -6q0 3 1 6.5t1 5.5q0 5 -0.5 14.5t-0.5 15.5q0 15 5 24q3 -1 6 4t5.5 11t3.5 7q8 10 36 10q31 0 75 -11q7 -2 5.5 -6t-0.5 -4q-9 -3 -11 -5q1 -3 3.5 -5.5l5.5 -5.5t4 -5v-3h-3q0 -2 2.5 -5t2.5 -6
q6 -61 7 -127.5t-1 -151t-2 -114.5q0 -12 -2 -16v-24q0 -7 -5 -32q-1 -3 -3 -5t-1 -8q-11 -36 -30 -60q-2 -2 -2 -3l2 -2v-1q-1 -2 -2 -2q-20 -20 -37 -30q-4 -3 -13 -7t-14 -6q-82 -41 -143 -41q-12 0 -22.5 2t-16.5 3.5t-16.5 7t-13.5 7.5t-15.5 11t-15.5 11q0 1 -1 1
t-1 -1zM120 644q0 -7 3 -8l2 5q0 3 -5 3zM324 396h2v-9h-2v9zM322 447q2 0 2 -2.5t-2 -2.5t-2 2.5t2 2.5zM313 547q1 0 1 -2.5t-1 -2.5t-1 2.5t1 2.5zM324 246q2 0 2 -1.5t-2 -1.5t-2 1.5t2 1.5zM366 629v-3h3q0 3 -3 3zM427 650q-1 0 -1 -2t1 -2t1 2t-1 2zM448 656l2 -3h-4
zM424 653l2 -1v1q0 1 -1 1l-1 2v-3zM207 24h-2q0 -1 1 -1t1 1zM368 615q-1 0 -1 -1t1 -1v2zM312 553h2v-3zM49 154v-2q4 0 0 2zM132 625l2 -3v3h-2zM172 735l-2 8l5 9l40 52q1 1 2.5 5.5t2.5 5.5q2 1 6.5 4t6.5 5q20 -4 67 -4q3 0 8 -2l6 -3q14 0 21 -10q0 -3 -10 -10
q2 -6 0 -12l-6 -8l-11 -7h-4q-2 -1 -9.5 -6.5t-8.5 -6.5q-39 -29 -57 -29h-3q-40 0 -54 9zM245 806l-1 -4q0 1 4 2l3 1z" />
    <glyph glyph-name="ucircumflex" unicode="&#xfb;" horiz-adv-x="481" 
d="M105 38q-9 9 -21 28.5t-11 29.5l-20 53q-4 0 -5 1t0 4v5h-2q-3 10 -4 15q-22 127 -22 245q2 197 12 258q9 3 10 7l5 1l5 1l2 1q2 1 3 1l1 -2l5 2h5q1 0 15.5 -2t16.5 -2q5 0 16 0.5t18 0.5t16 -1.5t16 -5.5q2 0 2 -1l-3 -169q0 -5 -3 -41t-3 -39v-4q0 -14 3.5 -39
t3.5 -35q5 -70 8 -91q0 -7 2 -9q8 -56 8 -70q18 -92 47 -92q12 0 43 25q12 -2 22 15q15 45 15 61v118l2 2q0 -1 0.5 -7t0.5 -8v-16q0 -1 1 -8l1 -7q6 -26 8 -26q3 10 3 42q0 16 -0.5 47.5t-0.5 46.5v6l1 -1q5 -13 2 -37l2 -4q2 2 2 10q0 5 -1 15t-1 16q0 3 2 7.5t2 7.5
q0 18 -3 54.5t-3 53.5q0 4 1.5 9t1.5 8q0 13 -7.5 39.5t-8.5 32.5q0 -6 -4 -6q0 3 1 6.5t1 5.5q0 5 -0.5 14.5t-0.5 15.5q0 15 5 24q3 -1 6 4t5.5 11t3.5 7q8 10 36 10q31 0 75 -11q7 -2 5.5 -6t-0.5 -4q-9 -3 -11 -5q1 -3 3.5 -5.5l5.5 -5.5t4 -5v-3h-3q0 -2 2.5 -5t2.5 -6
q6 -61 7 -127.5t-1 -151t-2 -114.5q0 -12 -2 -16v-24q0 -7 -5 -32q-1 -3 -3 -5t-1 -8q-11 -36 -30 -60q-2 -2 -2 -3l2 -2v-1q-1 -2 -2 -2q-20 -20 -37 -30q-4 -3 -13 -7t-14 -6q-82 -41 -143 -41q-12 0 -22.5 2t-16.5 3.5t-16.5 7t-13.5 7.5t-15.5 11t-15.5 11q0 1 -1 1
t-1 -1zM120 644q0 -7 3 -8l2 5q0 3 -5 3zM324 396h2v-9h-2v9zM322 447q2 0 2 -2.5t-2 -2.5t-2 2.5t2 2.5zM313 547q1 0 1 -2.5t-1 -2.5t-1 2.5t1 2.5zM324 246q2 0 2 -1.5t-2 -1.5t-2 1.5t2 1.5zM366 629v-3h3q0 3 -3 3zM427 650q-1 0 -1 -2t1 -2t1 2t-1 2zM448 656l2 -3h-4
zM424 653l2 -1v1q0 1 -1 1l-1 2v-3zM207 24h-2q0 -1 1 -1t1 1zM368 615q-1 0 -1 -1t1 -1v2zM312 553h2v-3zM49 154v-2q4 0 0 2zM132 625l2 -3v3h-2zM255 785l-2 -3q-24 -22 -30 -29q-4 -5 -14 -28q1 -1 1 -2h1q0 -1 -1 -1.5t-3.5 -1l-5 -1t-6 -0.5h-4.5h-3q-4 0 -11.5 0.5
t-11.5 0.5q-5 0 -14 -1t-14 -1h-12q-11 2 -11 11q-1 5 5 17l51 59q4 5 7 7l26 28q4 4 2 8q8 5 21 5h1q1 0 9 -1l8 -2q15 0 19 -2q9 -1 16 -7t14 -14.5t10 -11.5l19 -17q1 -1 4 -3t3 -3l36 -40q1 -1 4 -5t5 -6q0 -1 7.5 -6.5t7.5 -8.5q1 -13 -36 -13q-18 0 -26 2q-1 0 -3 1
l-2 2q-14 0 -16 1q-9 4 -14.5 9.5t-12 18t-7.5 13.5q-4 11 -17 25z" />
    <glyph glyph-name="udieresis" unicode="&#xfc;" horiz-adv-x="481" 
d="M105 38q-9 9 -21 28.5t-11 29.5l-20 53q-4 0 -5 1t0 4v5h-2q-3 10 -4 15q-22 127 -22 245q2 197 12 258q9 3 10 7l5 1l5 1l2 1q2 1 3 1l1 -2l5 2h5q1 0 15.5 -2t16.5 -2q5 0 16 0.5t18 0.5t16 -1.5t16 -5.5q2 0 2 -1l-3 -169q0 -5 -3 -41t-3 -39v-4q0 -14 3.5 -39
t3.5 -35q5 -70 8 -91q0 -7 2 -9q8 -56 8 -70q18 -92 47 -92q12 0 43 25q12 -2 22 15q15 45 15 61v118l2 2q0 -1 0.5 -7t0.5 -8v-16q0 -1 1 -8l1 -7q6 -26 8 -26q3 10 3 42q0 16 -0.5 47.5t-0.5 46.5v6l1 -1q5 -13 2 -37l2 -4q2 2 2 10q0 5 -1 15t-1 16q0 3 2 7.5t2 7.5
q0 18 -3 54.5t-3 53.5q0 4 1.5 9t1.5 8q0 13 -7.5 39.5t-8.5 32.5q0 -6 -4 -6q0 3 1 6.5t1 5.5q0 5 -0.5 14.5t-0.5 15.5q0 15 5 24q3 -1 6 4t5.5 11t3.5 7q8 10 36 10q31 0 75 -11q7 -2 5.5 -6t-0.5 -4q-9 -3 -11 -5q1 -3 3.5 -5.5l5.5 -5.5t4 -5v-3h-3q0 -2 2.5 -5t2.5 -6
q6 -61 7 -127.5t-1 -151t-2 -114.5q0 -12 -2 -16v-24q0 -7 -5 -32q-1 -3 -3 -5t-1 -8q-11 -36 -30 -60q-2 -2 -2 -3l2 -2v-1q-1 -2 -2 -2q-20 -20 -37 -30q-4 -3 -13 -7t-14 -6q-82 -41 -143 -41q-12 0 -22.5 2t-16.5 3.5t-16.5 7t-13.5 7.5t-15.5 11t-15.5 11q0 1 -1 1
t-1 -1zM120 644q0 -7 3 -8l2 5q0 3 -5 3zM324 396h2v-9h-2v9zM322 447q2 0 2 -2.5t-2 -2.5t-2 2.5t2 2.5zM313 547q1 0 1 -2.5t-1 -2.5t-1 2.5t1 2.5zM324 246q2 0 2 -1.5t-2 -1.5t-2 1.5t2 1.5zM366 629v-3h3q0 3 -3 3zM427 650q-1 0 -1 -2t1 -2t1 2t-1 2zM448 656l2 -3h-4
zM424 653l2 -1v1q0 1 -1 1l-1 2v-3zM207 24h-2q0 -1 1 -1t1 1zM368 615q-1 0 -1 -1t1 -1v2zM312 553h2v-3zM49 154v-2q4 0 0 2zM132 625l2 -3v3h-2zM287 743v10q0 19 10.5 42.5t25.5 31.5h7q41 0 67 -33q3 -5 3 -7v-18l-2 -3q-2 -2 -4 -5t-3 -4l-6 -5q-2 -1 -16 -15
q-15 -19 -43 -19h-9q-1 6 -5 8.5t-10 3.5t-9 2q-1 0 -6 11zM116 745q0 2 -1 14t-1 13v3q4 4 4 17q2 21 12 28q2 0 6 -1t5 -1q5 0 12.5 2t11.5 2t18 -4h1l10.5 -4t8 -2.5t5.5 -2.5t4.5 -3.5t3.5 -5t3.5 -7.5t4.5 -11q0 -13 -14 -29l-3 -3q-4 -5 -14.5 -11t-13.5 -8l-10 -10
q-10 -4 -12 -4q-4 0 -25 14q-11 0 -11 4z" />
    <glyph glyph-name="Euro" unicode="&#x20ac;" horiz-adv-x="457" 
d="M22 402q1 1 3 5l3 6q3 24 5 27q1 1 5 2t5 7q6 -2 16 1q0 5 1 8q0 2 0.5 19.5t0.5 19.5q7 55 37.5 101.5t79.5 67.5q39 18 88 18q15 0 30 -1.5t38 -8.5t41 -18.5t35 -34.5t25 -54h2v-8q0 -10 -3 -10q-5 -1 -5 -2q-1 -1 -4 -7.5t-6 -7.5q-39 -11 -63 -10l-2 -2h-5
q-11 0 -26.5 4t-15.5 13q0 17 1 30q-10 33 -31 33h-2l-5 -2l-9 -4.5t-14 -6.5t-8 -4l-2 -3l-4 -3q-28 -19 -36 -29q-10 -11 -20.5 -42t-12.5 -53q59 0 116 -3h12l7 -5q3 -2 15.5 -6.5t13.5 -15.5v-2q0 -45 -30 -43h-2q-3 1 -4 1q-2 0 -7 -2t-10 -1q-4 0 -12 1.5t-13 1.5h-13
q-24 0 -70 -2q2 -24 4 -28q0 -1 0.5 -4t0.5 -4v-10q20 0 62 -2h10q5 -5 5 -6q4 -3 10.5 -5t10 -5t3.5 -11v-2v-1q0 -11 -0.5 -18t-6.5 -15.5t-17 -7.5q-1 0 -3 0.5l-2 0.5q-2 0 -6 -2t-8 -1q-4 0 -10.5 1.5t-10.5 1.5l-11 1q-3 0 -9 -0.5t-9 -0.5v-1l1 -2q10 -94 31 -125
q7 -9 21.5 -22.5t20.5 -19.5q28 13 40 69h-4q0 5 10 28.5t12 23.5h1q0 -2 4 -2q2 1 2 2v6q2 0 5.5 -1.5t5.5 -1.5t6 1.5t6 1.5t5 -1.5t6 -1.5l1 2q10 0 14 -2q-5 0 -5 -1l3 -2q2 -2 3 -2l2 1q1 -1 1 -3l2 2l-2 2l-1 -1q0 1 -3 4h10l-2 -3l-2 -2l9 -6v8q3 -9 12 -13l1 -1
q1 0 2 3l2 3v-2v-3l-1 -3v-1l5 -3q5 -4 6 -5q9 -12 10 -25h1q-6 -23 -19 -59q-8 -10 -15.5 -26t-15.5 -26t-23 -17q-7 -3 -23.5 -6.5t-24.5 -7.5l-3 -2l-3 -3q0 -1 -1.5 -1t-1.5 -1q-17 -7 -43 -11q-11 -1 -16 -1q-52 0 -94.5 36t-62.5 88q-12 33 -20 94q0 4 -2 44
q-32 4 -33 21q0 1 2 5l3 6q0 20 4 26q1 1 4 1.5t4 6.5q5 -3 13 1v29q0 17 1 25q-28 5 -29 20zM339 204v-6q3 0 12 2.5t9 3.5v2h-22v-2h1z" />
    </font>
</defs>
</svg>
