<?xml version="1.0" encoding="utf-8"?>
<!-- Generator: Adobe Illustrator 22.1.0, SVG Export Plug-In . SVG Version: 6.00 Build 0)  -->
<svg version="1.1" xmlns="http://www.w3.org/2000/svg" xmlns:xlink="http://www.w3.org/1999/xlink" x="0px" y="0px"
	 viewBox="0 0 1920 1080" style="enable-background:new 0 0 1920 1080;" xml:space="preserve">
<style type="text/css">
	.st0{fill:#ABCEA7;stroke:#F6F5F3;stroke-width:0.5;stroke-miterlimit:10;}
	.st1{fill:#CCBFED;stroke:#F6F5F3;stroke-width:0.5;stroke-miterlimit:10;}
	.st2{fill:#C9A9BB;stroke:#F6F5F3;stroke-width:0.5;stroke-miterlimit:10;}
	.st3{fill:#F6F5F3;stroke:#F6F5F3;stroke-width:0.5;stroke-miterlimit:10;}
	.st4{fill:#FFFFFF;stroke:#FFFFFF;stroke-width:0.5;stroke-miterlimit:10;}
	.st5{fill:#F7F6F5;}
</style>
<g id="Layer_1">
	<path class="st0" d="M767.9,438.7l0.7-4.1c0.7-0.3,1.2-0.8,1.2-1.6c0.5,0,1.2,0,1.8-0.3l2.9,1h9.1c0.7,0,2.6,0.4,3.2,1.4
		c0,0.1-0.1,0.8,0,0.8c0.1,0.4,0.8,0.3,0.8,0.8c0,0.4-0.1,0.7-0.4,1.1v2.9c0,4,0.8,6,1.6,10c0.8,4.1,0.8,9.3,3.2,12.9
		c2.2-0.5,4.8-4.1,5.4-6.3l1.4-5.8c0.5-3.3,1.8-12.6,1.8-13.3v-17.9c-1.1-5.9-0.1-12.1-0.5-18.1c-0.3-3.3-1.1-6.6-1.1-9.9v-1.4
		l0.1-0.1c0.4-0.7,0.8-1.4,1.6-1.4c0,0.7-0.8,0.5-1,1.2c-0.1,0.8-0.3,1.6-0.3,2.5c0,0.7,0,1,0.3,1.8c0.3-1.1,0.3-2.6,0.8-3.4
		c0-0.1,0.4-0.4,0.5-0.6l0.8-1.6V389c0,0-1.1-0.7-1.2-0.8v-0.3c0.1-0.1,0.5-0.3,0.7-0.3c0.4,0,2.5,0.4,2.9,0.6h0.3l0.1-0.3
		c-0.1-0.3-1.4-0.4-1.4-0.7c0-0.1,0.1-0.1,0.1-0.1c0-0.1,0.5-0.3,0.5-0.3c-0.7-0.5-3.6-0.1-3.3-1.8h0.7c0.3,0,0.7-0.1,1,0.1v-1.1
		c0.7,0,1.1,0.3,1.6,0.3h0.1c-0.1-0.1-0.4-0.5-0.4-0.7v-0.1c0-0.8,0.5-2.3,1.5-2.3s5.9,1.6,7,2.2c0,0,0.1,0.3,0.3,0.3
		c0,0.1,0.1,0.4,0.1,0.5h0.1c0.4,0,0.4-0.4,1-0.4c1.2,0,4.1,1.4,4.7,2.2c0.1,0.1,0.3,0.8,0.4,0.8c0,0.1,0.7,0.1,0.8,0.3
		c0.1,0.1,1.1,0.8,1.2,1.1c0,0.5,0.6,3.3,0.6,4c0.8,11.4,1.1,23.1,1.1,34.6c0,3.8-0.3,7.7-0.3,11.3c0,0.5-0.3,3.3-0.3,4
		c0,0.3-0.3,1.9-0.4,2.2v0.3c-0.7,6.5-2.1,13.7-4.3,19.8c-1.6,4.4-9.3,10.4-13.9,11.4c-1.4,0.3-3,0.1-4.5,0.5l-6.9,1.8
		c0,0.1-1.5,0.3-2.1,0.4h-0.1c-3.2,0-6.5-1-9.2-2.5c-7.3-4.1-9.2-8-11.3-15.8c-0.1-0.3-0.3-1.2-0.3-1.4c-0.4-2.3-1.1-8.7-1.1-9.1
		c0-0.4-0.1-4.7-0.1-6.2C767.8,442.5,767.9,439.1,767.9,438.7z M800.6,389.2c-0.1,0-0.1-0.5,0-0.5C801,388.6,801,389.2,800.6,389.2z
		 M802,386.8v0.3h-0.5v-0.3H802z M804.5,389.7h0.1c-0.1-0.7-1.2-0.5-1.8-0.5h-0.3C803.1,389.6,803.8,389.7,804.5,389.7z
		 M813.1,384.8c0.3,0,0.3-0.5,0-0.5S812.9,384.8,813.1,384.8z"/>
	<path class="st0" d="M830.3,471.2c-1.1-0.6-1.4-2.1-1.2-3.2l-0.5-52.4c0-5.4,0.4-10.9,0.4-16.2v-0.4c-0.1-2.7-0.4-9.2-0.4-9.3
		l-0.4-1.8c-0.1-0.1,0.7-1.8,1-2.3c0.8-1.5,2.3-0.5,3.7-1.1h6.3c0.8,0.4,1.8,0.3,2.7,0.3c3.3,0,6.7-0.3,10.2-0.3
		c5.8,0,11.3,0.4,17,0.3c0,0.1,0.7,0.3,0.7,0.3c0.1,0,0.5-0.3,0.7-0.3h0.8c1,0,1.4,0,2.2,0.8c0.1-0.1,0.6-0.3,0.6-0.3
		s0.3,0.1,0.3,0.3c1.4,3.7,1.9,6.9,2.5,10.7c0,0.7,0.7,1,0.7,1.8c0,1.4-2.3,1.8-3.4,1.9h-0.3l-0.4,0.5c-3.2-0.3-6.3,0.7-9.2,0.7
		c-0.5,0-5.5,0.3-7.4,0.3c-1.6,0.1-8.7-0.3-9.2,2.5c0,0.7-0.1,4.1-0.3,4.8c0,1.2,0.1,6,0.1,7h3.3c0,1.2,7.4,0.8,9.2,1
		c1.2,0.1,2.3,1.1,3.4,1.1c0.1,0,0.7-0.3,0.8-0.3h1.2c0.7,0,1.9-0.3,2.2,0.8c0,0.1,0.1,0.4,0.1,0.5c0.5,2.2,1.1,3.8,1.1,5.9v1.1
		c-0.4,0.1-0.4,0.3-0.4,0.6c0,0.5,0.7,0.5,0.7,1.1c0,0.3,0,0.7-0.3,0.8v4.1c0,0.5-1.8,1.5-2.5,1.5h-6.7c-0.4,0.5-0.7,0.3-1.4,0.3
		l-8.7,1.1h-0.1c-0.7,0-2.2,0.3-2.2,0.3l-0.4,0.8v17.7c0,0.4-0.3,1.7-0.4,1.9v0.3c0.1,0,0.3,0.3,0.4,0.3h0.1c5.1-0.7,9.9-0.5,15-0.5
		h8.7c0.4,0.1,1.9,0.1,2.1,0.3h0.4c0.7,0,2.3,0.3,2.3,0.3v1.2l0.6-1h0.1c5.9,0,5.9,6.2,5.9,11v0.8c-1.8,0,0.1,2.3-1.9,2.3
		c-0.5,0-0.7-0.3-1-1v2.2c0,0.4-3.3,1.1-3.7,1.1c-5.6,0.1-11.1,0.7-16.8,1.4h-16.4c-0.3,0.1-1,0.3-1.1,0.3h-4.9
		c-2.1,0-1.6,1.1-3.8,1.1c-0.7,0-2.6-3.4-2.6-4C829.8,471.9,830,471.5,830.3,471.2z M869.4,428.6c-0.3,0-0.3-0.4,0-0.4
		C869.6,428.2,869.6,428.6,869.4,428.6z"/>
	<path class="st0" d="M888.1,416.3c0.3-8.2-0.6-16.5-0.6-24.6c0-0.7,0.1-4.1,0.1-4.8c0.4-1.4,0.8-1.5,2.2-1.5c1.6,0,4,0,5.4,0.3
		c4.7,0.5,7.7,3.4,11.4,5.8c6.3,6,9.6,13.7,12.8,21.7c1,2.3,1.5,4.9,2.6,7.1c2.3,5.1,5.2,10,7.8,15c1.1,1.8,1.6,3.7,2.3,5.5
		c1.2,2.8,2.2,4.4,3.2,6.7v-2.1c0-18.8-0.1-37.7-0.1-56.5c-0.5,0-0.5-0.1-1.1,0.3v-0.3c0-0.7,1.2,0,1.2-2.1c0-0.1-0.3-0.3-0.3-0.4
		c0.7-0.1,0.8-1.1,1.1-1.5c0.3,0,0.8,0,1.1-0.3h5.5c0.8,0.4,1.2,0,2.1,0.3c0.1,0,0.5,0.1,0.7,0.3c1.2,0.6,2.7,0.7,4.3,1.1
		c0.5,0.3,1.1,0.8,1.8,1.2c0.8,0.3,1.6,0.1,1.9,1.2c0.3,0.7,1.1,2.1,1.1,3c0,3.6-0.7,7.3-1.8,10.7c-1.2,1-0.5,1.6-1.2,2.7h-0.1
		c-0.1,0.3-0.3,2.2-0.3,2.5c0,4.4,0.4,8.8,0.4,13.2v1.9c0,1.2-0.7,7.1-0.8,8.4l0.5,27.9c0.1,0.5,0.1,1.1,0.1,1.6v1.1
		c0,0.1-0.1,1-0.1,1.1c0,0.3,0.4,2.3,0.4,2.7c0,0-0.3,1.2-0.3,1.7c0,0-0.1,0.5-0.1,0.7c0,1.2,0.1,1.5,0.4,2.5v0.3
		c0,0.5-0.7,1-0.8,1.5v1.9c-0.3,0.7-2.5,1.1-3.2,1.1c-1.6,0-0.6-1.4-1.8-1.4c-0.8,0-1.4,0.4-2.2,0.8c-1.9,0.7-3.4,1.4-5.6,1.4
		c-6.6,0-7.4-3.7-10.9-9.8c-2.6-5.6-5.5-11.1-8.5-16.6c-0.1-0.1-0.5-0.7-0.5-0.7s-0.4-0.1-0.6-0.1c-0.1-0.3-0.4-1.2-0.4-1.5
		l-11.4-21.6c-0.1,0.1-0.3,0.7-0.3,0.8c-0.4,2.6-0.3,4.8-0.3,7.7v4.9c0.5,1.2,0.5,2.8,0.5,4.1c0,1.2-1.8,5.8-2.1,6.9
		c-0.3,2.2-0.7,4.8-0.7,7v0.1c0.1,0,0.8,0.3,1,0.4c0.1,0,0.1,0.5,0.3,0.5l2.9,4.5v5.8c0,0.6,1.2,2.1,1.2,3.6c0,2.6-8.5,4.9-10,4.9
		H898c-1.8,0-4.7,0-6-1.2c-0.8-0.7-0.7-0.8-1.1-1.7c-0.1-0.5-0.7-0.8-0.8-1.4c-1-2.5-0.4-6-0.5-8.1c0-1.1-0.5-6.3-0.5-7.4
		L888.1,416.3z M935.6,447.9c0.1,0,0.1-0.1,0-0.1C935.5,447.7,935.5,448,935.6,447.9z M938.1,385.6c0.1,0,0.1-0.4,0-0.4
		C937.7,385.2,937.7,385.6,938.1,385.6z M947.2,469.5c0.6,0,1.2-0.3,1.4-0.7c0.1-0.4,0.3-2.5,0.3-2.9c0-0.3-0.1-1.4-0.3-1.6
		L947.2,469.5z M949.5,473.3l0.1,0.3c0.4-0.1,0.8-0.5,0.8-1.1C950.1,472.5,949.5,472.9,949.5,473.3z"/>
	<path class="st0" d="M962.4,471.2c-1.1-0.6-1.4-2.1-1.2-3.2l-0.6-52.4c0-5.4,0.4-10.9,0.4-16.2v-0.4c-0.1-2.7-0.4-9.2-0.4-9.3
		l-0.4-1.8c-0.1-0.1,0.7-1.8,1-2.3c0.8-1.5,2.3-0.5,3.7-1.1h6.3c0.8,0.4,1.8,0.3,2.7,0.3c3.3,0,6.7-0.3,10.2-0.3
		c5.8,0,11.3,0.4,17,0.3c0,0.1,0.7,0.3,0.7,0.3c0.1,0,0.6-0.3,0.7-0.3h0.8c1,0,1.4,0,2.2,0.8c0.1-0.1,0.6-0.3,0.6-0.3
		s0.3,0.1,0.3,0.3c1.4,3.7,1.9,6.9,2.5,10.7c0,0.7,0.7,1,0.7,1.8c0,1.4-2.3,1.8-3.4,1.9h-0.3l-0.4,0.5c-3.2-0.3-6.3,0.7-9.2,0.7
		c-0.5,0-5.5,0.3-7.4,0.3c-1.6,0.1-8.7-0.3-9.2,2.5c0,0.7-0.1,4.1-0.3,4.8c0,1.2,0.1,6,0.1,7h3.3c0,1.2,7.4,0.8,9.2,1
		c1.2,0.1,2.3,1.1,3.4,1.1c0.1,0,0.7-0.3,0.8-0.3h1.2c0.7,0,1.9-0.3,2.2,0.8c0,0.1,0.1,0.4,0.1,0.5c0.5,2.2,1.1,3.8,1.1,5.9v1.1
		c-0.4,0.1-0.4,0.3-0.4,0.6c0,0.5,0.7,0.5,0.7,1.1c0,0.3,0,0.7-0.3,0.8v4.1c0,0.5-1.8,1.5-2.5,1.5h-6.7c-0.4,0.5-0.7,0.3-1.4,0.3
		l-8.7,1.1h-0.1c-0.7,0-2.2,0.3-2.2,0.3l-0.4,0.8v17.7c0,0.4-0.3,1.7-0.4,1.9v0.3c0.1,0,0.3,0.3,0.4,0.3h0.1c5.1-0.7,9.9-0.5,15-0.5
		h8.7c0.4,0.1,1.9,0.1,2.1,0.3h0.4c0.7,0,2.3,0.3,2.3,0.3v1.2l0.6-1h0.1c5.9,0,5.9,6.2,5.9,11v0.8c-1.8,0,0.1,2.3-1.9,2.3
		c-0.5,0-0.7-0.3-1-1v2.2c0,0.4-3.3,1.1-3.7,1.1c-5.6,0.1-11.1,0.7-16.8,1.4h-16.4c-0.3,0.1-1,0.3-1.1,0.3h-4.9
		c-2.1,0-1.6,1.1-3.8,1.1c-0.7,0-2.6-3.4-2.6-4C961.9,471.9,962.2,471.5,962.4,471.2z M1001.5,428.6c-0.3,0-0.3-0.4,0-0.4
		C1001.8,428.2,1001.8,428.6,1001.5,428.6z"/>
	<path class="st0" d="M1015.4,392.1c0,0,0.7-2.9,1-3.8c0.5-1.9,3-2.1,3.8-3.4c3,0.3,4.9-0.5,7.6-0.5c2.3,0,4.4,1.1,6.3,2.2
		c0.1,0,0.1,0.1,0.3,0.1c2.1,2.2,1.4,4.8,1.5,7.7c0,0.1,0.3,1.2,0.3,1.2v0.5c-0.7,9.6-0.5,19.2-0.7,28.9c-0.1,0.1-0.1,1.1-0.3,1.2
		c0,0-0.1,3.4-0.3,4.8v0.3c0,0.5,0.3,5.2,0.3,5.8c0.3,7.6,0.7,15.1,1.4,22.7c0.1,0.5,0.3,2.1,0.3,2.2l0.3-0.5h25.7
		c3.2,0.4,3.7,4.8,3.7,7c0,1.5-0.1,2.9-0.3,4.5c-0.3,0.5-0.8,1.2-1.4,1.2h-0.3l-0.6-1.5h-0.5c0,0-0.1,1.5-0.7,1.5
		c0-0.1-0.3-0.3-0.3-0.3c-1.1,0.1-1.5,1-1.9,1h-0.1c-0.1,0-1.4-0.3-1.4-0.3c-0.5,0-2.9,0.1-3.6,0.3c-4.1,0.5-7.7,1.5-12.1,1.5h-0.7
		l-0.7-0.3c-2.2,0-4.7,0.4-6.9,0.3c-0.7,1-8.1,2.2-9.5,2.2h-1.1c0-0.1-0.3-0.3-0.3-0.3c-0.1,0-0.7,0.3-0.8,0.3h-0.8
		c-2.2,0-2.5-0.7-3-2.2c0,0-0.1-0.1-0.1-0.3s-0.4-1.1-0.4-1.2c-0.1-0.3-0.1-0.7-0.1-0.7l-3.6-59.5V392.1z"/>
	<path class="st1" d="M828.9,570.8v-5.4c0.4-0.8,0.4-2.1,0.3-2.7l0.3-0.4c-0.1-0.3-0.1-1.9,0-2.3c0,0,0.1-0.5,0.3-0.5
		c0,0.7,0.1,3.4,0.1,4c0,0.3,0.3,1.2,0.3,1.2c0.6-0.1,0.6-0.3,0.6-0.6v-0.4c0-0.3-0.1-1.6-0.1-1.8v-15.4c0-1.8-0.7-3-0.7-4.7
		s0.7-3.3,0.7-5.1c0-1-0.5-1.5-1.4-2.1c-0.3-2.6-0.3-3.7-0.3-5.8l0.8-23.1c0-1.2-0.1-5.4-0.1-6.2l-0.1-0.8v-9.5
		c-0.3-0.7-0.6-1.6-0.6-2.3c0-2.1,1.6-4.5,4-3.7c0.3-0.4,0.3-1.2,0.3-1.6c0.8,0,1,0.5,2.1,0.5h2.6c2.3,0,4.5-0.3,6.7-0.3
		c0.1,0,0.1,0,0.3,0c2.8,0,6.7,0,6.7,3.3v0.1c0,0.1-0.1,0.4-0.1,0.5c0,0.5,0.7,0.8,0.7,1.6c0,1.4-1.1,3-1.1,4.7c0,1,0.7,1.5,0.7,2.5
		c0,0.8-0.8,1.9-1,2.8c0,1.4-0.3,7.8-0.4,9.1c-1.4,19-1.5,38.1-1.4,56.9c0,0.7-0.1,3.8-0.1,4.5c-0.1,0.7-0.3,2.5-1.2,2.9l-0.1-0.3
		c0.1,0.7-1.1,0.7-1.4,0.8c-0.8,0.3-1.5,0.8-2.5,1.1c-2.6,0.7-5.2,0.7-7.8,0.7c-1.9,0-3,0-5.2-0.1
		C829.6,572.4,828.9,571.9,828.9,570.8z M829.7,557v1.6c-0.4-0.4-0.4-1.2-0.4-1.6H829.7z M829.7,554.7v1.5h-0.3v-1.5H829.7z"/>
	<path class="st1" d="M902.2,573.7h-0.3c-0.5-0.5-1.2-0.4-1.4-0.7c-1-2.9-3.4-5.5-5.1-8.2c-0.5-1-3.3-6.3-3.7-7.3
		c-0.4-1.9-1.8-3.8-2.9-5.4c-0.3-0.5-0.8-0.7-1.2-1c-1-1.8-2.1-3.4-2.9-5.1c-0.1-0.5-0.4-0.3-0.7-0.5c-0.4-0.8-0.8-4.5-2.5-4.5
		c-0.3,0-0.4,0-0.8,0.3c0.1-0.5-0.4-1.5-1-1.5h-0.1c0,0-0.4,0.1-0.5,0.3c0.1-0.3-0.8-2.2-1.1-2.2c-0.3,0-0.8-0.1-1,0.3
		c0.5,6,0.1,12,0.7,18.3l1,11.7c0,1-0.8,1.4-1.6,1.9c0,0.1-1.2,1.4-1.4,1.4c-3.3,1-6.7,1.9-10.4,1.9h-1.9c0-0.5-1.1-0.3-1.1-0.3
		c-1-0.1,0.1-1.6-0.4-2.1c-0.3,0-0.8-0.4-0.8-0.5c0,0-0.1-0.1-0.1-0.3c0-0.3,0.3-0.7,0.3-1.1c0-0.8-1.2-2.3-1.2-3.6l-2.2-81.5v-0.3
		c0-0.8,1.1-2.7,1-3c0.1,0,1.2-0.3,1.5-0.3c0,0,0.1-0.3,0.3-0.3h0.1c0.4,0,1,0.3,1.6,0.3c1.1,0,2.3-0.7,3.4-0.7c0.1,0,0.3,0,0.4,0
		c3.6,0,8-0.8,11-0.8h2.3c1.1,0,5.5,0.7,7,0.8h0.3c5.4,2.1,11.3,3.2,16.5,5.9c7.3,3.8,11.4,13.3,11.4,21c0,2.1,0.4,7.7-1.4,8.8
		l-0.7,3.3c-0.4,1.1-1.5,4.5-2.2,5.5c0,0-0.6,0.5-0.7,0.7c-0.8,0.3-1.5,1.8-1.8,2.6l-4.7,4.7c-1.4,0.5-6.6,3-6.7,3.6v0.6
		c0.3,0,2.2,3,2.5,3.4h0.3c0,1.7,1.8,2.2,2.3,3.6c0.1,0.7,0.8,0.6,1.2,1.2c0.5,1.1,1.5,3.4,2.5,4.7c0.8,1.2,2.3,1.9,2.6,3.6
		c0-0.1,0.1-0.1,0.3,0c1.1,0.3,2.2,3,2.5,4c0.3,0.7,1.4,1.5,1.9,2.1c2.3,3,3.2,5.6,7.1,6.9c0.3,0.1,0.3,0.3,0.3,0.4
		c0,0.4-0.5,0.7-0.5,1h0.3c0,0.1,0.5,0.3,0.7,0.3v0.4c-0.1,0.1-0.4,1-0.4,1.1v0.1l0.1,0.4c0,0.3-0.3,1.1-0.4,1.2
		c-0.3,0.1-0.8,0.4-0.8,0.4c-0.1,0.1,0,0.5,0.1,0.5v0.1c0,0.4-1.4,0.7-1.4,0.7c-0.1,0-0.6,0.5-0.6,0.5c-1.5,1.1-4.4,1.1-6.3,1.1
		c-1.2,0-8.2-1-8.2-1.1C902.5,573.1,902.2,573.5,902.2,573.7z M877,527.2c0.1,0,1.1-0.3,1.1-0.4l0.3-0.3c2.6,1.2,10.9-5.1,12-6.2
		c3.8-2.8,4.7-14.2,4.7-17.3c0-10.2-8.4-11.4-18.3-10.6c-1,0.7,0.1,0.3-0.8,1.2c0,0.1-0.3-0.3-0.3-0.3v26.3c0.4,2.2,0.3,5.2,0.4,7.1
		C876.3,526.9,876.8,527.2,877,527.2z M920.9,569.1v0.3l-0.3-0.3H920.9z"/>
	<path class="st1" d="M924.5,566.5c-1.1-0.6-1.4-2.1-1.2-3.2l-0.6-52.4c0-5.4,0.4-10.9,0.4-16.2v-0.4c-0.1-2.7-0.4-9.2-0.4-9.3
		l-0.4-1.8c-0.1-0.1,0.7-1.8,1-2.3c0.8-1.5,2.3-0.5,3.7-1.1h6.3c0.8,0.4,1.8,0.3,2.7,0.3c3.3,0,6.7-0.3,10.2-0.3
		c5.8,0,11.3,0.4,17,0.3c0,0.1,0.7,0.3,0.7,0.3c0.1,0,0.6-0.3,0.7-0.3h0.8c1,0,1.4,0,2.2,0.8c0.1-0.1,0.6-0.3,0.6-0.3
		s0.3,0.1,0.3,0.3c1.4,3.7,1.9,6.9,2.5,10.7c0,0.7,0.7,1,0.7,1.8c0,1.4-2.3,1.8-3.4,1.9h-0.3l-0.4,0.5c-3.2-0.3-6.3,0.7-9.2,0.7
		c-0.5,0-5.5,0.3-7.4,0.3c-1.6,0.1-8.7-0.3-9.2,2.5c0,0.7-0.1,4.1-0.3,4.8c0,1.2,0.1,6,0.1,7h3.3c0,1.2,7.4,0.8,9.2,1
		c1.2,0.1,2.3,1.1,3.4,1.1c0.1,0,0.7-0.3,0.8-0.3h1.2c0.7,0,1.9-0.3,2.2,0.8c0,0.1,0.1,0.4,0.1,0.5c0.5,2.2,1.1,3.8,1.1,5.9v1.1
		c-0.4,0.1-0.4,0.3-0.4,0.6c0,0.5,0.7,0.5,0.7,1.1c0,0.3,0,0.7-0.3,0.8v4.1c0,0.5-1.8,1.5-2.5,1.5h-6.7c-0.4,0.5-0.7,0.3-1.4,0.3
		l-8.7,1.1h-0.1c-0.7,0-2.2,0.3-2.2,0.3l-0.4,0.8v17.7c0,0.4-0.3,1.7-0.4,1.9v0.3c0.1,0,0.3,0.3,0.4,0.3h0.1c5.1-0.7,9.9-0.5,15-0.5
		h8.7c0.4,0.1,1.9,0.1,2.1,0.3h0.4c0.7,0,2.3,0.3,2.3,0.3v1.2l0.6-1h0.1c5.9,0,5.9,6.2,5.9,11v0.8c-1.8,0,0.1,2.3-1.9,2.3
		c-0.5,0-0.7-0.3-1-1v2.2c0,0.4-3.3,1.1-3.7,1.1c-5.6,0.1-11.1,0.7-16.8,1.4h-16.4c-0.3,0.1-1,0.3-1.1,0.3h-4.9
		c-2.1,0-1.6,1.1-3.8,1.1c-0.7,0-2.6-3.4-2.6-4C923.9,567.2,924.2,566.8,924.5,566.5z M963.5,523.9c-0.3,0-0.3-0.4,0-0.4
		C963.8,523.5,963.8,523.9,963.5,523.9z"/>
	<path class="st1" d="M982.2,511.5c0.3-8.2-0.5-16.5-0.5-24.6c0-0.7,0.1-4.1,0.1-4.8c0.4-1.4,0.8-1.5,2.2-1.5c1.6,0,4,0,5.4,0.3
		c4.7,0.5,7.7,3.4,11.4,5.8c6.3,6,9.6,13.7,12.8,21.7c1,2.3,1.5,4.9,2.6,7.1c2.3,5.1,5.2,10,7.8,15c1.1,1.8,1.6,3.7,2.3,5.5
		c1.2,2.8,2.2,4.4,3.2,6.7v-2.1c0-18.8-0.1-37.7-0.1-56.5c-0.5,0-0.5-0.1-1.1,0.3v-0.3c0-0.7,1.2,0,1.2-2.1c0-0.1-0.3-0.3-0.3-0.4
		c0.7-0.1,0.8-1.1,1.1-1.5c0.3,0,0.8,0,1.1-0.3h5.5c0.8,0.4,1.2,0,2.1,0.3c0.1,0,0.5,0.1,0.7,0.3c1.2,0.6,2.7,0.7,4.3,1.1
		c0.5,0.3,1.1,0.8,1.8,1.2c0.8,0.3,1.6,0.1,1.9,1.2c0.3,0.7,1.1,2.1,1.1,3c0,3.6-0.7,7.3-1.8,10.7c-1.2,1-0.5,1.6-1.2,2.7h-0.1
		c-0.1,0.3-0.3,2.2-0.3,2.5c0,4.4,0.4,8.8,0.4,13.2v1.9c0,1.2-0.7,7.1-0.8,8.4l0.5,27.9c0.1,0.5,0.1,1.1,0.1,1.6v1.1
		c0,0.1-0.1,1-0.1,1.1c0,0.3,0.4,2.3,0.4,2.7c0,0-0.3,1.2-0.3,1.7c0,0-0.1,0.5-0.1,0.7c0,1.2,0.1,1.5,0.4,2.5v0.3
		c0,0.5-0.7,1-0.8,1.5v1.9c-0.3,0.7-2.5,1.1-3.2,1.1c-1.6,0-0.6-1.4-1.8-1.4c-0.8,0-1.4,0.4-2.2,0.8c-1.9,0.7-3.4,1.4-5.6,1.4
		c-6.6,0-7.4-3.7-10.9-9.8c-2.6-5.6-5.5-11.1-8.5-16.6c-0.1-0.1-0.5-0.7-0.5-0.7s-0.4-0.1-0.6-0.1c-0.1-0.3-0.4-1.2-0.4-1.5
		l-11.4-21.6c-0.1,0.1-0.3,0.7-0.3,0.8c-0.4,2.6-0.3,4.8-0.3,7.7v4.9c0.5,1.2,0.5,2.8,0.5,4.1c0,1.2-1.8,5.8-2.1,6.9
		c-0.3,2.2-0.7,4.8-0.7,7v0.1c0.1,0,0.8,0.3,1,0.4c0.1,0,0.1,0.5,0.3,0.5l2.9,4.5v5.8c0,0.6,1.2,2.1,1.2,3.6c0,2.6-8.5,4.9-10,4.9
		h-0.4c-1.8,0-4.7,0-6-1.2c-0.8-0.7-0.7-0.8-1.1-1.7c-0.1-0.5-0.7-0.8-0.8-1.4c-1-2.5-0.4-6-0.5-8.1c0-1.1-0.5-6.3-0.5-7.4
		L982.2,511.5z M1029.8,543.1c0.1,0,0.1-0.1,0-0.1C1029.6,543,1029.6,543.3,1029.8,543.1z M1032.2,480.9c0.1,0,0.1-0.4,0-0.4
		C1031.8,480.5,1031.8,480.9,1032.2,480.9z M1043.7,568.6l0.1,0.3c0.4-0.1,0.8-0.5,0.8-1.1C1044.2,567.8,1043.7,568.2,1043.7,568.6z
		"/>
	<path class="st1" d="M1056.6,566.5c-1.1-0.6-1.4-2.1-1.2-3.2l-0.5-52.4c0-5.4,0.4-10.9,0.4-16.2v-0.4c-0.1-2.7-0.4-9.2-0.4-9.3
		l-0.4-1.8c-0.1-0.1,0.7-1.8,1-2.3c0.8-1.5,2.3-0.5,3.7-1.1h6.3c0.8,0.4,1.8,0.3,2.7,0.3c3.3,0,6.7-0.3,10.2-0.3
		c5.8,0,11.3,0.4,17,0.3c0,0.1,0.7,0.3,0.7,0.3c0.1,0,0.5-0.3,0.7-0.3h0.8c1,0,1.4,0,2.2,0.8c0.1-0.1,0.5-0.3,0.5-0.3
		s0.3,0.1,0.3,0.3c1.4,3.7,1.9,6.9,2.5,10.7c0,0.7,0.7,1,0.7,1.8c0,1.4-2.3,1.8-3.4,1.9h-0.3l-0.4,0.5c-3.2-0.3-6.3,0.7-9.2,0.7
		c-0.5,0-5.5,0.3-7.4,0.3c-1.6,0.1-8.7-0.3-9.2,2.5c0,0.7-0.1,4.1-0.3,4.8c0,1.2,0.1,6,0.1,7h3.3c0,1.2,7.4,0.8,9.2,1
		c1.2,0.1,2.3,1.1,3.4,1.1c0.1,0,0.7-0.3,0.8-0.3h1.2c0.7,0,1.9-0.3,2.2,0.8c0,0.1,0.1,0.4,0.1,0.5c0.6,2.2,1.1,3.8,1.1,5.9v1.1
		c-0.4,0.1-0.4,0.3-0.4,0.6c0,0.5,0.7,0.5,0.7,1.1c0,0.3,0,0.7-0.3,0.8v4.1c0,0.5-1.8,1.5-2.5,1.5h-6.7c-0.4,0.5-0.7,0.3-1.4,0.3
		l-8.7,1.1h-0.1c-0.7,0-2.2,0.3-2.2,0.3l-0.4,0.8v17.7c0,0.4-0.3,1.7-0.4,1.9v0.3c0.1,0,0.3,0.3,0.4,0.3h0.1c5.1-0.7,9.9-0.5,15-0.5
		h8.7c0.4,0.1,1.9,0.1,2.1,0.3h0.4c0.7,0,2.3,0.3,2.3,0.3v1.2l0.5-1h0.1c5.9,0,5.9,6.2,5.9,11v0.8c-1.8,0,0.1,2.3-1.9,2.3
		c-0.5,0-0.7-0.3-1-1v2.2c0,0.4-3.3,1.1-3.7,1.1c-5.6,0.1-11.1,0.7-16.8,1.4h-16.4c-0.3,0.1-1,0.3-1.1,0.3h-4.9
		c-2.1,0-1.6,1.1-3.8,1.1c-0.7,0-2.6-3.4-2.6-4C1056,567.2,1056.3,566.8,1056.6,566.5z M1095.6,523.9c-0.3,0-0.3-0.4,0-0.4
		C1095.9,523.5,1095.9,523.9,1095.6,523.9z"/>
	<path class="st2" d="M704.9,666.3c-0.1,0-0.4-0.5-0.4-0.7c0-0.5-0.4-2.9-0.4-3.2l-2.1-54V608c0-8.7,1.1-17.6,0.8-26.4
		c0.4-0.7,0.3-1.6,0.7-2.2l1.8-1.9h0.4c2.2,0,4,1.2,5.9,2.2c1.4,0.5,3.3,0.7,4.8,1.5c5.9,2.7,6.7,4.7,6.7,11.3
		c0,7.8-0.8,15.7-1,23.8c0,4.8-0.1,16.4-0.1,16.4l-0.4,0.1l0.4,0.3c0,0.1,0.1,2.2,0.1,3.2c0,1.5,0.3,8.8,0.3,10.3
		c0,0.1-0.3,0.8-0.3,1v0.5c0,0.4,0.3,2.2,0.3,2.5c0.4,0.1,0.1,1.1,0.1,1.2c1.4,0,7.7,0.1,8.9,0.1c1.1-0.1,8.2-0.5,9.1-0.5h0.8
		c0.5,0,0.8-0.1,1.1,0.3c0.5,0,3,0.1,3.7,0.3c1.4,0.1,3.4,0,4.8,0.5c0,0,0.4,0.6,0.5,0.6c0.1,0,0.3,0,0.4-0.1
		c-0.1,0.4,0.4,1.4,1.1,1.1c0.4,1,1.2,5.1,1.2,6c0,0.7-0.4,1.1-0.5,1.7c-0.1,0.3-0.3,2.3-0.3,2.6c-0.3,1.4-2.5,2.7-3.7,2.7
		c-0.8,0-1.1-0.1-1.8-0.1c-1.9,0-2.9,1.8-4.7,2.1c-3.8,0.5-8,0.5-12,1c-0.5,0-3.6,0.3-4,0.4s-4,1.1-4.5,1.1h-0.3
		c-2.2,0-4.7-0.7-7.1-0.7c-2.2-0.3-11,0.4-11-3.7C704.5,666.7,704.9,666.7,704.9,666.3z"/>
	<path class="st2" d="M759.9,665.6c0-0.8,0.5-1.5,0.5-2.2s-0.3-1.4-0.3-1.9c0-1.1,0.5-1.5,1-2.6c1.5-10.3,4.3-19.7,6.6-29.7
		c1-4.5,1.4-7.3,3-11.8c0.1,0,3.6-12.8,3.6-13.5c2.1-7.6,4.1-15.3,5.6-23l1.2-2.6c0-0.1,0.1-0.3,0.1-0.3h1c1.6,0,3,0.7,4.7,0.7
		c0.4,0,0.5-0.1,1-0.1h0.4c0,0,0.3,0.4,0.4,0.4c0.1,0.1,0.7,0,0.8,0c6,0.7,9.8,1.7,14.3,6c3,2.7,5.1,18.7,6.2,23
		c1.8,7.4,3.6,14.7,5.5,22v2.3c1,0.4,1.6,8,2.1,9.5c0,0.1,0.5,0.4,0.5,0.4c0.4,1.2,0.4,2.7,0.8,3.7c0.1,0.4,1.1,1.8,1.2,2.1
		c1.8,3.7,3.3,8.8,4.1,12.8c0,0,0,0.3,0.1,0.3l1.2,1.1l0.3,0.3v0.1c0,0.5-0.5,0.7-0.5,1.1v0.4c0,0,0.4,0.7,0.5,0.7v0.3
		c-0.7,1.1-0.3,2.2-0.7,2.2c-0.1,0.1-1.4,0-1.5,0c0,0.1-0.5,0.8-0.5,0.8c-1,0.7-4.5,0.7-6,0.8c-0.4,0-2.9,0.1-3.8,0.1h-0.6
		c-0.5,0-3.2-0.3-3.7-0.4l-0.1-0.1c-0.4-0.3-0.6-0.3-0.6-0.7s0-0.5,0.7-0.5c-1.2-1-1.8-3.8-2.6-4.4c0-0.1-0.1-1.7-0.1-2.1
		c-0.3-0.8-1-2.2-1.1-3.3c-0.3-0.4-0.8-2.6-1-3c-0.5-1.5-0.7-4.7-2.3-4.9c-1.1-0.1-2.3-0.3-3.4-0.3c-1.4,0-2.5,1.2-3.7,1.7
		c-3.3,1-6.6,2.3-10,2.3V653c0,0,1.1-0.4,1.5-0.4c0.1-0.1,1.1,0,1.4,0c0.1-0.1,1.7-0.7,1.9-0.8c0.1,0,0.3-0.3,0.4-0.3h-0.4
		c-2.5,0-4.9,1.1-7.4,1.1c-0.1,0-0.5-0.3-0.7-0.4h-0.1c-1.9,0-1.2,1.1-1.8,2.9c-0.1,0.4-0.4,0.4-0.3,1l-1.4,5.9
		c-0.7,0.8-1.2,2.3-1.4,3.4c-1.1,0.4-0.5,1.9-1.6,2.5c-1.4,0.7-2.9,0.5-4.1,1.1c-0.1,0-0.7,0.4-0.7,0.5h-0.3c-0.4,0-0.4-0.4-0.4-0.4
		c-0.7,0-7,1.2-9.5-3.2V665.6z M787.8,625.9c-0.7,2.3-2.1,4.7-2.3,7.3h1l11-1.2l0.3-0.4c0,0-0.3-1-0.3-1.5
		c-1.1-3.4-2.3-6.9-3.3-10.4c-0.7-2.6-1.2-5.5-2.2-8.1C790.5,616.3,789.4,621.2,787.8,625.9z M818.8,663.6c0-0.4-0.3-0.7-0.5-0.8
		v0.1C818.3,663.4,818.4,663.6,818.8,663.6z"/>
	<path class="st2" d="M878.9,667.4c-0.7-0.6-1.2-1.8-1.2-2.8v-0.1c0-0.1,0.3-0.4,0.3-0.4c0-0.7-0.8-2.5-1.4-2.8v1.7l-0.1,0.1
		c-0.3-0.4-1-2.6-1.1-3v-0.8c0-0.1-0.3-0.7-0.3-0.7l-0.4,0.1c0-0.1,0-0.5,0.1-0.7v-0.3l-0.8-2.6c-0.4-1.2-1.5-4.1-1.5-4.1h-0.3
		c-1-3.8-1.8-7.8-2.9-11.7c-1.5-5.2-3-9.6-4.4-15.3l-0.4-0.5c-0.3,0.8-0.8,1.9-1.1,2.9c-0.4,2.5-0.4,5.2-0.7,7.8
		c-0.5,2.8-2.1,5.5-2.3,8.5c-0.6,4.8-0.1,9.3-2.6,13.7c-1.1,1.9-3.8,6.3-5.1,8c-1.8,2.2,0.3,1.2-2.9,3.2c-0.3,0.1-0.4,0.4-0.4,0.7
		c-4.4,0.7-5.8,1.9-10,1.9h-1c0-1.2-1.1-1.4-1.7-2.3c-0.1-0.3-0.7-1.7-0.7-1.8c-0.1-0.1-0.3-0.6-0.3-0.7l-17.3-79.3
		c-0.4-1.1-0.8-3-0.8-4.1c0-1.2,0.3-3.2,1.2-3.8h1.1c5.2,0,12,0,16.2,3.6c1.9,1.5,2.2,4,3.2,5.9l6.3,41.1c1.9-5.6,3.7-12.9,4.8-18.7
		l1.4-3.3c0.3-0.7,1.2-0.7,1.8-1.1l0.3-0.4c1.6-1.5,5.4-2.3,7.4-2.3h0.3c3.2,0.5,6.5,1,9.5,2.1c0.8,0.3,2.5,1.4,2.9,2.1
		c0.1,0.1,0.3,1,0.3,1c1.5,3.7,5.1,6.5,6.7,10.2c1,2.2,1.4,4.7,2.6,6.7c0.1,1,1.2,5.8,1.5,6.6c0.1,0.5,1.2,3.8,1.5,5.1
		c0.1,0,0.3,0.4,0.4,0.4l3-18.3c0-0.4,0.3-1.1,0.3-1.1h0.3l-0.8,6.7v0.5c0,0.3,0,0.7,0.3,0.7c1.1-0.5,0.8-3.2,2.1-3.2
		c0,1.1-0.3,2.2-0.3,3.4c1.5,0,1.5-11.4,2.9-14.3c-0.1,1,0,1.9,0.3,2.8c-0.3-4.5,1.1-9.3,0.7-13.7l0.4,0.3c0.3-1.2,0.4-2.5,0.4-3.7
		c0,0,0.1-0.8-0.1-0.8c-0.1,0-0.5,0.4-0.7,0.4c0,0-0.3-0.3-0.3-0.4l-0.4-4.1c0-2.7,0.7-5.5,0.7-8.2v-1.2L895,583
		c0-0.1,0.3-0.5,0.3-0.5c0.7-0.8,1.9-4.5,1.9-5.6c1.5,0,3.3,0,4.9-0.3h10.3c0.3,0,1.6,0.1,2.1,0.3c0.6,0,2.6,0.5,2.6,1.4v0.1
		c-0.1,0.1-0.3,0.4-0.4,0.4c0.5,0,0.7,0.3,0.7,0.7c0,1-1.7,0.8-1.7,1.6v0.1l0.3,0.1v0.1c0,0.5-1,2.2-1.1,3c-0.3,4.7-0.7,8.1-4,24.1
		c-0.8,4.3-0.7,8.7-1.1,13.1c-0.1,0.6-2.1,8.2-2.6,8.8c-0.4,2.3-1.5,4.5-1.6,6.9l-0.5,0.6c0,0-0.1,1.5-0.3,2.1
		c-0.4,5.2-1.6,10.7-2.6,16.1c-0.5,3.6,0,8.2-4,10c-0.1,0.1-0.8,0.3-1,0.3c-1.2,0.3-1.1,0.5-2.5,0.8c-0.3,0-3.3,0.4-3.7,0.5
		c-1.8,0.1-3.3,1.2-5.2,1.2c-1.2,0-1.2-0.4-2.2-1.1c-0.1-0.1-0.7-0.1-0.8-0.1h-3.6C879.2,667.6,879.1,667.4,878.9,667.4z
		 M870.7,642.8c0.1-0.1,0.1-0.4,0-0.5C870.5,642.3,870.5,642.8,870.7,642.8z M871.9,647.8c0.3,0,0.3-0.5,0-0.5
		C871.8,647.2,871.8,647.8,871.9,647.8z M872.2,648.5c0.3,0,0.3-0.5,0-0.5C871.9,647.9,871.9,648.5,872.2,648.5z M873,649
		c0.1-0.1,0.1-0.3,0-0.3C872.9,648.7,872.9,649,873,649z M874.4,652.7l-0.4-0.5c-0.1-0.1-0.8-0.8-1-1.1v0.3c1,2.1,1.8,4.5,2.3,6.7
		c1,0.6,0.8,1.9,1.8,2.5c0-0.4-0.4-1.1-0.5-1.5v-0.3l0.3-0.1c-0.1-0.3-0.3-0.6-0.5-0.8c0,0.1,0,0.3-0.1,0.3c-0.4,0-0.4-0.5,0-0.5
		c-0.4-0.5-0.8-1.2-0.8-1.8c-0.3-1-0.4-2.2-0.8-2.9c0,0.1-0.1,0.3-0.3,0.3c-0.3,0-0.3-0.5,0-0.5
		C874.4,652.6,874.4,652.7,874.4,652.7z M873.3,649.7c0.1,0,0.1-0.3,0-0.4C873,649.1,873,649.8,873.3,649.7z M873.6,650.5
		c0.1,0,0.1-0.4,0-0.5C873.4,650,873.4,650.5,873.6,650.5z M874,651.5v-0.1c0-0.3,0-0.4-0.3-0.5v0.3
		C873.7,651.3,873.7,651.5,874,651.5z M876.4,658.6c-0.3,0-0.3-0.6,0-0.6C876.6,658.1,876.6,658.6,876.4,658.6z M876.4,661.2
		c0.1,0,0.1-0.7,0-0.7C876.2,660.6,876.2,661.2,876.4,661.2z M896.1,596.4c0.3,0,0.3-0.4,0-0.4C895.7,595.9,895.7,596.4,896.1,596.4
		z M907.7,630.6c0,0.4-0.3,1.2-0.4,1.8v-0.1c0-0.7-0.1-1.7,0.4-1.8V630.6z"/>
	<path class="st2" d="M920,637.6c0.1-0.1,1.2-3.3,2.2-3.3c0.5,0,1.4,0.7,1.9,0.8c0.1,0,0.3,0.1,0.4,0.1c0.7,0,0.7,0.1,0.8,0.1
		c1.5,0,4.3,1.8,5.2,3.2l1.2,2.5l3.4,5.5l0.1,0.1c0.1,0,1,0.7,1.1,0.8c1,0.7,1.4,6.7,2.1,8.5l1.5,3.2c0.4,0.8,0.1,1.1,1,1.1
		c2.9,0,2.8-2.3,4.5-3.3h0.8l0.7-0.7c3.4-6.6,1.6-4.8,2.5-12.1v-0.4c0-2.9-3.2-7.1-13.2-13.3c-2.6-0.7-6.2-3-8.5-4.3
		c-5.5-2.7-10.7-7.3-10.7-14c0-9.3,1.7-25.8,10.3-31.1c4.5-2.8,11.7-3,16.6-3c5.6,0,11.1,3,16.2,5.5c2.5,1,6,3,7.7,5.2
		c1.9,2.5,2.5,8,2.9,10.6c0.3,1.6,0.8,2.9,0.8,4.5c0,3.3-0.8,3.4-1.8,5.5c-2.3,1-3.8,2.1-6.5,2.1c-2.3,0-4.4-0.3-6.6-0.8
		c-0.1,0-1-0.1-1-0.3c-0.1,0-0.3-0.3-0.3-0.4h-0.1c0,0.1-0.3,0.3-0.3,0.3l-0.1,0.1l-0.1-0.1c-1.6-1.1-2.3-2.2-2.6-4.4
		c-0.1-0.7-0.5-5.4-0.5-5.9l-1-4.7c-0.4-2.1-2.3-6.6-4.7-6.6h-5.6c0,0-0.8,0-1,0.1c-0.4,0.1-2.6,1.8-3,2.1c-1.4,1-3.7,11.8-2.7,15
		c0.3,1.6-0.1,2.6,1.2,4l0.5,0.5c1,1.1,2.3,2.6,3.6,3l16.4,9.8c11.5,7,14.3,11.7,14.3,19.5v1l-0.3,0.1c0,0.1,0.1,1,0.3,1.2v0.3
		c0,1.4-0.7,1.6-0.4,3.3c-0.3-0.4-0.3-0.3-0.7-0.3c0,2.3-0.3,3.3-0.3,4.1l-0.5,1.2c-0.1,0,0,0.1,0,0.3c-1,3.3-4.1,9.1-6.9,11.8
		c-4,4.1-16.4,5.8-21.4,5.8c-15.9,0-20.1-12.5-20.1-26C919.5,642.4,919.5,640.8,920,637.6z M950.1,649.7c0.1-0.1,0.1-0.3,0-0.3
		C950,649.3,950,649.7,950.1,649.7z M968.4,652.6v-0.1c0-0.1,0-0.3,0.1-0.4C968.4,652.4,968.4,652.7,968.4,652.6z M968.6,652
		c0.1-1,0.4-3.2,0.4-2.8C969,650.2,968.8,651.2,968.6,652z"/>
	<path class="st2" d="M980.1,603.4c1.1-5.6,2.8-13.3,6.7-17.9c1.4-1.5,3.2-3,4.8-4.3c2.7-2.3,6.2-2.6,10-2.6c0.1,0,1.5-0.1,1.9-0.1
		c2.3,0,11.7,0.1,14,1c1.2,0.7,7.6,4,9.1,4.7c2.7,1.4,5.1,3.7,6.3,6.6c0.5,1.2,0.7,2.6,1.5,3.8c0.7,3.2,1.2,7,1.2,10.2
		c0,0.3-0.4,1.7-0.4,1.8v4c0.7,0.8,1.1,4.4,1.1,5.5v7.1c0,0.3,0.1,1.8,0.1,1.9v0.4c0,1.9-0.4,3.8-0.4,5.8c0,0.8,0.3,1.4,0.3,2.1
		c0,1.6-0.4,3.3-0.5,4.9c0,0.5-0.1,2.8-0.1,3l-0.5,8.9c-0.4,0.7-0.4,2.2-0.5,2.9v1.1c-0.3,1.8-0.7,3.8-1.6,5.2
		c-6,13.2-21.7,10.6-35.2,10.6c-14,0-18.3-9.3-19.5-21.9l-1.1-11.5v-6.5C977.2,621.1,978.5,612.3,980.1,603.4z M1001.8,658.5h0.8
		c-2.1,0,8.1,5.1,12.2-1.8c0.3-0.4,0.4-1.1,0.4-1.2c0.4-1,0.7-2.2,0.8-3.3c0-0.5,0.4-4.3,0.4-5.4l1.1-18.3v-28
		c-0.3-0.8-0.8-4.8-1.1-5.6c-0.1-1.5-1.4-5.8-3.6-5.8c-8.1,0-14.7,0-14.7,11v8c0.1,0.1,0.1,0.7,0.3,0.8v0.1c0,4-0.4,8.8-0.5,12.5
		c0,1.4,0.3,4-0.1,5.5v4.1c0,4,0.1,8.1,0.4,12.2c1,1.5,0.4,4.4,0.8,6.5c0.4,2.7,1.6,5.4,2.3,8.1L1001.8,658.5z"/>
	<path class="st2" d="M1042.6,610c0.3-8.2-0.5-16.5-0.5-24.6c0-0.7,0.1-4.1,0.1-4.8c0.4-1.4,0.8-1.5,2.2-1.5c1.6,0,4,0,5.4,0.3
		c4.7,0.5,7.7,3.4,11.4,5.8c6.3,6,9.6,13.7,12.8,21.7c1,2.3,1.5,4.9,2.6,7.1c2.3,5.1,5.2,10,7.8,15c1.1,1.8,1.7,3.7,2.3,5.5
		c1.2,2.8,2.2,4.4,3.2,6.7v-2.1c0-18.8-0.1-37.7-0.1-56.5c-0.5,0-0.5-0.1-1.1,0.3v-0.3c0-0.7,1.2,0,1.2-2.1c0-0.1-0.3-0.3-0.3-0.4
		c0.7-0.1,0.8-1.1,1.1-1.5c0.3,0,0.8,0,1.1-0.3h5.5c0.8,0.4,1.2,0,2.1,0.3c0.1,0,0.6,0.1,0.7,0.3c1.2,0.6,2.8,0.7,4.3,1.1
		c0.5,0.3,1.1,0.8,1.8,1.2c0.8,0.3,1.6,0.1,1.9,1.2c0.3,0.7,1.1,2.1,1.1,3c0,3.6-0.7,7.3-1.8,10.7c-1.2,1-0.5,1.6-1.2,2.7h-0.1
		c-0.1,0.3-0.3,2.2-0.3,2.5c0,4.4,0.4,8.8,0.4,13.2v1.9c0,1.2-0.7,7.1-0.8,8.4l0.5,27.9c0.1,0.5,0.1,1.1,0.1,1.6v1.1
		c0,0.1-0.1,1-0.1,1.1c0,0.3,0.4,2.3,0.4,2.7c0,0-0.3,1.2-0.3,1.7c0,0-0.1,0.5-0.1,0.7c0,1.2,0.1,1.5,0.4,2.5v0.3
		c0,0.5-0.7,1-0.8,1.5v1.9c-0.3,0.7-2.5,1.1-3.2,1.1c-1.7,0-0.5-1.4-1.8-1.4c-0.8,0-1.4,0.4-2.2,0.8c-1.9,0.7-3.4,1.4-5.6,1.4
		c-6.6,0-7.4-3.7-10.9-9.8c-2.6-5.6-5.5-11.1-8.5-16.6c-0.1-0.1-0.5-0.7-0.5-0.7s-0.4-0.1-0.5-0.1c-0.1-0.3-0.4-1.2-0.4-1.5
		l-11.4-21.6c-0.1,0.1-0.3,0.7-0.3,0.8c-0.4,2.6-0.3,4.8-0.3,7.7v4.9c0.6,1.2,0.6,2.8,0.6,4.1c0,1.2-1.8,5.8-2.1,6.9
		c-0.3,2.2-0.7,4.8-0.7,7v0.1c0.1,0,0.8,0.3,1,0.4c0.1,0,0.1,0.5,0.3,0.5l2.9,4.5v5.8c0,0.6,1.2,2.1,1.2,3.6c0,2.6-8.5,4.9-10,4.9
		h-0.4c-1.8,0-4.7,0-6-1.2c-0.8-0.7-0.7-0.8-1.1-1.7c-0.1-0.5-0.7-0.8-0.8-1.4c-1-2.5-0.4-6-0.5-8.1c0-1.1-0.6-6.3-0.6-7.4
		L1042.6,610z M1090.2,641.6c0.1,0,0.1-0.1,0-0.1S1090.1,641.7,1090.2,641.6z M1092.7,579.3c0.1,0,0.1-0.4,0-0.4
		C1092.3,578.9,1092.3,579.3,1092.7,579.3z M1054.4,666.5c0.5,0,1.2-0.3,1.4-0.7c0.1-0.4,0.3-2.5,0.3-2.9c0-0.3-0.1-1.4-0.3-1.6
		L1054.4,666.5z M1104.1,667l0.1,0.3c0.4-0.1,0.8-0.5,0.8-1.1C1104.7,666.2,1104.1,666.6,1104.1,667z"/>
</g>
<g id="Layer_3">
	<path class="st1" d="M782.3,543c0,0,4.7-10.3,19-12.5c14.3-2.2-19,19.8-19,19.8V543z"/>
	<path class="st3" d="M710.7,570.4c0,0,29.7,16.1,68,0l4.6-52.4l-9-20.3l-25.9-10.5l-24.6,5l-11.5,10.5l-6,14.2l-1.2,19.8
		L710.7,570.4z"/>
	<path class="st1" d="M718.7,554.6c-25.6-38.9-2.5-70.4,26-35.5c28.5-34.9,51.5-3.4,26,35.5c3.6,5.5,6.2,10.8,8,15.8
		c5.4-9.7,8.6-21.8,8.6-35c0-32.1-19-58.1-42.5-58.1s-42.5,26-42.5,58.1c0,13.1,3.2,25.2,8.6,35
		C712.5,565.4,715.1,560.1,718.7,554.6z"/>
	<circle class="st1" cx="725.4" cy="523.9" r="3.8"/>
	<path class="st1" d="M746,535.4c0,0-5.9-2.9-1.7-6.6s8.9,3.3,8.9,3.3L746,535.4z"/>
	<circle class="st4" cx="726.8" cy="523.9" r="1.4"/>
	<circle class="st1" cx="765.1" cy="523.9" r="3.8"/>
	<circle class="st4" cx="766.5" cy="523.9" r="1.4"/>
	<g>
		<g>
			<g>
				<g>
					<g>
						<path class="st5" d="M745.1,530.6c0,0-0.1,0-0.1,0C745,530.6,745.1,530.6,745.1,530.6z"/>
						<polygon class="st5" points="745.3,530.7 745.3,530.7 745.4,530.8 						"/>
						<path class="st5" d="M745.4,530.9C745.5,530.9,745.3,530.9,745.4,530.9l0.1-0.1l-0.1,0C745.3,530.9,745.4,530.9,745.4,530.9z"
							/>
						<path class="st5" d="M745,531.1C745.1,531.1,745.1,531.1,745,531.1L745,531.1C745,531.1,745,531.1,745,531.1z"/>
						<path class="st5" d="M745,531.1C745,531.1,745,531.1,745,531.1L745,531.1z"/>
						<path class="st5" d="M745.1,531.2L745.1,531.2c-0.1,0-0.1,0-0.1,0C745,531.2,745,531.2,745.1,531.2z"/>
						<path class="st5" d="M745.2,531.2L745.2,531.2C745.2,531.2,745.2,531.2,745.2,531.2z"/>
						<path class="st5" d="M745.1,531.1L745.1,531.1C745.2,531.1,745.3,531.1,745.1,531.1C745.2,531.1,745.2,531.1,745.1,531.1z"/>
						<path class="st5" d="M745.1,531.1c0,0,0.1,0,0.1,0C745.2,531,745.1,531.1,745.1,531.1z"/>
						<path class="st5" d="M745.6,530.9L745.6,530.9L745.6,530.9C745.6,530.9,745.5,530.9,745.6,530.9z"/>
						<path class="st5" d="M745,531.4c0,0,0.1,0,0.1-0.1L745,531.4C745.1,531.3,745.1,531.3,745,531.4z"/>
						<path class="st5" d="M745.2,531.3L745.2,531.3C745.2,531.3,745.2,531.3,745.2,531.3z"/>
						<polygon class="st5" points="745.4,531.1 745.3,531.1 745.4,531.1 						"/>
						<polygon class="st5" points="745.1,531.5 745,531.5 745.1,531.5 						"/>
						<path class="st5" d="M745.1,531.5c-0.1,0-0.1,0.1-0.2,0.1C745,531.6,745,531.6,745.1,531.5
							C745.1,531.6,745.1,531.6,745.1,531.5z"/>
						<path class="st5" d="M745.2,531.6C745.2,531.6,745.1,531.6,745.2,531.6C745.1,531.6,745.1,531.6,745.2,531.6z"/>
						<path class="st5" d="M745.2,531.4C745.2,531.4,745.2,531.4,745.2,531.4L745.2,531.4L745.2,531.4z"/>
						<path class="st5" d="M745.2,531.4L745.2,531.4C745.2,531.4,745.2,531.4,745.2,531.4C745.2,531.4,745.2,531.4,745.2,531.4z"/>
						<path class="st5" d="M745.2,531.4L745.2,531.4C745.2,531.4,745.3,531.4,745.2,531.4z"/>
						<path class="st5" d="M745.3,531.2c0.1,0,0.1,0,0.2,0C745.5,531.2,745.4,531.2,745.3,531.2z"/>
						<path class="st5" d="M745.4,531.3L745.4,531.3C745.3,531.3,745.3,531.3,745.4,531.3L745.4,531.3z"/>
						<polygon class="st5" points="745.4,531.3 745.4,531.3 745.4,531.3 						"/>
						<path class="st5" d="M745.3,531.5C745.3,531.5,745.3,531.5,745.3,531.5C745.3,531.5,745.3,531.5,745.3,531.5
							C745.3,531.5,745.2,531.5,745.3,531.5z"/>
						<path class="st5" d="M745.3,531.4L745.3,531.4C745.3,531.4,745.3,531.4,745.3,531.4z"/>
						<polygon class="st5" points="745.4,531.7 745.4,531.7 745.4,531.7 						"/>
						<path class="st5" d="M745.4,531.5C745.4,531.4,745.3,531.4,745.4,531.5C745.3,531.5,745.3,531.5,745.4,531.5
							C745.3,531.5,745.4,531.5,745.4,531.5z"/>
						<path class="st5" d="M745.2,531.6C745.3,531.6,745.3,531.6,745.2,531.6C745.3,531.6,745.2,531.6,745.2,531.6z"/>
						<path class="st5" d="M745.2,531.5L745.2,531.5C745.2,531.5,745.2,531.5,745.2,531.5z"/>
						<path class="st5" d="M745.2,531.5C745.3,531.5,745.3,531.5,745.2,531.5C745.3,531.4,745.3,531.4,745.2,531.5
							C745.3,531.4,745.2,531.4,745.2,531.5z"/>
						<path class="st5" d="M746,531.4C745.9,531.5,745.8,531.5,746,531.4c-0.2,0-0.5,0.1-0.6,0.2c0,0,0.1,0,0.1,0
							c0,0,0.1-0.1,0.2-0.1c0.1,0,0,0-0.1,0.1C745.8,531.5,745.8,531.5,746,531.4L746,531.4C746,531.4,746,531.4,746,531.4z"/>
						<path class="st5" d="M745.4,531.6L745.4,531.6c0,0-0.1,0-0.1,0.1C745.3,531.7,745.4,531.7,745.4,531.6L745.4,531.6
							L745.4,531.6z"/>
						<path class="st5" d="M745.3,531.6c0.1,0,0.2,0,0.3-0.1c0,0-0.1,0-0.1,0C745.5,531.5,745.4,531.5,745.3,531.6
							C745.3,531.5,745.3,531.5,745.3,531.6C745.3,531.5,745.3,531.6,745.3,531.6L745.3,531.6L745.3,531.6L745.3,531.6
							C745.3,531.6,745.3,531.6,745.3,531.6L745.3,531.6L745.3,531.6C745.3,531.6,745.3,531.6,745.3,531.6L745.3,531.6L745.3,531.6
							L745.3,531.6C745.4,531.6,745.4,531.6,745.3,531.6z"/>
						<path class="st5" d="M745.8,531.1L745.8,531.1C745.8,531.1,745.8,531.1,745.8,531.1z"/>
						<path class="st5" d="M745.7,531.2C745.7,531.2,745.6,531.2,745.7,531.2C745.7,531.1,745.7,531.1,745.7,531.2
							C745.7,531.1,745.7,531.1,745.7,531.2L745.7,531.2c-0.1,0-0.2,0.1-0.2,0.1C745.6,531.2,745.6,531.2,745.7,531.2z"/>
						<path class="st5" d="M745.5,531.3L745.5,531.3l0.1,0L745.5,531.3C745.7,531.3,745.6,531.3,745.5,531.3z"/>
						<polygon class="st5" points="745.3,531.7 745.2,531.7 745.4,531.7 						"/>
						<polygon class="st5" points="745.4,531.8 745.3,531.8 745.4,531.8 						"/>
						<path class="st5" d="M748.4,532.6L748.4,532.6L748.4,532.6z"/>
						<path class="st5" d="M748.3,532.6L748.3,532.6C748.3,532.6,748.3,532.6,748.3,532.6z"/>
						<path class="st5" d="M746.3,532.9c0,0.1-0.1,0.2,0,0.1L746.3,532.9C746.3,533,746.3,533,746.3,532.9z"/>
						<path class="st5" d="M747.5,532.9L747.5,532.9C747.5,532.9,747.5,532.9,747.5,532.9L747.5,532.9z"/>
						<path class="st5" d="M747.7,532.5L747.7,532.5C747.7,532.6,747.7,532.5,747.7,532.5z"/>
						<path class="st5" d="M748.8,532.6l0-0.1C748.8,532.5,748.8,532.6,748.8,532.6z"/>
						<path class="st5" d="M745.8,532.3C745.7,532.3,745.7,532.3,745.8,532.3C745.8,532.3,745.8,532.2,745.8,532.3z"/>
						<path class="st5" d="M748,533.7C748,533.7,748,533.7,748,533.7C748,533.7,748,533.7,748,533.7z"/>
						<path class="st5" d="M745.8,532.4C745.8,532.4,745.8,532.4,745.8,532.4C745.8,532.4,745.7,532.4,745.8,532.4
							C745.7,532.4,745.7,532.4,745.8,532.4z"/>
						<path class="st5" d="M750.3,532.9C750.3,532.9,750.3,532.9,750.3,532.9C750.3,532.9,750.3,532.9,750.3,532.9z"/>
						<path class="st5" d="M750.8,534C750.8,534,750.8,534,750.8,534C750.8,534,750.8,534,750.8,534z"/>
						<path class="st5" d="M745.5,532C745.5,532,745.5,532,745.5,532L745.5,532z"/>
						<path class="st5" d="M745.8,531.7C745.8,531.7,745.8,531.7,745.8,531.7C745.8,531.7,745.8,531.7,745.8,531.7z"/>
						<path class="st5" d="M746.4,532.1L746.4,532.1C746.4,532,746.4,532,746.4,532.1z"/>
						<path class="st5" d="M745.5,532C745.5,532,745.5,532,745.5,532C745.5,532,745.5,532,745.5,532z"/>
						<path class="st5" d="M745.5,532C745.5,532,745.5,532,745.5,532C745.4,532,745.4,532,745.5,532z"/>
						<path class="st5" d="M745.5,532C745.5,532,745.5,532,745.5,532C745.5,532,745.5,532,745.5,532L745.5,532z"/>
						<path class="st5" d="M749.4,533.1L749.4,533.1C749.5,533.1,749.5,533.1,749.4,533.1z"/>
						<polygon class="st5" points="747.3,532.2 747.3,532.2 747.3,532.2 						"/>
						<path class="st5" d="M747.3,532.2C747.2,532.3,747.2,532.3,747.3,532.2l-0.2,0.3L747.3,532.2z"/>
						<path class="st5" d="M748.5,532.7l0-0.1c0.1-0.1,0.1-0.1,0.1-0.2c-0.1,0.3-0.1,0-0.2,0.3L748.5,532.7
							C748.5,532.6,748.5,532.6,748.5,532.7c-0.1-0.2-0.2,0.2-0.2,0.1c0,0,0-0.1,0-0.1l-0.1,0.1c0,0,0-0.1,0-0.1l-0.1,0l0,0
							c0,0-0.1,0.1-0.1,0.2c0-0.1,0,0,0-0.1l-0.1,0.1c0-0.1,0.1-0.2,0.1-0.1c0.1-0.3,0,0.1,0-0.1l0,0c0-0.2,0-0.1,0-0.2
							c0,0.1,0,0.3-0.1,0.4c0,0,0,0,0,0c0-0.1,0-0.1,0-0.1l0.1-0.2c0,0-0.1,0.1-0.1,0.2c0,0,0-0.1,0.1-0.2c0,0,0,0.2-0.1,0.2
							c0-0.1,0,0-0.1,0.1c0-0.1,0-0.1,0.1-0.1l-0.1,0.1c0,0,0,0,0-0.1c0,0-0.1,0.1-0.1,0.2c-0.1,0.2,0.1-0.3-0.1-0.1
							c0,0,0-0.1,0.1-0.1c-0.1,0.1-0.1,0.1-0.2,0.2l0-0.1c0,0.1-0.1,0.2-0.2,0.3c0,0.1,0,0.1,0,0.1l-0.1,0.1c0,0,0-0.1,0.1-0.1l0,0
							c0-0.1,0.1-0.1,0.1-0.2l0,0.1c0.1-0.1,0.1-0.2,0.1-0.3c0,0,0,0,0,0c0,0,0,0,0-0.1c0,0,0,0,0,0l0.1-0.2l0,0.1l0-0.1
							c-0.1,0.1-0.3,0.4-0.4,0.4c0.1-0.1,0.1-0.2,0.2-0.3c-0.1,0.2,0.1,0,0.1,0c0,0,0-0.1,0-0.1l-0.1,0.1c0.1-0.1,0-0.1,0.1-0.1
							c-0.1,0.2-0.1,0.1-0.2,0.2c0-0.1,0.1-0.1,0.1-0.1c0.1-0.2-0.2,0.2-0.1,0.1c0,0,0,0,0,0c-0.1,0.1-0.1,0,0-0.1l0,0
							c0,0-0.1-0.1-0.2,0.1c0,0,0.2-0.2,0.2-0.2l-0.5,0.5c0.1-0.1,0.3-0.5,0.4-0.6c0,0,0-0.1,0,0c0,0-0.1,0.2-0.2,0.2
							c0.1-0.2,0-0.1,0.1-0.3c0,0-0.2,0.3-0.2,0.2c0,0,0.2-0.2,0.2-0.2l-0.2,0.2c0,0,0.1-0.2,0.2-0.3c0,0,0,0-0.1,0l0,0.1
							c0-0.1-0.3,0.3-0.3,0.2c0,0,0.2-0.3,0.2-0.3c-0.1,0.1-0.5,0.5-0.6,0.5l0-0.1l-0.1,0c0.2-0.1,0.5-0.4,0.7-0.6
							c0-0.1,0.1-0.1,0-0.1c0-0.1,0.1-0.1,0.1-0.1l0-0.1c-0.1,0.1-0.1,0.1-0.2,0.2l0.2-0.1c-0.1,0.1-0.3,0.3-0.4,0.3
							c0-0.1,0.2-0.2,0.2-0.3c0,0-0.1,0.1-0.1,0l0.1-0.1c0-0.1-0.2,0.1-0.1,0c0,0,0.1-0.2,0.1-0.1c-0.1,0.1-0.5,0.6-0.7,0.7
							c0,0,0.1-0.2,0.1-0.2c0.1-0.1,0.3-0.2,0.4-0.3c0,0-0.1,0.1-0.1,0.1c0,0,0.1-0.1,0.1-0.1c-0.1,0.1,0,0-0.1,0.1
							c-0.1,0,0,0,0-0.1c-0.1,0.1-0.3,0.2-0.4,0.2c0,0,0.1-0.1,0.1-0.1c0,0,0-0.1,0-0.2c0,0,0.1-0.1,0.1-0.1c0,0-0.1,0-0.1,0
							c0.1-0.1,0,0,0.2-0.1c-0.1,0.1-0.1,0.1-0.2,0.1c-0.1,0.1,0,0.1,0.1,0c-0.2,0.1-0.4,0.2-0.5,0.3c-0.1,0,0.1-0.1,0.1-0.1
							c0-0.1-0.3,0.2-0.3,0c0.1-0.1,0.2-0.1,0.3-0.2c0.1,0,0,0.1,0,0.1l0-0.1c0,0,0.1,0,0.1,0c0.1-0.1-0.1-0.1,0-0.2
							c0,0-0.1,0-0.1,0.1l0,0c-0.1,0.1-0.1,0-0.2,0.1c-0.1,0-0.2,0-0.2,0l0.1-0.1c0,0-0.1,0.1,0,0.1c-0.1,0,0.2-0.2,0-0.1l-0.1,0.1
							c-0.1,0-0.2,0.1-0.2,0c-0.1,0.1,0,0-0.1,0.1c0.2-0.1,0,0.1,0.2-0.1c-0.2,0.1-0.1,0.1-0.2,0.2c0,0,0.1-0.1,0.1,0c0,0,0,0,0,0
							l0,0l0,0c0,0,0,0,0,0c0,0,0,0,0.1-0.1c0.1,0,0.1,0,0.2,0c0,0-0.1,0-0.1,0.1l0.1,0c-0.1,0.1-0.1,0.1-0.2,0.1l0,0
							c0,0.1,0,0.1,0,0.1c0,0,0.1,0,0,0l0.1,0l0,0c0,0.1,0.2,0,0.1,0.2c0,0,0.1,0,0.1,0l-0.1,0.1c0,0,0,0.1,0.1,0.1
							c-0.2,0.2,0,0.1,0,0.2l0.1-0.1c0,0,0.1,0,0.1,0l0.1-0.1c0.1,0,0,0.1,0,0.1c0,0,0,0,0,0c-0.1,0.2,0.2-0.1,0.1,0.1c0,0,0,0,0,0
							l0,0l0,0c0,0,0,0,0,0.1c0,0,0,0,0-0.1c0,0,0,0,0.1,0l-0.1,0.1l0,0c0,0,0,0,0.1-0.1c0,0,0,0,0.1,0c-0.1,0.2,0.1,0,0,0.1
							c0.1-0.1,0.1,0,0.2-0.2c0,0,0,0,0,0c0,0,0,0.1,0,0l-0.1,0.1l0.2-0.1c0,0.1-0.1,0.1-0.1,0.2c0.1-0.1,0.1,0,0.2-0.2l-0.1,0.1
							c0,0,0.1-0.1,0.1,0c-0.1,0.2,0.1,0.1,0.1,0.3c0.1-0.3,0,0.1,0.1-0.1c0,0.1,0,0.1-0.1,0.1c0.1,0,0,0.1,0.1,0
							c0,0.1-0.1,0.1-0.1,0.1c0,0,0,0,0,0c0,0,0,0-0.1,0.1c0.1,0,0.2-0.2,0.2-0.3c0,0.1,0,0.1,0.1,0c0,0.1,0,0.1-0.1,0.1
							c0,0,0.1,0.1,0.1,0c0,0,0,0,0,0c0,0,0,0,0.1,0l0,0c0.1-0.2,0,0,0.1,0l0,0c0,0.2,0.1-0.1,0.1,0.1l0-0.1c0.1-0.2,0,0.2,0.1,0.1
							l0-0.1c0-0.1-0.1,0.3-0.1,0.4c0,0,0,0,0,0c0,0.2,0.1-0.1,0.1-0.2c0,0.1-0.1,0.2-0.1,0.2c0,0.1,0.2-0.2,0.2-0.1
							c0-0.1,0-0.1,0.1-0.2c0,0,0,0.3,0.1,0.1l0,0.1c0,0,0.1-0.1,0.1-0.2c-0.1,0.4,0.2-0.2,0.1,0.2l0.1,0l0,0c0,0,0.1-0.1,0.1-0.1
							c0,0,0,0.1,0,0.1c0,0.1,0.1,0.1,0.1-0.1l0,0.1c0-0.1,0.1,0.2,0.1,0.1c0,0,0,0,0,0.1c0.1-0.1,0.1,0.4,0.2-0.1l0.1-0.1
							c-0.1,0,0-0.2,0-0.3c0,0,0,0.1,0,0.2l0,0c0,0.2,0.1,0.1,0,0.3c0.1,0,0.2,0.1,0.3,0.2l0-0.2l0,0c0,0,0,0.1,0,0.1
							c0,0.1,0.1-0.1,0.1-0.1c0,0.1,0,0.2,0,0.2l0,0l0,0c0-0.1,0-0.2,0.1-0.1c0,0,0,0.1,0,0.1c0,0,0,0,0,0l0,0l0-0.1
							c0-0.1,0,0,0-0.2c0,0.3,0.2,0.1,0.2,0.2c0-0.1,0.1-0.1,0.1-0.1c0,0,0-0.2,0-0.2c0,0.3,0,0.1,0.1,0.4c0-0.2,0.1,0,0.1-0.3
							c0,0,0,0.1,0,0.2c0.1-0.1,0.1,0.1,0.2,0.1c0,0,0-0.1,0-0.2l0,0.2c0,0,0-0.3,0-0.1c0,0,0-0.1,0-0.1c0.1,0.2,0.3-0.2,0.4,0.2
							c0-0.1,0-0.1,0-0.1c0,0,0-0.1,0-0.2l0.1,0.2c0-0.2,0.1,0,0.1-0.2l0,0c0-0.2,0-0.4,0-0.7c0,0.2-0.1-0.3-0.1,0c0,0,0-0.1,0-0.1
							c0,0.1,0,0.1-0.1,0.1l0,0c-0.1,0-0.1-0.1-0.2-0.2l0,0.1c0,0,0-0.1,0-0.1c0,0.2,0.1,0,0,0.2c0-0.2-0.1,0-0.1-0.3
							c0,0,0,0.1,0,0.1l0-0.1l0,0.1c0,0,0-0.1,0-0.2c0,0,0,0,0,0c0-0.1-0.1,0-0.1,0l0,0c-0.1,0.1-0.2,0-0.2,0.1l0,0.1
							c-0.1,0.1,0-0.1-0.1,0l0,0c0,0.1,0,0.1-0.1,0.1c0-0.1,0-0.1,0-0.2c-0.1,0.1,0,0.1-0.1,0.3l0-0.1c0,0.1,0,0.1-0.1,0.1
							c0-0.1,0-0.1,0-0.2c0-0.2-0.1,0.2-0.1-0.1c-0.1,0.3,0,0.1,0,0.2c0,0.1,0,0.2-0.1,0.2c0,0,0-0.3-0.1-0.3c0,0,0,0,0,0
							c0-0.1,0,0.1-0.1,0c0,0.2,0,0-0.1,0.2l0.1,0c0,0-0.1,0.3-0.1,0.2c0,0,0-0.1,0-0.1c0-0.1,0,0,0,0c0-0.2,0.1,0,0.1-0.2
							c0-0.1-0.1,0.1,0-0.1c0,0.3,0,0-0.1,0.2l0-0.1c0,0,0,0.1,0,0.1l0-0.2c0,0.1,0-0.1-0.1-0.1c0.1,0,0,0.1,0,0.2
							c-0.1,0.1,0-0.3-0.1-0.3c0,0,0,0.1,0,0.1c0,0,0-0.1,0-0.1c-0.1,0,0,0.1,0,0.2c0-0.1,0,0.1-0.1,0.1l0-0.1
							c0-0.1-0.1,0.2-0.1,0.1l0-0.2l0,0l0-0.1c0,0.1,0,0.1-0.1,0c0,0.1,0,0.2-0.1,0.2c0-0.1,0-0.1,0-0.1c0-0.1,0-0.2,0-0.1l0-0.1
							c0-0.1,0,0-0.1,0c0,0,0,0,0,0l-0.1,0.2c0,0,0-0.1,0-0.1c0,0,0,0.1,0,0.1c0-0.1,0-0.2,0.1-0.2l-0.1,0.1c0,0,0-0.1,0-0.2
							c0-0.1-0.1,0.2-0.1,0.1c0,0,0,0,0,0c0,0,0-0.2-0.1,0l0-0.2c0,0,0,0.2-0.1,0.3C748.5,532.8,748.6,532.6,748.5,532.7
							C748.6,532.6,748.5,532.8,748.5,532.7C748.5,532.6,748.5,532.7,748.5,532.7z M748.2,532.6
							C748.2,532.6,748.2,532.5,748.2,532.6C748.2,532.7,748.2,532.7,748.2,532.6z M747.5,532.7
							C747.6,532.6,747.6,532.7,747.5,532.7C747.5,532.7,747.5,532.7,747.5,532.7z M745.6,532.1L745.6,532.1
							C745.6,532.1,745.6,532.1,745.6,532.1z M745.6,532C745.6,532,745.6,532,745.6,532C745.6,532,745.6,532,745.6,532
							C745.7,532,745.7,532,745.6,532z M749.5,533.9L749.5,533.9C749.5,533.9,749.5,533.9,749.5,533.9z"/>
						<path class="st5" d="M747.7,532.6L747.7,532.6C747.7,532.6,747.7,532.6,747.7,532.6z"/>
						<polygon class="st5" points="748.8,532.6 748.8,532.6 748.8,532.6 						"/>
						<path class="st5" d="M746.8,531.8C746.8,531.9,746.8,531.9,746.8,531.8C746.8,531.9,746.8,531.9,746.8,531.8z"/>
						<path class="st5" d="M745.3,531.9L745.3,531.9C745.4,531.9,745.4,531.9,745.3,531.9C745.4,531.9,745.4,531.9,745.3,531.9z"/>
						<path class="st5" d="M745.9,531.4C745.9,531.4,745.9,531.4,745.9,531.4L745.9,531.4C745.8,531.4,745.9,531.4,745.9,531.4z"/>
						<path class="st5" d="M745.7,531.7C745.8,531.6,745.7,531.7,745.7,531.7L745.7,531.7C745.6,531.7,745.6,531.7,745.7,531.7z"/>
						<path class="st5" d="M745.7,531.6C745.7,531.6,745.7,531.6,745.7,531.6C745.6,531.7,745.7,531.6,745.7,531.6z"/>
						<path class="st5" d="M745.6,532C745.6,532,745.4,532.1,745.6,532C745.4,532.1,745.6,532,745.6,532z"/>
						<polygon class="st5" points="746,531.5 745.9,531.6 746,531.6 						"/>
						<path class="st5" d="M746,531.7L746,531.7C746,531.7,745.9,531.7,746,531.7C745.9,531.7,745.9,531.7,746,531.7z"/>
						<path class="st5" d="M745.9,531.7C745.9,531.7,745.9,531.6,745.9,531.7C745.9,531.7,745.9,531.7,745.9,531.7z"/>
						<polygon class="st5" points="746,531.5 746,531.6 746,531.6 						"/>
						<path class="st5" d="M746.1,532L746.1,532C746.2,531.9,746.2,531.9,746.1,532C746.2,531.9,746.1,531.9,746.1,532z"/>
						<path class="st5" d="M746.3,531.7C746.3,531.7,746.3,531.7,746.3,531.7L746.3,531.7L746.3,531.7z"/>
						<path class="st5" d="M746.4,531.7C746.4,531.7,746.5,531.7,746.4,531.7C746.5,531.7,746.4,531.7,746.4,531.7z"/>
						<polygon class="st5" points="746.5,532.2 746.5,532.2 746.3,532.3 						"/>
						<path class="st5" d="M747.2,532C747.2,531.9,747.1,532.1,747.2,532c-0.1,0.1-0.1,0.1-0.1,0.1
							C747.1,532.1,747.1,532.1,747.2,532z"/>
						<path class="st5" d="M747.1,532.1C747,532.1,747,532.1,747.1,532.1C747,532.1,747,532.1,747.1,532.1z"/>
						<polygon class="st5" points="750.9,534.1 750.9,534.2 750.9,534.1 						"/>
						<path class="st5" d="M750.9,534l0,0.2L750.9,534C750.9,534,750.9,534,750.9,534z"/>
						<path class="st5" d="M748.2,532.3L748.2,532.3C748.2,532.4,748.2,532.4,748.2,532.3L748.2,532.3z"/>
						<polygon class="st5" points="748.4,532.5 748.4,532.5 748.4,532.6 						"/>
						<path class="st5" d="M748.7,532.4C748.7,532.4,748.7,532.4,748.7,532.4C748.7,532.4,748.6,532.5,748.7,532.4z"/>
					</g>
				</g>
			</g>
		</g>
	</g>
	<g>
		<path class="st0" d="M794.6,540.8c1.4-5.2,2.8-10.5,4.2-15.7c1.4-2.3,2.8-4.7,4.2-7c0.3,3.1,0.5,6.2,0.8,9.2
			c-1.1,4.9-2.2,9.9-3.3,14.8L794.6,540.8z"/>
		
			<rect x="795.1" y="540.4" transform="matrix(0.217 -0.9762 0.9762 0.217 93.6633 1203.5856)" class="st2" width="4" height="6.1"/>
		<path class="st1" d="M801.3,520.8c0,0,0.5,1.9,2,0.4L803,518L801.3,520.8z"/>
	</g>
</g>
</svg>
